<?xml version="1.0" standalone="no"?>
<!DOCTYPE svg PUBLIC "-//W3C//DTD SVG 1.1//EN" "http://www.w3.org/Graphics/SVG/1.1/DTD/svg11.dtd" >
<svg xmlns="http://www.w3.org/2000/svg">
<metadata></metadata>
<defs>
<font id="rleud-thinuploaded_file" horiz-adv-x="1079" >
<font-face units-per-em="2048" ascent="1581" descent="-467" />
<missing-glyph horiz-adv-x="526" />
<glyph unicode="&#xfb01;" horiz-adv-x="999" d="M49 973v51h193v74q0 82 16 146.5t53 109.5t96.5 68.5t145.5 23.5q63 0 115.5 -9.5t95.5 -25.5l-12 -51q-86 33 -195 33q-76 0 -125 -20.5t-78.5 -59.5t-41 -95.5t-11.5 -125.5v-68h522v-1024h-59v973h-463v-973h-59v973h-193z" />
<glyph unicode="&#xfb02;" horiz-adv-x="1024" d="M49 973v51h193v70q0 82 15 147.5t53 111.5t103.5 69.5t166.5 23.5q66 0 134 -9.5t132 -27.5v-1409h-60v1368q-41 12 -94 18.5t-112 6.5q-86 0 -140.5 -19.5t-85 -58.5t-42 -95.5t-11.5 -129.5v-66h291v-51h-291v-973h-59v973h-193z" />
<glyph horiz-adv-x="0" />
<glyph horiz-adv-x="0" />
<glyph unicode="&#xd;" horiz-adv-x="352" />
<glyph unicode=" "  horiz-adv-x="526" />
<glyph unicode="&#x09;" horiz-adv-x="526" />
<glyph unicode="&#xa0;" horiz-adv-x="526" />
<glyph unicode="!" horiz-adv-x="466" d="M180 43q0 23 12 39t41 16t41.5 -16t12.5 -39q0 -20 -12.5 -35.5t-41.5 -15.5t-41 15.5t-12 35.5zM199 1434h69l-10 -1078h-49z" />
<glyph unicode="&#x22;" horiz-adv-x="520" d="M115 1434h61l-8 -502h-45zM344 1434h62l-7 -502h-47z" />
<glyph unicode="#" d="M45 406v53h211l88 514h-205v55h213l70 406h59l-69 -406h362l68 406h59l-70 -406h203v-55h-211l-90 -514h205v-53h-213l-68 -406h-59l70 406h-365l-67 -406h-58l68 406h-201zM313 459h365l86 514h-363z" />
<glyph unicode="$" d="M119 328h59q0 -70 17.5 -123t59.5 -90t111.5 -55.5t172.5 -18.5q190 0 273 81t83 226q0 74 -18.5 128t-61.5 97t-113 78t-170 70q-98 33 -172.5 70.5t-126 85t-77 109t-25.5 142.5q0 74 19.5 131.5t64.5 98.5t118 63.5t179 24.5v213h57v-213q100 -4 169 -27.5t111 -65.5 t61.5 -99.5t19.5 -127.5h-60q0 61 -16 111.5t-55 84.5t-102.5 52.5t-157.5 18.5q-100 0 -167 -17.5t-107 -51.5t-56 -83t-16 -113q0 -68 20 -120t63 -93t111 -73.5t162 -65.5q113 -39 189.5 -79t124.5 -90t69.5 -113.5t21.5 -145.5q0 -166 -92 -260t-293 -102v-211h-57v213 q-109 2 -184.5 25.5t-121.5 67.5t-66.5 105.5t-20.5 141.5z" />
<glyph unicode="%" horiz-adv-x="1249" d="M78 1106q0 76 13 137.5t42 105.5t75 68.5t111 24.5q66 0 112 -24.5t75 -68.5t42 -105.5t13 -137.5t-13 -138.5t-42 -106.5t-75 -68.5t-112 -24.5t-111.5 24.5t-74.5 68.5t-42 106.5t-13 138.5zM131 1106q0 -63 9.5 -116.5t31 -91.5t57 -59.5t90.5 -21.5t91 21.5 t57.5 59.5t30 91t8.5 117q0 63 -8.5 115.5t-30 90.5t-57 59.5t-91.5 21.5q-55 0 -90.5 -21.5t-57 -59.5t-31 -90.5t-9.5 -115.5zM184 0l820 1434h63l-819 -1434h-64zM688 328q0 152 55.5 245t188.5 93q66 0 112 -25t74.5 -69t42 -106.5t13.5 -137.5q0 -152 -55.5 -244 t-186.5 -92q-133 0 -188.5 92t-55.5 244zM743 328q0 -127 40 -207t149 -80q106 0 146 80t40 207q0 63 -9 115.5t-30.5 91t-57.5 60t-89 21.5q-55 0 -91 -21.5t-57.5 -60t-31 -91t-9.5 -115.5z" />
<glyph unicode="&#x26;" horiz-adv-x="1198" d="M113 389q0 102 28.5 177t74.5 129.5t104.5 91t117.5 61.5q-51 68 -93 145.5t-42 180.5q0 123 74 198.5t235 75.5q152 0 222.5 -78t70.5 -196q0 -106 -44 -185.5t-89 -118.5h322v-53h-387v49q51 43 96 123t45 185q0 92 -55.5 156.5t-178.5 64.5q-131 0 -192.5 -61.5 t-61.5 -159.5q0 -57 17.5 -107.5t45.5 -96.5t60.5 -89t61.5 -82l600 -799h-70l-549 733q-16 20 -28.5 37.5t-22.5 34.5q-59 -23 -113.5 -55.5t-96.5 -82t-67.5 -118t-25.5 -160.5q0 -166 94 -257t275 -91q143 0 256 53l12 -53q-59 -29 -122.5 -42t-149.5 -13 q-199 0 -311.5 102t-112.5 301z" />
<glyph unicode="'" horiz-adv-x="317" d="M127 1434h63l-10 -502h-43z" />
<glyph unicode="(" horiz-adv-x="454" d="M152 569q0 266 63.5 483.5t171.5 405.5l35 -18q-117 -217 -163 -429t-46 -442q0 -229 46 -442t163 -428l-35 -18q-109 186 -172 404t-63 484z" />
<glyph unicode=")" horiz-adv-x="454" d="M33 -301q117 215 162 428t45 442t-45 441.5t-162 429.5l33 18q111 -188 174 -405.5t63 -483.5t-63.5 -484t-173.5 -404z" />
<glyph unicode="*" horiz-adv-x="886" d="M127 1159l23 62l270 -109l-8 322h63l-10 -322l270 109l25 -62l-285 -92l187 -256l-50 -43l-170 272l-168 -272l-51 43l187 256z" />
<glyph unicode="+" horiz-adv-x="901" d="M70 606v56h350v411h61v-411h350v-56h-350v-411h-61v411h-350z" />
<glyph unicode="," horiz-adv-x="385" d="M104 -256l64 358l82 -18l-103 -356z" />
<glyph unicode="-" horiz-adv-x="694" d="M68 647v53h561v-53h-561z" />
<glyph unicode="." horiz-adv-x="385" d="M139 43q0 23 11.5 39t42.5 16q29 0 40 -16t11 -39q0 -20 -11.5 -35.5t-39.5 -15.5q-31 0 -42.5 15.5t-11.5 35.5z" />
<glyph unicode="/" horiz-adv-x="544" d="M41 -41l405 1516h60l-406 -1516h-59z" />
<glyph unicode="0" horiz-adv-x="1169" d="M133 717q0 211 34 351t94.5 224t143.5 120t181 36t181 -36t143.5 -120t94 -224t33.5 -351t-33.5 -351.5t-94 -225.5t-143.5 -119.5t-181 -34.5t-181 34.5t-143.5 119.5t-94.5 225.5t-34 351.5zM193 717q0 -197 28.5 -327t80.5 -208t124 -109.5t160 -31.5q86 0 158.5 31.5 t124 109.5t80 208t28.5 327t-28.5 325.5t-80 206.5t-124 110t-158.5 32q-88 0 -160 -32t-124 -110t-80.5 -207t-28.5 -325z" />
<glyph unicode="1" horiz-adv-x="661" d="M45 1182l352 252h62v-1434h-60v1364l-336 -227z" />
<glyph unicode="2" horiz-adv-x="1007" d="M80 0v51l500 588q39 45 78.5 96t72.5 108.5t53.5 120t20.5 134.5q0 84 -23.5 140t-66.5 90t-104.5 48.5t-137.5 14.5q-98 0 -183 -18.5t-153 -47.5l-14 55q68 27 155 47.5t197 20.5q90 0 162 -18.5t123 -59.5t77.5 -107.5t26.5 -164.5q0 -76 -19.5 -142.5t-52 -126 t-75.5 -115t-88 -106.5l-469 -553h737v-55h-817z" />
<glyph unicode="3" horiz-adv-x="960" d="M57 55l13 54q72 -31 155.5 -49.5t184.5 -18.5q184 0 279 87t95 263q0 102 -29.5 168t-79.5 102.5t-114.5 51t-132.5 14.5h-170v55h168q61 0 121.5 16.5t106.5 53.5t75 95.5t29 142.5q0 152 -76 226.5t-250 74.5q-98 0 -178 -17.5t-152 -46.5l-12 53q72 29 156 48.5 t188 19.5q203 0 293 -93t90 -265q0 -92 -29.5 -154t-69.5 -98.5t-80 -55t-63 -26.5q43 -8 91.5 -28.5t87.5 -62.5t64.5 -107.5t25.5 -166.5q0 -203 -111.5 -304t-320.5 -101q-117 0 -200 19.5t-155 49.5z" />
<glyph unicode="4" horiz-adv-x="1011" d="M72 299v49l467 1086h61l-463 -1082h596v545h62v-545h186v-53h-186v-299h-62v299h-661z" />
<glyph unicode="5" horiz-adv-x="1030" d="M90 57l12 56q72 -29 157 -50.5t187 -21.5q195 0 305.5 100.5t110.5 321.5q0 104 -25.5 175t-70.5 115t-107.5 63.5t-136.5 19.5q-125 0 -210 -39t-142 -82h-51l39 719h696v-56h-643l-35 -602q23 18 56.5 38t77.5 37t98.5 28.5t117.5 11.5q88 0 162 -23.5t126 -75t81 -133 t29 -196.5q0 -125 -34 -215t-96.5 -148.5t-150.5 -86t-194 -27.5q-111 0 -199 21.5t-160 49.5z" />
<glyph unicode="6" horiz-adv-x="1064" d="M129 672q0 406 119 591t350 185q86 0 150.5 -15.5t119.5 -37.5l-16 -56q-53 27 -115.5 40.5t-138.5 13.5q-207 0 -305 -168t-105 -498q61 57 162 104.5t223 47.5q197 0 293.5 -106.5t96.5 -330.5q0 -217 -106.5 -336.5t-293.5 -119.5q-225 0 -329.5 178t-104.5 508z M188 662q2 -305 89.5 -464t281.5 -159q166 0 256 105.5t90 297.5q0 193 -78 287t-256 94q-55 0 -109 -13t-105.5 -34.5t-94.5 -51.5t-74 -62z" />
<glyph unicode="7" horiz-adv-x="952" d="M57 1376v58h793v-54l-533 -1380h-63l530 1376h-727z" />
<glyph unicode="8" horiz-adv-x="1085" d="M113 377q0 88 23.5 152.5t63.5 110.5t90 73.5t105 40.5v4q-49 12 -96 36.5t-85 65.5t-60.5 99.5t-22.5 138.5q0 160 98.5 255t313.5 95q213 0 310 -95.5t97 -254.5q0 -78 -22.5 -137.5t-59.5 -100.5t-84 -65.5t-96 -34.5q53 -18 104.5 -47t91.5 -74t64.5 -109.5 t24.5 -152.5q0 -106 -32 -180t-89 -121t-136 -68.5t-173 -21.5q-96 0 -175 21.5t-135.5 68.5t-88 120.5t-31.5 180.5zM170 379q0 -92 26.5 -156.5t76 -106.5t118 -60.5t152.5 -18.5h-2q82 0 150.5 18.5t117.5 60.5t76.5 106.5t27.5 156.5q0 84 -26.5 149.5t-73.5 109.5 t-110.5 67.5t-137.5 23.5h-45q-74 0 -138.5 -23.5t-111.5 -67.5t-73.5 -109.5t-26.5 -149.5zM190 1094q0 -141 88.5 -225.5t241.5 -84.5h45q150 0 240 84t90 226q0 145 -86 223t-266 78t-266.5 -78t-86.5 -223z" />
<glyph unicode="9" horiz-adv-x="1064" d="M100 991q0 217 107.5 337t294.5 120q225 0 328.5 -179t103.5 -509q0 -403 -117 -588.5t-350 -185.5q-86 0 -151.5 15t-118.5 38l14 55q55 -27 117.5 -41t138.5 -14q209 0 306 169t101 497q-59 -59 -159.5 -105.5t-220.5 -46.5q-393 0 -394 438zM160 991q0 -195 79 -289 t257 -94q53 0 108 12.5t105.5 35t93.5 51t74 63.5q-4 305 -91.5 464t-279.5 159q-168 0 -257 -105.5t-89 -296.5z" />
<glyph unicode=":" horiz-adv-x="438" d="M166 43q0 23 12 39t41 16t40 -16t11 -39q0 -18 -11 -34.5t-40 -16.5t-41 16.5t-12 34.5zM166 979q0 20 12 36.5t41 16.5t40 -16.5t11 -36.5q0 -23 -11 -38t-40 -15t-41 15t-12 38z" />
<glyph unicode=";" horiz-adv-x="438" d="M125 -262l65 364l82 -20l-104 -361zM166 979q0 20 12 36.5t41 16.5t40 -16.5t11 -36.5q0 -23 -11 -38t-40 -15t-41 15t-12 38z" />
<glyph unicode="&#x3c;" horiz-adv-x="901" d="M63 541v47l740 471v-64l-678 -430l678 -432v-63z" />
<glyph unicode="=" horiz-adv-x="901" d="M86 365v53h729v-53h-729zM86 684v57h729v-57h-729z" />
<glyph unicode="&#x3e;" horiz-adv-x="901" d="M96 70v63l680 432l-680 430v64l740 -471v-47z" />
<glyph unicode="?" horiz-adv-x="956" d="M82 1378q72 29 161 49.5t195 20.5q104 0 178 -24.5t122 -69.5t70.5 -109.5t22.5 -142.5q0 -74 -25.5 -132.5t-64.5 -109.5t-85 -97t-85 -92t-64.5 -97.5t-25.5 -110.5v-107h-57v107q0 66 25.5 121t64.5 103t83 95t83 95.5t64.5 103.5t25.5 121q0 131 -78 210t-256 79 q-98 0 -183 -18.5t-157 -47.5zM401 43q0 23 11.5 39t42.5 16q29 0 40 -16t11 -39q0 -18 -11.5 -34.5t-39.5 -16.5q-31 0 -42.5 16.5t-11.5 34.5z" />
<glyph unicode="@" horiz-adv-x="1857" d="M160 520q0 199 35.5 368t125 293t238 194.5t375.5 70.5q225 0 372.5 -69.5t233.5 -192.5t121 -293t35 -369q0 -258 -66.5 -395t-187.5 -137q-98 0 -134 74.5t-40 203.5q-31 -135 -122 -208.5t-224 -73.5q-96 0 -167 33.5t-117 97t-68.5 153.5t-22.5 201v92 q0 109 19.5 199t65.5 153.5t122.5 98.5t193.5 35q94 0 163 -31t114 -84t66.5 -123t21.5 -145v-369q0 -121 28.5 -186.5t100.5 -65.5q92 0 145 122t53 355q0 186 -30.5 346t-109.5 277t-216 182.5t-350 65.5t-352.5 -66.5t-220 -183.5t-112.5 -276.5t-32 -346.5 q0 -170 46 -324.5t138 -283.5l-47 -33q-94 131 -144 296t-50 345zM604 471q0 -197 75 -314.5t245 -117.5q88 0 150.5 33.5t102.5 92t59 137.5t19 169v195q0 68 -18 127t-56 104t-95.5 70.5t-137.5 25.5q-102 0 -168.5 -30.5t-105.5 -87t-54.5 -136.5t-15.5 -176v-92z" />
<glyph unicode="A" horiz-adv-x="1208" d="M47 0l524 1434h66l524 -1434h-61l-154 424h-682l-153 -424h-64zM285 477h639l-191 533q-37 102 -67.5 191t-59.5 175h-4q-27 -86 -58.5 -175t-68.5 -191z" />
<glyph unicode="B" horiz-adv-x="1222" d="M193 0v1434h477q209 0 301 -88.5t92 -274.5q0 -88 -19.5 -148.5t-51 -100.5t-71.5 -62.5t-83 -30.5v-2q49 -6 97 -26.5t86 -60.5t61.5 -103.5t23.5 -157.5q0 -106 -26.5 -179t-80 -117t-136.5 -63.5t-195 -19.5h-475zM252 55h414q100 0 172.5 15.5t119 53.5t68 100.5 t21.5 154.5t-23 153.5t-68 98.5t-113.5 52t-162.5 15h-428v-643zM252 754h434q74 0 132.5 16t99 53t63.5 97.5t23 148.5q0 164 -76 235.5t-262 71.5h-414v-622z" />
<glyph unicode="C" horiz-adv-x="1134" d="M129 672v90q0 150 29.5 275.5t96.5 217t172 142.5t259 51q180 0 340 -70l-12 -53q-78 29 -154 47.5t-174 18.5q-137 0 -232.5 -47.5t-153.5 -131.5t-85 -199.5t-27 -250.5v-90q0 -139 29 -255t89.5 -199t154.5 -129t227 -46q86 0 168 15.5t162 50.5l14 -54 q-150 -69 -337 -69h-5q-147 0 -252.5 48t-174 138t-101.5 216t-33 284z" />
<glyph unicode="D" horiz-adv-x="1312" d="M193 0v1434h442q158 0 263.5 -47.5t168.5 -134.5t90 -210.5t27 -275.5v-92q0 -154 -28 -279t-92.5 -212t-172 -135t-264.5 -48h-434zM252 55h375q143 0 238.5 44t152.5 124t81.5 194.5t24.5 256.5v92q0 139 -23.5 251.5t-79.5 192.5t-150.5 123t-235.5 43h-383v-1321z " />
<glyph unicode="E" horiz-adv-x="1085" d="M193 0v1434h761v-58h-702v-624h672v-58h-672v-639h717v-55h-776z" />
<glyph unicode="F" horiz-adv-x="1032" d="M193 0v1434h739v-58h-680v-659h651v-58h-651v-659h-59z" />
<glyph unicode="G" horiz-adv-x="1280" d="M129 672v90q0 143 33 268t105.5 218t186 146.5t275.5 53.5q92 0 178 -19.5t172 -56.5l-12 -55q-74 33 -155 52.5t-179 19.5q-141 0 -243.5 -44.5t-169 -126t-99.5 -197.5t-33 -259v-90q0 -139 28 -254t89.5 -199t159.5 -130t240 -46q104 0 195 19.5t157 48.5v585h-369v56 h426v-678q-74 -37 -176 -62.5t-233 -25.5q-152 0 -260.5 49t-179 139t-103.5 217t-33 281z" />
<glyph unicode="H" horiz-adv-x="1318" d="M193 0v1434h59v-682h815v682h61v-1434h-61v694h-815v-694h-59z" />
<glyph unicode="I" horiz-adv-x="452" d="M197 0v1434h59v-1434h-59z" />
<glyph unicode="J" horiz-adv-x="868" d="M68 43l14 53q43 -23 110.5 -39t135.5 -16q86 0 144 25.5t92 78t48.5 128t14.5 178.5v925h-248v58h307v-992q0 -231 -80 -343.5t-276 -112.5q-78 0 -146.5 17t-115.5 40z" />
<glyph unicode="K" horiz-adv-x="1177" d="M193 0v1434h59v-899l768 899h76l-473 -555l505 -879h-65l-479 834l-332 -390v-444h-59z" />
<glyph unicode="L" horiz-adv-x="997" d="M193 0v1434h59v-1379h686v-55h-745z" />
<glyph unicode="M" horiz-adv-x="1519" d="M193 0v1434h65l502 -932l504 932h65v-1434h-61v1028q0 78 2 159t6 167h-2q-31 -68 -65.5 -140.5t-75.5 -144.5l-340 -625h-66l-340 625q-41 72 -76 144.5t-65 140.5h-2q4 -86 6 -167t2 -159v-1028h-59z" />
<glyph unicode="N" horiz-adv-x="1353" d="M193 0v1434h63l657 -1035q53 -84 100.5 -161.5t90.5 -159.5h4q-4 90 -5 184t-1 184v988h59v-1434h-63l-658 1034q-53 84 -100 162t-92 160h-4q4 -90 6 -184.5t2 -184.5v-987h-59z" />
<glyph unicode="O" horiz-adv-x="1343" d="M129 672v90q0 154 28.5 279.5t93 217t168 140.5t253.5 49t253 -49t167.5 -140.5t93 -217.5t28.5 -279v-90q0 -154 -28.5 -281t-93 -217t-168 -139t-252.5 -49q-150 0 -253.5 49t-168 139t-93 217t-28.5 281zM188 672q0 -141 25 -257t81 -199t149.5 -129t228.5 -46t227 46 t148.5 129t81 198.5t24.5 257.5v90q0 139 -24.5 255t-81 198.5t-148.5 129t-227 46.5t-228.5 -46.5t-149.5 -129t-81 -198.5t-25 -255v-90z" />
<glyph unicode="P" horiz-adv-x="1187" d="M193 0v1434h444q223 0 329.5 -105.5t106.5 -339.5q0 -238 -107.5 -345t-330.5 -107h-383v-537h-59zM252 594h381q199 0 289 93t90 302q0 207 -88 297t-287 90h-385v-782z" />
<glyph unicode="Q" horiz-adv-x="1343" d="M129 672v90q0 154 28.5 279.5t93 217t168 140.5t253.5 49t253 -49t167.5 -140.5t93 -217.5t28.5 -279v-90q0 -154 -28.5 -281t-93 -217t-168 -139t-252.5 -49q-150 0 -253.5 49t-168 139t-93 217t-28.5 281zM188 672q0 -141 25 -257t81 -199t149.5 -129t228.5 -46t227 46 t148.5 129t81 198.5t24.5 257.5v90q0 139 -24.5 255t-81 198.5t-148.5 129t-227 46.5t-228.5 -46.5t-149.5 -129t-81 -198.5t-25 -255v-90zM422 -193l12 52q178 -35 323.5 -89.5t289.5 -140.5l-25 -53q-139 84 -280.5 140.5t-319.5 90.5z" />
<glyph unicode="R" horiz-adv-x="1232" d="M193 0v1434h495q223 0 315.5 -98.5t92.5 -305.5q0 -203 -87 -298t-278 -105l383 -627h-67l-381 625h-414v-625h-59zM252 682h434q98 0 165 20.5t108.5 62.5t59 107.5t17.5 157.5q0 94 -18.5 159.5t-60.5 107.5t-108.5 60.5t-164.5 18.5h-432v-694z" />
<glyph unicode="S" d="M111 63l14 54q84 -35 176 -55.5t221 -20.5q197 0 287 79t90 228q0 76 -19.5 131.5t-63.5 98.5t-114.5 76.5t-171.5 68.5q-96 33 -171.5 67.5t-128 82t-80 108.5t-27.5 147q0 76 21.5 135.5t70.5 100.5t130 62.5t200 21.5q111 0 194.5 -19.5t159.5 -48.5l-14 -53 q-78 31 -160 48.5t-180 17.5q-102 0 -172 -17.5t-112 -51.5t-60.5 -83t-18.5 -113q0 -72 22.5 -124t68.5 -92t116 -71.5t164 -64.5q111 -37 188.5 -75.5t125.5 -89t69.5 -114t21.5 -149.5q0 -176 -104 -269t-332 -93q-135 0 -231 21.5t-180 55.5z" />
<glyph unicode="T" horiz-adv-x="1077" d="M55 1376v58h967v-58l-453 2v-1378h-61v1378z" />
<glyph unicode="U" horiz-adv-x="1310" d="M182 559v875h60v-871q0 -127 18.5 -224t64.5 -162.5t125.5 -100.5t204.5 -35t205 35t126 100.5t64.5 162.5t18.5 224v871h59v-875q0 -137 -22.5 -243.5t-75.5 -180.5t-145.5 -111.5t-229.5 -37.5q-139 0 -230 37.5t-144.5 111.5t-76 180.5t-22.5 243.5z" />
<glyph unicode="V" horiz-adv-x="1177" d="M51 1434h62l350 -998q37 -106 67.5 -196t57.5 -183h4q25 92 54.5 181.5t68.5 197.5l348 998h63l-505 -1434h-66z" />
<glyph unicode="W" horiz-adv-x="1820" d="M72 1434h63l262 -994q29 -109 48.5 -196.5t35.5 -180.5h4q20 92 43 181.5t56 195.5l293 994h65l295 -994q33 -106 55.5 -195t40.5 -182h6q16 92 36 180.5t48 196.5l263 994h61l-377 -1434h-65l-308 1049q-29 92 -49 173t-37 152h-4q-14 -72 -35.5 -152.5t-48.5 -172.5 l-307 -1049h-65z" />
<glyph unicode="X" horiz-adv-x="1210" d="M63 0l508 737l-479 697h70l442 -648l447 648h67l-479 -697l508 -737h-70l-473 686l-473 -686h-68z" />
<glyph unicode="Y" horiz-adv-x="1157" d="M47 1434h68l336 -576q39 -68 69.5 -126t52.5 -105h9q23 47 53.5 105.5t71.5 125.5l333 576h70l-502 -859v-575h-59v575z" />
<glyph unicode="Z" horiz-adv-x="1128" d="M102 0v49l824 1331l-797 -2v56h868v-50l-821 -1331l846 2v-55h-920z" />
<glyph unicode="[" horiz-adv-x="454" d="M205 -324v1782h215v-55h-158v-1673h158v-54h-215z" />
<glyph unicode="\" horiz-adv-x="544" d="M41 1475h59l406 -1516h-60z" />
<glyph unicode="]" horiz-adv-x="454" d="M35 -270h155v1673h-155v55h215v-1782h-215v54z" />
<glyph unicode="^" horiz-adv-x="944" d="M84 653l360 781h54l360 -781h-59l-328 707l-330 -707h-57z" />
<glyph unicode="_" horiz-adv-x="724" d="M-4 -145h733v-54h-733v54z" />
<glyph unicode="`" horiz-adv-x="581" d="M82 1311l24 55l394 -178l-17 -37z" />
<glyph unicode="a" horiz-adv-x="997" d="M104 287q0 160 90.5 233.5t276.5 73.5q78 0 160 -11.5t141 -25.5v123q0 76 -13.5 133t-45 95t-85 57.5t-134.5 19.5q-88 0 -166 -17.5t-138 -43.5l-12 49q59 29 140 47t178 18q184 0 258.5 -89t74.5 -261v-688h-53v252h-2q-16 -51 -47 -99.5t-76 -85t-103.5 -59 t-127.5 -22.5q-147 0 -231.5 70.5t-84.5 230.5zM160 287q0 -133 67.5 -191.5t196.5 -58.5q70 0 133.5 27.5t110.5 79t75.5 123t28.5 159.5v82q-61 16 -139 25.5t-156 9.5q-164 0 -240.5 -60.5t-76.5 -195.5z" />
<glyph unicode="b" horiz-adv-x="1083" d="M178 0v1434h58v-406l-5 -256h2q35 127 132.5 196.5t232.5 69.5q199 0 283 -131t84 -360v-70q0 -231 -88.5 -361t-282.5 -130q-137 0 -231.5 69.5t-126.5 196.5h-3l-2 -252h-53zM236 461q0 -86 21.5 -163t66.5 -134.5t110.5 -91t155.5 -33.5q170 0 242.5 115.5t72.5 322.5 v70q0 100 -15.5 181t-51 138.5t-96 87t-148.5 29.5t-155.5 -31.5t-112.5 -86t-67.5 -125t-22.5 -148.5v-131z" />
<glyph unicode="c" horiz-adv-x="901" d="M119 477v68q0 109 22.5 200t71.5 156.5t128 101t191 35.5q78 0 143.5 -16t115.5 -39l-13 -49q-53 23 -110.5 37t-135.5 14q-98 0 -166.5 -32.5t-109.5 -91t-59.5 -139.5t-18.5 -177v-68q0 -96 17.5 -176t59.5 -139.5t108.5 -92t164.5 -32.5q78 0 142.5 16.5t117.5 42.5 l15 -49q-53 -27 -119 -44t-156 -17q-113 0 -190.5 35.5t-126.5 100t-70.5 156t-21.5 199.5z" />
<glyph unicode="d" horiz-adv-x="1083" d="M121 477v70q0 227 91 359t288 132q135 0 225 -69.5t125 -196.5h4l-6 256v406h59v-1434h-53l-4 252h-2q-31 -127 -121 -196.5t-223 -69.5q-197 0 -290 129t-93 362zM178 477q0 -207 79 -322.5t251 -115.5q86 0 150.5 33.5t106.5 91t62.5 134.5t20.5 163v131 q0 78 -21.5 148.5t-63.5 125t-106.5 86t-150.5 31.5q-88 0 -149.5 -29.5t-101.5 -87t-58.5 -138.5t-18.5 -181v-70z" />
<glyph unicode="e" horiz-adv-x="1003" d="M119 477v68q0 111 21.5 202t69.5 155.5t123 100t181 35.5q115 0 185.5 -41t110.5 -108.5t53.5 -153.5t13.5 -174v-108h-699q2 -94 22.5 -171t64.5 -131.5t112.5 -84t167.5 -29.5q82 0 150.5 17.5t127.5 45.5l13 -49q-55 -29 -127 -47t-164 -18q-115 0 -196 34.5t-132 99 t-74.5 156t-23.5 201.5zM178 502h643v59q0 80 -10 157t-43 136t-93.5 95t-160.5 36q-96 0 -159.5 -31.5t-103.5 -89t-56.5 -138.5t-16.5 -179v-45z" />
<glyph unicode="f" horiz-adv-x="690" d="M49 973v51h193v100q0 160 60 241t214 81q49 0 99.5 -8t84.5 -23l-12 -49q-35 12 -78 19.5t-90 7.5q-127 0 -173 -70t-46 -203v-96h350v-51h-350v-973h-59v973h-193z" />
<glyph unicode="g" horiz-adv-x="1030" d="M111 -158q0 47 13 85t35.5 67t51.5 49t59 37q-45 8 -90 56t-55 120l115 156q-53 43 -78 106.5t-25 155.5v18q0 176 91 254t286 78h434v-47l-229 -2q86 -29 129 -101.5t43 -181.5v-18q0 -178 -92 -256t-285 -78q-72 0 -129 9t-102 36l-101 -137q10 -61 57.5 -97t114.5 -36 h221q188 0 265.5 -70t77.5 -195q0 -276 -386 -276q-207 0 -314 60.5t-107 207.5zM168 -158q0 -119 92 -167t272 -48q170 0 250 55.5t80 167.5q0 106 -64.5 158.5t-222.5 52.5h-243q-78 -35 -121 -84t-43 -135zM195 674q0 -78 18 -132.5t58 -87t99.5 -47t143.5 -14.5 q166 0 244 62.5t78 218.5v18q0 152 -78 216.5t-244 64.5t-242.5 -63.5t-76.5 -217.5v-18z" />
<glyph unicode="h" horiz-adv-x="1112" d="M178 0v1434h58v-406l-5 -270h2q14 66 49 118t86.5 87.5t115 55t134.5 19.5q92 0 155 -25.5t100.5 -74.5t54 -118.5t16.5 -157.5v-662h-59v651q0 78 -12.5 139.5t-43 104.5t-83 65.5t-132.5 22.5q-92 0 -162.5 -31.5t-118.5 -86t-72.5 -128t-24.5 -159.5v-578h-58z" />
<glyph unicode="i" horiz-adv-x="413" d="M154 1282q0 23 11 38t42 15q29 0 40 -15t11 -38q0 -20 -11 -35.5t-40 -15.5q-31 0 -42 15.5t-11 35.5zM176 0v1024h60v-1024h-60z" />
<glyph unicode="j" horiz-adv-x="473" d="M-106 -393l12 51q74 -29 155 -29q53 0 87 16.5t53.5 48.5t27 78t7.5 107v1092h-160v53h219v-1149q0 -150 -51 -224.5t-181 -74.5q-47 0 -91 7t-78 24zM211 1282q0 23 12 38t43 15q29 0 40 -15t11 -38q0 -20 -11 -35.5t-40 -15.5q-31 0 -43 15.5t-12 35.5z" />
<glyph unicode="k" horiz-adv-x="950" d="M178 0v1434h58v-1002l571 592h78l-371 -389l391 -635h-63l-369 592l-237 -242v-350h-58z" />
<glyph unicode="l" horiz-adv-x="413" d="M178 0v1434h58v-1434h-58z" />
<glyph unicode="m" horiz-adv-x="1624" d="M174 0v1024h51l2 -266h2q12 57 41 108.5t73 89t101.5 60t126.5 22.5q129 0 187.5 -69.5t68.5 -180.5h7q35 111 122.5 180.5t223.5 69.5q154 0 214 -89t60 -236v-713h-57v705q0 61 -10.5 112t-35 88t-67.5 57.5t-110 20.5q-78 0 -138.5 -27.5t-103.5 -78t-65.5 -118 t-22.5 -147.5v-612h-60v692q0 63 -9 116.5t-33.5 92.5t-66.5 60.5t-108 21.5q-82 0 -144.5 -34t-105.5 -90t-64.5 -129t-21.5 -150v-580h-57z" />
<glyph unicode="n" horiz-adv-x="1105" d="M174 0v1024h51l2 -266h2q14 66 49 118t85.5 87.5t114 55t134.5 19.5q92 0 154.5 -26.5t99.5 -75.5t53.5 -118.5t16.5 -155.5v-662h-59v651q0 78 -12.5 139.5t-43 104.5t-82 65.5t-131.5 22.5q-92 0 -161.5 -31.5t-117.5 -86t-73 -128t-25 -159.5v-578h-57z" />
<glyph unicode="o" horiz-adv-x="1054" d="M119 477v68q0 111 22.5 202t71.5 155.5t125.5 100t187.5 35.5t189 -35.5t127 -100t71.5 -156t22.5 -201.5v-68q0 -111 -22.5 -202t-71.5 -155.5t-127 -99t-189 -34.5t-187.5 34.5t-125.5 99t-71.5 156t-22.5 201.5zM178 477q0 -98 18.5 -179t59.5 -139.5t107.5 -90 t162.5 -31.5t163 31.5t109 90t60.5 139.5t18.5 179v68q0 98 -18.5 180t-60.5 139.5t-108.5 89t-163.5 31.5q-96 0 -162.5 -31.5t-107.5 -89t-59.5 -139.5t-18.5 -180v-68z" />
<glyph unicode="p" d="M174 -410v1434h51v-252h2q35 125 133.5 195.5t235.5 70.5q98 0 168 -33.5t114 -97t63.5 -154.5t19.5 -206v-70q0 -231 -88.5 -361t-282.5 -130q-135 0 -230.5 69.5t-128.5 196.5h-4q2 -59 3 -124t1 -128v-410h-57zM231 461q0 -86 22.5 -163t67 -134.5t111 -91 t152.5 -33.5q172 0 244.5 115.5t72.5 322.5v70q0 100 -15.5 181t-51 138.5t-96 87t-148.5 29.5t-155.5 -31.5t-113 -86t-68 -125t-22.5 -148.5v-131z" />
<glyph unicode="q" d="M121 477v70q0 227 91 359t288 132q135 0 226 -69.5t124 -196.5h4v252h53v-1434h-59v410v130t2 122h-2q-31 -127 -123 -196.5t-221 -69.5q-197 0 -290 129t-93 362zM178 477q0 -207 78 -322.5t250 -115.5q86 0 150.5 33.5t106.5 91t63.5 134.5t21.5 163v129 q0 78 -21.5 149.5t-63.5 126t-106.5 86t-150.5 31.5q-88 0 -149.5 -29.5t-101.5 -87t-58.5 -138.5t-18.5 -181v-70z" />
<glyph unicode="r" horiz-adv-x="673" d="M174 0v1024h53l-2 -283h2q29 129 126.5 210t250.5 81h23v-59h-21q-92 0 -161.5 -32t-117.5 -87t-72 -132t-24 -165v-557h-57z" />
<glyph unicode="s" horiz-adv-x="841" d="M92 45l12 53q57 -27 130 -43t161 -16q129 0 206 47t77 158q0 57 -16.5 96t-50 68.5t-83 51t-116.5 44.5q-68 23 -125.5 47t-99.5 57t-65.5 80t-23.5 117q0 123 83 178t237 55q86 0 154.5 -18.5t123.5 -42.5l-10 -51q-55 25 -120.5 42t-147.5 17q-127 0 -195.5 -41 t-68.5 -139q0 -55 21.5 -94t58 -67t88 -48.5t110.5 -40.5q78 -27 134.5 -52.5t93 -60t55 -83t18.5 -115.5q0 -137 -89 -197.5t-249 -60.5q-88 0 -166.5 16t-136.5 43z" />
<glyph unicode="t" horiz-adv-x="720" d="M49 973v51h193l12 362h47v-362h346v-51h-346v-674q0 -68 7 -116t28.5 -80.5t58.5 -48t99 -15.5q47 0 93 9t83 24l12 -49q-37 -16 -87 -25.5t-108 -9.5q-74 0 -122 19.5t-75.5 57t-37.5 95t-10 133.5v680h-193z" />
<glyph unicode="u" horiz-adv-x="1083" d="M168 360v664h59v-655q0 -78 13.5 -139.5t44 -103.5t84 -64.5t133.5 -22.5q86 0 151.5 31.5t108.5 87t65.5 132.5t22.5 167v567h59v-1024h-53l-2 256h-2q-31 -123 -123 -196.5t-231 -73.5q-90 0 -153.5 25.5t-102.5 74.5t-56.5 118.5t-17.5 155.5z" />
<glyph unicode="v" horiz-adv-x="905" d="M45 1024h61l275 -743q20 -55 37.5 -112.5t32.5 -113.5h4q16 55 32.5 112.5t36.5 113.5l277 743h61l-377 -1024h-65z" />
<glyph unicode="w" horiz-adv-x="1386" d="M61 1024h62l196 -713q18 -66 33 -126t27 -126h4q14 66 29.5 125.5t33.5 124.5l216 715h63l215 -715q18 -66 33.5 -125t30.5 -125h4q14 66 27.5 126.5t29.5 125.5l201 713h59l-287 -1024h-61l-209 688q-43 137 -72 275h-4q-16 -68 -34.5 -137.5t-39.5 -137.5l-206 -688 h-66z" />
<glyph unicode="x" horiz-adv-x="899" d="M47 0l369 526l-350 498h69l314 -453l315 453h67l-350 -498l371 -526h-70l-333 479l-334 -479h-68z" />
<glyph unicode="y" horiz-adv-x="915" d="M47 -399l8 51q55 -23 131 -23q84 0 130 57.5t85 168.5l45 135l-399 1034h62l299 -774q39 -102 65 -199h4q12 49 28.5 99.5t35.5 101.5l268 772h63l-417 -1186q-45 -131 -103.5 -197.5t-163.5 -66.5q-41 0 -77.5 8t-63.5 19z" />
<glyph unicode="z" horiz-adv-x="864" d="M90 0v47l598 928l-571 -2v51h637v-47l-598 -928l612 2v-51h-678z" />
<glyph unicode="{" horiz-adv-x="454" d="M96 545v45q86 27 120 91t34 150q0 51 -10.5 98.5t-22.5 93.5t-22.5 92t-10.5 95q0 137 59.5 190.5t172.5 53.5v-55q-88 0 -130 -43t-42 -146q0 -49 10 -94t21.5 -91t21.5 -93t10 -98q0 -96 -40 -169t-111 -96v-4q72 -23 111.5 -95.5t39.5 -170.5q0 -49 -10 -96 t-21.5 -93.5t-21.5 -91.5t-10 -94q0 -104 42 -147t130 -43v-53q-113 0 -172.5 53t-59.5 190q0 49 10.5 95.5t22.5 92.5t22.5 92t10.5 99q0 86 -34 150.5t-120 91.5z" />
<glyph unicode="|" horiz-adv-x="485" d="M213 -315v1765h59v-1765h-59z" />
<glyph unicode="}" horiz-adv-x="454" d="M39 -266q86 0 129 43t43 147q0 49 -10.5 94t-21.5 91.5t-21.5 93.5t-10.5 96q0 98 39 171t111 95v4q-72 23 -111 95.5t-39 169.5q0 51 10.5 98t21.5 93t21.5 91t10.5 94q0 102 -43 145.5t-129 43.5v55q111 0 170 -53t59 -191q0 -49 -10 -95t-22.5 -92t-22.5 -93t-10 -99 q0 -86 33.5 -150.5t121.5 -90.5v-45q-88 -27 -121.5 -91.5t-33.5 -150.5q0 -53 10 -99t22.5 -92t22.5 -92.5t10 -95.5q0 -137 -59 -190t-170 -53v53z" />
<glyph unicode="~" horiz-adv-x="980" d="M92 563q18 33 43 64.5t55.5 58.5t65.5 43t74 16q55 0 94 -25.5t75 -56t70.5 -56t81.5 -25.5q31 0 59.5 13t55.5 35.5t48.5 51.5t37.5 57l35 -24q-18 -33 -43 -66t-55.5 -59.5t-65.5 -43t-74 -16.5q-55 0 -94 26t-74 55.5t-70.5 55t-82.5 25.5q-61 0 -113.5 -49 t-87.5 -108z" />
<glyph unicode="&#xa1;" horiz-adv-x="466" d="M180 981q0 20 12.5 36.5t40.5 16.5q29 0 41.5 -16.5t12.5 -36.5t-12.5 -36.5t-41.5 -16.5t-41 16.5t-12 36.5zM199 -408l12 1078h47l12 -1078h-71z" />
<glyph unicode="&#xa2;" d="M178 477v68q0 106 22.5 193t72 151.5t126 102.5t185.5 44v213h59v-213q82 -4 149.5 -19.5t118.5 -37.5l-14 -49q-53 23 -120.5 39t-158.5 16q-104 0 -176.5 -31.5t-119 -90t-66.5 -139.5t-20 -179v-68q0 -96 21.5 -177t67.5 -139.5t116.5 -91t170.5 -32.5q92 0 165 17.5 t132 45.5l13 -49q-51 -25 -118 -43t-161 -22v-211h-59v213q-104 4 -181 41t-127.5 101.5t-74 152.5t-23.5 194z" />
<glyph unicode="&#xa3;" d="M96 0v49q47 14 92 46t80 79t56.5 107.5t21.5 130.5q0 78 -18.5 148.5t-44.5 137.5h-179v56h156q-27 72 -52.5 144.5t-25.5 164.5q0 86 24.5 156.5t75 122t129 79t187.5 27.5q98 0 159.5 -15.5t108.5 -33.5l-8 -53q-53 20 -108.5 32.5t-151.5 12.5q-186 0 -270 -91.5 t-84 -238.5q0 -92 24.5 -165t53.5 -142h403v-56h-383q29 -66 46.5 -136t17.5 -150q0 -66 -18.5 -123.5t-47.5 -103.5t-66.5 -79.5t-76.5 -52.5h512q113 0 163 45t50 154v61h59v-61q0 -131 -63.5 -191.5t-206.5 -60.5h-615z" />
<glyph unicode="&#xa4;" horiz-adv-x="1015" d="M119 215l96 111q-76 109 -76 292q0 92 19.5 167t60.5 130l-100 117l39 41l100 -121q90 86 250 86q158 0 248 -86l102 121l39 -41l-100 -117q78 -109 77 -297q0 -184 -75 -292l98 -111l-39 -41l-98 113q-45 -41 -106.5 -63.5t-145.5 -22.5q-86 0 -147.5 22.5t-106.5 63.5 l-96 -113zM195 618q0 -84 16 -151.5t54 -114.5t97.5 -73.5t145.5 -26.5q170 0 241.5 100.5t71.5 265.5q0 168 -71.5 268.5t-241.5 100.5q-86 0 -145.5 -26.5t-97.5 -74.5t-54 -116t-16 -152z" />
<glyph unicode="&#xa5;" d="M55 1434h66l287 -531q35 -63 66.5 -124.5t62.5 -125.5h6q29 63 61.5 125t67.5 125l284 531h68l-426 -779h328v-51h-357v-184h357v-53h-357v-367h-59v367h-358v53h358v184h-358v51h327z" />
<glyph unicode="&#xa6;" horiz-adv-x="487" d="M213 -315v737h59v-737h-59zM213 711v739h59v-739h-59z" />
<glyph unicode="&#xa7;" d="M150 -109h57q0 -68 25.5 -117.5t71.5 -81.5t109.5 -47.5t139.5 -15.5q141 0 232.5 62.5t91.5 197.5q0 70 -27 120t-70 85t-100 58.5t-119 42.5q-80 25 -148.5 54.5t-120.5 71t-82 100t-30 142.5q0 109 62.5 180.5t158.5 98.5q-43 20 -79.5 46.5t-62.5 61.5t-41 82 t-15 111q0 160 99 232.5t267 72.5q166 0 265.5 -71.5t99.5 -235.5h-62q0 137 -83.5 194.5t-219.5 57.5q-141 0 -225 -59.5t-84 -190.5q0 -72 23.5 -120t64.5 -83t93.5 -58.5t111.5 -41.5q80 -27 146.5 -56.5t115.5 -71.5t77 -100.5t28 -140.5q0 -111 -59.5 -181.5 t-151.5 -92.5q49 -23 90 -50.5t71.5 -63.5t48 -83t17.5 -111q0 -82 -27.5 -141t-79 -97t-121 -56.5t-155.5 -18.5t-161 18.5t-128 57.5t-83.5 98.5t-30.5 140.5zM236 563q0 -68 25.5 -119t76.5 -90t128 -70.5t179 -60.5q98 16 157.5 76.5t59.5 171.5q0 86 -42 143.5 t-102.5 95.5t-129 61.5t-121.5 39.5q-98 -16 -164.5 -79t-66.5 -169z" />
<glyph unicode="&#xa8;" horiz-adv-x="581" d="M72 1225q0 23 11 37t42 14q29 0 40 -14.5t11 -36.5q0 -20 -11 -35.5t-40 -15.5q-31 0 -42 15t-11 36zM408 1225q0 23 11 37t40 14t40 -14.5t11 -36.5q0 -20 -11.5 -35.5t-39.5 -15.5q-29 0 -40 15t-11 36z" />
<glyph unicode="&#xa9;" horiz-adv-x="1576" d="M127 717q0 166 37 300t116.5 230t204.5 148.5t303 52.5t304.5 -52.5t206 -148.5t116.5 -230t37 -300t-37 -300t-116.5 -230.5t-206 -148.5t-304.5 -52t-303 52t-204.5 148.5t-116.5 230.5t-37 300zM178 717q0 -156 34 -282t106.5 -215t188 -137t281.5 -48q164 0 280 48 t188.5 137t106.5 215t34 282q0 154 -34 279.5t-106.5 214.5t-188.5 137.5t-280 48.5q-166 0 -281.5 -48.5t-188 -137.5t-106.5 -215t-34 -279zM461 692v51q0 86 20.5 160t64.5 128t112.5 84t166.5 30q63 0 122 -12.5t106 -34.5l-11 -51q-45 20 -99 32.5t-120 12.5 q-86 0 -143 -26t-93 -72t-51.5 -110.5t-15.5 -140.5v-51q0 -74 15.5 -137t51.5 -110.5t94 -75t144 -27.5q66 0 122.5 13.5t101.5 35.5l10 -51q-45 -23 -102.5 -37t-135.5 -14q-94 0 -161.5 29.5t-111.5 83t-65.5 127t-21.5 163.5z" />
<glyph unicode="&#xaa;" horiz-adv-x="665" d="M74 963q0 106 61.5 153t175.5 47q53 0 103.5 -8t85.5 -18v71q0 88 -35 137.5t-135 49.5q-57 0 -107.5 -12.5t-91.5 -28.5l-10 45q41 18 94 30.5t117 12.5q125 0 173 -58.5t48 -171.5v-438h-51l-2 144q-23 -66 -83.5 -110t-137.5 -44q-92 0 -148.5 47t-56.5 152zM127 965 q0 -78 38 -116t122 -38q39 0 76.5 15.5t68.5 45t49.5 72.5t18.5 100v52q-37 10 -84 15t-94 5q-100 0 -147.5 -33.5t-47.5 -117.5z" />
<glyph unicode="&#xab;" horiz-adv-x="860" d="M92 676l236 389h63l-239 -389l239 -389h-63zM428 676l236 389h65l-240 -389l240 -389h-65z" />
<glyph unicode="&#xac;" horiz-adv-x="899" d="M90 688v55h684v-409h-59v354h-625z" />
<glyph unicode="&#xad;" horiz-adv-x="696" d="M66 645v55h563v-55h-563z" />
<glyph unicode="&#xae;" horiz-adv-x="1114" d="M92 932q0 246 110.5 380t354.5 134t354.5 -134t110.5 -380q0 -248 -110.5 -383t-354.5 -135t-354.5 135t-110.5 383zM141 932q0 -115 22.5 -203t73 -147.5t129 -90t191.5 -30.5q223 0 319.5 120.5t96.5 350.5q0 227 -96.5 348t-319.5 121q-113 0 -191.5 -31t-129 -90 t-73 -147.5t-22.5 -200.5zM403 666v544h197q170 0 170 -163q0 -72 -34 -109t-87 -47l131 -225h-55l-125 219h-145v-219h-52zM455 930h147q53 0 85 27.5t32 89.5q0 61 -30 88.5t-89 27.5h-145v-233z" />
<glyph unicode="&#xaf;" horiz-adv-x="581" d="M43 1188v49h496v-49h-496z" />
<glyph unicode="&#xb0;" horiz-adv-x="724" d="M102 1161q0 131 65.5 207t194.5 76t195 -76t66 -207q0 -133 -65.5 -208.5t-195.5 -75.5q-129 0 -194.5 75.5t-65.5 208.5zM150 1161q0 -111 51 -174t161 -63q111 0 161 63.5t50 173.5q0 111 -50 173.5t-161 62.5t-161.5 -62.5t-50.5 -173.5z" />
<glyph unicode="&#xb1;" horiz-adv-x="901" d="M70 0v53h761v-53h-761zM70 618v58h350v411h61v-411h350v-58h-350v-411h-61v411h-350z" />
<glyph unicode="&#xb2;" horiz-adv-x="524" d="M57 776v41l222 250q43 47 76.5 98.5t33.5 114.5q0 66 -39 90.5t-102 24.5q-45 0 -87 -9.5t-77 -25.5l-10 47q35 16 80 25.5t98 9.5q88 0 138 -38t50 -124q0 -80 -37.5 -135t-85.5 -107l-188 -213h330v-49h-402z" />
<glyph unicode="&#xb3;" horiz-adv-x="509" d="M45 801l10 47q35 -16 75 -24.5t93 -8.5q162 0 162 143q0 43 -13.5 70t-35 42t-51 21.5t-62.5 6.5h-82v45h88q57 0 99.5 28.5t42.5 98.5q0 63 -31 94t-109 31q-86 0 -161 -33l-11 45q35 16 78 25.5t94 9.5q92 0 141.5 -42t49.5 -126q0 -72 -34 -105.5t-71 -46.5 q49 -10 84 -48t35 -118q0 -94 -54 -142t-159 -48q-57 0 -100 9t-78 26z" />
<glyph unicode="&#xb4;" horiz-adv-x="581" d="M82 1188l393 178l25 -55l-400 -160z" />
<glyph unicode="&#xb5;" horiz-adv-x="1083" d="M174 -410v1434h57v-567q0 -90 22.5 -167t67 -132.5t109 -87t150.5 -31.5q80 0 133 22.5t84.5 64.5t45 103.5t13.5 139.5v655h57v-666q0 -86 -17 -154.5t-56 -117.5t-101.5 -74.5t-152.5 -25.5q-141 0 -232.5 73.5t-122.5 196.5h-2l2 -258v-408h-57z" />
<glyph unicode="&#xb6;" horiz-adv-x="743" d="M59 1083q0 80 20.5 141.5t57.5 104.5t85 66.5t104 27.5q35 4 69.5 7.5t71.5 3.5h211v-56h-131q-59 0 -77.5 -28.5t-18.5 -85.5v-1416h-60v850q-66 2 -125 22.5t-105 67t-74 119t-28 176.5z" />
<glyph unicode="&#xb7;" horiz-adv-x="393" d="M145 565q0 20 11.5 36.5t40.5 16.5t40 -16t11 -37q0 -20 -11.5 -37.5t-39.5 -17.5q-29 0 -40.5 17.5t-11.5 37.5z" />
<glyph unicode="&#xb8;" horiz-adv-x="581" d="M166 -350l10 43q25 -10 58.5 -16.5t66.5 -6.5q45 0 78 18.5t33 73.5q0 53 -33 74t-111 21h-49v39l68 106h43l-56 -102q92 0 141.5 -31t49.5 -107q0 -78 -45 -106.5t-117 -28.5q-39 0 -73.5 6.5t-63.5 16.5z" />
<glyph unicode="&#xb9;" horiz-adv-x="339" d="M23 1315l174 119h49v-658h-53v594l-152 -88z" />
<glyph unicode="&#xba;" horiz-adv-x="702" d="M86 1083v43q0 141 62.5 228.5t203.5 87.5q139 0 201.5 -87t62.5 -229v-43q0 -143 -62 -231t-202 -88q-139 0 -202.5 88t-63.5 231zM139 1083q0 -123 48 -196.5t165 -73.5q115 0 163 75t48 195v43q0 119 -48 193t-163 74q-117 0 -165 -73t-48 -194v-43z" />
<glyph unicode="&#xbb;" horiz-adv-x="860" d="M131 287l240 389l-240 389h66l237 -389l-237 -389h-66zM469 287l238 389l-238 389h63l238 -389l-238 -389h-63z" />
<glyph unicode="&#xbc;" horiz-adv-x="1259" d="M119 1315l176 119h47v-658h-51v594l-154 -88zM188 0l822 1434h63l-823 -1434h-62zM721 131v41l213 487h53l-211 -481h246v240h51v-240h86v-47h-86v-131h-51v131h-301z" />
<glyph unicode="&#xbd;" horiz-adv-x="1259" d="M119 1315l176 119h47v-658h-51v594l-154 -88zM188 0l822 1434h63l-823 -1434h-62zM766 0v43l221 248q45 47 78 98t33 115q0 66 -38 90t-102 24q-47 0 -88 -9t-75 -25l-11 45q37 16 81 27.5t98 11.5q86 0 137 -39t51 -125q0 -80 -39 -136.5t-86 -107.5l-186 -211h329v-49 h-403z" />
<glyph unicode="&#xbe;" horiz-adv-x="1259" d="M78 801l8 47q35 -16 75 -24.5t93 -8.5q162 0 162 143q0 86 -47 113t-115 27h-82v45h90q55 0 97 28.5t42 98.5q0 63 -30.5 94t-108.5 31q-88 0 -160 -33l-10 45q35 16 77 25.5t93 9.5q92 0 141.5 -42t49.5 -126q0 -35 -9.5 -60.5t-25 -44t-33.5 -30t-35 -17.5 q47 -10 83 -48t36 -118q0 -94 -55.5 -142t-159.5 -48q-57 0 -99 9t-77 26zM188 0l822 1434h63l-823 -1434h-62zM721 131v41l213 487h53l-211 -481h246v240h51v-240h86v-47h-86v-131h-51v131h-301z" />
<glyph unicode="&#xbf;" horiz-adv-x="931" d="M119 -76q0 74 25.5 132.5t64.5 109.5t84 97t84 92t64.5 96.5t25.5 111.5v107h59v-107q0 -98 -54 -174t-119.5 -145.5t-120 -145t-54.5 -174.5q0 -133 78 -212t258 -79q96 0 182 19.5t158 48.5l12 -53q-72 -29 -160 -49.5t-194 -20.5q-207 0 -300 94.5t-93 251.5zM444 981 q0 20 11.5 36.5t40.5 16.5q31 0 42 -16.5t11 -36.5t-11 -36.5t-42 -16.5q-29 0 -40.5 16.5t-11.5 36.5z" />
<glyph unicode="&#xc0;" horiz-adv-x="1208" d="M47 0l524 1434h66l524 -1434h-61l-154 424h-682l-153 -424h-64zM285 477h639l-191 533q-37 102 -67.5 191t-59.5 175h-4q-27 -86 -58.5 -175t-68.5 -191zM395 1721l24 55l394 -178l-17 -37z" />
<glyph unicode="&#xc1;" horiz-adv-x="1208" d="M47 0l524 1434h66l524 -1434h-61l-154 424h-682l-153 -424h-64zM285 477h639l-191 533q-37 102 -67.5 191t-59.5 175h-4q-27 -86 -58.5 -175t-68.5 -191zM395 1598l393 178l25 -55l-400 -160z" />
<glyph unicode="&#xc2;" horiz-adv-x="1208" d="M47 0l524 1434h66l524 -1434h-61l-154 424h-682l-153 -424h-64zM285 477h639l-191 533q-37 102 -67.5 191t-59.5 175h-4q-27 -86 -58.5 -175t-68.5 -191zM364 1569l217 221h51l215 -221h-51l-190 168l-189 -168h-53z" />
<glyph unicode="&#xc3;" horiz-adv-x="1208" d="M47 0l524 1434h66l524 -1434h-61l-154 424h-682l-153 -424h-64zM285 477h639l-191 533q-37 102 -67.5 191t-59.5 175h-4q-27 -86 -58.5 -175t-68.5 -191zM338 1573q4 92 37.5 144.5t103.5 52.5q41 0 72.5 -22.5t59.5 -49t55.5 -49t62.5 -22.5q53 0 72.5 36.5t23.5 104.5 h49q-4 -92 -36.5 -144.5t-104.5 -52.5q-41 0 -73 22.5t-60.5 49.5t-56 49.5t-60.5 22.5q-53 0 -71.5 -37t-22.5 -105h-51z" />
<glyph unicode="&#xc4;" horiz-adv-x="1208" d="M47 0l524 1434h66l524 -1434h-61l-154 424h-682l-153 -424h-64zM285 477h639l-191 533q-37 102 -67.5 191t-59.5 175h-4q-27 -86 -58.5 -175t-68.5 -191zM387 1635q0 23 11 37t42 14q29 0 40 -14.5t11 -36.5q0 -20 -11 -35.5t-40 -15.5q-31 0 -42 15t-11 36zM723 1635 q0 23 11 37t40 14t40 -14.5t11 -36.5q0 -20 -11.5 -35.5t-39.5 -15.5q-29 0 -40 15t-11 36z" />
<glyph unicode="&#xc5;" horiz-adv-x="1208" d="M47 0l510 1395q-59 12 -93 55t-34 121q0 92 48 135t128 43q82 0 129 -43t47 -135q0 -78 -34.5 -122t-96.5 -54l510 -1395h-61l-154 424h-682l-153 -424h-64zM285 477h639l-191 533q-37 102 -67.5 191t-59.5 175h-4q-27 -86 -58.5 -175t-68.5 -191zM477 1571 q0 -72 34 -102.5t95 -30.5q63 0 97 30.5t34 102.5q0 133 -131 133q-61 0 -95 -32t-34 -101z" />
<glyph unicode="&#xc6;" horiz-adv-x="1660" d="M27 0l817 1434h688v-58h-608v-624h575v-58h-575v-639h620v-55h-680v393h-549l-221 -393h-67zM348 451h516v917h-4q-14 -31 -35.5 -72t-46 -85t-48 -87t-42.5 -75z" />
<glyph unicode="&#xc7;" horiz-adv-x="1134" d="M129 672v90q0 150 29.5 275.5t96.5 217t172 142.5t259 51q180 0 340 -70l-12 -53q-78 29 -154 47.5t-174 18.5q-137 0 -232.5 -47.5t-153.5 -131.5t-85 -199.5t-27 -250.5v-90q0 -139 29 -255t89.5 -199t154.5 -129t227 -46q86 0 168 15.5t162 50.5l14 -54 q-139 -63 -311 -69l-45 -86q92 0 141 -31t49 -107q0 -78 -45 -106.5t-116 -28.5q-39 0 -74 6.5t-64 16.5l11 43q25 -10 58.5 -16.5t65.5 -6.5q45 0 78 18.5t33 73.5q0 53 -32.5 74t-110.5 21h-49v39l57 90q-143 2 -246.5 51t-171 138t-99.5 215t-32 282z" />
<glyph unicode="&#xc8;" horiz-adv-x="1085" d="M193 0v1434h761v-58h-702v-624h672v-58h-672v-639h717v-55h-776zM391 1721l24 55l394 -178l-17 -37z" />
<glyph unicode="&#xc9;" horiz-adv-x="1085" d="M193 0v1434h761v-58h-702v-624h672v-58h-672v-639h717v-55h-776zM401 1598l393 178l25 -55l-400 -160z" />
<glyph unicode="&#xca;" horiz-adv-x="1085" d="M193 0v1434h761v-58h-702v-624h672v-58h-672v-639h717v-55h-776zM309 1569l217 221h51l215 -221h-51l-190 168l-189 -168h-53z" />
<glyph unicode="&#xcb;" horiz-adv-x="1085" d="M193 0v1434h761v-58h-702v-624h672v-58h-672v-639h717v-55h-776zM375 1635q0 23 11 37t42 14q29 0 40 -14.5t11 -36.5q0 -20 -11 -35.5t-40 -15.5q-31 0 -42 15t-11 36zM711 1635q0 23 11 37t40 14t40 -14.5t11 -36.5q0 -20 -11.5 -35.5t-39.5 -15.5q-29 0 -40 15t-11 36 z" />
<glyph unicode="&#xcc;" horiz-adv-x="452" d="M19 1721l24 55l394 -178l-17 -37zM197 0v1434h59v-1434h-59z" />
<glyph unicode="&#xcd;" horiz-adv-x="452" d="M19 1598l393 178l25 -55l-400 -160zM197 0v1434h59v-1434h-59z" />
<glyph unicode="&#xce;" horiz-adv-x="452" d="M-14 1569l217 221h51l215 -221h-51l-190 168l-189 -168h-53zM197 0v1434h59v-1434h-59z" />
<glyph unicode="&#xcf;" horiz-adv-x="452" d="M9 1635q0 23 11 37t42 14q29 0 40 -14.5t11 -36.5q0 -20 -11 -35.5t-40 -15.5q-31 0 -42 15t-11 36zM197 0v1434h59v-1434h-59zM345 1635q0 23 11 37t40 14t40 -14.5t11 -36.5q0 -20 -11.5 -35.5t-39.5 -15.5q-29 0 -40 15t-11 36z" />
<glyph unicode="&#xd0;" horiz-adv-x="1312" d="M39 680v53h154v701h442q158 0 263.5 -47.5t170 -134.5t91 -210.5t26.5 -275.5v-92q0 -154 -28 -279t-92.5 -212t-172 -135t-264.5 -48h-436v680h-154zM254 55h375q143 0 239.5 44t153.5 125t80.5 194.5t23.5 255.5v92q0 139 -23.5 251.5t-79.5 192.5t-150.5 123 t-237.5 43h-381v-643h375v-53h-375v-625z" />
<glyph unicode="&#xd1;" horiz-adv-x="1353" d="M193 0v1434h63l657 -1035q53 -84 100.5 -161.5t90.5 -159.5h4q-4 90 -5 184t-1 184v988h59v-1434h-63l-658 1034q-53 84 -100 162t-92 160h-4q4 -90 6 -184.5t2 -184.5v-987h-59zM410 1573q4 92 37.5 144.5t103.5 52.5q41 0 72.5 -22.5t59.5 -49t55.5 -49t62.5 -22.5 q53 0 72.5 36.5t23.5 104.5h49q-4 -92 -36.5 -144.5t-104.5 -52.5q-41 0 -73 22.5t-60.5 49.5t-56 49.5t-60.5 22.5q-53 0 -71.5 -37t-22.5 -105h-51z" />
<glyph unicode="&#xd2;" horiz-adv-x="1343" d="M129 672v90q0 154 28.5 279.5t93 217t168 140.5t253.5 49t253 -49t167.5 -140.5t93 -217.5t28.5 -279v-90q0 -154 -28.5 -281t-93 -217t-168 -139t-252.5 -49q-150 0 -253.5 49t-168 139t-93 217t-28.5 281zM188 672q0 -141 25 -257t81 -199t149.5 -129t228.5 -46t227 46 t148.5 129t81 198.5t24.5 257.5v90q0 139 -24.5 255t-81 198.5t-148.5 129t-227 46.5t-228.5 -46.5t-149.5 -129t-81 -198.5t-25 -255v-90zM463 1721l24 55l394 -178l-17 -37z" />
<glyph unicode="&#xd3;" horiz-adv-x="1343" d="M129 672v90q0 154 28.5 279.5t93 217t168 140.5t253.5 49t253 -49t167.5 -140.5t93 -217.5t28.5 -279v-90q0 -154 -28.5 -281t-93 -217t-168 -139t-252.5 -49q-150 0 -253.5 49t-168 139t-93 217t-28.5 281zM188 672q0 -141 25 -257t81 -199t149.5 -129t228.5 -46t227 46 t148.5 129t81 198.5t24.5 257.5v90q0 139 -24.5 255t-81 198.5t-148.5 129t-227 46.5t-228.5 -46.5t-149.5 -129t-81 -198.5t-25 -255v-90zM463 1598l393 178l25 -55l-400 -160z" />
<glyph unicode="&#xd4;" horiz-adv-x="1343" d="M129 672v90q0 154 28.5 279.5t93 217t168 140.5t253.5 49t253 -49t167.5 -140.5t93 -217.5t28.5 -279v-90q0 -154 -28.5 -281t-93 -217t-168 -139t-252.5 -49q-150 0 -253.5 49t-168 139t-93 217t-28.5 281zM188 672q0 -141 25 -257t81 -199t149.5 -129t228.5 -46t227 46 t148.5 129t81 198.5t24.5 257.5v90q0 139 -24.5 255t-81 198.5t-148.5 129t-227 46.5t-228.5 -46.5t-149.5 -129t-81 -198.5t-25 -255v-90zM430 1569l217 221h51l215 -221h-51l-190 168l-189 -168h-53z" />
<glyph unicode="&#xd5;" horiz-adv-x="1343" d="M129 672v90q0 154 28.5 279.5t93 217t168 140.5t253.5 49t253 -49t167.5 -140.5t93 -217.5t28.5 -279v-90q0 -154 -28.5 -281t-93 -217t-168 -139t-252.5 -49q-150 0 -253.5 49t-168 139t-93 217t-28.5 281zM188 672q0 -141 25 -257t81 -199t149.5 -129t228.5 -46t227 46 t148.5 129t81 198.5t24.5 257.5v90q0 139 -24.5 255t-81 198.5t-148.5 129t-227 46.5t-228.5 -46.5t-149.5 -129t-81 -198.5t-25 -255v-90zM404 1573q4 92 37.5 144.5t103.5 52.5q41 0 72.5 -22.5t59.5 -49t55.5 -49t62.5 -22.5q53 0 72.5 36.5t23.5 104.5h49 q-4 -92 -36.5 -144.5t-104.5 -52.5q-41 0 -73 22.5t-60.5 49.5t-56 49.5t-60.5 22.5q-53 0 -71.5 -37t-22.5 -105h-51z" />
<glyph unicode="&#xd6;" horiz-adv-x="1343" d="M129 672v90q0 154 28.5 279.5t93 217t168 140.5t253.5 49t253 -49t167.5 -140.5t93 -217.5t28.5 -279v-90q0 -154 -28.5 -281t-93 -217t-168 -139t-252.5 -49q-150 0 -253.5 49t-168 139t-93 217t-28.5 281zM188 672q0 -141 25 -257t81 -199t149.5 -129t228.5 -46t227 46 t148.5 129t81 198.5t24.5 257.5v90q0 139 -24.5 255t-81 198.5t-148.5 129t-227 46.5t-228.5 -46.5t-149.5 -129t-81 -198.5t-25 -255v-90zM453 1635q0 23 11 37t42 14q29 0 40 -14.5t11 -36.5q0 -20 -11 -35.5t-40 -15.5q-31 0 -42 15t-11 36zM789 1635q0 23 11 37t40 14 t40 -14.5t11 -36.5q0 -20 -11.5 -35.5t-39.5 -15.5q-29 0 -40 15t-11 36z" />
<glyph unicode="&#xd7;" horiz-adv-x="901" d="M127 299l283 332l-283 330l43 38l281 -327l280 327l43 -38l-285 -330l285 -332l-43 -41l-280 330l-281 -330z" />
<glyph unicode="&#xd8;" horiz-adv-x="1343" d="M129 672v90q0 154 28.5 279.5t93 217t168 140.5t253.5 49q113 0 198.5 -28.5t147.5 -82.5l82 138h61l-104 -175q84 -90 120.5 -227t36.5 -311v-90q0 -154 -28.5 -281t-93 -217t-168 -139t-252.5 -49q-213 0 -338 100l-88 -147h-62l109 182q-88 92 -126 231.5t-38 319.5z M188 672q0 -160 32 -287t106 -211l661 1110q-55 51 -133 79t-182 28q-135 0 -228.5 -46.5t-149.5 -129t-81 -198.5t-25 -255v-90zM365 137q55 -47 130 -71.5t177 -24.5q135 0 227 46t148.5 129t81 198.5t24.5 257.5v90q0 154 -29.5 276.5t-99.5 206.5z" />
<glyph unicode="&#xd9;" horiz-adv-x="1310" d="M182 559v875h60v-871q0 -127 18.5 -224t64.5 -162.5t125.5 -100.5t204.5 -35t205 35t126 100.5t64.5 162.5t18.5 224v871h59v-875q0 -137 -22.5 -243.5t-75.5 -180.5t-145.5 -111.5t-229.5 -37.5q-139 0 -230 37.5t-144.5 111.5t-76 180.5t-22.5 243.5zM447 1721l24 55 l394 -178l-17 -37z" />
<glyph unicode="&#xda;" horiz-adv-x="1310" d="M182 559v875h60v-871q0 -127 18.5 -224t64.5 -162.5t125.5 -100.5t204.5 -35t205 35t126 100.5t64.5 162.5t18.5 224v871h59v-875q0 -137 -22.5 -243.5t-75.5 -180.5t-145.5 -111.5t-229.5 -37.5q-139 0 -230 37.5t-144.5 111.5t-76 180.5t-22.5 243.5zM447 1598l393 178 l25 -55l-400 -160z" />
<glyph unicode="&#xdb;" horiz-adv-x="1310" d="M182 559v875h60v-871q0 -127 18.5 -224t64.5 -162.5t125.5 -100.5t204.5 -35t205 35t126 100.5t64.5 162.5t18.5 224v871h59v-875q0 -137 -22.5 -243.5t-75.5 -180.5t-145.5 -111.5t-229.5 -37.5q-139 0 -230 37.5t-144.5 111.5t-76 180.5t-22.5 243.5zM416 1569l217 221 h51l215 -221h-51l-190 168l-189 -168h-53z" />
<glyph unicode="&#xdc;" horiz-adv-x="1310" d="M182 559v875h60v-871q0 -127 18.5 -224t64.5 -162.5t125.5 -100.5t204.5 -35t205 35t126 100.5t64.5 162.5t18.5 224v871h59v-875q0 -137 -22.5 -243.5t-75.5 -180.5t-145.5 -111.5t-229.5 -37.5q-139 0 -230 37.5t-144.5 111.5t-76 180.5t-22.5 243.5zM439 1635 q0 23 11 37t42 14q29 0 40 -14.5t11 -36.5q0 -20 -11 -35.5t-40 -15.5q-31 0 -42 15t-11 36zM775 1635q0 23 11 37t40 14t40 -14.5t11 -36.5q0 -20 -11.5 -35.5t-39.5 -15.5q-29 0 -40 15t-11 36z" />
<glyph unicode="&#xdd;" horiz-adv-x="1157" d="M47 1434h68l336 -576q39 -68 69.5 -126t52.5 -105h9q23 47 53.5 105.5t71.5 125.5l333 576h70l-502 -859v-575h-59v575zM369 1598l393 178l25 -55l-400 -160z" />
<glyph unicode="&#xde;" horiz-adv-x="1171" d="M193 0v1434h59v-287h373q113 0 193.5 -22.5t133 -74t77 -131t24.5 -194.5q0 -231 -103.5 -331.5t-326.5 -100.5h-371v-293h-59zM252 350h369q100 0 170.5 20.5t115.5 64.5t65.5 116t20.5 174q0 100 -20.5 170t-64.5 114t-114.5 63.5t-168.5 19.5h-373v-742z" />
<glyph unicode="&#xdf;" horiz-adv-x="1189" d="M176 0v973q0 236 107.5 355.5t345.5 119.5q199 0 293 -95.5t94 -260.5q0 -74 -20.5 -129.5t-53.5 -94.5t-77 -63.5t-89 -34.5v-2q63 -10 118.5 -35.5t96.5 -72t64.5 -114t23.5 -163.5q0 -111 -26.5 -186.5t-75.5 -122.5t-121 -67.5t-162 -20.5q-84 0 -158.5 14t-129.5 39 l12 51q55 -23 122.5 -38t149.5 -15q78 0 139.5 17.5t104.5 58.5t65.5 107.5t22.5 162.5q0 188 -98.5 272t-286.5 84h-141v54h153q139 0 224 77.5t85 221.5q0 143 -82.5 222t-246.5 79q-207 0 -300 -106.5t-93 -315.5v-971h-60z" />
<glyph unicode="&#xe0;" horiz-adv-x="997" d="M104 287q0 160 90.5 233.5t276.5 73.5q78 0 160 -11.5t141 -25.5v123q0 76 -13.5 133t-45 95t-85 57.5t-134.5 19.5q-88 0 -166 -17.5t-138 -43.5l-12 49q59 29 140 47t178 18q184 0 258.5 -89t74.5 -261v-688h-53v252h-2q-16 -51 -47 -99.5t-76 -85t-103.5 -59 t-127.5 -22.5q-147 0 -231.5 70.5t-84.5 230.5zM160 287q0 -133 67.5 -191.5t196.5 -58.5q70 0 133.5 27.5t110.5 79t75.5 123t28.5 159.5v82q-61 16 -139 25.5t-156 9.5q-164 0 -240.5 -60.5t-76.5 -195.5zM289 1311l24 55l394 -178l-17 -37z" />
<glyph unicode="&#xe1;" horiz-adv-x="997" d="M104 287q0 160 90.5 233.5t276.5 73.5q78 0 160 -11.5t141 -25.5v123q0 76 -13.5 133t-45 95t-85 57.5t-134.5 19.5q-88 0 -166 -17.5t-138 -43.5l-12 49q59 29 140 47t178 18q184 0 258.5 -89t74.5 -261v-688h-53v252h-2q-16 -51 -47 -99.5t-76 -85t-103.5 -59 t-127.5 -22.5q-147 0 -231.5 70.5t-84.5 230.5zM160 287q0 -133 67.5 -191.5t196.5 -58.5q70 0 133.5 27.5t110.5 79t75.5 123t28.5 159.5v82q-61 16 -139 25.5t-156 9.5q-164 0 -240.5 -60.5t-76.5 -195.5zM293 1188l393 178l25 -55l-400 -160z" />
<glyph unicode="&#xe2;" horiz-adv-x="997" d="M104 287q0 160 90.5 233.5t276.5 73.5q78 0 160 -11.5t141 -25.5v123q0 76 -13.5 133t-45 95t-85 57.5t-134.5 19.5q-88 0 -166 -17.5t-138 -43.5l-12 49q59 29 140 47t178 18q184 0 258.5 -89t74.5 -261v-688h-53v252h-2q-16 -51 -47 -99.5t-76 -85t-103.5 -59 t-127.5 -22.5q-147 0 -231.5 70.5t-84.5 230.5zM160 287q0 -133 67.5 -191.5t196.5 -58.5q70 0 133.5 27.5t110.5 79t75.5 123t28.5 159.5v82q-61 16 -139 25.5t-156 9.5q-164 0 -240.5 -60.5t-76.5 -195.5zM258 1159l217 221h51l215 -221h-51l-190 168l-189 -168h-53z" />
<glyph unicode="&#xe3;" horiz-adv-x="997" d="M104 287q0 160 90.5 233.5t276.5 73.5q78 0 160 -11.5t141 -25.5v123q0 76 -13.5 133t-45 95t-85 57.5t-134.5 19.5q-88 0 -166 -17.5t-138 -43.5l-12 49q59 29 140 47t178 18q184 0 258.5 -89t74.5 -261v-688h-53v252h-2q-16 -51 -47 -99.5t-76 -85t-103.5 -59 t-127.5 -22.5q-147 0 -231.5 70.5t-84.5 230.5zM160 287q0 -133 67.5 -191.5t196.5 -58.5q70 0 133.5 27.5t110.5 79t75.5 123t28.5 159.5v82q-61 16 -139 25.5t-156 9.5q-164 0 -240.5 -60.5t-76.5 -195.5zM232 1163q4 92 37.5 144.5t103.5 52.5q41 0 72.5 -22.5t59.5 -49 t55.5 -49t62.5 -22.5q53 0 72.5 36.5t23.5 104.5h49q-4 -92 -36.5 -144.5t-104.5 -52.5q-41 0 -73 22.5t-60.5 49.5t-56 49.5t-60.5 22.5q-53 0 -71.5 -37t-22.5 -105h-51z" />
<glyph unicode="&#xe4;" horiz-adv-x="997" d="M104 287q0 160 90.5 233.5t276.5 73.5q78 0 160 -11.5t141 -25.5v123q0 76 -13.5 133t-45 95t-85 57.5t-134.5 19.5q-88 0 -166 -17.5t-138 -43.5l-12 49q59 29 140 47t178 18q184 0 258.5 -89t74.5 -261v-688h-53v252h-2q-16 -51 -47 -99.5t-76 -85t-103.5 -59 t-127.5 -22.5q-147 0 -231.5 70.5t-84.5 230.5zM160 287q0 -133 67.5 -191.5t196.5 -58.5q70 0 133.5 27.5t110.5 79t75.5 123t28.5 159.5v82q-61 16 -139 25.5t-156 9.5q-164 0 -240.5 -60.5t-76.5 -195.5zM281 1225q0 23 11 37t42 14q29 0 40 -14.5t11 -36.5 q0 -20 -11 -35.5t-40 -15.5q-31 0 -42 15t-11 36zM617 1225q0 23 11 37t40 14t40 -14.5t11 -36.5q0 -20 -11.5 -35.5t-39.5 -15.5q-29 0 -40 15t-11 36z" />
<glyph unicode="&#xe5;" horiz-adv-x="997" d="M104 287q0 160 90.5 233.5t276.5 73.5q78 0 160 -11.5t141 -25.5v123q0 76 -13.5 133t-45 95t-85 57.5t-134.5 19.5q-88 0 -166 -17.5t-138 -43.5l-12 49q59 29 140 47t178 18q184 0 258.5 -89t74.5 -261v-688h-53v252h-2q-16 -51 -47 -99.5t-76 -85t-103.5 -59 t-127.5 -22.5q-147 0 -231.5 70.5t-84.5 230.5zM160 287q0 -133 67.5 -191.5t196.5 -58.5q70 0 133.5 27.5t110.5 79t75.5 123t28.5 159.5v82q-61 16 -139 25.5t-156 9.5q-164 0 -240.5 -60.5t-76.5 -195.5zM324 1339q0 92 48 135.5t128 43.5q82 0 129 -43t47 -136 q0 -92 -47 -136t-129 -44q-80 0 -128 44t-48 136zM371 1339q0 -72 33.5 -102.5t95.5 -30.5q63 0 97 31t34 102q0 134 -131 134q-61 0 -95 -32t-34 -102z" />
<glyph unicode="&#xe6;" horiz-adv-x="1714" d="M127 459v78h700v26q0 92 -18 170t-59 134.5t-109 87t-168 30.5q-86 0 -159.5 -17.5t-133.5 -45.5l-12 49q55 29 132 47t173 18q170 0 261 -83t120 -222h4q27 141 117 224t250 83q115 0 185.5 -41t110.5 -107.5t53 -150.5t13 -172v-82h-700q0 -100 18.5 -182t61.5 -141.5 t113.5 -92t172.5 -32.5q84 0 154 17.5t127 45.5l12 -49q-55 -29 -127.5 -47t-165.5 -18q-172 0 -268 84t-123 221h-4q-29 -141 -117 -223t-252 -82q-115 0 -185.5 41t-110 107.5t-53 151.5t-13.5 173zM182 459q0 -80 10.5 -156t43 -135t93 -95t160.5 -36q96 0 161 30.5 t105 89t56 141.5t16 187h-645v-26zM885 537h647v26q0 80 -10.5 157t-43 135t-93 94t-160.5 36q-96 0 -161 -30.5t-104.5 -89t-57 -141.5t-17.5 -187z" />
<glyph unicode="&#xe7;" horiz-adv-x="901" d="M119 477v68q0 109 22.5 200t71.5 156.5t128 101t191 35.5q78 0 143.5 -16t115.5 -39l-13 -49q-53 23 -110.5 37t-135.5 14q-98 0 -166.5 -32.5t-109.5 -91t-59.5 -139.5t-18.5 -177v-68q0 -96 17.5 -176t59.5 -139.5t108.5 -92t164.5 -32.5q78 0 142.5 16.5t117.5 42.5 l15 -49q-47 -23 -104.5 -39t-129.5 -20l-47 -88q92 0 141.5 -31t49.5 -107q0 -78 -45 -106.5t-117 -28.5q-39 0 -74 6.5t-63 16.5l10 43q25 -10 58.5 -16.5t66.5 -6.5q45 0 77.5 18.5t32.5 73.5q0 53 -32.5 74t-110.5 21h-49v39l57 90q-113 0 -189.5 36.5t-124.5 101 t-69.5 155t-21.5 198.5z" />
<glyph unicode="&#xe8;" horiz-adv-x="1003" d="M119 477v68q0 111 21.5 202t69.5 155.5t123 100t181 35.5q115 0 185.5 -41t110.5 -108.5t53.5 -153.5t13.5 -174v-108h-699q2 -94 22.5 -171t64.5 -131.5t112.5 -84t167.5 -29.5q82 0 150.5 17.5t127.5 45.5l13 -49q-55 -29 -127 -47t-164 -18q-115 0 -196 34.5t-132 99 t-74.5 156t-23.5 201.5zM178 502h643v59q0 80 -10 157t-43 136t-93.5 95t-160.5 36q-96 0 -159.5 -31.5t-103.5 -89t-56.5 -138.5t-16.5 -179v-45zM291 1311l24 55l394 -178l-17 -37z" />
<glyph unicode="&#xe9;" horiz-adv-x="1003" d="M119 477v68q0 111 21.5 202t69.5 155.5t123 100t181 35.5q115 0 185.5 -41t110.5 -108.5t53.5 -153.5t13.5 -174v-108h-699q2 -94 22.5 -171t64.5 -131.5t112.5 -84t167.5 -29.5q82 0 150.5 17.5t127.5 45.5l13 -49q-55 -29 -127 -47t-164 -18q-115 0 -196 34.5t-132 99 t-74.5 156t-23.5 201.5zM178 502h643v59q0 80 -10 157t-43 136t-93.5 95t-160.5 36q-96 0 -159.5 -31.5t-103.5 -89t-56.5 -138.5t-16.5 -179v-45zM293 1188l393 178l25 -55l-400 -160z" />
<glyph unicode="&#xea;" horiz-adv-x="1003" d="M119 477v68q0 111 21.5 202t69.5 155.5t123 100t181 35.5q115 0 185.5 -41t110.5 -108.5t53.5 -153.5t13.5 -174v-108h-699q2 -94 22.5 -171t64.5 -131.5t112.5 -84t167.5 -29.5q82 0 150.5 17.5t127.5 45.5l13 -49q-55 -29 -127 -47t-164 -18q-115 0 -196 34.5t-132 99 t-74.5 156t-23.5 201.5zM178 502h643v59q0 80 -10 157t-43 136t-93.5 95t-160.5 36q-96 0 -159.5 -31.5t-103.5 -89t-56.5 -138.5t-16.5 -179v-45zM260 1159l217 221h51l215 -221h-51l-190 168l-189 -168h-53z" />
<glyph unicode="&#xeb;" horiz-adv-x="1003" d="M119 477v68q0 111 21.5 202t69.5 155.5t123 100t181 35.5q115 0 185.5 -41t110.5 -108.5t53.5 -153.5t13.5 -174v-108h-699q2 -94 22.5 -171t64.5 -131.5t112.5 -84t167.5 -29.5q82 0 150.5 17.5t127.5 45.5l13 -49q-55 -29 -127 -47t-164 -18q-115 0 -196 34.5t-132 99 t-74.5 156t-23.5 201.5zM178 502h643v59q0 80 -10 157t-43 136t-93.5 95t-160.5 36q-96 0 -159.5 -31.5t-103.5 -89t-56.5 -138.5t-16.5 -179v-45zM283 1225q0 23 11 37t42 14q29 0 40 -14.5t11 -36.5q0 -20 -11 -35.5t-40 -15.5q-31 0 -42 15t-11 36zM619 1225q0 23 11 37 t40 14t40 -14.5t11 -36.5q0 -20 -11.5 -35.5t-39.5 -15.5q-29 0 -40 15t-11 36z" />
<glyph unicode="&#xec;" horiz-adv-x="413" d="M-2 1311l24 55l394 -178l-17 -37zM176 0v1024h60v-1024h-60z" />
<glyph unicode="&#xed;" horiz-adv-x="413" d="M0 1188l393 178l25 -55l-400 -160zM176 0v1024h60v-1024h-60z" />
<glyph unicode="&#xee;" horiz-adv-x="413" d="M-35 1159l217 221h51l215 -221h-51l-190 168l-189 -168h-53zM176 0v1024h60v-1024h-60z" />
<glyph unicode="&#xef;" horiz-adv-x="413" d="M-12 1225q0 23 11 37t42 14q29 0 40 -14.5t11 -36.5q0 -20 -11 -35.5t-40 -15.5q-31 0 -42 15t-11 36zM176 0v1024h60v-1024h-60zM324 1225q0 23 11 37t40 14t40 -14.5t11 -36.5q0 -20 -11.5 -35.5t-39.5 -15.5q-29 0 -40 15t-11 36z" />
<glyph unicode="&#xf0;" horiz-adv-x="1058" d="M121 498v47q0 111 22.5 202t70.5 155.5t125 100t187 35.5q121 0 198 -52t130 -144q-27 100 -84 197.5t-141 189.5l-213 -41l-10 45l184 37q-37 39 -76 74.5t-80 70.5l39 35q47 -41 91 -82t83 -86l193 39l10 -47l-166 -33q57 -68 104.5 -142.5t80 -159.5t50 -183.5 t17.5 -214.5v-64q0 -111 -22.5 -202t-71.5 -155.5t-126 -99t-188 -34.5q-115 0 -193.5 36.5t-125.5 104.5t-67.5 162t-20.5 209zM178 498q0 -106 18.5 -191.5t59.5 -146t107.5 -92t164.5 -31.5q96 0 163 31.5t108 90t59.5 139.5t18.5 179v68q0 96 -21.5 177t-64.5 139.5 t-109 91t-154 32.5q-98 0 -164.5 -31.5t-107.5 -89t-59.5 -139.5t-18.5 -180v-47z" />
<glyph unicode="&#xf1;" horiz-adv-x="1105" d="M174 0v1024h51l2 -266h2q14 66 49 118t85.5 87.5t114 55t134.5 19.5q92 0 154.5 -26.5t99.5 -75.5t53.5 -118.5t16.5 -155.5v-662h-59v651q0 78 -12.5 139.5t-43 104.5t-82 65.5t-131.5 22.5q-92 0 -161.5 -31.5t-117.5 -86t-73 -128t-25 -159.5v-578h-57zM285 1163 q4 92 37.5 144.5t103.5 52.5q41 0 72.5 -22.5t59.5 -49t55.5 -49t62.5 -22.5q53 0 72.5 36.5t23.5 104.5h49q-4 -92 -36.5 -144.5t-104.5 -52.5q-41 0 -73 22.5t-60.5 49.5t-56 49.5t-60.5 22.5q-53 0 -71.5 -37t-22.5 -105h-51z" />
<glyph unicode="&#xf2;" horiz-adv-x="1054" d="M119 477v68q0 111 22.5 202t71.5 155.5t125.5 100t187.5 35.5t189 -35.5t127 -100t71.5 -156t22.5 -201.5v-68q0 -111 -22.5 -202t-71.5 -155.5t-127 -99t-189 -34.5t-187.5 34.5t-125.5 99t-71.5 156t-22.5 201.5zM178 477q0 -98 18.5 -179t59.5 -139.5t107.5 -90 t162.5 -31.5t163 31.5t109 90t60.5 139.5t18.5 179v68q0 98 -18.5 180t-60.5 139.5t-108.5 89t-163.5 31.5q-96 0 -162.5 -31.5t-107.5 -89t-59.5 -139.5t-18.5 -180v-68zM318 1311l24 55l394 -178l-17 -37z" />
<glyph unicode="&#xf3;" horiz-adv-x="1054" d="M119 477v68q0 111 22.5 202t71.5 155.5t125.5 100t187.5 35.5t189 -35.5t127 -100t71.5 -156t22.5 -201.5v-68q0 -111 -22.5 -202t-71.5 -155.5t-127 -99t-189 -34.5t-187.5 34.5t-125.5 99t-71.5 156t-22.5 201.5zM178 477q0 -98 18.5 -179t59.5 -139.5t107.5 -90 t162.5 -31.5t163 31.5t109 90t60.5 139.5t18.5 179v68q0 98 -18.5 180t-60.5 139.5t-108.5 89t-163.5 31.5q-96 0 -162.5 -31.5t-107.5 -89t-59.5 -139.5t-18.5 -180v-68zM320 1188l393 178l25 -55l-400 -160z" />
<glyph unicode="&#xf4;" horiz-adv-x="1054" d="M119 477v68q0 111 22.5 202t71.5 155.5t125.5 100t187.5 35.5t189 -35.5t127 -100t71.5 -156t22.5 -201.5v-68q0 -111 -22.5 -202t-71.5 -155.5t-127 -99t-189 -34.5t-187.5 34.5t-125.5 99t-71.5 156t-22.5 201.5zM178 477q0 -98 18.5 -179t59.5 -139.5t107.5 -90 t162.5 -31.5t163 31.5t109 90t60.5 139.5t18.5 179v68q0 98 -18.5 180t-60.5 139.5t-108.5 89t-163.5 31.5q-96 0 -162.5 -31.5t-107.5 -89t-59.5 -139.5t-18.5 -180v-68zM285 1159l217 221h51l215 -221h-51l-190 168l-189 -168h-53z" />
<glyph unicode="&#xf5;" horiz-adv-x="1054" d="M119 477v68q0 111 22.5 202t71.5 155.5t125.5 100t187.5 35.5t189 -35.5t127 -100t71.5 -156t22.5 -201.5v-68q0 -111 -22.5 -202t-71.5 -155.5t-127 -99t-189 -34.5t-187.5 34.5t-125.5 99t-71.5 156t-22.5 201.5zM178 477q0 -98 18.5 -179t59.5 -139.5t107.5 -90 t162.5 -31.5t163 31.5t109 90t60.5 139.5t18.5 179v68q0 98 -18.5 180t-60.5 139.5t-108.5 89t-163.5 31.5q-96 0 -162.5 -31.5t-107.5 -89t-59.5 -139.5t-18.5 -180v-68zM259 1163q4 92 37.5 144.5t103.5 52.5q41 0 72.5 -22.5t59.5 -49t55.5 -49t62.5 -22.5 q53 0 72.5 36.5t23.5 104.5h49q-4 -92 -36.5 -144.5t-104.5 -52.5q-41 0 -73 22.5t-60.5 49.5t-56 49.5t-60.5 22.5q-53 0 -71.5 -37t-22.5 -105h-51z" />
<glyph unicode="&#xf6;" horiz-adv-x="1054" d="M119 477v68q0 111 22.5 202t71.5 155.5t125.5 100t187.5 35.5t189 -35.5t127 -100t71.5 -156t22.5 -201.5v-68q0 -111 -22.5 -202t-71.5 -155.5t-127 -99t-189 -34.5t-187.5 34.5t-125.5 99t-71.5 156t-22.5 201.5zM178 477q0 -98 18.5 -179t59.5 -139.5t107.5 -90 t162.5 -31.5t163 31.5t109 90t60.5 139.5t18.5 179v68q0 98 -18.5 180t-60.5 139.5t-108.5 89t-163.5 31.5q-96 0 -162.5 -31.5t-107.5 -89t-59.5 -139.5t-18.5 -180v-68zM308 1225q0 23 11 37t42 14q29 0 40 -14.5t11 -36.5q0 -20 -11 -35.5t-40 -15.5q-31 0 -42 15t-11 36 zM644 1225q0 23 11 37t40 14t40 -14.5t11 -36.5q0 -20 -11.5 -35.5t-39.5 -15.5q-29 0 -40 15t-11 36z" />
<glyph unicode="&#xf7;" horiz-adv-x="901" d="M84 606v56h729v-56h-729zM395 332q0 23 11.5 40t44.5 17q31 0 43 -17.5t12 -39.5q0 -23 -12.5 -41.5t-42.5 -18.5q-33 0 -44.5 18.5t-11.5 41.5zM395 936q0 23 11.5 40t44.5 17q31 0 43 -17.5t12 -39.5q0 -23 -12.5 -41t-42.5 -18q-33 0 -44.5 18t-11.5 41z" />
<glyph unicode="&#xf8;" horiz-adv-x="1054" d="M119 477v68q0 111 22.5 202t71.5 155.5t127 100t186 35.5q76 0 136.5 -17t105.5 -50l68 114h55l-84 -145q66 -63 96.5 -164.5t30.5 -230.5v-68q0 -111 -22.5 -202t-71.5 -155.5t-126 -99t-188 -34.5q-78 0 -136 16t-105 49l-68 -112h-55l84 145q-66 66 -96.5 165 t-30.5 228zM178 477q0 -111 22.5 -197.5t75.5 -146.5l463 791q-41 29 -93 45t-120 16q-96 0 -162.5 -31.5t-107.5 -89t-59.5 -139.5t-18.5 -180v-68zM313 100q82 -63 213 -63q96 0 163 31.5t109 90t60.5 139.5t18.5 179v68q0 111 -25 197.5t-78 146.5z" />
<glyph unicode="&#xf9;" horiz-adv-x="1083" d="M168 360v664h59v-655q0 -78 13.5 -139.5t44 -103.5t84 -64.5t133.5 -22.5q86 0 151.5 31.5t108.5 87t65.5 132.5t22.5 167v567h59v-1024h-53l-2 256h-2q-31 -123 -123 -196.5t-231 -73.5q-90 0 -153.5 25.5t-102.5 74.5t-56.5 118.5t-17.5 155.5zM330 1311l24 55 l394 -178l-17 -37z" />
<glyph unicode="&#xfa;" horiz-adv-x="1083" d="M168 360v664h59v-655q0 -78 13.5 -139.5t44 -103.5t84 -64.5t133.5 -22.5q86 0 151.5 31.5t108.5 87t65.5 132.5t22.5 167v567h59v-1024h-53l-2 256h-2q-31 -123 -123 -196.5t-231 -73.5q-90 0 -153.5 25.5t-102.5 74.5t-56.5 118.5t-17.5 155.5zM334 1188l393 178 l25 -55l-400 -160z" />
<glyph unicode="&#xfb;" horiz-adv-x="1083" d="M168 360v664h59v-655q0 -78 13.5 -139.5t44 -103.5t84 -64.5t133.5 -22.5q86 0 151.5 31.5t108.5 87t65.5 132.5t22.5 167v567h59v-1024h-53l-2 256h-2q-31 -123 -123 -196.5t-231 -73.5q-90 0 -153.5 25.5t-102.5 74.5t-56.5 118.5t-17.5 155.5zM299 1159l217 221h51 l215 -221h-51l-190 168l-189 -168h-53z" />
<glyph unicode="&#xfc;" horiz-adv-x="1083" d="M168 360v664h59v-655q0 -78 13.5 -139.5t44 -103.5t84 -64.5t133.5 -22.5q86 0 151.5 31.5t108.5 87t65.5 132.5t22.5 167v567h59v-1024h-53l-2 256h-2q-31 -123 -123 -196.5t-231 -73.5q-90 0 -153.5 25.5t-102.5 74.5t-56.5 118.5t-17.5 155.5zM322 1225q0 23 11 37 t42 14q29 0 40 -14.5t11 -36.5q0 -20 -11 -35.5t-40 -15.5q-31 0 -42 15t-11 36zM658 1225q0 23 11 37t40 14t40 -14.5t11 -36.5q0 -20 -11.5 -35.5t-39.5 -15.5q-29 0 -40 15t-11 36z" />
<glyph unicode="&#xfd;" horiz-adv-x="917" d="M47 -399l8 51q55 -23 131 -23q84 0 130 57.5t85 168.5l45 135l-399 1034h62l299 -774q39 -102 65 -199h4q12 49 28.5 99.5t35.5 101.5l268 772h63l-417 -1186q-45 -131 -103.5 -197.5t-163.5 -66.5q-41 0 -77.5 8t-63.5 19zM248 1188l393 178l25 -55l-400 -160z" />
<glyph unicode="&#xfe;" horiz-adv-x="1083" d="M178 -410v1844h58v-410q0 -66 -1.5 -127t-3.5 -125h2q35 125 132.5 195.5t232.5 70.5q199 0 283 -131t84 -360v-70q0 -231 -88.5 -361t-280.5 -130q-135 0 -231.5 69.5t-128.5 196.5h-3q2 -59 2.5 -124t0.5 -128v-410h-58zM236 461q0 -86 22.5 -163t66.5 -134.5 t110.5 -91t154.5 -33.5q172 0 244.5 115.5t72.5 322.5v70q0 100 -15 181t-52 138.5t-97.5 87t-148.5 29.5t-155.5 -31.5t-112.5 -86t-67.5 -125t-22.5 -148.5v-131z" />
<glyph unicode="&#xff;" horiz-adv-x="917" d="M47 -399l8 51q55 -23 131 -23q84 0 130 57.5t85 168.5l45 135l-399 1034h62l299 -774q39 -102 65 -199h4q12 49 28.5 99.5t35.5 101.5l268 772h63l-417 -1186q-45 -131 -103.5 -197.5t-163.5 -66.5q-41 0 -77.5 8t-63.5 19zM240 1225q0 23 11 37t42 14q29 0 40 -14.5 t11 -36.5q0 -20 -11 -35.5t-40 -15.5q-31 0 -42 15t-11 36zM576 1225q0 23 11 37t40 14t40 -14.5t11 -36.5q0 -20 -11.5 -35.5t-39.5 -15.5q-29 0 -40 15t-11 36z" />
<glyph unicode="&#x152;" horiz-adv-x="2011" d="M131 670v94q0 154 27.5 279.5t90 216t165 139.5t250.5 49q199 0 311 -94t153 -252v332h758v-58h-696v-624h665v-58h-665v-639h711v-55h-773v330q-43 -160 -154.5 -253t-309.5 -93q-147 0 -250 49t-165.5 140t-90 217t-27.5 280zM190 670q0 -139 24 -255t79 -199 t146.5 -129t226.5 -46q133 0 222 46t142 129t75.5 198.5t22.5 255.5v106q0 137 -23.5 250t-77.5 193.5t-142 126t-219 45.5q-135 0 -226.5 -46.5t-146.5 -129t-79 -197.5t-24 -254v-94z" />
<glyph unicode="&#x153;" horiz-adv-x="1755" d="M119 477v66q0 113 22.5 204t70.5 155.5t125 100t185 35.5q164 0 254 -85t121 -218q31 135 117 219t250 84q115 0 186.5 -41t111.5 -107.5t53 -152.5t13 -174v-110h-702q2 -92 22.5 -168t64.5 -131.5t113.5 -86t167.5 -30.5q84 0 154 17.5t127 45.5l12 -49 q-55 -29 -128 -47t-167 -18q-174 0 -269 84t-124 219h-4q-29 -135 -118 -219t-255 -84q-109 0 -185.5 34.5t-124.5 99t-70.5 156t-22.5 201.5zM178 477q0 -98 17.5 -179t58.5 -139.5t106.5 -90t161.5 -31.5q98 0 164 32.5t107 91t58 139.5t17 177v68q0 96 -17 177t-58 139.5 t-106.5 91t-164.5 32.5q-96 0 -161.5 -31.5t-106.5 -89t-58.5 -139.5t-17.5 -180v-68zM926 502h645v61q0 80 -10.5 157t-42 135t-93 94t-161.5 36q-102 0 -168 -37t-104 -101.5t-52 -152.5t-14 -192z" />
<glyph unicode="&#x178;" horiz-adv-x="1157" d="M47 1434h68l336 -576q39 -68 69.5 -126t52.5 -105h9q23 47 53.5 105.5t71.5 125.5l333 576h70l-502 -859v-575h-59v575zM359 1635q0 23 11 37t42 14q29 0 40 -14.5t11 -36.5q0 -20 -11 -35.5t-40 -15.5q-31 0 -42 15t-11 36zM695 1635q0 23 11 37t40 14t40 -14.5 t11 -36.5q0 -20 -11.5 -35.5t-39.5 -15.5q-29 0 -40 15t-11 36z" />
<glyph unicode="&#x2c6;" horiz-adv-x="581" d="M49 1159l217 221h51l215 -221h-51l-190 168l-189 -168h-53z" />
<glyph unicode="&#x2dc;" horiz-adv-x="581" d="M23 1163q4 92 37.5 144.5t103.5 52.5q41 0 72.5 -22.5t59.5 -49t55.5 -49t62.5 -22.5q53 0 72.5 36.5t23.5 104.5h49q-4 -92 -36.5 -144.5t-104.5 -52.5q-41 0 -73 22.5t-60.5 49.5t-56 49.5t-60.5 22.5q-53 0 -71.5 -37t-22.5 -105h-51z" />
<glyph unicode="&#x2000;" horiz-adv-x="895" />
<glyph unicode="&#x2001;" horiz-adv-x="1790" />
<glyph unicode="&#x2002;" horiz-adv-x="895" />
<glyph unicode="&#x2003;" horiz-adv-x="1790" />
<glyph unicode="&#x2004;" horiz-adv-x="596" />
<glyph unicode="&#x2005;" horiz-adv-x="447" />
<glyph unicode="&#x2006;" horiz-adv-x="298" />
<glyph unicode="&#x2007;" horiz-adv-x="298" />
<glyph unicode="&#x2008;" horiz-adv-x="223" />
<glyph unicode="&#x2009;" horiz-adv-x="358" />
<glyph unicode="&#x200a;" horiz-adv-x="99" />
<glyph unicode="&#x2010;" horiz-adv-x="694" d="M68 647v53h561v-53h-561z" />
<glyph unicode="&#x2011;" horiz-adv-x="694" d="M68 647v53h561v-53h-561z" />
<glyph unicode="&#x2012;" horiz-adv-x="694" d="M68 647v53h561v-53h-561z" />
<glyph unicode="&#x2013;" horiz-adv-x="999" d="M66 645v55h868v-55h-868z" />
<glyph unicode="&#x2014;" horiz-adv-x="1361" d="M66 645v55h1230v-55h-1230z" />
<glyph unicode="&#x2018;" horiz-adv-x="346" d="M102 1038l121 443l43 -13l-86 -448z" />
<glyph unicode="&#x2019;" horiz-adv-x="344" d="M78 1030l86 449l78 -19l-121 -440z" />
<glyph unicode="&#x201a;" horiz-adv-x="344" d="M80 -317l84 452l78 -20l-119 -441z" />
<glyph unicode="&#x201c;" horiz-adv-x="573" d="M98 1038l121 443l43 -13l-86 -448zM334 1038l121 443l43 -13l-88 -448z" />
<glyph unicode="&#x201d;" horiz-adv-x="573" d="M76 1028l88 453l76 -21l-121 -440zM309 1028l88 453l76 -21l-119 -440z" />
<glyph unicode="&#x201e;" horiz-adv-x="573" d="M76 -317l88 452l76 -20l-121 -441zM309 -317l88 452l76 -20l-119 -441z" />
<glyph unicode="&#x2022;" horiz-adv-x="499" d="M106 563q0 31 7.5 58.5t25 50t44 36t67.5 13.5q39 0 66.5 -13.5t45 -36t24.5 -50t7 -58.5q0 -59 -31.5 -107t-111.5 -48t-112 48t-32 107z" />
<glyph unicode="&#x2026;" horiz-adv-x="1165" d="M139 43q0 23 11.5 39t42.5 16q29 0 40 -16t11 -39q0 -20 -11.5 -35.5t-39.5 -15.5q-31 0 -42.5 15.5t-11.5 35.5zM528 43q0 23 12.5 39t41.5 16t41 -16t12 -39q0 -20 -12.5 -35.5t-40.5 -15.5q-29 0 -41.5 15.5t-12.5 35.5zM920 43q0 23 12 39t41 16t40 -16t11 -39 q0 -20 -11.5 -35.5t-39.5 -15.5q-29 0 -41 15.5t-12 35.5z" />
<glyph unicode="&#x202f;" horiz-adv-x="358" />
<glyph unicode="&#x2039;" horiz-adv-x="524" d="M92 676l236 389h63l-239 -389l239 -389h-63z" />
<glyph unicode="&#x203a;" horiz-adv-x="524" d="M133 287l240 389l-240 389h64l237 -389l-237 -389h-64z" />
<glyph unicode="&#x205f;" horiz-adv-x="447" />
<glyph unicode="&#x20ac;" d="M51 571v54h166q-6 88 0 186h-166v51h170q8 111 37 215.5t84 187.5t142 133t214 50q96 0 164 -31t119 -74l-14 -55q-53 45 -117 74t-150 29q-109 0 -183.5 -43t-123.5 -115t-75.5 -168t-34.5 -203h551v-51h-555q-4 -45 -4.5 -91t4.5 -95h485v-54h-481q8 -102 34.5 -197 t75.5 -169t125 -119t187 -45q88 0 151.5 26.5t122.5 75.5l16 -53q-51 -45 -122.5 -74.5t-170.5 -29.5q-125 0 -212 48t-143 130t-86 187.5t-40 219.5h-170z" />
<glyph unicode="&#x2122;" horiz-adv-x="1232" d="M55 1386v48h424v-48h-186v-501h-51v501h-187zM596 885v549h51l199 -355l196 355h54v-549h-52v229v130.5t5 121.5q-14 -31 -48 -92.5t-69 -126.5l-68 -121h-37q-27 47 -56.5 98.5t-55 98.5t-45 85t-27.5 58q2 -55 2 -120.5v-131.5v-229h-49z" />
<glyph unicode="&#x25fc;" horiz-adv-x="1024" d="M0 0v1024h1024v-1024h-1024z" />
<glyph unicode="&#xfb03;" horiz-adv-x="1527" d="M49 973v51h193v115q0 152 56 229.5t198 77.5q45 0 86 -7t73 -18l-12 -51q-55 20 -143 21q-61 0 -99.5 -16.5t-61 -49.5t-30.5 -82t-8 -113v-106h469v74q0 82 16.5 146.5t53.5 109.5t96 68.5t145 23.5q61 0 113.5 -9.5t97.5 -25.5l-14 -51q-43 16 -90 24.5t-105 8.5 q-74 0 -123 -20.5t-78.5 -59.5t-41 -95.5t-11.5 -125.5v-68h523v-1024h-60v973h-463v-973h-59v973h-469v-973h-59v973h-193z" />
<glyph unicode="&#xfb04;" horiz-adv-x="1550" d="M49 973v51h193v115q0 152 56 229.5t198 77.5q45 0 86 -7t73 -18l-12 -51q-55 20 -143 21q-61 0 -99.5 -16.5t-61 -49.5t-30.5 -82t-8 -113v-106h469v70q0 82 15.5 147.5t53.5 111.5t103.5 69.5t163.5 23.5q68 0 136.5 -9.5t129.5 -27.5v-1409h-57v1368q-86 25 -207 25 q-86 0 -140.5 -19.5t-85 -58.5t-42 -95.5t-11.5 -129.5v-66h291v-51h-291v-973h-59v973h-469v-973h-59v973h-193z" />
</font>
</defs>
</svg>
