<?xml version="1.0" standalone="no"?>
<!DOCTYPE svg PUBLIC "-//W3C//DTD SVG 1.1//EN" "http://www.w3.org/Graphics/SVG/1.1/DTD/svg11.dtd" >
<svg xmlns="http://www.w3.org/2000/svg">
<metadata></metadata>
<defs>
<font id="rleud-demiuploaded_file" horiz-adv-x="997" >
<font-face units-per-em="2048" ascent="1579" descent="-469" />
<missing-glyph horiz-adv-x="534" />
<glyph unicode="&#xfb01;" horiz-adv-x="1204" d="M20 842v182h185v49q0 84 22.5 153.5t73.5 120t132 78t198 27.5q86 0 158.5 -13.5t119.5 -29.5l-18 -176q-47 14 -98.5 22.5t-108.5 8.5q-137 0 -187.5 -53.5t-50.5 -145.5v-41h619v-1024h-244v842h-372v-842h-244v842h-185z" />
<glyph unicode="&#xfb02;" horiz-adv-x="1218" d="M20 842v182h185v49q0 86 23.5 155.5t78.5 120t144.5 77t222.5 26.5q111 0 221.5 -15.5t183.5 -37.5v-1399h-243v1251q-70 16 -150 17q-137 0 -188.5 -57.5t-51.5 -147.5v-39h232v-182h-229v-842h-244v842h-185z" />
<glyph horiz-adv-x="0" />
<glyph horiz-adv-x="0" />
<glyph unicode="&#xd;" horiz-adv-x="350" />
<glyph unicode=" "  horiz-adv-x="534" />
<glyph unicode="&#x09;" horiz-adv-x="534" />
<glyph unicode="&#xa0;" horiz-adv-x="534" />
<glyph unicode="!" horiz-adv-x="569" d="M133 131q0 57 33 101t119 44t117.5 -44t31.5 -101t-31.5 -102t-117.5 -45t-119 45t-33 102zM141 1434h287l-37 -1004h-213z" />
<glyph unicode="&#x22;" horiz-adv-x="716" d="M84 1434h217l-27 -510h-161zM416 1434h215l-27 -510h-162z" />
<glyph unicode="#" horiz-adv-x="1265" d="M80 373v178h174l55 330h-145v178h178l66 375h217l-66 -375h266l66 375h215l-62 -375h142v-178h-174l-58 -330h146v-178h-178l-64 -373h-217l64 373h-267l-63 -373h-217l63 373h-141zM467 547h274l58 338h-277z" />
<glyph unicode="$" horiz-adv-x="1265" d="M117 408h237q0 -104 63.5 -161t209.5 -57q129 0 196.5 40t67.5 135q0 61 -23.5 103t-65.5 71.5t-98 52t-122 45.5q-82 31 -162 64.5t-142.5 83t-101.5 120t-39 172.5q0 166 92.5 260.5t305.5 110.5v211h204v-215q100 -10 171 -42t116 -82t66.5 -115.5t23.5 -145.5h-239 q0 82 -54.5 131t-195.5 49q-129 0 -184.5 -34t-55.5 -103q0 -51 27.5 -90t71.5 -69t99.5 -53.5t112.5 -43.5q100 -37 182.5 -76t140.5 -89t91 -119.5t33 -170.5q0 -369 -406 -405v-211h-204v209q-217 18 -317.5 125.5t-100.5 298.5z" />
<glyph unicode="%" horiz-adv-x="1400" d="M53 1102q0 166 70 256t215 90t215 -90t70 -256t-70 -256t-215 -90t-215 90t-70 256zM184 0l822 1434h211l-824 -1434h-209zM231 1102q0 -92 21.5 -144.5t85.5 -52.5q61 0 84.5 52.5t23.5 144.5t-23.5 144t-84.5 52q-63 0 -85 -52t-22 -144zM776 332q0 164 71 255t216 91 t215 -91t70 -255q0 -166 -70 -256t-215 -90t-216 90t-71 256zM954 332q0 -92 22.5 -144.5t86.5 -52.5q61 0 83.5 52.5t22.5 144.5t-22.5 144t-83.5 52q-63 0 -86 -52t-23 -144z" />
<glyph unicode="&#x26;" horiz-adv-x="1335" d="M98 416q0 98 24.5 173t67.5 130t99.5 91t122.5 56q-47 57 -76 123t-29 152q0 147 91 230t288 83q193 0 279 -89t86 -230q0 -63 -18.5 -107.5t-49.5 -81.5h238v-166h-428v150q29 27 45 65.5t16 100.5q0 72 -34 119t-124 47q-86 0 -121.5 -39t-35.5 -99q0 -76 47 -147.5 t96 -136.5l618 -840h-241l-463 635q-14 20 -28.5 40.5t-28.5 43.5q-86 -23 -139.5 -98.5t-53.5 -192.5q0 -109 58.5 -176.5t185.5 -67.5q49 0 96 9.5t94 33.5l54 -186q-59 -35 -125 -48t-150 -13q-102 0 -187 26.5t-145.5 79.5t-94.5 136t-34 194z" />
<glyph unicode="'" horiz-adv-x="401" d="M92 1434h215l-24 -510h-162z" />
<glyph unicode="(" horiz-adv-x="573" d="M127 578q0 135 23.5 259t63.5 236.5t95.5 214t116.5 191.5l119 -70q-57 -106 -96 -207.5t-64 -204t-36 -206t-11 -213.5q0 -109 11 -212.5t36 -206t63.5 -203.5t96.5 -208l-119 -70q-61 88 -116.5 189.5t-95.5 214.5t-63.5 237t-23.5 259z" />
<glyph unicode=")" horiz-adv-x="573" d="M27 -252q57 106 97 207.5t64.5 204t34.5 206t10 212.5q0 111 -10 214t-34.5 205.5t-64.5 204t-97 207.5l118 70q63 -90 117.5 -191.5t94.5 -214t63.5 -236.5t23.5 -259t-23.5 -259t-63.5 -237t-94 -214t-118 -190z" />
<glyph unicode="*" horiz-adv-x="950" d="M102 1079l76 193l213 -107l-20 269h207l-21 -269l215 107l74 -193l-248 -80l190 -219l-165 -131l-148 250l-147 -250l-168 131l192 219z" />
<glyph unicode="+" d="M66 553v203h319v393h227v-393h320v-203h-320v-393h-227v393h-319z" />
<glyph unicode="," horiz-adv-x="483" d="M72 -221l69 500l265 -41l-173 -506z" />
<glyph unicode="-" horiz-adv-x="757" d="M57 571v207h643v-207h-643z" />
<glyph unicode="." horiz-adv-x="483" d="M90 133q0 55 33 100.5t119 45.5q84 0 116.5 -45.5t32.5 -100.5q0 -57 -32.5 -102t-116.5 -45q-86 0 -119 45t-33 102z" />
<glyph unicode="/" horiz-adv-x="645" d="M16 -41l412 1516h201l-414 -1516h-199z" />
<glyph unicode="0" horiz-adv-x="1288" d="M92 717q0 205 41 345t115 227t175 126t222 39q119 0 219.5 -39t174 -126t115.5 -227t42 -345t-42 -346.5t-115.5 -228.5t-174 -126t-219.5 -39q-121 0 -222 39t-175 126t-115 228.5t-41 346.5zM348 717q0 -150 19.5 -251t58.5 -162.5t93 -87.5t126 -26q70 0 125 26 t93 87.5t57.5 162.5t19.5 251t-19.5 250t-57.5 161.5t-93 87t-125 25.5q-72 0 -126 -25.5t-93 -87t-58.5 -162t-19.5 -249.5z" />
<glyph unicode="1" horiz-adv-x="784" d="M41 1192l350 242h227v-1434h-251v1163l-263 -143z" />
<glyph unicode="2" horiz-adv-x="1130" d="M90 0v188l502 535q27 29 58.5 65.5t56 79.5t40 91.5t11.5 101.5q-4 96 -67.5 137t-170.5 41q-98 0 -191 -21.5t-175 -54.5l-52 199q86 41 199 67.5t242 26.5q217 0 342 -98t125 -301q0 -80 -23.5 -147.5t-61.5 -126t-86 -113t-98 -107.5l-321 -350h612v-213h-942z" />
<glyph unicode="3" horiz-adv-x="1099" d="M47 63l49 201q170 -70 353 -69q61 0 116.5 12t97.5 42t66.5 77t24.5 116q0 59 -18.5 98.5t-52.5 62t-82 31.5t-107 9h-187v199h180q129 0 190.5 52t61.5 153q0 109 -69.5 151.5t-200.5 42.5q-98 0 -187 -20.5t-165 -55.5l-49 199q92 41 201.5 65.5t230.5 24.5 q227 0 353 -93t126 -298q0 -66 -16.5 -116t-44 -89t-62.5 -65.5t-74 -40.5v-2q100 -29 163 -111t63 -231q0 -115 -38 -196t-107.5 -133t-166 -77t-215.5 -25q-133 0 -237.5 23t-196.5 63z" />
<glyph unicode="4" horiz-adv-x="1198" d="M57 260v172l435 1002h256l-422 -969h411l21 475h223v-475h174v-205h-174v-260h-244v260h-680z" />
<glyph unicode="5" horiz-adv-x="1169" d="M74 72l47 200q84 -37 182.5 -58t198.5 -21q74 0 133 14t101 47t64.5 87t22.5 136q0 141 -67.5 199.5t-180.5 58.5q-86 0 -154.5 -27.5t-115.5 -64.5h-201l43 791h846v-209h-637l-20 -369q41 27 118.5 50.5t176.5 23.5q92 0 173 -24.5t141.5 -79t94 -141.5t33.5 -212 q0 -135 -42 -228t-115.5 -151.5t-175 -85t-222.5 -26.5q-135 0 -246.5 24.5t-197.5 65.5z" />
<glyph unicode="6" horiz-adv-x="1193" d="M96 670q0 401 148.5 592.5t439.5 191.5q96 0 180 -21.5t148 -52.5l-49 -190q-59 29 -126 45t-139 16q-98 0 -164.5 -31.5t-107.5 -89t-60.5 -139.5t-23.5 -180q55 47 147.5 82t200.5 35q92 0 169 -28t131 -85t85 -143t31 -205t-35 -210t-97.5 -153.5t-151.5 -94.5 t-197 -32q-264 0 -396.5 180.5t-132.5 512.5zM342 623q0 -211 69.5 -329t204.5 -118q129 0 190.5 76t61.5 209q0 137 -51 205.5t-174 68.5q-86 0 -168 -32.5t-133 -79.5z" />
<glyph unicode="7" horiz-adv-x="1077" d="M61 1217v217h928v-197l-500 -1237h-268l494 1217h-654z" />
<glyph unicode="8" horiz-adv-x="1224" d="M94 399q0 76 19.5 135.5t51.5 103.5t74 73.5t87 46.5v2q-39 14 -75 38.5t-63.5 63.5t-45 91.5t-17.5 121.5q0 84 25.5 154.5t83 121t150.5 78t226 27.5q135 0 227.5 -27.5t151 -78t84 -121t25.5 -154.5q0 -70 -17.5 -122t-45 -91t-63.5 -64.5t-73 -39.5q45 -16 87 -46 t74 -74t51 -103.5t19 -135.5q0 -115 -36.5 -194.5t-105 -130.5t-165 -74t-213.5 -23q-115 0 -210 23t-162.5 74t-105.5 131t-38 194zM338 418q0 -129 68.5 -188.5t203.5 -59.5q137 0 205 59.5t68 188.5q0 123 -60.5 185.5t-175.5 62.5h-69q-115 0 -177.5 -62.5t-62.5 -185.5 zM362 1053q0 -98 52.5 -154.5t163.5 -56.5h69q111 0 163 56t52 155q0 102 -57.5 155.5t-194.5 53.5q-135 0 -191.5 -54.5t-56.5 -154.5z" />
<glyph unicode="9" horiz-adv-x="1193" d="M88 967q0 119 35 210t97.5 152.5t151.5 93t197 31.5q262 0 395.5 -180t133.5 -512q0 -401 -147.5 -593t-442.5 -192q-94 0 -180 21.5t-150 52.5l49 193q59 -29 126 -46.5t141 -17.5q98 0 164.5 32t107.5 90t60.5 139t23.5 182q-55 -47 -146.5 -83t-201.5 -36 q-92 0 -168 27.5t-131.5 85t-85 144.5t-29.5 206zM324 971q0 -137 52 -206t175 -69q86 0 167 34t134 81q-2 211 -70.5 327.5t-206.5 116.5q-127 0 -189 -75.5t-62 -208.5z" />
<glyph unicode=":" horiz-adv-x="540" d="M121 129q0 57 31.5 101t117.5 44q84 0 116 -44t32 -101q0 -55 -32 -99t-116 -44q-86 0 -117.5 44t-31.5 99zM121 909q0 55 31.5 99.5t117.5 44.5q84 0 116 -44t32 -100q0 -55 -32 -100t-116 -45q-86 0 -117.5 45t-31.5 100z" />
<glyph unicode=";" horiz-adv-x="540" d="M88 -219l70 495l260 -40l-168 -502zM119 909q0 55 32.5 99.5t118.5 44.5q84 0 116 -44t32 -100q0 -55 -32 -100t-116 -45q-86 0 -118.5 45t-32.5 100z" />
<glyph unicode="&#x3c;" d="M45 551v143l846 510v-239l-592 -342l592 -342v-240z" />
<glyph unicode="=" d="M88 256v180h821v-180h-821zM88 633v180h821v-180h-821z" />
<glyph unicode="&#x3e;" d="M106 41v240l592 342l-592 342v239l846 -510v-143z" />
<glyph unicode="?" horiz-adv-x="1046" d="M66 1368q84 39 190.5 63.5t235.5 24.5q98 0 182 -18.5t145.5 -60.5t96 -108.5t34.5 -162.5q0 -76 -24.5 -135.5t-62.5 -108.5t-82 -92t-81.5 -84t-62.5 -84t-25 -92v-76h-231v76q0 84 42 149.5t95 123t103.5 113.5t66.5 124q14 51 8 90t-26.5 64.5t-53 41t-72.5 22.5 t-85 7q-88 0 -173 -18.5t-171 -50.5zM350 131q0 55 33 100t119 45t117.5 -45t31.5 -100q0 -57 -31.5 -102t-117.5 -45t-119 45t-33 102z" />
<glyph unicode="@" horiz-adv-x="1923" d="M119 547q0 195 52 360.5t158.5 286.5t267.5 189.5t378 68.5t373.5 -68.5t258 -190.5t149.5 -289t48 -363q0 -143 -24.5 -248t-68.5 -173.5t-102 -101t-126 -32.5q-98 0 -152.5 59t-66.5 148q-18 -47 -47 -86t-70 -68t-95.5 -45.5t-127.5 -16.5q-193 0 -298.5 123 t-105.5 377v64q0 115 24.5 209t79 160.5t141.5 103.5t212 37q117 0 200 -35t134 -96.5t74.5 -142.5t23.5 -173v-266q0 -182 88 -182q61 0 103 89t42 296q0 164 -36.5 303t-116.5 240.5t-207 158.5t-307 57q-178 0 -308 -54t-215 -153.5t-127 -238.5t-42 -307 q0 -164 43 -313.5t139 -276.5l-129 -92q-106 133 -161.5 315t-55.5 367zM741 477q0 -160 49.5 -235.5t161.5 -75.5q123 0 180.5 85t57.5 232v119q0 117 -48 187.5t-165 70.5q-70 0 -115 -21.5t-71.5 -62.5t-38 -100.5t-11.5 -134.5v-64z" />
<glyph unicode="A" horiz-adv-x="1359" d="M31 0l504 1434h292l502 -1434h-264l-107 326h-557l-106 -326h-264zM467 528h428l-135 412q-23 66 -40.5 131.5t-35.5 136.5h-8q-47 -180 -101.5 -344t-107.5 -336z" />
<glyph unicode="B" horiz-adv-x="1310" d="M154 0v1434h567q244 0 350.5 -95.5t106.5 -291.5q0 -70 -16.5 -123.5t-44 -92t-63.5 -62.5t-75 -36v-6q109 -16 174.5 -96t65.5 -228q0 -215 -125 -309t-373 -94h-567zM401 209h308q74 0 124 10t80.5 35t44 64.5t13.5 99.5q0 117 -62.5 161t-191.5 44h-316v-414zM401 827 h312q111 0 166 45t55 160q0 109 -51.5 150t-182.5 41h-299v-396z" />
<glyph unicode="C" horiz-adv-x="1226" d="M102 678v76q0 164 37 294t115 220t197.5 138t285.5 48q123 0 223.5 -24.5t178.5 -63.5l-49 -201q-74 33 -152 50.5t-168 17.5q-217 0 -314.5 -127t-97.5 -352v-76q0 -109 20.5 -197t68 -151.5t124 -97t191.5 -33.5q96 0 179 18.5t161 54.5l51 -198q-78 -41 -182.5 -69 t-231.5 -28q-170 0 -289.5 49.5t-197.5 141.5t-114 221t-36 289z" />
<glyph unicode="D" horiz-adv-x="1380" d="M154 0v1434h522q166 0 281.5 -46.5t188.5 -134.5t104.5 -213t31.5 -280v-78q0 -160 -32.5 -287t-106.5 -214t-189.5 -134t-281.5 -47h-518zM408 223h258q104 0 173.5 32t111.5 91.5t58.5 144t16.5 191.5v78q0 109 -16.5 192.5t-58.5 140t-112.5 86t-176.5 29.5h-254v-985 z" />
<glyph unicode="E" horiz-adv-x="1161" d="M154 0v1434h897v-222h-648v-387h613v-217h-613v-389h660v-219h-909z" />
<glyph unicode="F" horiz-adv-x="1112" d="M154 0v1434h874v-224h-625v-440h598v-221h-598v-549h-249z" />
<glyph unicode="G" horiz-adv-x="1361" d="M102 678v76q0 164 42 294t126 220t208 138t290 48q131 0 243.5 -26.5t190.5 -67.5l-53 -199q-72 35 -162 54.5t-186 19.5q-240 0 -341.5 -127t-101.5 -354v-76q0 -109 21.5 -198t71 -151.5t127 -97t188.5 -34.5q59 0 116.5 8t110.5 26v390h-297v196h531v-729 q-88 -51 -210 -81t-251 -30q-336 0 -500 185.5t-164 515.5z" />
<glyph unicode="H" horiz-adv-x="1400" d="M154 0v1434h254v-605h585v605h254v-1434h-254v602h-585v-602h-254z" />
<glyph unicode="I" horiz-adv-x="567" d="M158 0v1434h252v-1434h-252z" />
<glyph unicode="J" d="M51 57l49 207q53 -29 117 -45t139 -16q135 0 188.5 68.5t53.5 222.5v720h-258v220h512v-951q0 -135 -32 -231t-90 -156.5t-142 -89.5t-191 -29q-111 0 -198.5 23t-147.5 57z" />
<glyph unicode="K" horiz-adv-x="1325" d="M154 0v1434h254v-686l581 686h301l-477 -570l490 -864h-285l-379 680l-231 -266v-414h-254z" />
<glyph unicode="L" horiz-adv-x="1073" d="M154 0v1434h254v-1211h606v-223h-860z" />
<glyph unicode="M" horiz-adv-x="1628" d="M154 0v1434h276l385 -779l383 779h277v-1434h-248v735q0 74 3 170t11 187h-6q-29 -80 -68 -170.5t-77 -163.5l-185 -352h-182l-182 352q-41 74 -80 164t-68 170h-6q8 -90 11 -186.5t3 -170.5v-735h-247z" />
<glyph unicode="N" horiz-adv-x="1449" d="M154 0v1434h258l454 -729q57 -92 109.5 -189.5t91.5 -185.5h6q-10 109 -15 220.5t-5 227.5v656h245v-1434h-258l-444 707q-61 96 -116.5 198.5t-94.5 196.5h-6q18 -215 18 -449v-653h-243z" />
<glyph unicode="O" horiz-adv-x="1413" d="M102 678v76q0 164 35 294t108.5 220t187.5 138t274 48q158 0 271.5 -48t187 -138t108.5 -220t35 -294v-76q0 -164 -35 -293t-108.5 -220t-187.5 -139.5t-271 -48.5q-160 0 -274 48.5t-187.5 139.5t-108.5 220t-35 293zM358 678q0 -113 17.5 -202t57.5 -151.5t108 -95 t166 -32.5t164.5 32.5t107.5 95t58.5 151.5t17.5 202v76q0 113 -17.5 201.5t-58.5 151t-107.5 96.5t-164.5 34t-166 -34t-108 -96.5t-57.5 -151.5t-17.5 -201v-76z" />
<glyph unicode="P" horiz-adv-x="1277" d="M154 0v1434h548q246 0 365 -114t119 -366q0 -256 -121 -370.5t-365 -114.5h-292v-469h-254zM406 684h286q131 0 187.5 63.5t56.5 206.5q0 141 -55.5 203t-186.5 62h-288v-535z" />
<glyph unicode="Q" horiz-adv-x="1413" d="M102 678v76q0 164 35 294t108.5 220t187.5 138t274 48q158 0 271.5 -48t187 -138t108.5 -220t35 -294v-76q0 -164 -35 -293t-108.5 -220t-187.5 -139.5t-271 -48.5q-160 0 -274 48.5t-187.5 139.5t-108.5 220t-35 293zM358 678q0 -113 17.5 -202t57.5 -151.5t108 -95 t166 -32.5t164.5 32.5t107.5 95t58.5 151.5t17.5 202v76q0 113 -17.5 201.5t-58.5 151t-107.5 96.5t-164.5 34t-166 -34t-108 -96.5t-57.5 -151.5t-17.5 -201v-76zM362 -283l44 177q184 -23 365 -74t347 -137l-76 -187q-154 88 -324.5 143.5t-355.5 77.5z" />
<glyph unicode="R" horiz-adv-x="1318" d="M154 0v1434h591q248 0 360 -108.5t112 -346.5q0 -96 -21.5 -168t-60.5 -123t-90.5 -84t-112.5 -49l313 -555h-262l-297 530h-278v-530h-254zM403 735h326q133 0 185.5 55.5t52.5 186.5q0 70 -13.5 117t-45 75.5t-83 40t-125.5 11.5h-297v-486z" />
<glyph unicode="S" horiz-adv-x="1165" d="M82 72l53 204q90 -39 192.5 -61t221.5 -22q154 0 215 45t61 149q0 55 -16 93t-52 65.5t-92.5 50t-134.5 47.5q-88 27 -165.5 59.5t-137 83t-94.5 122t-35 173.5q0 184 116 278.5t378 94.5q131 0 242.5 -25.5t197.5 -60.5l-51 -197q-92 33 -183 51.5t-194 18.5 q-141 0 -199.5 -37t-58.5 -121q0 -49 21.5 -83.5t62.5 -61.5t100.5 -48.5t137.5 -45.5q96 -31 173 -68t129 -88t79.5 -122.5t27.5 -172.5q0 -211 -127 -313.5t-389 -102.5q-158 0 -271.5 25t-207.5 70z" />
<glyph unicode="T" horiz-adv-x="1171" d="M39 1208v226h1091v-226q-104 2 -208.5 2t-208.5 2v-1212h-254v1212q-106 -2 -211 -2t-209 -2z" />
<glyph unicode="U" horiz-adv-x="1386" d="M145 582v852h254v-846q0 -102 13.5 -175t47.5 -120t90 -69.5t142 -22.5t142.5 22.5t90 69.5t48 119.5t14.5 175.5v846h254v-852q0 -147 -29.5 -261t-95 -190t-170 -115t-254.5 -39t-254 39t-168.5 115t-94.5 189.5t-30 261.5z" />
<glyph unicode="V" horiz-adv-x="1320" d="M33 1434h266l264 -832q33 -94 54.5 -185t39.5 -190h9q16 98 38.5 188.5t53.5 186.5l264 832h266l-479 -1434h-295z" />
<glyph unicode="W" horiz-adv-x="2002" d="M49 1434h258l174 -693q31 -121 50.5 -239.5t35.5 -249.5h6q20 131 45 251t60 238l196 693h254l197 -693q35 -119 59.5 -238.5t45.5 -250.5h6q16 131 35.5 250t50.5 239l176 693h256l-373 -1434h-274l-222 788q-29 98 -48 196.5t-31 193.5h-9q-12 -94 -31.5 -192.5 t-47.5 -197.5l-222 -788h-274z" />
<glyph unicode="X" horiz-adv-x="1349" d="M23 0l503 731l-485 703h291l342 -525l342 525h291l-484 -703l502 -731h-289l-362 549l-361 -549h-290z" />
<glyph unicode="Y" horiz-adv-x="1306" d="M25 1434h276l219 -410q37 -72 71 -144.5t58 -142.5h6q25 70 59 142.5t72 144.5l218 410h278l-502 -891v-543h-254v543z" />
<glyph unicode="Z" horiz-adv-x="1224" d="M100 0v195l703 1030l-680 -4v213h977v-195l-703 -1032l723 4v-211h-1020z" />
<glyph unicode="[" horiz-adv-x="573" d="M166 -336v1804h362v-165h-159v-1471h159v-168h-362z" />
<glyph unicode="\" horiz-adv-x="645" d="M16 1475h199l414 -1516h-199z" />
<glyph unicode="]" horiz-adv-x="573" d="M43 -168h160v1471h-160v165h365v-1804h-365v168z" />
<glyph unicode="^" horiz-adv-x="1028" d="M55 653l381 781h158l381 -781h-225l-236 516l-235 -516h-224z" />
<glyph unicode="_" horiz-adv-x="804" d="M0 -90h805v-170h-805v170z" />
<glyph unicode="`" horiz-adv-x="659" d="M63 1292l82 189l451 -242l-51 -113z" />
<glyph unicode="a" horiz-adv-x="1085" d="M80 295q0 186 108.5 261t307.5 75q59 0 118.5 -8.5t100.5 -18.5v58q0 100 -49.5 149t-163.5 49q-90 0 -171 -18.5t-149 -46.5l-43 170q80 35 180.5 57t212.5 22q217 0 318.5 -96t101.5 -282v-666h-219l-14 184h-4q-31 -82 -105.5 -142t-206.5 -60q-68 0 -127 18t-102 56 t-68.5 97.5t-25.5 141.5zM297 311q0 -86 47 -120.5t121 -34.5q53 0 99 20.5t80 55t52.5 80.5t18.5 100v49q-39 10 -92.5 15t-102.5 5q-117 0 -170 -39t-53 -131z" />
<glyph unicode="b" horiz-adv-x="1202" d="M139 0v1434h244v-390l-8 -194h4q41 84 124 139t218 55q201 0 294 -130t93 -375v-54q0 -109 -21.5 -202t-69.5 -160.5t-124 -106.5t-184 -39q-133 0 -214 62.5t-112 144.5h-4l-14 -184h-226zM383 496q0 -68 17.5 -126.5t51 -101.5t82 -67.5t109.5 -24.5q117 0 170 73 t53 238v52q0 154 -50 231.5t-171 77.5q-57 0 -105 -21.5t-83 -57.5t-54.5 -84t-19.5 -101v-88z" />
<glyph unicode="c" horiz-adv-x="976" d="M92 483v58q0 242 120 372.5t370 130.5q98 0 181 -23t138 -56l-43 -170q-109 55 -246 55q-152 0 -213 -83t-61 -228v-56q0 -145 61.5 -228t212.5 -83q74 0 137.5 16.5t122.5 47.5l41 -173q-57 -35 -142 -60.5t-187 -25.5q-252 0 -372 132.5t-120 373.5z" />
<glyph unicode="d" horiz-adv-x="1202" d="M94 485v54q0 244 100.5 374.5t303.5 130.5q129 0 205.5 -54t119.5 -132h4l-10 184v392h244v-1434h-225l-15 184h-4q-35 -88 -118 -146t-207 -58q-186 0 -292 122.5t-106 382.5zM336 487q0 -166 55 -238.5t172 -72.5q61 0 108.5 24.5t79 67.5t49 102.5t17.5 129.5v90 q0 53 -18.5 100t-51 83t-77.5 56.5t-101 20.5q-125 0 -179 -79t-54 -232v-52z" />
<glyph unicode="e" horiz-adv-x="1093" d="M92 483v58q0 233 113.5 368t359.5 135q125 0 208 -38.5t133 -103t70.5 -147.5t20.5 -169v-176h-667q10 -125 80.5 -189.5t214.5 -64.5q86 0 155.5 21.5t132.5 55.5l41 -159q-59 -39 -149 -68t-203 -29q-256 0 -383 134.5t-127 371.5zM328 559h454v27q0 61 -10 113.5 t-34.5 90t-65.5 59t-105 21.5q-135 0 -187 -80.5t-52 -222.5v-8z" />
<glyph unicode="f" horiz-adv-x="784" d="M20 842v182h185v76q0 166 82 259t280 93q72 0 129.5 -11t102.5 -28l-25 -176q-37 14 -72.5 20.5t-83.5 6.5q-98 0 -135 -43t-37 -138v-59h304v-182h-301v-842h-244v842h-185z" />
<glyph unicode="g" horiz-adv-x="1107" d="M90 -137q0 76 36 123t81 75q-37 20 -71 73q-32 49 -32 118v8l127 143q-53 47 -81.5 109.5t-28.5 149.5v18q0 180 104.5 262t321.5 82h502v-152l-162 -4q31 -29 56.5 -77t25.5 -111v-18q0 -186 -105.5 -265.5t-316.5 -79.5q-53 0 -93 5.5t-77 19.5l-78 -96q0 -43 34 -65.5 t70 -22.5h211q94 0 168 -13.5t124 -45t77 -86t27 -136.5q0 -160 -117 -234.5t-346 -74.5q-98 0 -182 13t-144.5 47t-95.5 90.5t-35 144.5zM315 -131q0 -39 11.5 -64.5t39 -40t72.5 -20.5t111 -6q131 0 181 28.5t50 110.5q0 72 -40 93.5t-128 21.5h-233q-29 -23 -46.5 -49.5 t-17.5 -73.5zM350 662q0 -98 43 -138.5t154 -40.5q106 0 153 40q43 36 43 121v18v18q-4 92 -47 134t-149 42q-109 0 -153 -40t-44 -136v-18z" />
<glyph unicode="h" horiz-adv-x="1218" d="M139 0v1434h244v-390l-8 -206h4q16 39 45 75.5t72 66.5t101 47t134 17q188 0 270 -100t82 -313v-631h-243v598q0 129 -39 183.5t-144 54.5q-129 0 -201.5 -82t-72.5 -236v-518h-244z" />
<glyph unicode="i" horiz-adv-x="520" d="M104 1300q0 59 36 96.5t120 37.5t120 -37t36 -97q0 -61 -36 -100t-120 -39t-120 39t-36 100zM137 0v1024h246v-1024h-246z" />
<glyph unicode="j" horiz-adv-x="604" d="M-109 -379l46 178q74 -35 145 -35q45 0 71.5 12.5t42 35t20.5 52.5t5 66v910h-166v184h408v-1098q0 -190 -86 -273t-248 -83q-141 0 -238 51zM180 1300q0 59 36 96.5t120 37.5q86 0 121 -37t35 -97q0 -61 -35 -100t-121 -39q-84 0 -120 39t-36 100z" />
<glyph unicode="k" horiz-adv-x="1114" d="M139 0v1434h244v-859l418 449h286l-364 -397l371 -627h-256l-279 473l-176 -186v-287h-244z" />
<glyph unicode="l" horiz-adv-x="522" d="M139 0v1434h244v-1434h-244z" />
<glyph unicode="m" horiz-adv-x="1777" d="M135 0v1024h223l11 -184h4q14 39 41.5 75.5t68.5 65.5t95.5 46t121.5 17q119 0 182.5 -55t86.5 -153h6q41 88 130 148t224 60q94 0 155.5 -28.5t96.5 -85t49.5 -141t14.5 -195.5v-594h-244v625q0 33 -5 67.5t-20.5 63t-42 48t-71.5 19.5q-123 0 -186.5 -91t-63.5 -238 v-494h-244v625q0 37 -6 72.5t-21.5 63t-43 45t-72.5 17.5q-68 0 -115 -30.5t-77 -80.5t-42 -111.5t-12 -123.5v-477h-244z" />
<glyph unicode="n" horiz-adv-x="1212" d="M135 0v1024h223l13 -188h4q16 39 45 76.5t72 67.5t101 47t132 17q190 0 271 -100t81 -313v-631h-243v598q0 129 -38 183.5t-143 54.5q-129 0 -200.5 -84t-71.5 -238v-514h-246z" />
<glyph unicode="o" horiz-adv-x="1148" d="M92 481v60q0 115 29 208t88 158.5t150 101t214 35.5q125 0 215.5 -35.5t149.5 -101t88 -159t29 -207.5v-60q0 -115 -29 -208t-88 -158.5t-149.5 -101.5t-215.5 -36q-123 0 -214 36t-150 101.5t-88 159t-29 207.5zM338 481q0 -147 52 -231t183 -84t184.5 84t53.5 231v60 q0 147 -53 231t-185 84q-131 0 -183 -84t-52 -231v-60z" />
<glyph unicode="p" horiz-adv-x="1198" d="M135 -410v1434h225l11 -176h4q45 92 131 144t203 52q106 0 181 -35.5t122 -102t69.5 -161t22.5 -208.5v-52q0 -109 -20.5 -200.5t-66.5 -159.5t-122 -106.5t-184 -38.5q-68 0 -122 17t-95 45t-70 64.5t-43 75.5h-6q2 -47 4 -91t2 -91v-410h-246zM381 496 q0 -70 17.5 -128.5t50 -101.5t82 -66.5t110.5 -23.5q117 0 169 73t52 238v52q0 154 -49 231.5t-170 77.5q-59 0 -108.5 -22.5t-83 -60.5t-52 -88t-18.5 -106v-75z" />
<glyph unicode="q" horiz-adv-x="1198" d="M94 487v52q0 106 22.5 198t71 161t125 107.5t185.5 38.5q127 0 205.5 -56t119.5 -138h4l11 174h223v-1434h-244v410q2 47 2 92t2 92h-4q-16 -41 -42.5 -77.5t-65.5 -64.5t-90.5 -45t-114.5 -17q-209 0 -309.5 135t-100.5 372zM336 487q0 -166 55 -238.5t172 -72.5 q61 0 108.5 24.5t79 67.5t49 101.5t17.5 128.5v84q0 55 -18.5 103t-50 84t-77.5 57.5t-102 21.5q-125 0 -179 -78t-54 -231v-52z" />
<glyph unicode="r" horiz-adv-x="784" d="M135 0v1024h221l15 -227h4q29 98 110.5 168.5t229.5 70.5h28v-241h-32q-176 0 -254 -90.5t-78 -270.5v-434h-244z" />
<glyph unicode="s" horiz-adv-x="937" d="M78 53l43 174q66 -33 145.5 -50t163.5 -17q86 0 143.5 24.5t57.5 85.5q0 63 -53.5 95t-151.5 67q-72 25 -133.5 50.5t-108.5 62.5t-73.5 90t-26.5 133q0 141 96 208.5t283 67.5q109 0 200 -20t160 -49l-43 -170q-70 29 -141.5 43t-151.5 14q-90 0 -134 -19.5t-44 -70.5 q0 -33 17.5 -56.5t48.5 -41t69.5 -31.5t81.5 -31q80 -29 141.5 -56.5t103.5 -64t63.5 -88t21.5 -127.5q0 -82 -30.5 -138t-85 -92t-128 -52.5t-161.5 -16.5q-102 0 -201.5 19.5t-171.5 56.5z" />
<glyph unicode="t" horiz-adv-x="843" d="M20 842v182h185l43 356h198v-356h324v-182h-324v-486q0 -98 32 -138t118 -40q45 0 87 10.5t83 28.5l39 -176q-49 -27 -112.5 -43t-147.5 -16q-96 0 -161 24.5t-104.5 71.5t-57 115.5t-17.5 158.5v490h-185z" />
<glyph unicode="u" horiz-adv-x="1175" d="M131 373v651h244v-621q0 -117 38 -166t130 -49q117 0 184.5 83t67.5 233v520h243v-1024h-221l-12 184h-4q-16 -39 -43 -75.5t-67 -65.5t-93 -46t-123 -17q-176 0 -260 94t-84 299z" />
<glyph unicode="v" horiz-adv-x="1067" d="M27 1024h254l178 -528q43 -137 71 -281h7q14 72 32.5 142.5t40.5 138.5l176 528h254l-372 -1024h-269z" />
<glyph unicode="w" horiz-adv-x="1589" d="M43 1024h244l143 -571q29 -115 37 -230h6q8 59 18.5 114.5t26.5 115.5l166 571h221l137 -473l27 -98q16 -59 27.5 -114.5t19.5 -115.5h4q12 121 39 230l144 571h243l-278 -1024h-269l-104 354q-33 115 -58.5 225.5t-39.5 227.5h-4q-18 -117 -42 -227.5t-57 -225.5 l-104 -354h-271z" />
<glyph unicode="x" horiz-adv-x="1067" d="M18 0l383 522l-366 502h270l227 -338l230 338h270l-366 -502l383 -522h-273l-244 356l-243 -356h-271z" />
<glyph unicode="y" horiz-adv-x="1079" d="M27 1024h256l170 -475q27 -72 51 -163t43 -177h6q16 86 38.5 176t49.5 166l158 473h252l-400 -1112q-31 -88 -63.5 -152.5t-75.5 -107.5t-101.5 -63.5t-142.5 -20.5q-76 0 -132 13t-91 30l37 186q66 -33 162 -33q72 0 105.5 29t58.5 101l26 75z" />
<glyph unicode="z" horiz-adv-x="950" d="M76 0v164l506 682l-490 -4v182h764v-166l-508 -682l522 4v-180h-794z" />
<glyph unicode="{" horiz-adv-x="573" d="M80 492v151q84 14 112.5 65.5t28.5 114.5q0 49 -10 90t-22.5 82t-22.5 86t-10 101q0 156 99 220t277 64v-166q-92 0 -131 -36.5t-39 -108.5q0 -43 8.5 -84t17.5 -82t17.5 -83t8.5 -89q0 -41 -11.5 -80t-30 -71.5t-43 -58t-50.5 -40.5q20 -14 44.5 -38.5t44 -58.5t33 -73 t13.5 -80q0 -47 -8.5 -89t-17.5 -83t-17.5 -81.5t-8.5 -83.5q0 -72 39 -109t131 -37v-166q-180 0 -278 63.5t-98 221.5q0 55 10 99t22.5 85t22.5 83t10 91q0 61 -28.5 112.5t-112.5 68.5z" />
<glyph unicode="|" horiz-adv-x="538" d="M166 -315v1765h207v-1765h-207z" />
<glyph unicode="}" horiz-adv-x="573" d="M39 -166q92 0 132 37t40 109q0 43 -8 83.5t-18.5 81.5t-18.5 83t-8 89q0 41 12 80t30.5 72t43 58.5t49.5 39.5q-25 14 -48.5 39t-43 58.5t-31.5 72.5t-12 80q0 47 8 89t18.5 82t18.5 81t8 86q0 72 -40 108.5t-132 36.5v166q180 0 278.5 -64.5t98.5 -219.5 q0 -55 -10.5 -100.5t-22.5 -86.5t-22.5 -82t-10.5 -90q0 -63 29 -113.5t113 -66.5v-151q-41 -8 -69 -25.5t-44.5 -42.5t-22.5 -53.5t-6 -59.5q0 -49 10.5 -91t22.5 -83t22.5 -85t10.5 -99q0 -158 -99.5 -221.5t-277.5 -63.5v166z" />
<glyph unicode="~" horiz-adv-x="1052" d="M74 584q23 43 52.5 85t64 74.5t76.5 53t89 20.5q57 0 101.5 -24.5t82.5 -53t72.5 -53t73.5 -24.5q61 0 99 40.5t69 102.5l125 -96q-23 -43 -52.5 -85t-64.5 -75t-77 -53.5t-89 -20.5q-55 0 -99 24.5t-82 53.5t-72.5 53.5t-73.5 24.5q-61 0 -100.5 -41t-67.5 -101z" />
<glyph unicode="&#xa1;" horiz-adv-x="569" d="M133 897q0 57 33 101t119 44t117.5 -44t31.5 -101q0 -55 -31.5 -101t-117.5 -46t-119 46t-33 101zM141 -406l37 1006h213l37 -1006h-287z" />
<glyph unicode="&#xa2;" horiz-adv-x="1265" d="M207 483v58q0 217 104.5 346t317.5 153v207h207v-211q72 -10 135 -30.5t104 -44.5l-41 -173q-57 29 -128.5 46.5t-149.5 17.5q-162 0 -233.5 -83t-71.5 -230v-56q0 -145 71.5 -228t233.5 -83q82 0 156.5 19.5t131.5 50.5l43 -174q-43 -27 -108.5 -48.5t-142.5 -31.5v-213 h-207v209q-213 23 -317.5 152.5t-104.5 346.5z" />
<glyph unicode="&#xa3;" horiz-adv-x="1265" d="M104 0v180q45 12 87 37t76 61.5t54.5 83t20.5 101.5q0 45 -9 92t-24 90h-205v168h134q-20 53 -36 109.5t-16 124.5q0 195 130 302t364 107q117 0 206 -20.5t161 -55.5l-43 -198q-72 31 -138.5 44t-142.5 13q-82 0 -138.5 -16.5t-91 -46t-50 -68.5t-15.5 -84 q0 -61 13.5 -112.5t29.5 -98.5h365v-168h-293q14 -41 23 -86t9 -90q0 -100 -41.5 -164.5t-95.5 -99.5h383q68 0 98.5 26.5t30.5 92.5v73h224v-61q0 -84 -16.5 -146.5t-55.5 -104.5t-102.5 -63.5t-157.5 -21.5h-738z" />
<glyph unicode="&#xa4;" horiz-adv-x="1064" d="M80 242l108 116q-59 106 -59 260q0 76 14.5 141.5t42.5 117.5l-106 118l117 129l112 -129q90 52 223 52q131 0 222 -52l114 129l115 -129l-106 -118q31 -51 45 -117t14 -142q0 -156 -62 -260l109 -116l-115 -129l-114 129q-92 -51 -222 -52q-131 0 -221 52l-114 -129z M315 618q0 -117 47 -188.5t170 -71.5q121 0 169.5 72t48.5 188q0 119 -48.5 191t-169.5 72q-123 0 -170 -72t-47 -191z" />
<glyph unicode="&#xa5;" horiz-adv-x="1265" d="M25 1434h280l209 -430q37 -76 64.5 -142.5t50.5 -136.5h8q20 72 51 142.5t68 148.5l207 418h276l-395 -736h284v-151h-368v-109h368v-149h-368v-289h-254v289h-369v149h369v109h-369v151h285z" />
<glyph unicode="&#xa6;" horiz-adv-x="542" d="M166 -315v737h213v-737h-213zM166 711v739h213v-739h-213z" />
<glyph unicode="&#xa7;" horiz-adv-x="1265" d="M156 -10h204q0 -121 77 -170t206 -49q45 0 89 7t78 25.5t54.5 50t20.5 80.5q0 43 -20.5 77t-56.5 60.5t-82 48t-95 38.5q-82 27 -162 58.5t-143.5 76.5t-103.5 109.5t-40 156.5q0 98 51.5 166t122.5 98q-27 18 -53.5 45t-49 63t-36.5 80t-14 93q0 178 119.5 264t326.5 86 q102 0 184 -19.5t140.5 -65.5t90.5 -120.5t32 -183.5h-205q0 117 -61.5 159t-182.5 42q-43 0 -84 -7.5t-71.5 -24.5t-49 -47t-18.5 -73q0 -41 20.5 -73.5t54 -58.5t76.5 -46.5t89 -38.5q76 -31 150.5 -62.5t135 -76.5t98 -106.5t37.5 -153.5q0 -51 -14 -91t-36.5 -72 t-53.5 -54.5t-61 -36.5q84 -45 134 -118t50 -183q0 -98 -33 -166t-93 -111t-145 -61.5t-190 -18.5q-106 0 -196.5 20.5t-155 69t-100 125t-35.5 189.5zM399 571q0 -86 91.5 -138t257.5 -99q55 14 90.5 54t33.5 101q-2 51 -38.5 90t-89 68t-111 49.5t-103.5 32.5 q-53 -14 -92 -56.5t-39 -101.5z" />
<glyph unicode="&#xa8;" horiz-adv-x="659" d="M-8 1266q0 55 31.5 90t101.5 35q68 0 100.5 -35t32.5 -90q0 -57 -32.5 -91t-100.5 -34q-70 0 -101.5 33.5t-31.5 91.5zM401 1266q0 55 32 90t102 35q68 0 100.5 -35t32.5 -90q0 -57 -33 -91t-100 -34q-70 0 -102 33.5t-32 91.5z" />
<glyph unicode="&#xa9;" horiz-adv-x="1619" d="M109 717q0 162 43 298t130 234.5t218 152.5t309 54t310 -54t219 -152.5t130 -234.5t43 -298q0 -164 -43 -299t-130 -233.5t-219 -153t-310 -54.5t-309 54.5t-218 153t-130 233.5t-43 299zM246 717q0 -137 33.5 -251t103.5 -195t176.5 -125t249.5 -44t249.5 44t177.5 125 t104.5 195t33.5 251t-33.5 249.5t-104.5 193.5t-177.5 125t-249.5 44t-249.5 -44t-176.5 -125t-103.5 -193.5t-33.5 -249.5zM446 690v53q0 195 100.5 300.5t307.5 105.5q80 0 148.5 -19.5t117.5 -48.5l-35 -151q-47 23 -97 35t-111 12q-127 0 -174.5 -61.5t-47.5 -174.5v-49 q0 -117 49.5 -176t178.5 -59q59 0 111.5 13t99.5 36l34 -154q-49 -27 -119.5 -48t-154.5 -21q-207 0 -307.5 104.5t-100.5 302.5z" />
<glyph unicode="&#xaa;" horiz-adv-x="737" d="M55 963q0 121 72 172t192 51q43 0 82 -6t66 -15v13v22q0 51 -29.5 80t-97.5 29q-61 0 -116.5 -13.5t-102.5 -33.5l-29 127q51 25 122 42t153 17q150 0 212 -68.5t62 -195.5v-414h-164q-2 29 -5 56.5t-5 56.5q-25 -49 -71 -88t-132 -39q-37 0 -74.5 10t-67.5 34.5 t-48.5 64.5t-18.5 98zM223 975q0 -43 23.5 -61.5t77.5 -18.5q53 0 98 38t45 103v23q-23 4 -55.5 7t-61.5 3q-72 0 -99.5 -22.5t-27.5 -71.5z" />
<glyph unicode="&#xab;" horiz-adv-x="1081" d="M59 680l248 403h248l-252 -403l252 -401h-248zM477 680l250 403h246l-250 -403l250 -401h-246z" />
<glyph unicode="&#xac;" horiz-adv-x="970" d="M57 612v207h826v-549h-226v342h-600z" />
<glyph unicode="&#xad;" horiz-adv-x="753" d="M57 563v201h639v-201h-639z" />
<glyph unicode="&#xae;" horiz-adv-x="1153" d="M80 924q0 256 123.5 392t371.5 136t373 -136t125 -392t-125 -393.5t-373 -137.5t-371.5 137.5t-123.5 393.5zM197 924q0 -213 87.5 -319.5t290.5 -106.5q205 0 293 105.5t88 320.5q0 211 -88 317.5t-293 106.5q-203 0 -290.5 -106.5t-87.5 -317.5zM391 657v549h221 q102 0 148.5 -49t46.5 -133q0 -66 -27.5 -105.5t-68.5 -56.5l114 -205h-139l-98 185h-66v-185h-131zM522 950h80q35 0 54.5 15.5t19.5 58.5q0 72 -78 72h-76v-146z" />
<glyph unicode="&#xaf;" horiz-adv-x="659" d="M16 1157v154h627v-154h-627z" />
<glyph unicode="&#xb0;" horiz-adv-x="757" d="M92 1157q0 141 76 219t211 78t211 -78t76 -219t-76 -220t-211 -79t-211 79t-76 220zM229 1157q0 -80 37 -125t113 -45t112.5 45t36.5 125t-36.5 125t-112.5 45t-113 -45t-37 -125z" />
<glyph unicode="&#xb1;" d="M66 0v150h866v-150h-866zM66 635v203h319v389h227v-389h320v-203h-320v-387h-227v387h-319z" />
<glyph unicode="&#xb2;" horiz-adv-x="604" d="M53 772v121l223 211q35 35 60.5 68.5t25.5 74.5q0 35 -24.5 50.5t-65.5 15.5q-47 0 -93 -10.5t-91 -26.5l-29 123q47 23 108.5 37t127.5 14q104 0 168.5 -48t64.5 -147q0 -80 -44 -134t-97 -103l-113 -107h271v-139h-492z" />
<glyph unicode="&#xb3;" horiz-adv-x="598" d="M43 803l29 129q43 -20 85 -29.5t95 -9.5q66 0 94.5 20.5t28.5 61.5q0 49 -35 64.5t-88 15.5h-82v116h100q41 0 66.5 18.5t25.5 55.5q0 35 -24.5 51.5t-79.5 16.5q-47 0 -91 -11.5t-83 -27.5l-31 127q47 20 99.5 33.5t121.5 13.5q49 0 94.5 -10.5t79 -32t53 -56 t19.5 -85.5q0 -59 -27.5 -94t-66.5 -52q47 -14 78 -52t31 -103q0 -109 -70 -158t-197 -49q-72 0 -126 12t-99 35z" />
<glyph unicode="&#xb4;" horiz-adv-x="659" d="M63 1239l451 242l82 -189l-483 -166z" />
<glyph unicode="&#xb5;" horiz-adv-x="1175" d="M135 -410v1434h246v-520q0 -150 67.5 -233t184.5 -83q92 0 129 48.5t37 164.5v623h243v-657q0 -201 -84 -294t-260 -93q-68 0 -121 17t-93 47t-66.5 66.5t-40.5 75.5h-4l8 -184v-412h-246z" />
<glyph unicode="&#xb6;" horiz-adv-x="872" d="M61 1044q0 98 30 171t82 122t124 73t156 24h381v-187h-150q-47 0 -63.5 -23.5t-16.5 -70.5v-1298h-209v778q-72 12 -133 43t-106 82t-70 122.5t-25 163.5z" />
<glyph unicode="&#xb7;" horiz-adv-x="489" d="M94 582q0 57 33 101t117 44q86 0 117.5 -44t31.5 -101q0 -55 -31.5 -99.5t-117.5 -44.5q-84 0 -117 44t-33 100z" />
<glyph unicode="&#xb8;" horiz-adv-x="659" d="M166 -391l24 104q33 -12 61 -18t58 -6q39 0 61.5 13t22.5 46q0 29 -19.5 44t-66.5 15h-96v82l80 115h108l-47 -98q86 0 143.5 -39t57.5 -117q0 -53 -18.5 -86t-48 -52.5t-68.5 -26.5t-82 -7q-49 0 -91 8t-79 23z" />
<glyph unicode="&#xb9;" horiz-adv-x="450" d="M20 1309l191 127h149v-662h-163v488l-134 -64z" />
<glyph unicode="&#xba;" horiz-adv-x="774" d="M68 1081v41q0 154 81.5 240t237.5 86t238 -86t82 -240v-41q0 -154 -82 -240.5t-238 -86.5t-237.5 87t-81.5 240zM252 1081q0 -92 31.5 -136t103.5 -44t103.5 44t31.5 136v41q0 90 -31.5 134t-103.5 44t-103.5 -44t-31.5 -134v-41z" />
<glyph unicode="&#xbb;" horiz-adv-x="1081" d="M106 279l252 401l-252 403h248l248 -403l-248 -401h-248zM526 279l250 401l-250 403h248l248 -403l-248 -401h-248z" />
<glyph unicode="&#xbc;" horiz-adv-x="1404" d="M80 1309l190 127h150v-662h-164v488l-131 -64zM184 0l832 1434h205l-832 -1434h-205zM774 115v114l205 437h160l-195 -420h160l4 192h156v-192h84v-131h-84v-115h-160v115h-330z" />
<glyph unicode="&#xbd;" horiz-adv-x="1390" d="M76 1309l190 127h152v-662h-166v488l-131 -62zM170 0l829 1434h205l-829 -1434h-205zM819 0v119l223 211q37 35 62.5 68.5t25.5 74.5q0 35 -25.5 50.5t-66.5 15.5q-47 0 -92 -11.5t-90 -27.5l-29 125q47 23 108.5 37t125.5 14q104 0 168.5 -47t64.5 -148q0 -80 -44 -133 t-97 -104l-113 -107h271v-137h-492z" />
<glyph unicode="&#xbe;" horiz-adv-x="1390" d="M70 801l30 129q41 -20 83 -28.5t96 -8.5q66 0 94 19.5t28 62.5q0 47 -34.5 62.5t-87.5 15.5h-82v118h100q41 0 67.5 17.5t26.5 56.5q0 66 -106 66q-47 0 -91 -10.5t-83 -26.5l-31 127q45 18 98 32.5t123 14.5q49 0 93 -10.5t78 -32t54.5 -56t20.5 -85.5q0 -59 -27.5 -94 t-66.5 -52q47 -16 77.5 -54t30.5 -103q0 -109 -69.5 -157t-196.5 -48q-74 0 -127 11t-98 34zM190 0l830 1434h205l-830 -1434h-205zM774 115v114l203 437h162l-195 -420h160l4 192h156v-192h84v-131h-84v-115h-160v115h-330z" />
<glyph unicode="&#xbf;" horiz-adv-x="1040" d="M96 -78q0 76 24.5 135.5t62.5 109.5t82 93t82 84t62.5 84t24.5 92v76h232v-76q0 -86 -42 -151.5t-95.5 -123t-103.5 -113.5t-67 -124q-14 -43 -8 -90q6 -39 26.5 -64.5t53.5 -41t74 -21.5t86 -6q86 0 171 17.5t169 50.5l53 -193q-86 -37 -192.5 -62.5t-235.5 -25.5 q-100 0 -184 18.5t-145.5 60.5t-95.5 108.5t-34 162.5zM395 897q0 57 33 102t117 45q86 0 118.5 -45t32.5 -102q0 -55 -32.5 -99t-118.5 -44q-84 0 -117 44t-33 99z" />
<glyph unicode="&#xc0;" horiz-adv-x="1359" d="M31 0l504 1434h292l502 -1434h-264l-107 326h-557l-106 -326h-264zM413 1702l82 189l451 -242l-51 -113zM467 528h428l-135 412q-23 66 -40.5 131.5t-35.5 136.5h-8q-47 -180 -101.5 -344t-107.5 -336z" />
<glyph unicode="&#xc1;" horiz-adv-x="1359" d="M31 0l504 1434h292l502 -1434h-264l-107 326h-557l-106 -326h-264zM411 1649l451 242l82 -189l-483 -166zM467 528h428l-135 412q-23 66 -40.5 131.5t-35.5 136.5h-8q-47 -180 -101.5 -344t-107.5 -336z" />
<glyph unicode="&#xc2;" horiz-adv-x="1359" d="M31 0l504 1434h292l502 -1434h-264l-107 326h-557l-106 -326h-264zM352 1557l258 305h139l256 -305h-172l-153 139l-152 -139h-176zM467 528h428l-135 412q-23 66 -40.5 131.5t-35.5 136.5h-8q-47 -180 -101.5 -344t-107.5 -336z" />
<glyph unicode="&#xc3;" horiz-adv-x="1359" d="M31 0l504 1434h292l502 -1434h-264l-107 326h-557l-106 -326h-264zM340 1559q6 147 54 222t153 75q43 0 77.5 -20.5t65.5 -46t58.5 -46t56.5 -20.5q68 0 73 127h140q-4 -145 -52.5 -220t-150.5 -75q-43 0 -79 20.5t-66.5 46t-59.5 46t-55 20.5q-66 0 -74 -129h-141z M467 528h428l-135 412q-23 66 -40.5 131.5t-35.5 136.5h-8q-47 -180 -101.5 -344t-107.5 -336z" />
<glyph unicode="&#xc4;" horiz-adv-x="1359" d="M31 0l504 1434h292l502 -1434h-264l-107 326h-557l-106 -326h-264zM342 1676q0 55 31.5 90t101.5 35q68 0 100.5 -35t32.5 -90q0 -57 -32.5 -91t-100.5 -34q-70 0 -101.5 33.5t-31.5 91.5zM467 528h428l-135 412q-23 66 -40.5 131.5t-35.5 136.5h-8q-47 -180 -101.5 -344 t-107.5 -336zM751 1676q0 55 32 90t102 35q68 0 100.5 -35t32.5 -90q0 -57 -33 -91t-100 -34q-70 0 -102 33.5t-32 91.5z" />
<glyph unicode="&#xc5;" horiz-adv-x="1359" d="M31 0l485 1384q-49 55 -49 150q0 109 58.5 158t154.5 49q94 0 153.5 -49.5t59.5 -157.5q0 -49 -13.5 -85t-35.5 -63l485 -1386h-264l-107 326h-557l-106 -326h-264zM467 528h428l-135 412q-23 66 -40.5 131.5t-35.5 136.5h-8q-47 -180 -101.5 -344t-107.5 -336zM594 1534 q0 -51 22.5 -72.5t63.5 -21.5t62.5 21.5t21.5 72.5q0 92 -84 92q-86 0 -86 -92z" />
<glyph unicode="&#xc6;" horiz-adv-x="1828" d="M6 0l836 1434h878v-222h-579v-387h542v-217h-542v-389h590v-219h-838v313h-444l-177 -313h-266zM557 502h336v665h-6q-23 -61 -51.5 -129.5t-63.5 -134.5z" />
<glyph unicode="&#xc7;" horiz-adv-x="1226" d="M102 678v76q0 164 37 294t115 220t197.5 138t285.5 48q123 0 223.5 -24.5t178.5 -63.5l-49 -201q-74 33 -152 50.5t-168 17.5q-217 0 -314.5 -127t-97.5 -352v-76q0 -109 20.5 -197t68 -151.5t124 -97t191.5 -33.5q96 0 179 18.5t161 54.5l51 -198q-70 -35 -160 -61.5 t-196 -32.5l-35 -74q86 0 143.5 -39t57.5 -117q0 -53 -18.5 -86t-48.5 -52.5t-69 -26.5t-82 -7q-49 0 -91 8t-79 23l25 104q33 -12 60.5 -18t58.5 -6q39 0 61.5 13t22.5 46q0 29 -19.5 44t-66.5 15h-96v82l61 91q-154 8 -263.5 61t-180 143t-103.5 215t-33 279z" />
<glyph unicode="&#xc8;" horiz-adv-x="1161" d="M154 0v1434h897v-222h-648v-387h613v-217h-613v-389h660v-219h-909zM344 1702l82 189l451 -242l-51 -113z" />
<glyph unicode="&#xc9;" horiz-adv-x="1161" d="M154 0v1434h897v-222h-648v-387h613v-217h-613v-389h660v-219h-909zM364 1649l451 242l82 -189l-483 -166z" />
<glyph unicode="&#xca;" horiz-adv-x="1161" d="M154 0v1434h897v-222h-648v-387h613v-217h-613v-389h660v-219h-909zM268 1557l258 305h139l256 -305h-172l-153 139l-152 -139h-176z" />
<glyph unicode="&#xcb;" horiz-adv-x="1161" d="M154 0v1434h897v-222h-648v-387h613v-217h-613v-389h660v-219h-909zM260 1676q0 55 31.5 90t101.5 35q68 0 100.5 -35t32.5 -90q0 -57 -32.5 -91t-100.5 -34q-70 0 -101.5 33.5t-31.5 91.5zM669 1676q0 55 32 90t102 35q68 0 100.5 -35t32.5 -90q0 -57 -33 -91t-100 -34 q-70 0 -102 33.5t-32 91.5z" />
<glyph unicode="&#xcc;" horiz-adv-x="567" d="M16 1702l82 189l451 -242l-51 -113zM158 0v1434h252v-1434h-252z" />
<glyph unicode="&#xcd;" horiz-adv-x="567" d="M16 1649l451 242l82 -189l-483 -166zM158 0v1434h252v-1434h-252z" />
<glyph unicode="&#xce;" horiz-adv-x="567" d="M-45 1557l258 305h139l256 -305h-172l-153 139l-152 -139h-176zM158 0v1434h252v-1434h-252z" />
<glyph unicode="&#xcf;" horiz-adv-x="567" d="M-55 1676q0 55 31.5 90t101.5 35q68 0 100.5 -35t32.5 -90q0 -57 -32.5 -91t-100.5 -34q-70 0 -101.5 33.5t-31.5 91.5zM158 0v1434h252v-1434h-252zM354 1676q0 55 32 90t102 35q68 0 100.5 -35t32.5 -90q0 -57 -33 -91t-100 -34q-70 0 -102 33.5t-32 91.5z" />
<glyph unicode="&#xd0;" horiz-adv-x="1386" d="M8 610v172h148v652h526q166 0 280.5 -46.5t187.5 -134.5t104.5 -213t31.5 -280v-78q0 -160 -32.5 -287t-106.5 -214t-189.5 -134t-281.5 -47h-520v610h-148zM412 223h258q104 0 174.5 32t111.5 91.5t58.5 144t17.5 191.5v76q0 106 -16.5 190t-56 141.5t-108.5 88 t-173 30.5h-266v-426h301v-172h-301v-387z" />
<glyph unicode="&#xd1;" horiz-adv-x="1443" d="M154 0v1434h258l454 -729q57 -92 109.5 -189.5t91.5 -185.5h6q-10 109 -15 220.5t-5 227.5v656h245v-1434h-258l-444 707q-61 96 -116.5 198.5t-94.5 196.5h-6q18 -215 18 -449v-653h-243zM381 1559q6 147 54 222t153 75q43 0 77.5 -20.5t65.5 -46t58.5 -46t56.5 -20.5 q68 0 73 127h140q-4 -145 -52.5 -220t-150.5 -75q-43 0 -79 20.5t-66.5 46t-59.5 46t-55 20.5q-66 0 -74 -129h-141z" />
<glyph unicode="&#xd2;" horiz-adv-x="1413" d="M102 678v76q0 164 35 294t108.5 220t187.5 138t274 48q158 0 271.5 -48t187 -138t108.5 -220t35 -294v-76q0 -164 -35 -293t-108.5 -220t-187.5 -139.5t-271 -48.5q-160 0 -274 48.5t-187.5 139.5t-108.5 220t-35 293zM358 678q0 -113 17.5 -202t57.5 -151.5t108 -95 t166 -32.5t164.5 32.5t107.5 95t58.5 151.5t17.5 202v76q0 113 -17.5 201.5t-58.5 151t-107.5 96.5t-164.5 34t-166 -34t-108 -96.5t-57.5 -151.5t-17.5 -201v-76zM438 1702l82 189l451 -242l-51 -113z" />
<glyph unicode="&#xd3;" horiz-adv-x="1413" d="M102 678v76q0 164 35 294t108.5 220t187.5 138t274 48q158 0 271.5 -48t187 -138t108.5 -220t35 -294v-76q0 -164 -35 -293t-108.5 -220t-187.5 -139.5t-271 -48.5q-160 0 -274 48.5t-187.5 139.5t-108.5 220t-35 293zM358 678q0 -113 17.5 -202t57.5 -151.5t108 -95 t166 -32.5t164.5 32.5t107.5 95t58.5 151.5t17.5 202v76q0 113 -17.5 201.5t-58.5 151t-107.5 96.5t-164.5 34t-166 -34t-108 -96.5t-57.5 -151.5t-17.5 -201v-76zM438 1649l451 242l82 -189l-483 -166z" />
<glyph unicode="&#xd4;" horiz-adv-x="1413" d="M102 678v76q0 164 35 294t108.5 220t187.5 138t274 48q158 0 271.5 -48t187 -138t108.5 -220t35 -294v-76q0 -164 -35 -293t-108.5 -220t-187.5 -139.5t-271 -48.5q-160 0 -274 48.5t-187.5 139.5t-108.5 220t-35 293zM358 678q0 -113 17.5 -202t57.5 -151.5t108 -95 t166 -32.5t164.5 32.5t107.5 95t58.5 151.5t17.5 202v76q0 113 -17.5 201.5t-58.5 151t-107.5 96.5t-164.5 34t-166 -34t-108 -96.5t-57.5 -151.5t-17.5 -201v-76zM379 1557l258 305h139l256 -305h-172l-153 139l-152 -139h-176z" />
<glyph unicode="&#xd5;" horiz-adv-x="1415" d="M102 678v76q0 164 35 294t108.5 220t187.5 138t274 48q158 0 271.5 -48t187 -138t108.5 -220t35 -294v-76q0 -164 -35 -293t-108.5 -220t-187.5 -139.5t-271 -48.5q-160 0 -274 48.5t-187.5 139.5t-108.5 220t-35 293zM358 678q0 -113 17.5 -202t57.5 -151.5t108 -95 t166 -32.5t164.5 32.5t107.5 95t58.5 151.5t17.5 202v76q0 113 -17.5 201.5t-58.5 151t-107.5 96.5t-164.5 34t-166 -34t-108 -96.5t-57.5 -151.5t-17.5 -201v-76zM367 1559q6 147 54 222t153 75q43 0 77.5 -20.5t65.5 -46t58.5 -46t56.5 -20.5q68 0 73 127h140 q-4 -145 -52.5 -220t-150.5 -75q-43 0 -79 20.5t-66.5 46t-59.5 46t-55 20.5q-66 0 -74 -129h-141z" />
<glyph unicode="&#xd6;" horiz-adv-x="1413" d="M102 678v76q0 164 35 294t108.5 220t187.5 138t274 48q158 0 271.5 -48t187 -138t108.5 -220t35 -294v-76q0 -164 -35 -293t-108.5 -220t-187.5 -139.5t-271 -48.5q-160 0 -274 48.5t-187.5 139.5t-108.5 220t-35 293zM358 678q0 -113 17.5 -202t57.5 -151.5t108 -95 t166 -32.5t164.5 32.5t107.5 95t58.5 151.5t17.5 202v76q0 113 -17.5 201.5t-58.5 151t-107.5 96.5t-164.5 34t-166 -34t-108 -96.5t-57.5 -151.5t-17.5 -201v-76zM367 1676q0 55 31.5 90t101.5 35q68 0 100.5 -35t32.5 -90q0 -57 -32.5 -91t-100.5 -34q-70 0 -101.5 33.5 t-31.5 91.5zM776 1676q0 55 32 90t102 35q68 0 100.5 -35t32.5 -90q0 -57 -33 -91t-100 -34q-70 0 -102 33.5t-32 91.5z" />
<glyph unicode="&#xd7;" d="M90 344l260 311l-260 310l154 153l254 -307l256 307l153 -153l-260 -310l260 -311l-153 -156l-256 310l-254 -310z" />
<glyph unicode="&#xd8;" horiz-adv-x="1413" d="M102 678v76q0 164 35 294t108.5 220t187.5 138t274 48q100 0 183 -20.5t148 -57.5l62 99h176l-121 -195q80 -92 117 -224t37 -302v-76q0 -164 -35 -293t-108.5 -220t-187.5 -139.5t-271 -48.5q-96 0 -174 17.5t-142 50.5l-65 -106h-179l123 196q-88 92 -128 228.5 t-40 314.5zM358 678q0 -98 12.5 -176t43.5 -137l499 811q-80 61 -206 61q-98 0 -166 -34t-108 -96.5t-57.5 -151.5t-17.5 -201v-76zM514 244q76 -47 193 -47q98 0 164.5 32.5t107.5 95t58.5 151.5t17.5 202v76q0 180 -47 288z" />
<glyph unicode="&#xd9;" horiz-adv-x="1386" d="M145 582v852h254v-846q0 -102 13.5 -175t47.5 -120t90 -69.5t142 -22.5t142.5 22.5t90 69.5t48 119.5t14.5 175.5v846h254v-852q0 -147 -29.5 -261t-95 -190t-170 -115t-254.5 -39t-254 39t-168.5 115t-94.5 189.5t-30 261.5zM428 1702l82 189l451 -242l-51 -113z" />
<glyph unicode="&#xda;" horiz-adv-x="1386" d="M145 582v852h254v-846q0 -102 13.5 -175t47.5 -120t90 -69.5t142 -22.5t142.5 22.5t90 69.5t48 119.5t14.5 175.5v846h254v-852q0 -147 -29.5 -261t-95 -190t-170 -115t-254.5 -39t-254 39t-168.5 115t-94.5 189.5t-30 261.5zM428 1649l451 242l82 -189l-483 -166z" />
<glyph unicode="&#xdb;" horiz-adv-x="1386" d="M145 582v852h254v-846q0 -102 13.5 -175t47.5 -120t90 -69.5t142 -22.5t142.5 22.5t90 69.5t48 119.5t14.5 175.5v846h254v-852q0 -147 -29.5 -261t-95 -190t-170 -115t-254.5 -39t-254 39t-168.5 115t-94.5 189.5t-30 261.5zM367 1557l258 305h139l256 -305h-172 l-153 139l-152 -139h-176z" />
<glyph unicode="&#xdc;" horiz-adv-x="1386" d="M145 582v852h254v-846q0 -102 13.5 -175t47.5 -120t90 -69.5t142 -22.5t142.5 22.5t90 69.5t48 119.5t14.5 175.5v846h254v-852q0 -147 -29.5 -261t-95 -190t-170 -115t-254.5 -39t-254 39t-168.5 115t-94.5 189.5t-30 261.5zM357 1676q0 55 31.5 90t101.5 35 q68 0 100.5 -35t32.5 -90q0 -57 -32.5 -91t-100.5 -34q-70 0 -101.5 33.5t-31.5 91.5zM766 1676q0 55 32 90t102 35q68 0 100.5 -35t32.5 -90q0 -57 -33 -91t-100 -34q-70 0 -102 33.5t-32 91.5z" />
<glyph unicode="&#xdd;" horiz-adv-x="1306" d="M25 1434h276l219 -410q37 -72 71 -144.5t58 -142.5h6q25 70 59 142.5t72 144.5l218 410h278l-502 -891v-543h-254v543zM385 1649l451 242l82 -189l-483 -166z" />
<glyph unicode="&#xde;" horiz-adv-x="1261" d="M154 0v1434h252v-265h282q246 0 363.5 -106.5t117.5 -345.5q0 -244 -119.5 -351.5t-363.5 -107.5h-278v-258h-254zM406 473h266q135 0 191.5 55.5t56.5 188.5q0 131 -55.5 185t-188.5 54h-270v-483z" />
<glyph unicode="&#xdf;" horiz-adv-x="1318" d="M139 0v934q0 256 130 388t409 132q127 0 219 -28.5t152.5 -81t90 -126t29.5 -161.5q0 -121 -52 -195t-138 -106v-2q117 -31 183.5 -118t66.5 -245q0 -111 -31 -189.5t-87 -128.5t-136 -73t-180 -23q-96 0 -176 16.5t-136 43.5l43 170q51 -23 109.5 -36t128.5 -13 q109 0 170 55t61 190q0 131 -66.5 192.5t-207.5 61.5h-143v179h155q100 0 154.5 49t54.5 159q0 102 -64.5 157.5t-195.5 55.5q-160 0 -230.5 -81.5t-70.5 -247.5v-928h-242z" />
<glyph unicode="&#xe0;" horiz-adv-x="1085" d="M80 295q0 186 108.5 261t307.5 75q59 0 118.5 -8.5t100.5 -18.5v58q0 100 -49.5 149t-163.5 49q-90 0 -171 -18.5t-149 -46.5l-43 170q80 35 180.5 57t212.5 22q217 0 318.5 -96t101.5 -282v-666h-219l-14 184h-4q-31 -82 -105.5 -142t-206.5 -60q-68 0 -127 18t-102 56 t-68.5 97.5t-25.5 141.5zM274 1292l82 189l451 -242l-51 -113zM297 311q0 -86 47 -120.5t121 -34.5q53 0 99 20.5t80 55t52.5 80.5t18.5 100v49q-39 10 -92.5 15t-102.5 5q-117 0 -170 -39t-53 -131z" />
<glyph unicode="&#xe1;" horiz-adv-x="1085" d="M80 295q0 186 108.5 261t307.5 75q59 0 118.5 -8.5t100.5 -18.5v58q0 100 -49.5 149t-163.5 49q-90 0 -171 -18.5t-149 -46.5l-43 170q80 35 180.5 57t212.5 22q217 0 318.5 -96t101.5 -282v-666h-219l-14 184h-4q-31 -82 -105.5 -142t-206.5 -60q-68 0 -127 18t-102 56 t-68.5 97.5t-25.5 141.5zM274 1239l451 242l82 -189l-483 -166zM297 311q0 -86 47 -120.5t121 -34.5q53 0 99 20.5t80 55t52.5 80.5t18.5 100v49q-39 10 -92.5 15t-102.5 5q-117 0 -170 -39t-53 -131z" />
<glyph unicode="&#xe2;" horiz-adv-x="1085" d="M80 295q0 186 108.5 261t307.5 75q59 0 118.5 -8.5t100.5 -18.5v58q0 100 -49.5 149t-163.5 49q-90 0 -171 -18.5t-149 -46.5l-43 170q80 35 180.5 57t212.5 22q217 0 318.5 -96t101.5 -282v-666h-219l-14 184h-4q-31 -82 -105.5 -142t-206.5 -60q-68 0 -127 18t-102 56 t-68.5 97.5t-25.5 141.5zM213 1147l258 305h139l256 -305h-172l-153 139l-152 -139h-176zM297 311q0 -86 47 -120.5t121 -34.5q53 0 99 20.5t80 55t52.5 80.5t18.5 100v49q-39 10 -92.5 15t-102.5 5q-117 0 -170 -39t-53 -131z" />
<glyph unicode="&#xe3;" horiz-adv-x="1085" d="M80 295q0 186 108.5 261t307.5 75q59 0 118.5 -8.5t100.5 -18.5v58q0 100 -49.5 149t-163.5 49q-90 0 -171 -18.5t-149 -46.5l-43 170q80 35 180.5 57t212.5 22q217 0 318.5 -96t101.5 -282v-666h-219l-14 184h-4q-31 -82 -105.5 -142t-206.5 -60q-68 0 -127 18t-102 56 t-68.5 97.5t-25.5 141.5zM203 1149q6 147 54 222t153 75q43 0 77.5 -20.5t65.5 -46t58.5 -46t56.5 -20.5q68 0 73 127h140q-4 -145 -52.5 -220t-150.5 -75q-43 0 -79 20.5t-66.5 46t-59.5 46t-55 20.5q-66 0 -74 -129h-141zM297 311q0 -86 47 -120.5t121 -34.5q53 0 99 20.5 t80 55t52.5 80.5t18.5 100v49q-39 10 -92.5 15t-102.5 5q-117 0 -170 -39t-53 -131z" />
<glyph unicode="&#xe4;" horiz-adv-x="1085" d="M80 295q0 186 108.5 261t307.5 75q59 0 118.5 -8.5t100.5 -18.5v58q0 100 -49.5 149t-163.5 49q-90 0 -171 -18.5t-149 -46.5l-43 170q80 35 180.5 57t212.5 22q217 0 318.5 -96t101.5 -282v-666h-219l-14 184h-4q-31 -82 -105.5 -142t-206.5 -60q-68 0 -127 18t-102 56 t-68.5 97.5t-25.5 141.5zM203 1266q0 55 31.5 90t101.5 35q68 0 100.5 -35t32.5 -90q0 -57 -32.5 -91t-100.5 -34q-70 0 -101.5 33.5t-31.5 91.5zM297 311q0 -86 47 -120.5t121 -34.5q53 0 99 20.5t80 55t52.5 80.5t18.5 100v49q-39 10 -92.5 15t-102.5 5q-117 0 -170 -39 t-53 -131zM612 1266q0 55 32 90t102 35q68 0 100.5 -35t32.5 -90q0 -57 -33 -91t-100 -34q-70 0 -102 33.5t-32 91.5z" />
<glyph unicode="&#xe5;" horiz-adv-x="1085" d="M80 295q0 186 108.5 261t307.5 75q59 0 118.5 -8.5t100.5 -18.5v58q0 100 -49.5 149t-163.5 49q-90 0 -171 -18.5t-149 -46.5l-43 170q80 35 180.5 57t212.5 22q217 0 318.5 -96t101.5 -282v-666h-219l-14 184h-4q-31 -82 -105.5 -142t-206.5 -60q-68 0 -127 18t-102 56 t-68.5 97.5t-25.5 141.5zM297 311q0 -86 47 -120.5t121 -34.5q53 0 99 20.5t80 55t52.5 80.5t18.5 100v49q-39 10 -92.5 15t-102.5 5q-117 0 -170 -39t-53 -131zM328 1354q0 109 58.5 158t154.5 49q94 0 153.5 -49.5t59.5 -157.5q0 -109 -59.5 -158t-153.5 -49 q-96 0 -154.5 49t-58.5 158zM455 1354q0 -51 22.5 -72.5t63.5 -21.5t62.5 21.5t21.5 72.5q0 92 -84 92q-86 0 -86 -92z" />
<glyph unicode="&#xe6;" horiz-adv-x="1771" d="M98 408v178h668v30q0 115 -74 183.5t-217 68.5q-92 0 -161.5 -21.5t-135.5 -55.5l-39 155q59 41 150.5 69.5t208.5 28.5q141 0 238.5 -56t137.5 -161h5q39 102 135 161t239 59q117 0 197 -37t129 -96.5t70.5 -138.5t21.5 -161v-180h-667q4 -127 71.5 -203.5t218.5 -76.5 q90 0 162 21.5t135 55.5l39 -155q-59 -41 -150 -70t-208 -29q-141 0 -240.5 57.5t-136.5 155.5h-6q-35 -96 -133.5 -154.5t-239.5 -58.5q-117 0 -196.5 36t-129 95.5t-71 137.5t-21.5 162zM307 410q0 -59 10.5 -107.5t35 -82.5t66.5 -51t107 -17q133 0 183.5 73.5 t54.5 208.5h-457v-24zM1008 588h454v20q0 61 -9 109.5t-33.5 82.5t-67.5 52t-109 18q-133 0 -183 -73.5t-52 -208.5z" />
<glyph unicode="&#xe7;" horiz-adv-x="976" d="M92 483v58q0 242 120 372.5t370 130.5q98 0 181 -22.5t138 -56.5l-43 -170q-109 55 -246 55q-152 0 -213 -83t-61 -228v-56q0 -145 61.5 -228t212.5 -83q74 0 137.5 16.5t122.5 47.5l41 -173q-57 -35 -142 -60.5t-187 -25.5h-9l-34 -71q86 0 143 -39t57 -117 q0 -53 -18 -86t-48 -52.5t-69 -26.5t-82 -7q-49 0 -91 8t-79 23l25 104q33 -12 60.5 -18t58.5 -6q39 0 61.5 13t22.5 46q0 29 -19.5 44t-66.5 15h-97v82l68 97q-193 29 -284 156.5t-91 340.5z" />
<glyph unicode="&#xe8;" horiz-adv-x="1093" d="M92 483v58q0 233 113.5 368t359.5 135q125 0 208 -38.5t133 -103t70.5 -147.5t20.5 -169v-176h-667q10 -125 80.5 -189.5t214.5 -64.5q86 0 155.5 21.5t132.5 55.5l41 -159q-59 -39 -149 -68t-203 -29q-256 0 -383 134.5t-127 371.5zM278 1292l82 189l451 -242l-51 -113z M328 559h454v27q0 61 -10 113.5t-34.5 90t-65.5 59t-105 21.5q-135 0 -187 -80.5t-52 -222.5v-8z" />
<glyph unicode="&#xe9;" horiz-adv-x="1093" d="M92 483v58q0 233 113.5 368t359.5 135q125 0 208 -38.5t133 -103t70.5 -147.5t20.5 -169v-176h-667q10 -125 80.5 -189.5t214.5 -64.5q86 0 155.5 21.5t132.5 55.5l41 -159q-59 -39 -149 -68t-203 -29q-256 0 -383 134.5t-127 371.5zM278 1239l451 242l82 -189l-483 -166 zM328 559h454v27q0 61 -10 113.5t-34.5 90t-65.5 59t-105 21.5q-135 0 -187 -80.5t-52 -222.5v-8z" />
<glyph unicode="&#xea;" horiz-adv-x="1093" d="M92 483v58q0 233 113.5 368t359.5 135q125 0 208 -38.5t133 -103t70.5 -147.5t20.5 -169v-176h-667q10 -125 80.5 -189.5t214.5 -64.5q86 0 155.5 21.5t132.5 55.5l41 -159q-59 -39 -149 -68t-203 -29q-256 0 -383 134.5t-127 371.5zM217 1147l258 305h139l256 -305h-172 l-153 139l-152 -139h-176zM328 559h454v27q0 61 -10 113.5t-34.5 90t-65.5 59t-105 21.5q-135 0 -187 -80.5t-52 -222.5v-8z" />
<glyph unicode="&#xeb;" horiz-adv-x="1093" d="M92 483v58q0 233 113.5 368t359.5 135q125 0 208 -38.5t133 -103t70.5 -147.5t20.5 -169v-176h-667q10 -125 80.5 -189.5t214.5 -64.5q86 0 155.5 21.5t132.5 55.5l41 -159q-59 -39 -149 -68t-203 -29q-256 0 -383 134.5t-127 371.5zM207 1266q0 55 31.5 90t101.5 35 q68 0 100.5 -35t32.5 -90q0 -57 -32.5 -91t-100.5 -34q-70 0 -101.5 33.5t-31.5 91.5zM328 559h454v27q0 61 -10 113.5t-34.5 90t-65.5 59t-105 21.5q-135 0 -187 -80.5t-52 -222.5v-8zM616 1266q0 55 32 90t102 35q68 0 100.5 -35t32.5 -90q0 -57 -33 -91t-100 -34 q-70 0 -102 33.5t-32 91.5z" />
<glyph unicode="&#xec;" horiz-adv-x="520" d="M-7 1292l82 189l451 -242l-51 -113zM137 0v1024h246v-1024h-246z" />
<glyph unicode="&#xed;" horiz-adv-x="520" d="M-7 1239l451 242l82 -189l-483 -166zM137 0v1024h246v-1024h-246z" />
<glyph unicode="&#xee;" horiz-adv-x="520" d="M-68 1147l258 305h139l256 -305h-172l-153 139l-152 -139h-176zM137 0v1024h246v-1024h-246z" />
<glyph unicode="&#xef;" horiz-adv-x="520" d="M-78 1266q0 55 31.5 90t101.5 35q68 0 100.5 -35t32.5 -90q0 -57 -32.5 -91t-100.5 -34q-70 0 -101.5 33.5t-31.5 91.5zM137 0v1024h246v-1024h-246zM331 1266q0 55 32 90t102 35q68 0 100.5 -35t32.5 -90q0 -57 -33 -91t-100 -34q-70 0 -102 33.5t-32 91.5z" />
<glyph unicode="&#xf0;" horiz-adv-x="1142" d="M90 481v47q0 236 117 367t330 131q96 0 167.5 -32.5t129.5 -94.5q-23 59 -66 123.5t-96 122.5l-211 -49l-29 114l133 31q-41 33 -83 61.5t-85 51.5l115 108q68 -41 127 -84t109 -90l188 47l29 -118l-123 -31q115 -143 160 -309t45 -363v-27q0 -117 -28 -212t-85 -160.5 t-148.5 -101.5t-216.5 -36t-215 35t-148.5 100.5t-87 159t-28.5 209.5zM336 481q0 -147 52 -229t181 -82t181.5 82t52.5 229v47q0 147 -55.5 228.5t-178.5 81.5q-127 0 -180 -82t-53 -228v-47z" />
<glyph unicode="&#xf1;" horiz-adv-x="1212" d="M135 0v1024h223l13 -188h4q16 39 45 76.5t72 67.5t101 47t132 17q190 0 271 -100t81 -313v-631h-243v598q0 129 -38 183.5t-143 54.5q-129 0 -200.5 -84t-71.5 -238v-514h-246zM264 1149q6 147 54 222t153 75q43 0 77.5 -20.5t65.5 -46t58.5 -46t56.5 -20.5q68 0 73 127 h140q-4 -145 -52.5 -220t-150.5 -75q-43 0 -79 20.5t-66.5 46t-59.5 46t-55 20.5q-66 0 -74 -129h-141z" />
<glyph unicode="&#xf2;" horiz-adv-x="1148" d="M92 481v60q0 115 29 208t88 158.5t150 101t214 35.5q125 0 215.5 -35.5t149.5 -101t88 -159t29 -207.5v-60q0 -115 -29 -208t-88 -158.5t-149.5 -101.5t-215.5 -36q-123 0 -214 36t-150 101.5t-88 159t-29 207.5zM307 1292l82 189l451 -242l-51 -113zM338 481 q0 -147 52 -231t183 -84t184.5 84t53.5 231v60q0 147 -53 231t-185 84q-131 0 -183 -84t-52 -231v-60z" />
<glyph unicode="&#xf3;" horiz-adv-x="1148" d="M92 481v60q0 115 29 208t88 158.5t150 101t214 35.5q125 0 215.5 -35.5t149.5 -101t88 -159t29 -207.5v-60q0 -115 -29 -208t-88 -158.5t-149.5 -101.5t-215.5 -36q-123 0 -214 36t-150 101.5t-88 159t-29 207.5zM307 1239l451 242l82 -189l-483 -166zM338 481 q0 -147 52 -231t183 -84t184.5 84t53.5 231v60q0 147 -53 231t-185 84q-131 0 -183 -84t-52 -231v-60z" />
<glyph unicode="&#xf4;" horiz-adv-x="1148" d="M92 481v60q0 115 29 208t88 158.5t150 101t214 35.5q125 0 215.5 -35.5t149.5 -101t88 -159t29 -207.5v-60q0 -115 -29 -208t-88 -158.5t-149.5 -101.5t-215.5 -36q-123 0 -214 36t-150 101.5t-88 159t-29 207.5zM246 1147l258 305h139l256 -305h-172l-153 139l-152 -139 h-176zM338 481q0 -147 52 -231t183 -84t184.5 84t53.5 231v60q0 147 -53 231t-185 84q-131 0 -183 -84t-52 -231v-60z" />
<glyph unicode="&#xf5;" horiz-adv-x="1148" d="M92 481v60q0 115 29 208t88 158.5t150 101t214 35.5q125 0 215.5 -35.5t149.5 -101t88 -159t29 -207.5v-60q0 -115 -29 -208t-88 -158.5t-149.5 -101.5t-215.5 -36q-123 0 -214 36t-150 101.5t-88 159t-29 207.5zM234 1149q6 147 54 222t153 75q43 0 77.5 -20.5t65.5 -46 t58.5 -46t56.5 -20.5q68 0 73 127h140q-4 -145 -52.5 -220t-150.5 -75q-43 0 -79 20.5t-66.5 46t-59.5 46t-55 20.5q-66 0 -74 -129h-141zM338 481q0 -147 52 -231t183 -84t184.5 84t53.5 231v60q0 147 -53 231t-185 84q-131 0 -183 -84t-52 -231v-60z" />
<glyph unicode="&#xf6;" horiz-adv-x="1148" d="M92 481v60q0 115 29 208t88 158.5t150 101t214 35.5q125 0 215.5 -35.5t149.5 -101t88 -159t29 -207.5v-60q0 -115 -29 -208t-88 -158.5t-149.5 -101.5t-215.5 -36q-123 0 -214 36t-150 101.5t-88 159t-29 207.5zM236 1266q0 55 31.5 90t101.5 35q68 0 100.5 -35 t32.5 -90q0 -57 -32.5 -91t-100.5 -34q-70 0 -101.5 33.5t-31.5 91.5zM338 481q0 -147 52 -231t183 -84t184.5 84t53.5 231v60q0 147 -53 231t-185 84q-131 0 -183 -84t-52 -231v-60zM645 1266q0 55 32 90t102 35q68 0 100.5 -35t32.5 -90q0 -57 -33 -91t-100 -34 q-70 0 -102 33.5t-32 91.5z" />
<glyph unicode="&#xf7;" d="M78 551v205h840v-205h-840zM354 307q0 27 7.5 51.5t23.5 44t44 30.5t69 11t68.5 -11t44 -30.5t23.5 -44t7 -51.5t-7 -52.5t-23.5 -46t-44 -32.5t-68.5 -12t-69 12t-44 32.5t-23.5 46.5t-7.5 52zM354 1004q0 27 7.5 51t23.5 43.5t44 32t69 12.5t68.5 -12.5t44 -32 t23.5 -44t7 -50.5q0 -27 -7 -52.5t-23.5 -45t-44 -32t-68.5 -12.5t-69 12.5t-44 32t-23.5 45t-7.5 52.5z" />
<glyph unicode="&#xf8;" horiz-adv-x="1148" d="M92 481v60q0 115 29 208t89 158.5t150.5 101t212.5 35.5q133 0 232 -43l51 84h145l-94 -149q76 -66 112 -166t36 -229v-60q0 -115 -29 -208t-89 -158.5t-150.5 -101.5t-213.5 -36q-131 0 -231 46l-51 -84h-146l93 147q-74 66 -110 166t-36 229zM338 512q0 -66 6 -117 t29 -92l321 522q-49 31 -121 31q-70 0 -115.5 -23.5t-72.5 -68.5t-37 -108.5t-10 -143.5zM453 197q48 -31 120 -31q133 0 184.5 84t51.5 227v49q0 55 -7 104.5t-28 90.5z" />
<glyph unicode="&#xf9;" horiz-adv-x="1175" d="M131 373v651h244v-621q0 -117 38 -166t130 -49q117 0 184.5 83t67.5 233v520h243v-1024h-221l-12 184h-4q-16 -39 -43 -75.5t-67 -65.5t-93 -46t-123 -17q-176 0 -260 94t-84 299zM321 1292l82 189l451 -242l-51 -113z" />
<glyph unicode="&#xfa;" horiz-adv-x="1175" d="M131 373v651h244v-621q0 -117 38 -166t130 -49q117 0 184.5 83t67.5 233v520h243v-1024h-221l-12 184h-4q-16 -39 -43 -75.5t-67 -65.5t-93 -46t-123 -17q-176 0 -260 94t-84 299zM321 1239l451 242l82 -189l-483 -166z" />
<glyph unicode="&#xfb;" horiz-adv-x="1175" d="M131 373v651h244v-621q0 -117 38 -166t130 -49q117 0 184.5 83t67.5 233v520h243v-1024h-221l-12 184h-4q-16 -39 -43 -75.5t-67 -65.5t-93 -46t-123 -17q-176 0 -260 94t-84 299zM260 1147l258 305h139l256 -305h-172l-153 139l-152 -139h-176z" />
<glyph unicode="&#xfc;" horiz-adv-x="1175" d="M131 373v651h244v-621q0 -117 38 -166t130 -49q117 0 184.5 83t67.5 233v520h243v-1024h-221l-12 184h-4q-16 -39 -43 -75.5t-67 -65.5t-93 -46t-123 -17q-176 0 -260 94t-84 299zM250 1266q0 55 31.5 90t101.5 35q68 0 100.5 -35t32.5 -90q0 -57 -32.5 -91t-100.5 -34 q-70 0 -101.5 33.5t-31.5 91.5zM659 1266q0 55 32 90t102 35q68 0 100.5 -35t32.5 -90q0 -57 -33 -91t-100 -34q-70 0 -102 33.5t-32 91.5z" />
<glyph unicode="&#xfd;" horiz-adv-x="1081" d="M27 1024h256l170 -475q27 -72 51 -163t43 -177h6q16 86 38.5 176t49.5 166l158 473h252l-400 -1112q-31 -88 -63.5 -152.5t-75.5 -107.5t-101.5 -63.5t-142.5 -20.5q-76 0 -132 13t-91 30l37 186q66 -33 162 -33q72 0 105.5 29t58.5 101l26 75zM272 1239l451 242l82 -189 l-483 -166z" />
<glyph unicode="&#xfe;" horiz-adv-x="1202" d="M139 -410v1844h244v-408q0 -47 -3 -90t-7 -90h4q41 84 125 141t219 57q201 0 294 -131t93 -374v-54q0 -109 -20.5 -200.5t-67.5 -159.5t-124 -106.5t-187 -38.5q-66 0 -119 17t-94 45t-69 64.5t-44 77.5h-4q2 -51 3 -100t1 -98v-396h-244zM383 496q0 -70 17.5 -128.5 t51 -101.5t82 -66.5t109.5 -23.5q117 0 170 73t53 238v52q0 154 -49 232.5t-170 78.5q-59 0 -108.5 -22.5t-84 -60.5t-53 -89t-18.5 -107v-75z" />
<glyph unicode="&#xff;" horiz-adv-x="1081" d="M27 1024h256l170 -475q27 -72 51 -163t43 -177h6q16 86 38.5 176t49.5 166l158 473h252l-400 -1112q-31 -88 -63.5 -152.5t-75.5 -107.5t-101.5 -63.5t-142.5 -20.5q-76 0 -132 13t-91 30l37 186q66 -33 162 -33q72 0 105.5 29t58.5 101l26 75zM201 1266q0 55 31.5 90 t101.5 35q68 0 100.5 -35t32.5 -90q0 -57 -32.5 -91t-100.5 -34q-70 0 -101.5 33.5t-31.5 91.5zM610 1266q0 55 32 90t102 35q68 0 100.5 -35t32.5 -90q0 -57 -33 -91t-100 -34q-70 0 -102 33.5t-32 91.5z" />
<glyph unicode="&#x152;" horiz-adv-x="2056" d="M102 678v78q0 164 34 294t104.5 220t179 138t260.5 48q143 0 243.5 -52t153.5 -134l4 164h865v-222h-635v-387h600v-217h-600v-389h647v-219h-877l-4 164q-51 -80 -150.5 -133.5t-240.5 -53.5q-154 0 -264.5 50.5t-181 142.5t-104.5 221t-34 287zM358 678 q0 -111 17.5 -200t57.5 -151.5t108 -96t166 -33.5t165.5 33.5t109.5 96t59.5 151.5t17.5 200v78q0 111 -17.5 199.5t-59.5 151t-109.5 96.5t-165.5 34t-166 -34t-108 -96.5t-57.5 -151.5t-17.5 -199v-78z" />
<glyph unicode="&#x153;" horiz-adv-x="1808" d="M92 481v54q0 117 29 212t87 161.5t147 102.5t210 36q135 0 227.5 -54.5t139.5 -140.5q45 86 130 140.5t228 54.5q119 0 200 -38t131 -101.5t71.5 -145.5t21.5 -168v-186h-665q10 -125 75.5 -188.5t212.5 -63.5q90 0 160 23.5t135 58.5l41 -162q-59 -41 -150 -70t-208 -29 q-143 0 -237.5 53.5t-139.5 145.5h-4q-43 -92 -136 -145.5t-225 -53.5q-244 0 -362.5 136.5t-118.5 367.5zM338 481q0 -147 53 -229t184 -82t184.5 82t53.5 229v60q0 147 -53 229t-185 82q-131 0 -184 -82t-53 -229v-60zM1044 559h445v33q0 63 -8 114.5t-31 87t-62.5 55 t-103.5 19.5q-139 0 -189.5 -83t-50.5 -226z" />
<glyph unicode="&#x178;" horiz-adv-x="1306" d="M25 1434h276l219 -410q37 -72 71 -144.5t58 -142.5h6q25 70 59 142.5t72 144.5l218 410h278l-502 -891v-543h-254v543zM314 1676q0 55 31.5 90t101.5 35q68 0 100.5 -35t32.5 -90q0 -57 -32.5 -91t-100.5 -34q-70 0 -101.5 33.5t-31.5 91.5zM723 1676q0 55 32 90t102 35 q68 0 100.5 -35t32.5 -90q0 -57 -33 -91t-100 -34q-70 0 -102 33.5t-32 91.5z" />
<glyph unicode="&#x2c6;" horiz-adv-x="659" d="M2 1147l258 305h139l256 -305h-172l-153 139l-152 -139h-176z" />
<glyph unicode="&#x2dc;" horiz-adv-x="659" d="M-10 1149q6 147 54 222t153 75q43 0 77.5 -20.5t65.5 -46t58.5 -46t56.5 -20.5q68 0 73 127h140q-4 -145 -52.5 -220t-150.5 -75q-43 0 -79 20.5t-66.5 46t-59.5 46t-55 20.5q-66 0 -74 -129h-141z" />
<glyph unicode="&#x2000;" horiz-adv-x="945" />
<glyph unicode="&#x2001;" horiz-adv-x="1891" />
<glyph unicode="&#x2002;" horiz-adv-x="945" />
<glyph unicode="&#x2003;" horiz-adv-x="1891" />
<glyph unicode="&#x2004;" horiz-adv-x="630" />
<glyph unicode="&#x2005;" horiz-adv-x="472" />
<glyph unicode="&#x2006;" horiz-adv-x="315" />
<glyph unicode="&#x2007;" horiz-adv-x="315" />
<glyph unicode="&#x2008;" horiz-adv-x="236" />
<glyph unicode="&#x2009;" horiz-adv-x="378" />
<glyph unicode="&#x200a;" horiz-adv-x="105" />
<glyph unicode="&#x2010;" horiz-adv-x="757" d="M57 571v207h643v-207h-643z" />
<glyph unicode="&#x2011;" horiz-adv-x="757" d="M57 571v207h643v-207h-643z" />
<glyph unicode="&#x2012;" horiz-adv-x="757" d="M57 571v207h643v-207h-643z" />
<glyph unicode="&#x2013;" horiz-adv-x="1138" d="M57 569v209h1024v-209h-1024z" />
<glyph unicode="&#x2014;" horiz-adv-x="1531" d="M53 569v209h1424v-209h-1424z" />
<glyph unicode="&#x2018;" horiz-adv-x="464" d="M86 1032l139 467l166 -37l-86 -481z" />
<glyph unicode="&#x2019;" horiz-adv-x="464" d="M72 1016l86 481l219 -51l-139 -465z" />
<glyph unicode="&#x201a;" horiz-adv-x="464" d="M72 -238l86 484l219 -51l-139 -465z" />
<glyph unicode="&#x201c;" horiz-adv-x="792" d="M84 1032l141 467l164 -37l-84 -481zM414 1032l141 467l166 -37l-88 -481z" />
<glyph unicode="&#x201d;" horiz-adv-x="792" d="M72 1016l86 483l219 -53l-139 -465zM399 1016l88 483l222 -53l-144 -465z" />
<glyph unicode="&#x201e;" horiz-adv-x="792" d="M72 -238l86 484l219 -51l-139 -465zM399 -238l90 484l220 -51l-144 -465z" />
<glyph unicode="&#x2022;" horiz-adv-x="612" d="M90 569q0 43 11.5 83t37 70t66.5 48t100 18t101.5 -18t68 -48t36.5 -70t11 -83t-11 -81.5t-36.5 -68.5t-68 -48.5t-101.5 -18.5t-100 18.5t-66.5 48.5t-37 68.5t-11.5 81.5z" />
<glyph unicode="&#x2026;" horiz-adv-x="1449" d="M90 133q0 55 33 100.5t119 45.5q84 0 116.5 -45.5t32.5 -100.5q0 -57 -32.5 -102t-116.5 -45q-86 0 -119 45t-33 102zM573 133q0 55 33 100.5t119 45.5q84 0 116.5 -45.5t32.5 -100.5q0 -57 -32.5 -102t-116.5 -45q-86 0 -119 45t-33 102zM1057 133q0 55 32.5 100.5 t118.5 45.5q84 0 117 -45.5t33 -100.5q0 -57 -33 -102t-117 -45q-86 0 -118.5 45t-32.5 102z" />
<glyph unicode="&#x202f;" horiz-adv-x="378" />
<glyph unicode="&#x2039;" horiz-adv-x="663" d="M59 680l248 403h248l-252 -403l252 -401h-248z" />
<glyph unicode="&#x203a;" horiz-adv-x="663" d="M106 279l252 401l-252 403h248l248 -403l-248 -401h-248z" />
<glyph unicode="&#x205f;" horiz-adv-x="472" />
<glyph unicode="&#x20ac;" horiz-adv-x="1265" d="M82 508v151h162q-4 29 -4 56.5t4 56.5h-162v150h178q18 115 62.5 213t113 168.5t163.5 110.5t218 40q125 0 216 -41t149 -96l-58 -197q-53 53 -118.5 85t-153.5 32q-129 0 -214 -81t-118 -234h453v-150h-473q-4 -29 -4 -56.5t4 -56.5h403v-151h-383q31 -147 117 -231 t219 -84q86 0 153.5 31.5t127.5 86.5l55 -194q-57 -57 -150.5 -98.5t-218.5 -41.5q-123 0 -219 40t-165.5 111t-113.5 168t-65 212h-178z" />
<glyph unicode="&#x2122;" horiz-adv-x="1380" d="M33 1292v142h524v-142h-180v-418h-164v418h-180zM655 874v560h162l158 -279l158 279h161v-560h-157v213v65t4 65q-10 -25 -26.5 -56t-37.5 -65l-65 -117h-76l-66 117q-39 68 -61 121q4 -33 4 -65v-65v-213h-158z" />
<glyph unicode="&#x25fc;" horiz-adv-x="1024" d="M0 0v1024h1024v-1024h-1024z" />
<glyph unicode="&#xfb03;" horiz-adv-x="1830" d="M20 842v182h185v94q0 154 81 244t259 90q102 0 188 -29l-16 -180q-35 10 -62.5 14.5t-58.5 4.5q-86 0 -118 -39t-32 -117v-82h385v51q0 82 23 151.5t72 120t129 78t196 27.5q84 0 156 -13.5t117 -29.5l-19 -176q-86 31 -202 31q-66 0 -110 -13.5t-70.5 -39t-38 -62.5 t-11.5 -82v-43h619v-1024h-242v842h-377v-842h-242v842h-382v-842h-244v842h-185z" />
<glyph unicode="&#xfb04;" horiz-adv-x="1845" d="M20 842v182h185v94q0 154 81 244t259 90q102 0 188 -29l-16 -180q-35 10 -62.5 14.5t-58.5 4.5q-86 0 -118 -39t-32 -117v-82h385v49q0 86 24 155.5t79 120t144 77t222 26.5q111 0 221.5 -15.5t184.5 -37.5v-1399h-242v1251q-76 16 -151 17q-70 0 -116 -15.5t-73.5 -42 t-39 -64.5t-11.5 -83v-39h234v-182h-234v-842h-242v842h-382v-842h-244v842h-185z" />
</font>
</defs>
</svg>
