<?xml version="1.0" standalone="no"?>
<!DOCTYPE svg PUBLIC "-//W3C//DTD SVG 1.1//EN" "http://www.w3.org/Graphics/SVG/1.1/DTD/svg11.dtd" >
<svg xmlns="http://www.w3.org/2000/svg">
<metadata></metadata>
<defs>
<font id="rleud-lightuploaded_file" horiz-adv-x="925" >
<font-face units-per-em="2048" ascent="1581" descent="-467" />
<missing-glyph horiz-adv-x="536" />
<glyph unicode="&#xfb01;" horiz-adv-x="1056" d="M35 924v100h192v68q0 82 18.5 147.5t60.5 111.5t107.5 71.5t157.5 25.5q68 0 128.5 -12.5t105.5 -30.5l-25 -96q-45 16 -93 25t-105 9q-70 0 -116 -17t-73.5 -51t-39 -82t-11.5 -110v-59h547v-1024h-115v924h-432v-924h-115v924h-192z" />
<glyph unicode="&#xfb02;" horiz-adv-x="1064" d="M35 924v100h192v63q0 166 85 263.5t288 97.5q76 0 156 -11.5t141 -29.5v-1407h-113v1323q-39 10 -87 15t-95 5q-78 0 -128 -18t-78.5 -52t-41 -82t-12.5 -110v-57h258v-100h-258v-924h-115v924h-192z" />
<glyph horiz-adv-x="0" />
<glyph horiz-adv-x="0" />
<glyph unicode="&#xd;" horiz-adv-x="350" />
<glyph unicode=" "  horiz-adv-x="536" />
<glyph unicode="&#x09;" horiz-adv-x="536" />
<glyph unicode="&#xa0;" horiz-adv-x="536" />
<glyph unicode="!" horiz-adv-x="493" d="M162 72q0 31 18.5 56.5t67.5 25.5q47 0 65.5 -26t18.5 -56q0 -33 -18.5 -57.5t-65.5 -24.5q-49 0 -67.5 24.5t-18.5 57.5zM180 1434h133l-20 -1072h-92z" />
<glyph unicode="&#x22;" horiz-adv-x="585" d="M104 1434h119l-14 -502h-88zM362 1434h119l-14 -502h-86z" />
<glyph unicode="#" horiz-adv-x="1138" d="M74 395v109h184l72 424h-170v108h188l68 398h116l-69 -398h319l66 398h117l-68 -398h170v-108h-188l-72 -424h170v-109h-191l-63 -395h-117l68 395h-320l-65 -395h-117l68 395h-166zM373 504h319l72 424h-320z" />
<glyph unicode="$" horiz-adv-x="1138" d="M117 365h116q0 -135 78 -201t256 -66q174 0 254 66.5t80 204.5q0 70 -20.5 119t-62.5 84.5t-107.5 64t-155.5 59.5q-92 31 -170 65t-133 81t-87 111.5t-32 156.5q0 154 89 240t296 96v213h113v-215q190 -14 273 -103.5t87 -238.5h-119q0 113 -67.5 173t-241.5 60 q-176 0 -243.5 -56t-67.5 -169q0 -66 23.5 -112t68.5 -81.5t107.5 -62.5t142.5 -53q106 -35 186 -73t133.5 -87t79 -114.5t25.5 -157.5q0 -354 -387 -381v-213h-113v213q-211 10 -306 104t-95 273z" />
<glyph unicode="%" horiz-adv-x="1269" d="M61 1104q0 158 60.5 249t195.5 91t193.5 -91t58.5 -249t-59 -250t-193 -92q-135 0 -195.5 91t-60.5 251zM168 0l807 1434h127l-807 -1434h-127zM170 1104q0 -111 29.5 -177.5t117.5 -66.5q86 0 116 66.5t30 177.5t-30 177.5t-116 66.5q-88 0 -117.5 -67.5t-29.5 -176.5z M700 330q0 158 59.5 250t194.5 92t194.5 -92.5t59.5 -249.5q0 -160 -59 -250t-195 -90q-135 0 -194.5 90t-59.5 250zM807 330q0 -111 29.5 -177.5t117.5 -66.5q86 0 116 66.5t30 177.5t-30 177t-116 66q-88 0 -117.5 -67t-29.5 -176z" />
<glyph unicode="&#x26;" horiz-adv-x="1243" d="M109 403q0 100 24.5 176t66.5 131.5t98 92.5t118 59q-45 63 -80 131t-35 160q0 135 77 216t249 81t244.5 -86t72.5 -223q0 -84 -27.5 -144.5t-68.5 -101.5h280v-102h-403v88q47 41 78 106.5t31 151.5q0 43 -11.5 79.5t-36 65.5t-63.5 45.5t-94 16.5q-109 0 -161 -52.5 t-52 -140.5q0 -43 15 -86t40 -84t54.5 -81t58.5 -79l608 -823h-137l-520 705q-16 20 -28.5 37.5t-23.5 37.5q-115 -37 -185.5 -126t-70.5 -251q0 -145 77 -227t239 -82q66 0 124 11.5t117 39.5l31 -106q-66 -31 -127 -43t-147 -12q-211 0 -321.5 107.5t-110.5 311.5z" />
<glyph unicode="'" horiz-adv-x="348" d="M115 1434h118l-16 -502h-86z" />
<glyph unicode="(" horiz-adv-x="503" d="M145 571q0 264 71 483.5t187 411.5l70 -36q-117 -223 -163 -432.5t-46 -426.5t46 -424.5t163 -431.5l-70 -37q-117 193 -187.5 412t-70.5 481z" />
<glyph unicode=")" horiz-adv-x="503" d="M31 -285q117 223 161 431t44 425t-44.5 426t-160.5 433l67 36q117 -193 187.5 -412t70.5 -483q0 -262 -70.5 -481t-187.5 -412z" />
<glyph unicode="*" horiz-adv-x="892" d="M121 1139l41 106l239 -102l-10 291h109l-11 -291l238 102l43 -106l-262 -90l186 -244l-84 -74l-166 264l-161 -264l-86 74l188 244z" />
<glyph unicode="+" d="M66 590v110h337v408h119v-408h338v-110h-338v-406h-119v406h-337z" />
<glyph unicode="," horiz-adv-x="399" d="M84 -254l70 416l141 -29l-123 -416z" />
<glyph unicode="-" horiz-adv-x="712" d="M66 618v111h583v-111h-583z" />
<glyph unicode="." horiz-adv-x="399" d="M115 72q0 31 18.5 56.5t67.5 25.5q47 0 64.5 -26t17.5 -56q0 -33 -17.5 -57.5t-64.5 -24.5q-49 0 -67.5 24.5t-18.5 57.5z" />
<glyph unicode="/" horiz-adv-x="583" d="M31 -41l405 1516h117l-408 -1516h-114z" />
<glyph unicode="0" horiz-adv-x="1193" d="M115 717q0 209 36.5 350t101 226t153 121t190.5 36t191.5 -36t154 -121t101 -226t36.5 -350q0 -211 -36.5 -351.5t-101 -225.5t-154 -120.5t-191.5 -35.5t-190.5 35.5t-153 120.5t-101 225.5t-36.5 351.5zM233 717q0 -180 26 -300t74 -191.5t114.5 -101.5t148.5 -30 t149.5 30t115.5 101.5t74 191.5t26 300t-26 299t-74 190.5t-115.5 101t-149.5 29.5t-148.5 -29.5t-114.5 -101t-74 -190.5t-26 -299z" />
<glyph unicode="1" horiz-adv-x="679" d="M43 1198l330 236h121v-1434h-121v1290l-295 -182z" />
<glyph unicode="2" horiz-adv-x="1042" d="M88 0v100l510 594q25 29 57.5 69t62.5 89t50 105.5t20 121.5q0 72 -20 121t-59 80t-94.5 44t-125.5 13q-96 0 -183 -19.5t-161 -47.5l-26 104q72 33 166 54.5t209 21.5q190 0 301.5 -86t111.5 -285q0 -70 -17.5 -131t-46 -116.5t-66.5 -106.5t-79 -98l-446 -514h682v-113 h-846z" />
<glyph unicode="3" horiz-adv-x="1003" d="M53 53l25 109q162 -66 346 -66q168 0 258 72t90 235q0 88 -23.5 144.5t-66.5 89.5t-101.5 46t-127.5 13h-181v111h179q135 0 216 65.5t81 206.5q0 137 -77 197.5t-231 60.5q-94 0 -178 -17t-158 -50l-24 108q74 33 168 52.5t198 19.5q213 0 315.5 -92t102.5 -279 q0 -78 -20.5 -134t-53 -94t-70.5 -61.5t-71 -35.5q47 -12 91 -37t78 -67t53.5 -102.5t19.5 -144.5q0 -215 -123 -317t-340 -102q-119 0 -207 19.5t-168 49.5z" />
<glyph unicode="4" horiz-adv-x="1073" d="M68 285v98l450 1051h125l-444 -1039h536v518h119v-518h176v-110h-176v-285h-119v285h-667z" />
<glyph unicode="5" horiz-adv-x="1081" d="M88 63l23 109q78 -33 169 -53.5t195 -20.5q88 0 159 19.5t120 62.5t75.5 114t26.5 175q0 92 -22.5 155.5t-62.5 102.5t-97.5 56.5t-124.5 17.5q-111 0 -193 -36t-135 -77h-104l43 746h747v-113h-637l-30 -506q20 16 54 33.5t75 31t90 22.5t100 9q92 0 169 -24.5 t131 -77.5t85 -137t31 -203q0 -131 -37 -223t-102.5 -149.5t-157.5 -84t-205 -26.5q-115 0 -213 22.5t-172 54.5z" />
<glyph unicode="6" horiz-adv-x="1107" d="M115 670q0 401 127 590.5t383 189.5q92 0 161.5 -18.5t122.5 -42.5l-28 -105q-53 25 -116.5 41t-135.5 16q-104 0 -178 -39.5t-120 -114.5t-68.5 -181.5t-26.5 -239.5q59 53 156 95t214 42q195 0 297.5 -112.5t102.5 -341.5q0 -223 -115 -344t-307 -121 q-238 0 -353.5 177t-115.5 509zM233 647q2 -274 86 -416.5t254 -142.5q156 0 236 97.5t80 263.5q0 170 -65.5 258t-225.5 88q-53 0 -105.5 -12.5t-99.5 -32t-88 -46t-72 -57.5z" />
<glyph unicode="7" horiz-adv-x="997" d="M66 1321v113h831v-103l-524 -1331h-129l518 1321h-696z" />
<glyph unicode="8" horiz-adv-x="1126" d="M111 385q0 80 20.5 142.5t54 108.5t78.5 75.5t96 44.5v4q-43 12 -85 36.5t-74.5 63.5t-52 95.5t-19.5 129.5q0 82 23.5 150t76 115t135 73.5t199.5 26.5t199 -26.5t134 -73.5t76.5 -115t24.5 -150q0 -74 -19.5 -130t-52 -95t-74.5 -63.5t-85 -34.5q49 -18 95 -49t81 -77 t55.5 -107.5t20.5 -143.5q0 -111 -34 -186.5t-93.5 -123.5t-143 -69.5t-184.5 -21.5q-100 0 -183 21.5t-143.5 69.5t-93 123.5t-32.5 186.5zM227 389q0 -162 88 -233.5t248 -71.5q158 0 247 71.5t89 233.5q0 154 -82 232.5t-223 78.5h-64q-139 0 -221 -78.5t-82 -232.5z M242 1081q0 -127 74.5 -198.5t213.5 -71.5h64q141 0 216 71.5t75 198.5q0 129 -75 198t-247 69t-246.5 -69t-74.5 -198z" />
<glyph unicode="9" horiz-adv-x="1107" d="M102 985q0 223 115 344t309 121q238 0 352.5 -178t114.5 -510q0 -401 -126 -589.5t-386 -188.5q-90 0 -160.5 17t-121.5 44l26 105q55 -27 117.5 -43.5t134.5 -16.5q106 0 180 40t120 114.5t68.5 181t26.5 240.5q-59 -53 -156.5 -95.5t-211.5 -42.5q-197 0 -299.5 114 t-102.5 343zM219 985q0 -172 66.5 -259t226.5 -87q51 0 103.5 11.5t99.5 31.5t88 47t71 57q-4 272 -86.5 414.5t-252.5 142.5q-156 0 -236 -96t-80 -262z" />
<glyph unicode=":" horiz-adv-x="468" d="M150 72q0 31 18 56.5t65 25.5t65.5 -26t18.5 -56q0 -33 -18 -57.5t-66 -24.5q-47 0 -65 24.5t-18 57.5zM150 952q0 33 18 57.5t65 24.5t65.5 -24.5t18.5 -57.5t-18 -58.5t-66 -25.5q-47 0 -65 26t-18 58z" />
<glyph unicode=";" horiz-adv-x="468" d="M109 -256l69 418l141 -29l-124 -418zM150 952q0 33 18 57.5t65 24.5t65.5 -24.5t18.5 -57.5t-18 -58.5t-66 -25.5q-47 0 -65 26t-18 58z" />
<glyph unicode="&#x3c;" d="M53 547v80l768 487v-125l-645 -401l645 -404v-125z" />
<glyph unicode="=" d="M88 319v111h750v-111h-750zM88 659v111h750v-111h-750z" />
<glyph unicode="&#x3e;" d="M104 59v125l646 404l-646 401v125l770 -487v-80z" />
<glyph unicode="?" horiz-adv-x="978" d="M78 1374q74 33 168 54.5t205 21.5q215 0 314 -94t99 -266q0 -74 -25.5 -133.5t-62.5 -109.5t-82 -95t-82 -89.5t-62.5 -91.5t-25.5 -102v-104h-118v104q0 66 25.5 120t62 102t82 93t82 92.5t62 99.5t25.5 114q0 121 -71.5 184t-229.5 63q-92 0 -178 -19.5t-162 -49.5z M383 72q0 31 17.5 56.5t64.5 25.5q49 0 67.5 -26t18.5 -56q0 -33 -18.5 -57.5t-67.5 -24.5q-47 0 -64.5 24.5t-17.5 57.5z" />
<glyph unicode="@" horiz-adv-x="1886" d="M145 537q0 197 44 362.5t141.5 287.5t252 190.5t373.5 68.5t369 -68.5t242 -191.5t133 -291t41 -365q0 -272 -78 -407t-203 -135q-100 0 -144 67.5t-52 167.5q-16 -51 -45 -95t-71 -76t-97.5 -50t-124.5 -18q-184 0 -285.5 123.5t-101.5 365.5v78q0 113 22.5 205 t72.5 156.5t131 100.5t198 36q104 0 177.5 -34t121 -89.5t69 -129t21.5 -153.5v-330q0 -106 23.5 -161.5t84.5 -55.5q78 0 125 106.5t47 327.5q0 174 -32.5 322.5t-110.5 257.5t-208 170t-325 61q-193 0 -326.5 -59t-216.5 -165.5t-120 -254t-37 -325.5q0 -172 46 -321.5 t138 -278.5l-92 -64q-96 129 -149.5 304t-53.5 360zM655 473q0 -190 65.5 -287.5t211.5 -97.5q78 0 135 29.5t95 82t56.5 124t18.5 157.5v162q0 63 -15.5 117.5t-49 94.5t-85 62.5t-122.5 22.5q-90 0 -150.5 -27.5t-95.5 -78t-49.5 -123t-14.5 -160.5v-78z" />
<glyph unicode="A" horiz-adv-x="1253" d="M43 0l518 1434h133l516 -1434h-123l-137 391h-645l-139 -391h-123zM346 500h563l-172 479q-31 86 -56.5 167t-49.5 167h-6q-25 -86 -51.5 -167t-55.5 -167z" />
<glyph unicode="B" horiz-adv-x="1257" d="M180 0v1434h512q221 0 317.5 -92.5t96.5 -282.5q0 -78 -17.5 -134.5t-46 -96.5t-64.5 -63.5t-75 -33.5v-4q53 -8 98.5 -30.5t78 -62.5t51 -99.5t18.5 -139.5q0 -213 -112.5 -304t-348.5 -91h-508zM301 111h383q94 0 159.5 14t106.5 47t59.5 88t18.5 135q0 160 -81 218.5 t-249 58.5h-397v-561zM301 782h399q137 0 212 61.5t75 213.5q0 72 -15.5 122t-50 81.5t-92 46t-143.5 14.5h-385v-539z" />
<glyph unicode="C" horiz-adv-x="1163" d="M119 674v86q0 156 32.5 282.5t102.5 217t179.5 140.5t262.5 50q106 0 197.5 -20.5t169.5 -57.5l-27 -106q-78 33 -157 51t-179 18q-127 0 -215 -41t-142 -116.5t-78.5 -182t-24.5 -235.5v-86q0 -131 24.5 -237.5t79.5 -181.5t143 -116t213 -41q186 0 342 72l29 -107 q-76 -35 -169 -57t-204 -22q-154 0 -263 48t-180 138t-103.5 218t-32.5 286z" />
<glyph unicode="D" horiz-adv-x="1329" d="M180 0v1434h471q162 0 269.5 -48.5t172 -136.5t92 -212t27.5 -273v-88q0 -154 -28.5 -278t-94 -213t-175 -137t-269.5 -48h-465zM301 113h344q131 0 217 40t137.5 113.5t73 177t21.5 232.5v88q0 127 -20.5 229.5t-71 175t-136.5 111.5t-215 39h-350v-1206z" />
<glyph unicode="E" horiz-adv-x="1110" d="M180 0v1434h807v-115h-686v-543h660v-114h-660v-549h700v-113h-821z" />
<glyph unicode="F" horiz-adv-x="1056" d="M180 0v1434h783v-115h-662v-574h635v-114h-635v-631h-121z" />
<glyph unicode="G" horiz-adv-x="1298" d="M119 674v86q0 154 38 280.5t115.5 218t193.5 141.5t273 50q104 0 199.5 -21.5t173.5 -58.5l-27 -108q-74 33 -156.5 52t-180.5 19q-133 0 -228.5 -40t-158 -113.5t-92 -180t-29.5 -239.5v-86q0 -123 25.5 -228.5t84 -182.5t151.5 -121t226 -44q84 0 159 14.5t142 41.5 v514h-350v110h465v-698q-86 -47 -190.5 -71.5t-225.5 -24.5q-152 0 -265.5 48t-190 138t-114.5 218t-38 286z" />
<glyph unicode="H" horiz-adv-x="1347" d="M180 0v1434h121v-658h746v658h120v-1434h-120v662h-746v-662h-121z" />
<glyph unicode="I" horiz-adv-x="487" d="M184 0v1434h119v-1434h-119z" />
<glyph unicode="J" horiz-adv-x="901" d="M59 43l29 109q49 -25 110.5 -40.5t137.5 -15.5q156 0 214 90t58 271v864h-243v113h362v-988q0 -242 -94 -352t-293 -110q-90 0 -158.5 17t-122.5 42z" />
<glyph unicode="K" horiz-adv-x="1206" d="M180 0v1434h121v-813l698 813h148l-477 -560l499 -874h-131l-448 784l-289 -338v-446h-121z" />
<glyph unicode="L" horiz-adv-x="1021" d="M180 0v1434h121v-1321h662v-113h-783z" />
<glyph unicode="M" horiz-adv-x="1548" d="M180 0v1434h129l465 -875l465 875h129v-1434h-121v936q0 72 3 159t10 167h-5q-25 -66 -57.5 -139.5t-73.5 -145.5l-293 -541h-114l-293 541q-41 72 -74 145.5t-59 139.5h-2q4 -80 8 -167t4 -159v-936h-121z" />
<glyph unicode="N" horiz-adv-x="1384" d="M180 0v1434h127l606 -963q49 -78 94.5 -156.5t82.5 -150.5h4q-4 86 -7.5 173t-3.5 183v914h121v-1434h-127l-606 963q-49 78 -95 156.5t-81 150.5h-4q4 -86 7 -173t3 -184v-913h-121z" />
<glyph unicode="O" horiz-adv-x="1357" d="M119 674v86q0 156 30.5 283.5t98 218t174 139.5t258.5 49q150 0 256 -49t174 -139.5t98.5 -218.5t30.5 -283v-86q0 -158 -30.5 -285t-98.5 -217t-174.5 -139t-255.5 -49q-152 0 -258.5 49t-174 139t-98 217t-30.5 285zM240 674q0 -133 22.5 -239.5t73.5 -181.5t136 -116 t208 -41t207 41t135 116t73.5 181.5t22.5 239.5v86q0 131 -22.5 237.5t-73.5 182t-135 116.5t-207 41t-208 -41t-136 -116.5t-73.5 -182t-22.5 -237.5v-86z" />
<glyph unicode="P" horiz-adv-x="1212" d="M180 0v1434h482q223 0 333.5 -106.5t110.5 -346.5q0 -242 -111.5 -351.5t-335.5 -109.5h-358v-520h-121zM301 633h356q174 0 252 82t78 266q0 182 -75.5 261t-249.5 79h-361v-688z" />
<glyph unicode="Q" horiz-adv-x="1357" d="M119 674v86q0 156 30.5 283.5t98 218t174 139.5t258.5 49q150 0 256 -49t174 -139.5t98.5 -218.5t30.5 -283v-86q0 -158 -30.5 -285t-98.5 -217t-174.5 -139t-255.5 -49q-152 0 -258.5 49t-174 139t-98 217t-30.5 285zM240 674q0 -133 22.5 -239.5t73.5 -181.5t136 -116 t208 -41t207 41t135 116t73.5 181.5t22.5 239.5v86q0 131 -22.5 237.5t-73.5 182t-135 116.5t-207 41t-208 -41t-136 -116.5t-73.5 -182t-22.5 -237.5v-86zM387 -217l25 104q180 -31 337.5 -85t307.5 -138l-47 -104q-135 82 -289 138t-334 85z" />
<glyph unicode="R" horiz-adv-x="1257" d="M180 0v1434h529q223 0 321 -101.5t98 -318.5q0 -199 -88 -294t-241 -118l352 -602h-129l-350 598h-371v-598h-121zM301 711h406q170 0 236.5 72.5t66.5 230.5q0 166 -68 236.5t-235 70.5h-406v-610z" />
<glyph unicode="S" horiz-adv-x="1103" d="M100 66l29 106q82 -35 179 -56.5t224 -21.5q180 0 262.5 66.5t82.5 206.5q0 72 -19.5 122t-61.5 86.5t-106.5 65.5t-157.5 57q-90 29 -166.5 63t-133 82t-88 113.5t-31.5 157.5q0 162 104.5 249t341.5 87q119 0 211 -21.5t170 -54.5l-27 -102q-82 29 -166.5 48t-187.5 19 q-182 0 -255 -56t-73 -169q0 -68 24 -115t69 -81.5t108.5 -61.5t142.5 -51q106 -35 185.5 -74t131.5 -89t77.5 -116.5t25.5 -158.5q0 -383 -460 -383q-141 0 -245 21.5t-190 60.5z" />
<glyph unicode="T" horiz-adv-x="1097" d="M47 1319v115h1002v-115l-441 2v-1321h-121v1321z" />
<glyph unicode="U" horiz-adv-x="1335" d="M172 565v869h119v-865q0 -117 16.5 -206t59.5 -148t115.5 -89t185.5 -30t185.5 30t115.5 89t59 148.5t16 205.5v865h119v-869q0 -141 -24.5 -249.5t-82 -182.5t-152.5 -111.5t-236 -37.5t-235.5 37.5t-153 111.5t-83 182.5t-24.5 249.5z" />
<glyph unicode="V" horiz-adv-x="1226" d="M45 1434h125l326 -942q35 -98 62.5 -187.5t53.5 -187.5h4q25 98 52.5 186t62.5 189l326 942h127l-504 -1434h-133z" />
<glyph unicode="W" horiz-adv-x="1849" d="M63 1434h123l234 -908q29 -109 46 -205t34 -198h4q18 102 41.5 199.5t52.5 203.5l262 908h129l262 -908q31 -106 53.5 -203.5t41.5 -199.5h4q16 102 34.5 198.5t47.5 204.5l233 908h121l-373 -1434h-127l-280 979q-25 88 -45.5 174t-32.5 166h-4q-14 -80 -35 -166 t-43 -174l-283 -979h-127z" />
<glyph unicode="X" horiz-adv-x="1249" d="M49 0l508 735l-483 699h139l412 -605l413 605h140l-486 -699l508 -735h-137l-438 637l-437 -637h-139z" />
<glyph unicode="Y" horiz-adv-x="1196" d="M35 1434h137l281 -494q39 -68 75.5 -137.5t65.5 -128.5h6q29 59 65.5 128.5t75.5 137.5l283 494h135l-502 -861v-573h-120v573z" />
<glyph unicode="Z" horiz-adv-x="1150" d="M104 0v102l770 1221l-743 -2v113h889v-103l-768 -1222l790 2v-111h-938z" />
<glyph unicode="[" horiz-adv-x="503" d="M193 -332v1796h266v-104h-150v-1587h150v-105h-266z" />
<glyph unicode="\" horiz-adv-x="583" d="M31 1475h114l408 -1516h-117z" />
<glyph unicode="]" horiz-adv-x="503" d="M43 -227h150v1587h-150v104h268v-1796h-268v105z" />
<glyph unicode="^" horiz-adv-x="972" d="M70 653l372 781h88l373 -781h-119l-297 627l-299 -627h-118z" />
<glyph unicode="_" horiz-adv-x="753" d="M-2 -113h756v-104h-756v104z" />
<glyph unicode="`" horiz-adv-x="610" d="M72 1305l45 106l422 -203l-31 -69z" />
<glyph unicode="a" horiz-adv-x="1017" d="M94 293q0 172 98.5 245.5t280.5 73.5q72 0 146.5 -10t130.5 -22v94q0 133 -56.5 198.5t-197.5 65.5q-86 0 -165 -18.5t-143 -45.5l-24 97q66 31 150.5 50t185.5 19q190 0 275 -91t85 -267v-682h-102l-4 217h-4q-16 -45 -46 -87t-71 -74.5t-96.5 -52t-122.5 -19.5 q-70 0 -128.5 16t-101.5 53t-66.5 96.5t-23.5 143.5zM205 293q0 -117 58.5 -164t162.5 -47q68 0 126 25.5t102 70.5t70 107.5t26 138.5v61q-53 14 -123 21.5t-140 7.5q-147 0 -214.5 -51t-67.5 -170z" />
<glyph unicode="b" horiz-adv-x="1122" d="M166 0v1434h115v-398l-7 -227h5q39 104 129 167.5t223 63.5q199 0 291 -128t92 -367v-66q0 -495 -387 -495h-2q-137 0 -223.5 67.5t-118.5 165.5h-4l-7 -217h-106zM281 459q0 -76 24.5 -143.5t68.5 -118t104.5 -80t133.5 -29.5q154 0 219.5 97.5t65.5 293.5v66 q0 186 -62.5 287.5t-220.5 101.5q-74 0 -135 -27.5t-105 -76t-68.5 -110t-24.5 -128.5v-133z" />
<glyph unicode="c" d="M109 479v64q0 111 24.5 203t77.5 157.5t136 101t202 35.5q84 0 155.5 -17t122.5 -46l-24 -92q-113 53 -254 53q-90 0 -151.5 -28.5t-100.5 -81t-56.5 -125t-17.5 -160.5v-64q0 -88 17.5 -160.5t55.5 -125t100.5 -81t152.5 -28.5q78 0 144.5 17.5t123.5 45.5l25 -92 q-53 -31 -127 -51t-166 -20q-119 0 -203 35.5t-136 100t-76.5 157t-24.5 202.5z" />
<glyph unicode="d" horiz-adv-x="1122" d="M109 479v66q0 238 99 366.5t296 128.5q131 0 215 -63.5t125 -167.5h4l-8 227v398h116v-1434h-108l-6 217h-2q-16 -49 -45 -91t-71 -74t-95.5 -50t-118.5 -18q-193 0 -297 121.5t-104 373.5zM225 479q0 -197 72 -294t223 -97q72 0 131.5 29.5t101.5 80t64.5 118 t22.5 143.5v133q0 68 -22.5 129t-64.5 109.5t-100.5 76t-132.5 27.5q-158 0 -226.5 -100.5t-68.5 -288.5v-66z" />
<glyph unicode="e" horiz-adv-x="1019" d="M109 479v64q0 113 22.5 204t72.5 156.5t129 101t193 35.5q115 0 188.5 -39.5t116.5 -105.5t60.5 -149.5t17.5 -172.5v-139h-686q6 -162 83 -257t251 -95q84 0 153.5 19.5t127.5 50.5l26 -93q-55 -31 -133 -53t-176 -22q-119 0 -204 34.5t-138 99t-78.5 157t-25.5 204.5z M223 526h576v47q0 76 -11.5 142.5t-41 117t-83 79t-137.5 28.5q-88 0 -146 -28.5t-93 -80t-49.5 -124t-14.5 -158.5v-23z" />
<glyph unicode="f" horiz-adv-x="706" d="M35 924v100h192v90q0 162 67.5 248t235.5 86q59 0 112.5 -11.5t92.5 -27.5l-22 -94q-41 14 -81 21t-91 7q-115 0 -157 -59t-42 -176v-84h330v-100h-330v-924h-115v924h-192z" />
<glyph unicode="g" horiz-adv-x="1046" d="M104 -152q0 86 45.5 139.5t96.5 82.5q-18 6 -40 24.5t-40.5 44t-30.5 57t-14 68.5l119 152q-53 47 -79 108.5t-26 147.5v18q0 174 93.5 254t295.5 80h451v-90l-189 -2q57 -29 92 -92.5t35 -149.5v-18q0 -178 -95 -257t-294 -79q-61 0 -111.5 7t-90.5 28l-93 -119 q2 -39 18.5 -62.5t40 -37t53.5 -17.5t60 -4h195q193 0 273.5 -66.5t80.5 -201.5q0 -150 -104.5 -220.5t-313.5 -70.5q-96 0 -174.5 12.5t-135 44t-87.5 85t-31 134.5zM215 -152q0 -102 80 -140t240 -38q158 0 232.5 44t74.5 149q0 96 -56.5 132t-189.5 36h-254 q-59 -29 -93 -69t-34 -114zM246 672q0 -127 61 -182.5t217 -55.5q154 0 216.5 54.5t62.5 183.5v18q0 117 -62.5 176.5t-216.5 59.5t-216 -54.5t-62 -181.5v-18z" />
<glyph unicode="h" horiz-adv-x="1140" d="M166 0v1434h115v-396l-7 -237h5q29 102 122 170.5t240 68.5q188 0 265 -99t77 -298v-643h-117v631q0 80 -11 136t-37.5 93t-73 54.5t-113.5 17.5q-162 0 -256 -101.5t-94 -275.5v-555h-115z" />
<glyph unicode="i" horiz-adv-x="446" d="M137 1284q0 33 18.5 58.5t67.5 25.5q47 0 65.5 -25.5t18.5 -58.5t-18.5 -57.5t-65.5 -24.5q-49 0 -67.5 24.5t-18.5 57.5zM166 0v1024h115v-1024h-115z" />
<glyph unicode="j" horiz-adv-x="505" d="M-117 -389l25 98q35 -16 76 -23.5t79 -7.5q51 0 84 15.5t49.5 43t22.5 67.5t6 87v1031h-166v102h281v-1135q0 -164 -61.5 -239.5t-202.5 -75.5q-51 0 -102.5 9t-90.5 28zM195 1284q0 33 19.5 58.5t66.5 25.5q49 0 67.5 -25.5t18.5 -58.5t-18.5 -57.5t-67.5 -24.5 q-47 0 -66.5 24.5t-19.5 57.5z" />
<glyph unicode="k" horiz-adv-x="989" d="M166 0v1434h115v-942l512 532h151l-371 -389l381 -635h-125l-335 553l-213 -217v-336h-115z" />
<glyph unicode="l" horiz-adv-x="446" d="M166 0v1434h115v-1434h-115z" />
<glyph unicode="m" horiz-adv-x="1654" d="M162 0v1024h106l2 -221h4q12 47 39 90t68 75.5t95 52t120 19.5q123 0 183.5 -59t76.5 -164h6q37 98 124 160.5t218 62.5q160 0 225.5 -90t65.5 -262v-688h-115v678q0 129 -38.5 191.5t-149.5 62.5q-137 0 -222 -93.5t-85 -256.5v-582h-113v674q0 129 -40 193.5t-148 64.5 q-70 0 -127.5 -26.5t-97.5 -76t-61.5 -117t-21.5 -147.5v-565h-114z" />
<glyph unicode="n" horiz-adv-x="1134" d="M162 0v1024h106l2 -223h4q31 104 122 171.5t239 67.5q186 0 263 -99t77 -298v-643h-115v631q0 158 -49 229.5t-186 71.5q-160 0 -254.5 -102.5t-94.5 -274.5v-555h-114z" />
<glyph unicode="o" horiz-adv-x="1077" d="M109 479v64q0 113 23.5 204t75.5 156.5t133 101t198 35.5q115 0 196.5 -35.5t134 -101t76 -157t23.5 -203.5v-64q0 -113 -23.5 -204t-76 -155.5t-134.5 -100t-196 -35.5q-117 0 -198 35.5t-133 100t-75.5 156t-23.5 203.5zM223 479q0 -90 16.5 -162.5t53.5 -124t97.5 -80 t148.5 -28.5q86 0 146 28.5t98 80t54.5 124t16.5 162.5v64q0 88 -16.5 161.5t-54.5 125t-98 80t-146 28.5q-88 0 -148.5 -28.5t-97.5 -80t-53.5 -125t-16.5 -161.5v-64z" />
<glyph unicode="p" horiz-adv-x="1118" d="M162 -410v1434h104l4 -217h2q41 104 131.5 168.5t225.5 64.5q197 0 289 -128t92 -367v-66q0 -495 -387 -495h-2q-137 0 -223.5 66.5t-118.5 164.5h-5q0 -53 1 -107.5t1 -107.5v-410h-114zM276 459q0 -76 25 -143.5t69 -118t104.5 -80t131.5 -29.5q154 0 220.5 97.5 t66.5 293.5v66q0 186 -62.5 287.5t-220.5 101.5q-74 0 -135 -28.5t-105 -77t-69 -110t-25 -128.5v-131z" />
<glyph unicode="q" horiz-adv-x="1118" d="M109 479v66q0 238 99 366.5t296 128.5q131 0 215 -64.5t125 -168.5h4l2 217h106v-1434h-116v410v110.5t2 106.5h-2q-33 -98 -115 -165.5t-213 -67.5q-193 0 -298 121.5t-105 373.5zM225 479q0 -197 72 -294t223 -97q72 0 130.5 29.5t100.5 80t65.5 118t23.5 143.5v127 q0 68 -22.5 130t-64.5 111.5t-100.5 78t-132.5 28.5q-158 0 -226.5 -100.5t-68.5 -288.5v-66z" />
<glyph unicode="r" horiz-adv-x="688" d="M162 0v1024h104l4 -246h2q31 111 119 183.5t236 72.5h20v-121h-18q-166 0 -259.5 -103t-93.5 -284v-526h-114z" />
<glyph unicode="s" horiz-adv-x="880" d="M88 47l25 103q61 -31 139 -47.5t160 -16.5q55 0 102 9t82 30.5t54.5 53.5t19.5 79t-16.5 80t-48.5 57.5t-78 44t-103 39.5q-70 25 -130.5 48.5t-105.5 57t-70.5 83t-25.5 125.5q0 129 86 188t254 59q92 0 171 -18t140 -47l-22 -101q-63 29 -132 45.5t-155 16.5 q-117 0 -174 -32t-57 -109q0 -47 20.5 -80t56 -57.5t82 -43t99.5 -36.5q82 -29 141.5 -55.5t99 -61.5t59 -83t19.5 -120q0 -74 -26.5 -126t-74.5 -85t-115.5 -48t-147.5 -15q-90 0 -178 17t-150 46z" />
<glyph unicode="t" horiz-adv-x="753" d="M33 924v100h192l23 358h92v-358h336v-100h-336v-611q0 -119 35 -172t139 -53q90 0 172 35l25 -94q-41 -20 -92.5 -31.5t-112.5 -11.5q-84 0 -138.5 21.5t-86 63.5t-44 101t-12.5 137v615h-192z" />
<glyph unicode="u" horiz-adv-x="1103" d="M158 371v653h114v-645q0 -152 51.5 -220.5t180.5 -68.5q147 0 234 102.5t87 280.5v551h117v-1024h-106l-5 217h-2q-31 -98 -115.5 -165.5t-221.5 -67.5q-174 0 -254 94t-80 293z" />
<glyph unicode="v" horiz-adv-x="950" d="M39 1024h123l235 -657q43 -125 76 -256h4q16 63 34.5 128.5t41.5 127.5l238 657h122l-370 -1024h-133z" />
<glyph unicode="w" horiz-adv-x="1429" d="M55 1024h119l170 -623q18 -72 32.5 -139t24.5 -141h5q14 74 28.5 141.5t36.5 138.5l184 623h117l184 -623q23 -72 37.5 -139t28.5 -141h4q10 74 23.5 141.5t33.5 138.5l172 623h117l-285 -1024h-120l-191 637q-39 133 -59 264h-4q-12 -66 -27.5 -132.5t-34.5 -131.5 l-188 -637h-125z" />
<glyph unicode="x" horiz-adv-x="950" d="M39 0l371 524l-351 500h136l280 -414l283 414h133l-350 -500l370 -524h-135l-301 438l-301 -438h-135z" />
<glyph unicode="y" horiz-adv-x="960" d="M39 1024h123l254 -672q20 -57 40.5 -119.5t37.5 -123.5h4q14 61 32.5 124.5t40.5 122.5l230 668h123l-418 -1190q-45 -129 -112.5 -195.5t-186.5 -66.5q-55 0 -95 9t-69 22l18 98q57 -23 136 -23q80 0 121.5 45.5t76.5 145.5l41 121z" />
<glyph unicode="z" horiz-adv-x="888" d="M84 0v90l565 836l-543 -2v100h676v-92l-565 -834l580 2v-100h-713z" />
<glyph unicode="{" horiz-adv-x="503" d="M94 522v90q45 10 74 32t45 50.5t22.5 61t6.5 65.5q0 51 -10.5 97.5t-21.5 90.5t-21.5 90t-10.5 97q0 145 73 204.5t212 59.5v-104q-170 0 -170 -160q0 -47 9 -92t20.5 -90t20.5 -90t9 -93q0 -94 -39 -165.5t-98 -96.5v-4q59 -25 98 -96.5t39 -167.5q0 -47 -9 -92 t-20.5 -89t-20.5 -89t-9 -92q0 -160 170 -160v-105q-139 0 -212 59.5t-73 205.5q0 51 10.5 96t21.5 90t21.5 90t10.5 96q0 33 -6.5 67t-22.5 62.5t-45 50t-74 31.5z" />
<glyph unicode="|" horiz-adv-x="509" d="M199 -315v1765h114v-1765h-114z" />
<glyph unicode="}" horiz-adv-x="503" d="M41 -221q168 0 168 160q0 47 -9.5 92t-20.5 89t-20 89t-9 92q0 96 38.5 168t98.5 96v4q-59 25 -98 96.5t-39 165.5q0 47 9 92.5t20 90.5t20.5 90t9.5 92q0 160 -168 160v104q137 0 210 -59.5t73 -204.5q0 -51 -10.5 -97t-22.5 -90t-22.5 -90.5t-10.5 -97.5q0 -33 6 -65.5 t23.5 -61t46 -50t74.5 -32.5v-90q-45 -10 -74 -31.5t-46.5 -50t-23.5 -62.5t-6 -67q0 -51 10.5 -96t22.5 -90t22.5 -90t10.5 -96q0 -145 -73 -205t-210 -60v105z" />
<glyph unicode="~" horiz-adv-x="991" d="M84 573q18 37 45 72t58.5 63.5t69.5 46t79 17.5q55 0 96 -23.5t77 -53t69.5 -53.5t74.5 -24q66 0 110 45.5t73 100.5l71 -51q-18 -37 -44.5 -73t-58.5 -64.5t-69 -46t-78 -17.5q-55 0 -96 24.5t-76.5 53t-69.5 53.5t-77 25q-66 0 -110 -45t-72 -101z" />
<glyph unicode="&#xa1;" horiz-adv-x="493" d="M162 954q0 33 18.5 57.5t67.5 24.5q47 0 65.5 -24.5t18.5 -57.5t-18.5 -57.5t-65.5 -24.5q-49 0 -67.5 25t-18.5 57zM180 -408l23 1072h90l22 -1072h-135z" />
<glyph unicode="&#xa2;" horiz-adv-x="1138" d="M186 479v64q0 209 99.5 343t314.5 152v211h115v-211q76 -6 141.5 -24.5t112.5 -40.5l-27 -94q-55 27 -127 43t-158 16q-96 0 -163.5 -28.5t-110.5 -80t-62.5 -125t-19.5 -161.5v-64q0 -88 20.5 -160.5t63.5 -125t110.5 -81t161.5 -28.5q86 0 163 19.5t136 50.5l25 -95 q-47 -27 -113.5 -47t-152.5 -26v-211h-115v211q-215 16 -314.5 149t-99.5 344z" />
<glyph unicode="&#xa3;" horiz-adv-x="1138" d="M100 0v94q45 12 88 42t77 74t54.5 101.5t20.5 124.5q0 59 -12.5 117.5t-32.5 114.5h-193v108h150q-23 66 -43.5 130.5t-20.5 146.5q0 178 109 287.5t334 109.5q96 0 167.5 -17.5t129.5 -41.5l-19 -111q-66 29 -126 41t-146 12q-90 0 -152.5 -21.5t-101.5 -60.5t-56.5 -90 t-17.5 -112q0 -84 20.5 -148.5t43.5 -124.5h403v-108h-360q18 -53 31.5 -110.5t13.5 -121.5q0 -61 -15.5 -113.5t-41 -92.5t-57.5 -70.5t-64 -48.5h462q92 0 133.5 35.5t41.5 123.5v72h116v-72q0 -141 -66.5 -205.5t-217.5 -64.5h-652z" />
<glyph unicode="&#xa4;" horiz-adv-x="1034" d="M100 227l105 115q-35 53 -52.5 124t-17.5 152q0 84 16.5 155t53.5 124l-105 117l72 80l104 -121q90 67 240 67t240 -67l104 121l72 -80l-103 -117q35 -53 51.5 -124t16.5 -155q0 -82 -16.5 -152.5t-51.5 -123.5l103 -115l-72 -77l-102 116q-45 -33 -104.5 -50t-137.5 -17 t-136 17t-104 50l-104 -116zM238 618q0 -147 62 -236t216 -89q78 0 131 23.5t87 65.5t48.5 102.5t14.5 133.5q0 74 -14.5 134.5t-48.5 103.5t-87 66.5t-131 23.5q-154 0 -216 -89t-62 -239z" />
<glyph unicode="&#xa5;" horiz-adv-x="1138" d="M43 1434h135l256 -490q35 -68 69 -135.5t62 -132.5h8q29 66 63 133.5t71 134.5l256 490h133l-412 -756h307v-100h-362v-142h362v-102h-362v-334h-119v334h-363v102h363v142h-363v100h308z" />
<glyph unicode="&#xa6;" horiz-adv-x="512" d="M199 -315v739h114v-739h-114zM199 709v741h114v-741h-114z" />
<glyph unicode="&#xa7;" horiz-adv-x="1138" d="M145 -82h113q0 -66 23.5 -112t66.5 -74.5t102.5 -42t131.5 -13.5q139 0 220 53.5t81 178.5q0 59 -26 103t-67.5 76t-97 54.5t-114.5 40.5q-80 25 -153 55.5t-129 73.5t-89 104.5t-33 147.5q0 98 55.5 169t141.5 106q-33 18 -64 43.5t-55.5 61.5t-39.5 81t-15 102 q0 166 105.5 245t291.5 79q90 0 163.5 -17.5t125 -57.5t79 -103.5t27.5 -153.5h-115q0 66 -19 109t-56 69.5t-89.5 36.5t-115.5 10q-285 0 -285 -217q0 -61 24.5 -103t64.5 -72.5t89.5 -52t100.5 -40.5q78 -29 148.5 -60.5t124.5 -74.5t86 -103.5t32 -146.5 q0 -100 -57.5 -168.5t-135.5 -97.5q96 -45 152.5 -112.5t56.5 -186.5q0 -90 -29.5 -153.5t-84 -103.5t-131 -58.5t-168.5 -18.5q-94 0 -174 18.5t-138.5 60.5t-91.5 107.5t-33 157.5zM287 565q0 -117 103.5 -183.5t293.5 -119.5q78 14 129 66.5t51 144.5q0 74 -42 125 t-101 87t-126 58.5t-116 38.5q-80 -16 -136 -73.5t-56 -143.5z" />
<glyph unicode="&#xa8;" horiz-adv-x="610" d="M45 1237q0 31 17.5 54.5t64.5 23.5t64.5 -23.5t17.5 -54.5q0 -33 -17.5 -57.5t-64.5 -24.5t-64.5 24.5t-17.5 57.5zM401 1237q0 31 17.5 54.5t64.5 23.5t64.5 -23.5t17.5 -54.5q0 -33 -17.5 -57.5t-64.5 -24.5t-64.5 24.5t-17.5 57.5z" />
<glyph unicode="&#xa9;" horiz-adv-x="1605" d="M121 717q0 162 40 297t124 232t213 150.5t305 53.5t304 -53.5t212 -150.5t125 -232t41 -297q0 -164 -41 -298t-125 -231.5t-212 -150.5t-304 -53t-305 53t-213 150.5t-124 231.5t-40 298zM221 717q0 -145 34 -263t104.5 -203t181 -131t262.5 -46q150 0 260.5 46t181 131 t105 202.5t34.5 263.5q0 143 -34.5 261t-105 203t-181.5 131t-260 46q-152 0 -262.5 -46t-181 -131t-104.5 -203t-34 -261zM459 690v55q0 88 22.5 163t70.5 127t120.5 82t173.5 30q66 0 130 -15.5t111 -39.5l-20 -97q-47 20 -102 32.5t-121 12.5q-78 0 -129 -21.5t-82 -60 t-44.5 -93t-13.5 -120.5v-55q0 -66 13.5 -121t45.5 -95t85 -61.5t131 -21.5q66 0 122 14.5t101 34.5l21 -98q-47 -23 -111.5 -39t-142.5 -16q-193 0 -287 107.5t-94 295.5z" />
<glyph unicode="&#xaa;" horiz-adv-x="688" d="M66 965q0 113 64.5 161t178.5 48q47 0 92 -7.5t76 -17.5v57q0 68 -31.5 108t-113.5 40q-61 0 -111.5 -12.5t-95.5 -32.5l-19 84q41 23 100.5 37t131.5 14q129 0 184.5 -60.5t55.5 -173.5v-438h-99l-2 127q-23 -57 -77 -97t-134 -40q-39 0 -75.5 10t-64.5 33.5t-44 62.5 t-16 97zM166 967q0 -59 29.5 -88t101.5 -29q33 0 64.5 12t57 37t42 59.5t16.5 81.5v37q-31 6 -71.5 10.5t-77.5 4.5q-88 0 -125 -29.5t-37 -95.5z" />
<glyph unicode="&#xab;" horiz-adv-x="923" d="M80 678l239 389h132l-244 -389l244 -389h-132zM422 678l240 389h129l-242 -389l242 -389h-129z" />
<glyph unicode="&#xac;" horiz-adv-x="915" d="M78 662v110h733v-469h-121v359h-612z" />
<glyph unicode="&#xad;" horiz-adv-x="710" d="M63 616v113h584v-113h-584z" />
<glyph unicode="&#xae;" horiz-adv-x="1132" d="M88 930q0 250 117.5 384t359.5 134q244 0 361.5 -134t117.5 -384q0 -252 -117.5 -387t-361.5 -135q-242 0 -359.5 135t-117.5 387zM174 930q0 -219 90 -332t301 -113q213 0 303 113t90 332q0 215 -91 327.5t-302 112.5t-301 -111.5t-90 -328.5zM397 666v544h209 q90 0 134 -45t44 -127q0 -72 -29.5 -108.5t-76.5 -48.5l121 -215h-97l-108 200h-105v-200h-92zM489 946h115q43 0 66.5 20.5t23.5 71.5q0 92 -88 92h-117v-184z" />
<glyph unicode="&#xaf;" horiz-adv-x="610" d="M35 1169v97h540v-97h-540z" />
<glyph unicode="&#xb0;" horiz-adv-x="739" d="M100 1159q0 135 70 211t201 76t200.5 -76t69.5 -211t-69.5 -212t-200.5 -77t-201 77t-70 212zM186 1159q0 -98 45 -152.5t140 -54.5q92 0 137 54.5t45 152.5q0 94 -45 148.5t-137 54.5q-94 0 -139.5 -54.5t-45.5 -148.5z" />
<glyph unicode="&#xb1;" d="M66 0v104h794v-104h-794zM66 635v110h337v408h119v-408h338v-110h-338v-408h-119v408h-337z" />
<glyph unicode="&#xb2;" horiz-adv-x="559" d="M55 774v82l217 225q43 45 75 87t32 96q0 49 -31 69.5t-84 20.5q-49 0 -93 -9.5t-83 -25.5l-20 82q41 18 93 30.5t111 12.5q94 0 150.5 -43t56.5 -135q0 -82 -41 -134.5t-92 -105.5l-151 -158h303v-94h-443z" />
<glyph unicode="&#xb3;" horiz-adv-x="555" d="M47 797l21 88q37 -18 76.5 -26.5t99.5 -8.5q74 0 107.5 28.5t33.5 86.5q0 70 -44 89t-108 19h-79v86h104q47 0 80 22.5t33 75.5q0 51 -26.5 75t-98.5 24q-41 0 -84 -9.5t-80 -25.5l-21 84q39 16 84 27.5t105 11.5q41 0 80 -9.5t69.5 -30t49 -54t18.5 -82.5 q0 -66 -28.5 -99.5t-69.5 -50.5q51 -12 82.5 -50t31.5 -110q0 -199 -237 -198q-66 0 -113 10t-86 27z" />
<glyph unicode="&#xb4;" horiz-adv-x="610" d="M72 1208l422 203l45 -106l-437 -166z" />
<glyph unicode="&#xb5;" horiz-adv-x="1103" d="M162 -410v1434h114v-551q0 -178 88.5 -280.5t235.5 -102.5q129 0 180 66.5t51 220.5v647h115v-662q0 -195 -80 -286.5t-254 -91.5q-139 0 -223 68.5t-115 164.5h-4l6 -217v-410h-114z" />
<glyph unicode="&#xb6;" horiz-adv-x="788" d="M68 1067q0 154 70.5 243t180.5 111q45 10 95.5 11.5t101.5 1.5h221v-109h-145q-45 0 -60.5 -21.5t-15.5 -68.5v-1380h-117v815q-72 6 -132 32.5t-104 76.5t-69.5 122t-25.5 166z" />
<glyph unicode="&#xb7;" horiz-adv-x="409" d="M121 569q0 33 18.5 57.5t65.5 24.5t65.5 -24.5t18.5 -57.5t-18.5 -58.5t-65.5 -25.5t-65.5 26t-18.5 58z" />
<glyph unicode="&#xb8;" horiz-adv-x="610" d="M164 -367l18 74q29 -10 59.5 -16t61.5 -6q41 0 67.5 16t26.5 57q0 39 -22.5 56.5t-81.5 17.5h-80v59l72 113h77l-49 -102q80 0 135.5 -33t55.5 -109q0 -47 -15.5 -77.5t-42 -47t-62.5 -22.5t-75 -6t-76.5 8t-68.5 18z" />
<glyph unicode="&#xb9;" horiz-adv-x="387" d="M23 1309l180 125h96v-660h-100v543l-144 -76z" />
<glyph unicode="&#xba;" horiz-adv-x="731" d="M80 1081v43q0 150 72 235t213 85t212.5 -85t71.5 -235v-43q0 -152 -71.5 -236.5t-212.5 -84.5t-213 85t-72 236zM184 1081q0 -109 43.5 -168t137.5 -59q96 0 138 59.5t42 167.5v43q0 109 -42 168.5t-138 59.5q-94 0 -137.5 -59.5t-43.5 -168.5v-43z" />
<glyph unicode="&#xbb;" horiz-adv-x="923" d="M133 289l244 389l-244 389h129l240 -389l-240 -389h-129zM475 289l242 389l-242 389h129l240 -389l-240 -389h-129z" />
<glyph unicode="&#xbc;" horiz-adv-x="1277" d="M90 1309l180 125h95v-660h-99v543l-143 -76zM172 0l813 1434h123l-815 -1434h-121zM705 125v80l213 457h102l-209 -445h213v209h94v-209h86v-92h-86v-125h-94v125h-319z" />
<glyph unicode="&#xbd;" horiz-adv-x="1277" d="M90 1309l180 125h95v-660h-99v543l-143 -76zM172 0l813 1434h123l-815 -1434h-121zM756 0v82l215 223q43 47 74.5 89t31.5 95q0 49 -31.5 70t-84.5 21q-47 0 -90.5 -10.5t-82.5 -26.5l-20 82q41 18 92 31.5t111 13.5q94 0 150.5 -43t56.5 -135q0 -82 -41 -134.5 t-93 -105.5l-151 -158h305v-94h-442z" />
<glyph unicode="&#xbe;" horiz-adv-x="1277" d="M72 797l18 88q37 -18 77 -26.5t99 -8.5q74 0 108 28.5t34 86.5q0 70 -43 89t-107 19h-80v86h105q47 0 78.5 22.5t31.5 75.5q0 51 -26.5 75t-96.5 24q-43 0 -86 -9.5t-80 -25.5l-18 84q39 16 83 27.5t103 11.5q41 0 81 -9.5t71 -30t49.5 -54t18.5 -82.5q0 -66 -30 -99.5 t-71 -50.5q51 -12 84 -50t33 -110q0 -199 -240 -198q-66 0 -112.5 10t-83.5 27zM172 0l813 1434h123l-815 -1434h-121zM705 125v80l213 457h102l-209 -445h213v209h94v-209h86v-92h-86v-125h-94v125h-319z" />
<glyph unicode="&#xbf;" horiz-adv-x="966" d="M113 -63q0 74 25.5 133t63.5 109t82 95t81.5 89.5t63.5 91.5t26 102v105h116v-105q0 -66 -25.5 -120t-62.5 -102t-82 -93t-81.5 -92.5t-62.5 -99.5t-26 -113q0 -121 72 -184.5t229 -63.5q92 0 178.5 19.5t161.5 49.5l27 -106q-74 -33 -168 -54.5t-205 -21.5 q-215 0 -314 94t-99 267zM428 954q0 33 18.5 57.5t65.5 24.5t65.5 -24.5t18.5 -57.5t-18.5 -58.5t-65.5 -25.5t-65.5 26t-18.5 58z" />
<glyph unicode="&#xc0;" horiz-adv-x="1253" d="M43 0l518 1434h133l516 -1434h-123l-137 391h-645l-139 -391h-123zM346 500h563l-172 479q-31 86 -56.5 167t-49.5 167h-6q-25 -86 -51.5 -167t-55.5 -167zM394 1715l45 106l422 -203l-31 -69z" />
<glyph unicode="&#xc1;" horiz-adv-x="1253" d="M43 0l518 1434h133l516 -1434h-123l-137 391h-645l-139 -391h-123zM346 500h563l-172 479q-31 86 -56.5 167t-49.5 167h-6q-25 -86 -51.5 -167t-55.5 -167zM394 1618l422 203l45 -106l-437 -166z" />
<glyph unicode="&#xc2;" horiz-adv-x="1253" d="M43 0l518 1434h133l516 -1434h-123l-137 391h-645l-139 -391h-123zM346 500h563l-172 479q-31 86 -56.5 167t-49.5 167h-6q-25 -86 -51.5 -167t-55.5 -167zM351 1563l237 260h82l238 -260h-109l-170 156l-170 -156h-108z" />
<glyph unicode="&#xc3;" horiz-adv-x="1253" d="M43 0l518 1434h133l516 -1434h-123l-137 391h-645l-139 -391h-123zM332 1565q4 117 46 181.5t124 64.5q41 0 74 -22.5t61.5 -48t56 -48t56.5 -22.5q41 0 61.5 35.5t24.5 101.5h90q-4 -117 -46 -180.5t-122 -63.5q-41 0 -74.5 22.5t-63.5 48t-57.5 48t-54.5 22.5 q-41 0 -61.5 -36.5t-24.5 -102.5h-90zM346 500h563l-172 479q-31 86 -56.5 167t-49.5 167h-6q-25 -86 -51.5 -167t-55.5 -167z" />
<glyph unicode="&#xc4;" horiz-adv-x="1253" d="M43 0l518 1434h133l516 -1434h-123l-137 391h-645l-139 -391h-123zM346 500h563l-172 479q-31 86 -56.5 167t-49.5 167h-6q-25 -86 -51.5 -167t-55.5 -167zM369 1647q0 31 17.5 54.5t64.5 23.5t64.5 -23.5t17.5 -54.5q0 -33 -17.5 -57.5t-64.5 -24.5t-64.5 24.5 t-17.5 57.5zM725 1647q0 31 17.5 54.5t64.5 23.5t64.5 -23.5t17.5 -54.5q0 -33 -17.5 -57.5t-64.5 -24.5t-64.5 24.5t-17.5 57.5z" />
<glyph unicode="&#xc5;" horiz-adv-x="1253" d="M43 0l496 1370q-47 18 -73 61.5t-26 114.5q0 98 51.5 143.5t137.5 45.5t137 -45t51 -144q0 -72 -26.5 -114.5t-73.5 -61.5l493 -1370h-123l-137 391h-645l-139 -391h-123zM346 500h563l-172 479q-31 86 -56.5 167t-49.5 167h-6q-25 -86 -51.5 -167t-55.5 -167zM524 1546 q0 -109 94 -112h11q51 0 77.5 26.5t26.5 85.5q0 111 -104 111t-105 -111z" />
<glyph unicode="&#xc6;" horiz-adv-x="1720" d="M18 0l828 1434h751v-115h-604v-543h578v-114h-578v-549h621v-113h-742v360h-516l-204 -360h-134zM422 471h450v823h-6q-14 -31 -31.5 -69.5t-36 -78.5t-37 -77t-34.5 -63z" />
<glyph unicode="&#xc7;" horiz-adv-x="1163" d="M119 674v86q0 156 32.5 282.5t102.5 217t179.5 140.5t262.5 50q106 0 197.5 -20.5t169.5 -57.5l-27 -106q-78 33 -156.5 51t-179.5 18q-127 0 -215 -41t-142 -116.5t-78.5 -182t-24.5 -235.5v-86q0 -131 24.5 -237.5t79.5 -181.5t143 -116t213 -41q186 0 342 72l29 -107 q-68 -33 -148.5 -53t-177.5 -24l-38 -84q80 0 135 -33t55 -109q0 -47 -15.5 -77.5t-42 -47t-62.5 -22.5t-75 -6t-76.5 8t-68.5 18l18 74q29 -10 60 -16t61 -6q41 0 68 16t27 57q0 39 -23 56.5t-82 17.5h-80v59l58 93q-143 6 -247 56t-169.5 140t-97 215t-31.5 279z" />
<glyph unicode="&#xc8;" horiz-adv-x="1110" d="M180 0v1434h807v-115h-686v-543h660v-114h-660v-549h700v-113h-821zM375 1715l45 106l422 -203l-31 -69z" />
<glyph unicode="&#xc9;" horiz-adv-x="1110" d="M180 0v1434h807v-115h-686v-543h660v-114h-660v-549h700v-113h-821zM379 1618l422 203l45 -106l-437 -166z" />
<glyph unicode="&#xca;" horiz-adv-x="1110" d="M180 0v1434h807v-115h-686v-543h660v-114h-660v-549h700v-113h-821zM299 1563l237 260h82l238 -260h-109l-170 156l-170 -156h-108z" />
<glyph unicode="&#xcb;" horiz-adv-x="1110" d="M180 0v1434h807v-115h-686v-543h660v-114h-660v-549h700v-113h-821zM326 1647q0 31 17.5 54.5t64.5 23.5t64.5 -23.5t17.5 -54.5q0 -33 -17.5 -57.5t-64.5 -24.5t-64.5 24.5t-17.5 57.5zM682 1647q0 31 17.5 54.5t64.5 23.5t64.5 -23.5t17.5 -54.5q0 -33 -17.5 -57.5 t-64.5 -24.5t-64.5 24.5t-17.5 57.5z" />
<glyph unicode="&#xcc;" horiz-adv-x="487" d="M11 1715l45 106l422 -203l-31 -69zM184 0v1434h119v-1434h-119z" />
<glyph unicode="&#xcd;" horiz-adv-x="487" d="M11 1618l422 203l45 -106l-437 -166zM184 0v1434h119v-1434h-119z" />
<glyph unicode="&#xce;" horiz-adv-x="487" d="M-34 1563l237 260h82l238 -260h-109l-170 156l-170 -156h-108zM184 0v1434h119v-1434h-119z" />
<glyph unicode="&#xcf;" horiz-adv-x="487" d="M-16 1647q0 31 17.5 54.5t64.5 23.5t64.5 -23.5t17.5 -54.5q0 -33 -17.5 -57.5t-64.5 -24.5t-64.5 24.5t-17.5 57.5zM184 0v1434h119v-1434h-119zM340 1647q0 31 17.5 54.5t64.5 23.5t64.5 -23.5t17.5 -54.5q0 -33 -17.5 -57.5t-64.5 -24.5t-64.5 24.5t-17.5 57.5z" />
<glyph unicode="&#xd0;" horiz-adv-x="1333" d="M29 641v113h155v680h469q162 0 269.5 -48.5t173 -136.5t93.5 -212t28 -273v-88q0 -154 -29 -278t-95.5 -213t-175 -137t-268.5 -48h-465v641h-155zM305 113h344q131 0 217 40t137.5 113.5t73 177t21.5 232.5v88q0 127 -20.5 229.5t-72 175t-137.5 111.5t-215 39h-348 v-565h346v-113h-346v-528z" />
<glyph unicode="&#xd1;" horiz-adv-x="1384" d="M180 0v1434h127l606 -963q49 -78 94.5 -156.5t82.5 -150.5h4q-4 86 -7.5 173t-3.5 183v914h121v-1434h-127l-606 963q-49 78 -95 156.5t-81 150.5h-4q4 -86 7 -173t3 -184v-913h-121zM395 1565q4 117 46 181.5t124 64.5q41 0 74 -22.5t61.5 -48t56 -48t56.5 -22.5 q41 0 61.5 35.5t24.5 101.5h90q-4 -117 -46 -180.5t-122 -63.5q-41 0 -74.5 22.5t-63.5 48t-57.5 48t-54.5 22.5q-41 0 -61.5 -36.5t-24.5 -102.5h-90z" />
<glyph unicode="&#xd2;" horiz-adv-x="1357" d="M119 674v86q0 156 30.5 283.5t98 218t174 139.5t258.5 49q150 0 256 -49t174 -139.5t98.5 -218.5t30.5 -283v-86q0 -158 -30.5 -285t-98.5 -217t-174.5 -139t-255.5 -49q-152 0 -258.5 49t-174 139t-98 217t-30.5 285zM240 674q0 -133 22.5 -239.5t73.5 -181.5t136 -116 t208 -41t207 41t135 116t73.5 181.5t22.5 239.5v86q0 131 -22.5 237.5t-73.5 182t-135 116.5t-207 41t-208 -41t-136 -116.5t-73.5 -182t-22.5 -237.5v-86zM447 1715l45 106l422 -203l-31 -69z" />
<glyph unicode="&#xd3;" horiz-adv-x="1357" d="M119 674v86q0 156 30.5 283.5t98 218t174 139.5t258.5 49q150 0 256 -49t174 -139.5t98.5 -218.5t30.5 -283v-86q0 -158 -30.5 -285t-98.5 -217t-174.5 -139t-255.5 -49q-152 0 -258.5 49t-174 139t-98 217t-30.5 285zM240 674q0 -133 22.5 -239.5t73.5 -181.5t136 -116 t208 -41t207 41t135 116t73.5 181.5t22.5 239.5v86q0 131 -22.5 237.5t-73.5 182t-135 116.5t-207 41t-208 -41t-136 -116.5t-73.5 -182t-22.5 -237.5v-86zM447 1618l422 203l45 -106l-437 -166z" />
<glyph unicode="&#xd4;" horiz-adv-x="1357" d="M119 674v86q0 156 30.5 283.5t98 218t174 139.5t258.5 49q150 0 256 -49t174 -139.5t98.5 -218.5t30.5 -283v-86q0 -158 -30.5 -285t-98.5 -217t-174.5 -139t-255.5 -49q-152 0 -258.5 49t-174 139t-98 217t-30.5 285zM240 674q0 -133 22.5 -239.5t73.5 -181.5t136 -116 t208 -41t207 41t135 116t73.5 181.5t22.5 239.5v86q0 131 -22.5 237.5t-73.5 182t-135 116.5t-207 41t-208 -41t-136 -116.5t-73.5 -182t-22.5 -237.5v-86zM402 1563l237 260h82l238 -260h-109l-170 156l-170 -156h-108z" />
<glyph unicode="&#xd5;" horiz-adv-x="1359" d="M119 674v86q0 156 30.5 283.5t98 218t174 139.5t258.5 49q150 0 256 -49t174 -139.5t98.5 -218.5t30.5 -283v-86q0 -158 -30.5 -285t-98.5 -217t-174.5 -139t-255.5 -49q-152 0 -258.5 49t-174 139t-98 217t-30.5 285zM240 674q0 -133 22.5 -239.5t73.5 -181.5t136 -116 t208 -41t207 41t135 116t73.5 181.5t22.5 239.5v86q0 131 -22.5 237.5t-73.5 182t-135 116.5t-207 41t-208 -41t-136 -116.5t-73.5 -182t-22.5 -237.5v-86zM383 1565q4 117 46 181.5t124 64.5q41 0 74 -22.5t61.5 -48t56 -48t56.5 -22.5q41 0 61.5 35.5t24.5 101.5h90 q-4 -117 -46 -180.5t-122 -63.5q-41 0 -74.5 22.5t-63.5 48t-57.5 48t-54.5 22.5q-41 0 -61.5 -36.5t-24.5 -102.5h-90z" />
<glyph unicode="&#xd6;" horiz-adv-x="1357" d="M119 674v86q0 156 30.5 283.5t98 218t174 139.5t258.5 49q150 0 256 -49t174 -139.5t98.5 -218.5t30.5 -283v-86q0 -158 -30.5 -285t-98.5 -217t-174.5 -139t-255.5 -49q-152 0 -258.5 49t-174 139t-98 217t-30.5 285zM240 674q0 -133 22.5 -239.5t73.5 -181.5t136 -116 t208 -41t207 41t135 116t73.5 181.5t22.5 239.5v86q0 131 -22.5 237.5t-73.5 182t-135 116.5t-207 41t-208 -41t-136 -116.5t-73.5 -182t-22.5 -237.5v-86zM420 1647q0 31 17.5 54.5t64.5 23.5t64.5 -23.5t17.5 -54.5q0 -33 -17.5 -57.5t-64.5 -24.5t-64.5 24.5t-17.5 57.5z M776 1647q0 31 17.5 54.5t64.5 23.5t64.5 -23.5t17.5 -54.5q0 -33 -17.5 -57.5t-64.5 -24.5t-64.5 24.5t-17.5 57.5z" />
<glyph unicode="&#xd7;" d="M111 319l274 324l-274 324l84 80l268 -316l270 316l82 -80l-274 -324l274 -324l-82 -81l-270 317l-268 -317z" />
<glyph unicode="&#xd8;" horiz-adv-x="1357" d="M119 674v86q0 156 30.5 283.5t98 218t174 139.5t258.5 49q104 0 187 -24.5t145 -69.5l71 119h119l-112 -189q78 -92 113.5 -224t35.5 -302v-86q0 -158 -30.5 -285t-98.5 -217t-174.5 -139t-255.5 -49q-100 0 -179 20.5t-141 61.5l-75 -127h-119l115 190 q-86 92 -124 230.5t-38 314.5zM240 674q0 -139 23.5 -249t82.5 -185l606 1013q-51 41 -118.5 62.5t-153.5 21.5q-123 0 -208 -41t-136 -116.5t-73.5 -182t-22.5 -237.5v-86zM422 166q47 -35 110.5 -52.5t147.5 -17.5q123 0 207 41t135 116t73.5 181.5t22.5 239.5v86 q0 129 -21.5 234.5t-74.5 179.5z" />
<glyph unicode="&#xd9;" horiz-adv-x="1335" d="M172 565v869h119v-865q0 -117 16.5 -206t59.5 -148t115.5 -89t185.5 -30t185.5 30t115.5 89t59 148.5t16 205.5v865h119v-869q0 -141 -24.5 -249.5t-82 -182.5t-152.5 -111.5t-236 -37.5t-235.5 37.5t-153 111.5t-83 182.5t-24.5 249.5zM434 1715l45 106l422 -203 l-31 -69z" />
<glyph unicode="&#xda;" horiz-adv-x="1335" d="M172 565v869h119v-865q0 -117 16.5 -206t59.5 -148t115.5 -89t185.5 -30t185.5 30t115.5 89t59 148.5t16 205.5v865h119v-869q0 -141 -24.5 -249.5t-82 -182.5t-152.5 -111.5t-236 -37.5t-235.5 37.5t-153 111.5t-83 182.5t-24.5 249.5zM434 1618l422 203l45 -106 l-437 -166z" />
<glyph unicode="&#xdb;" horiz-adv-x="1335" d="M172 565v869h119v-865q0 -117 16.5 -206t59.5 -148t115.5 -89t185.5 -30t185.5 30t115.5 89t59 148.5t16 205.5v865h119v-869q0 -141 -24.5 -249.5t-82 -182.5t-152.5 -111.5t-236 -37.5t-235.5 37.5t-153 111.5t-83 182.5t-24.5 249.5zM392 1563l237 260h82l238 -260 h-109l-170 156l-170 -156h-108z" />
<glyph unicode="&#xdc;" horiz-adv-x="1335" d="M172 565v869h119v-865q0 -117 16.5 -206t59.5 -148t115.5 -89t185.5 -30t185.5 30t115.5 89t59 148.5t16 205.5v865h119v-869q0 -141 -24.5 -249.5t-82 -182.5t-152.5 -111.5t-236 -37.5t-235.5 37.5t-153 111.5t-83 182.5t-24.5 249.5zM410 1647q0 31 17.5 54.5 t64.5 23.5t64.5 -23.5t17.5 -54.5q0 -33 -17.5 -57.5t-64.5 -24.5t-64.5 24.5t-17.5 57.5zM766 1647q0 31 17.5 54.5t64.5 23.5t64.5 -23.5t17.5 -54.5q0 -33 -17.5 -57.5t-64.5 -24.5t-64.5 24.5t-17.5 57.5z" />
<glyph unicode="&#xdd;" horiz-adv-x="1196" d="M35 1434h137l281 -494q39 -68 75.5 -137.5t65.5 -128.5h6q29 59 65.5 128.5t75.5 137.5l283 494h135l-502 -861v-573h-120v573zM365 1618l422 203l45 -106l-437 -166z" />
<glyph unicode="&#xde;" horiz-adv-x="1183" d="M180 0v1434h121v-285h342q223 0 330.5 -99.5t107.5 -330.5t-108.5 -332.5t-331.5 -101.5h-340v-285h-121zM301 397h338q174 0 249 73t75 249q0 174 -74 244.5t-246 70.5h-342v-637z" />
<glyph unicode="&#xdf;" horiz-adv-x="1239" d="M166 0v958q0 240 112.5 366t362.5 126q215 0 319.5 -99.5t104.5 -271.5q0 -70 -16.5 -122t-44 -89t-64.5 -61.5t-78 -38.5v-2q119 -29 193.5 -116t74.5 -259q0 -113 -28.5 -190.5t-81.5 -125.5t-128 -69.5t-169 -21.5q-182 0 -301 55l24 98q59 -25 126 -40t147 -15 q139 0 218 70.5t79 240.5q0 166 -87 242t-255 76h-168v102h178q123 0 195.5 65.5t72.5 200.5q0 123 -75.5 193.5t-235.5 70.5q-197 0 -278.5 -102t-81.5 -287v-954h-115z" />
<glyph unicode="&#xe0;" horiz-adv-x="1017" d="M94 293q0 172 98.5 245.5t280.5 73.5q72 0 146.5 -10t130.5 -22v94q0 133 -56.5 198.5t-197.5 65.5q-86 0 -165 -18.5t-143 -45.5l-24 97q66 31 150.5 50t185.5 19q190 0 275 -91t85 -267v-682h-102l-4 217h-4q-16 -45 -46 -87t-71 -74.5t-96.5 -52t-122.5 -19.5 q-70 0 -128.5 16t-101.5 53t-66.5 96.5t-23.5 143.5zM205 293q0 -117 58.5 -164t162.5 -47q68 0 126 25.5t102 70.5t70 107.5t26 138.5v61q-53 14 -123 21.5t-140 7.5q-147 0 -214.5 -51t-67.5 -170zM275 1305l45 106l422 -203l-31 -69z" />
<glyph unicode="&#xe1;" horiz-adv-x="1017" d="M94 293q0 172 98.5 245.5t280.5 73.5q72 0 146.5 -10t130.5 -22v94q0 133 -56.5 198.5t-197.5 65.5q-86 0 -165 -18.5t-143 -45.5l-24 97q66 31 150.5 50t185.5 19q190 0 275 -91t85 -267v-682h-102l-4 217h-4q-16 -45 -46 -87t-71 -74.5t-96.5 -52t-122.5 -19.5 q-70 0 -128.5 16t-101.5 53t-66.5 96.5t-23.5 143.5zM205 293q0 -117 58.5 -164t162.5 -47q68 0 126 25.5t102 70.5t70 107.5t26 138.5v61q-53 14 -123 21.5t-140 7.5q-147 0 -214.5 -51t-67.5 -170zM277 1208l422 203l45 -106l-437 -166z" />
<glyph unicode="&#xe2;" horiz-adv-x="1017" d="M94 293q0 172 98.5 245.5t280.5 73.5q72 0 146.5 -10t130.5 -22v94q0 133 -56.5 198.5t-197.5 65.5q-86 0 -165 -18.5t-143 -45.5l-24 97q66 31 150.5 50t185.5 19q190 0 275 -91t85 -267v-682h-102l-4 217h-4q-16 -45 -46 -87t-71 -74.5t-96.5 -52t-122.5 -19.5 q-70 0 -128.5 16t-101.5 53t-66.5 96.5t-23.5 143.5zM205 293q0 -117 58.5 -164t162.5 -47q68 0 126 25.5t102 70.5t70 107.5t26 138.5v61q-53 14 -123 21.5t-140 7.5q-147 0 -214.5 -51t-67.5 -170zM230 1153l237 260h82l238 -260h-109l-170 156l-170 -156h-108z" />
<glyph unicode="&#xe3;" horiz-adv-x="1017" d="M94 293q0 172 98.5 245.5t280.5 73.5q72 0 146.5 -10t130.5 -22v94q0 133 -56.5 198.5t-197.5 65.5q-86 0 -165 -18.5t-143 -45.5l-24 97q66 31 150.5 50t185.5 19q190 0 275 -91t85 -267v-682h-102l-4 217h-4q-16 -45 -46 -87t-71 -74.5t-96.5 -52t-122.5 -19.5 q-70 0 -128.5 16t-101.5 53t-66.5 96.5t-23.5 143.5zM205 293q0 -117 58.5 -164t162.5 -47q68 0 126 25.5t102 70.5t70 107.5t26 138.5v61q-53 14 -123 21.5t-140 7.5q-147 0 -214.5 -51t-67.5 -170zM213 1155q4 117 46 181.5t124 64.5q41 0 74 -22.5t61.5 -48t56 -48 t56.5 -22.5q41 0 61.5 35.5t24.5 101.5h90q-4 -117 -46 -180.5t-122 -63.5q-41 0 -74.5 22.5t-63.5 48t-57.5 48t-54.5 22.5q-41 0 -61.5 -36.5t-24.5 -102.5h-90z" />
<glyph unicode="&#xe4;" horiz-adv-x="1017" d="M94 293q0 172 98.5 245.5t280.5 73.5q72 0 146.5 -10t130.5 -22v94q0 133 -56.5 198.5t-197.5 65.5q-86 0 -165 -18.5t-143 -45.5l-24 97q66 31 150.5 50t185.5 19q190 0 275 -91t85 -267v-682h-102l-4 217h-4q-16 -45 -46 -87t-71 -74.5t-96.5 -52t-122.5 -19.5 q-70 0 -128.5 16t-101.5 53t-66.5 96.5t-23.5 143.5zM205 293q0 -117 58.5 -164t162.5 -47q68 0 126 25.5t102 70.5t70 107.5t26 138.5v61q-53 14 -123 21.5t-140 7.5q-147 0 -214.5 -51t-67.5 -170zM248 1237q0 31 17.5 54.5t64.5 23.5t64.5 -23.5t17.5 -54.5 q0 -33 -17.5 -57.5t-64.5 -24.5t-64.5 24.5t-17.5 57.5zM604 1237q0 31 17.5 54.5t64.5 23.5t64.5 -23.5t17.5 -54.5q0 -33 -17.5 -57.5t-64.5 -24.5t-64.5 24.5t-17.5 57.5z" />
<glyph unicode="&#xe5;" horiz-adv-x="1017" d="M94 293q0 172 98.5 245.5t280.5 73.5q72 0 146.5 -10t130.5 -22v94q0 133 -56.5 198.5t-197.5 65.5q-86 0 -165 -18.5t-143 -45.5l-24 97q66 31 150.5 50t185.5 19q190 0 275 -91t85 -267v-682h-102l-4 217h-4q-16 -45 -46 -87t-71 -74.5t-96.5 -52t-122.5 -19.5 q-70 0 -128.5 16t-101.5 53t-66.5 96.5t-23.5 143.5zM205 293q0 -117 58.5 -164t162.5 -47q68 0 126 25.5t102 70.5t70 107.5t26 138.5v61q-53 14 -123 21.5t-140 7.5q-147 0 -214.5 -51t-67.5 -170zM320 1348q0 98 51 143t137 45t137.5 -45t51.5 -143q0 -100 -51.5 -145.5 t-137.5 -45.5t-137 45t-51 146zM404 1348q0 -59 26.5 -86t77.5 -27t78 26.5t27 86.5q-1 110 -105 110t-104 -110z" />
<glyph unicode="&#xe6;" horiz-adv-x="1726" d="M113 430v129h692v37q0 76 -19.5 138.5t-59.5 107.5t-102.5 70.5t-148.5 25.5q-88 0 -161.5 -19.5t-133.5 -52.5l-24 95q55 33 136 55t183 22q160 0 253 -69.5t128 -190.5h4q33 119 124 190.5t243 71.5q113 0 187.5 -38.5t118.5 -101t61.5 -143.5t17.5 -163v-131h-692 q0 -84 17 -153.5t57 -121t103.5 -79t155.5 -27.5q88 0 160 21.5t131 54.5l25 -97q-55 -33 -134 -55t-184 -22q-158 0 -254 70.5t-129 185.5h-4q-31 -113 -123 -184.5t-241 -71.5q-115 0 -189.5 37.5t-119 101t-61.5 143.5t-17 164zM223 432q0 -72 11.5 -135.5t41 -111.5 t84 -75.5t140.5 -27.5q88 0 146.5 26.5t93 77t50 121t15.5 156.5h-582v-31zM918 559h585v23q0 74 -10 138t-41 113.5t-85 78t-142 28.5t-147.5 -26.5t-94.5 -77t-50 -121t-15 -156.5z" />
<glyph unicode="&#xe7;" d="M109 479v64q0 111 24.5 203t77.5 157.5t136 101t202 35.5q84 0 155.5 -17t122.5 -46l-24 -92q-113 53 -254 53q-90 0 -151.5 -28.5t-100.5 -81t-56.5 -125t-17.5 -160.5v-64q0 -88 17.5 -160.5t55.5 -125t100.5 -81t152.5 -28.5q78 0 144.5 17.5t123.5 45.5l25 -92 q-47 -29 -109.5 -47t-140.5 -22l-39 -84q80 0 135 -33t55 -109q0 -47 -15 -77.5t-42 -47t-62.5 -22.5t-74.5 -6t-77 8t-69 18l19 74q29 -10 59.5 -16t61.5 -6q41 0 67.5 16t26.5 57q0 39 -22.5 56.5t-82.5 17.5h-79v59l59 95q-109 6 -185.5 43t-124.5 101.5t-70.5 153.5 t-22.5 195z" />
<glyph unicode="&#xe8;" horiz-adv-x="1019" d="M109 479v64q0 113 22.5 204t72.5 156.5t129 101t193 35.5q115 0 188.5 -39.5t116.5 -105.5t60.5 -149.5t17.5 -172.5v-139h-686q6 -162 83 -257t251 -95q84 0 153.5 19.5t127.5 50.5l26 -93q-55 -31 -133 -53t-176 -22q-119 0 -204 34.5t-138 99t-78.5 157t-25.5 204.5z M223 526h576v47q0 76 -11.5 142.5t-41 117t-83 79t-137.5 28.5q-88 0 -146 -28.5t-93 -80t-49.5 -124t-14.5 -158.5v-23zM275 1305l45 106l422 -203l-31 -69z" />
<glyph unicode="&#xe9;" horiz-adv-x="1019" d="M109 479v64q0 113 22.5 204t72.5 156.5t129 101t193 35.5q115 0 188.5 -39.5t116.5 -105.5t60.5 -149.5t17.5 -172.5v-139h-686q6 -162 83 -257t251 -95q84 0 153.5 19.5t127.5 50.5l26 -93q-55 -31 -133 -53t-176 -22q-119 0 -204 34.5t-138 99t-78.5 157t-25.5 204.5z M223 526h576v47q0 76 -11.5 142.5t-41 117t-83 79t-137.5 28.5q-88 0 -146 -28.5t-93 -80t-49.5 -124t-14.5 -158.5v-23zM277 1208l422 203l45 -106l-437 -166z" />
<glyph unicode="&#xea;" horiz-adv-x="1019" d="M109 479v64q0 113 22.5 204t72.5 156.5t129 101t193 35.5q115 0 188.5 -39.5t116.5 -105.5t60.5 -149.5t17.5 -172.5v-139h-686q6 -162 83 -257t251 -95q84 0 153.5 19.5t127.5 50.5l26 -93q-55 -31 -133 -53t-176 -22q-119 0 -204 34.5t-138 99t-78.5 157t-25.5 204.5z M223 526h576v47q0 76 -11.5 142.5t-41 117t-83 79t-137.5 28.5q-88 0 -146 -28.5t-93 -80t-49.5 -124t-14.5 -158.5v-23zM232 1153l237 260h82l238 -260h-109l-170 156l-170 -156h-108z" />
<glyph unicode="&#xeb;" horiz-adv-x="1019" d="M109 479v64q0 113 22.5 204t72.5 156.5t129 101t193 35.5q115 0 188.5 -39.5t116.5 -105.5t60.5 -149.5t17.5 -172.5v-139h-686q6 -162 83 -257t251 -95q84 0 153.5 19.5t127.5 50.5l26 -93q-55 -31 -133 -53t-176 -22q-119 0 -204 34.5t-138 99t-78.5 157t-25.5 204.5z M223 526h576v47q0 76 -11.5 142.5t-41 117t-83 79t-137.5 28.5q-88 0 -146 -28.5t-93 -80t-49.5 -124t-14.5 -158.5v-23zM250 1237q0 31 17.5 54.5t64.5 23.5t64.5 -23.5t17.5 -54.5q0 -33 -17.5 -57.5t-64.5 -24.5t-64.5 24.5t-17.5 57.5zM606 1237q0 31 17.5 54.5 t64.5 23.5t64.5 -23.5t17.5 -54.5q0 -33 -17.5 -57.5t-64.5 -24.5t-64.5 24.5t-17.5 57.5z" />
<glyph unicode="&#xec;" horiz-adv-x="446" d="M-10 1305l45 106l422 -203l-31 -69zM166 0v1024h115v-1024h-115z" />
<glyph unicode="&#xed;" horiz-adv-x="446" d="M-8 1208l422 203l45 -106l-437 -166zM166 0v1024h115v-1024h-115z" />
<glyph unicode="&#xee;" horiz-adv-x="446" d="M-55 1153l237 260h82l238 -260h-109l-170 156l-170 -156h-108zM166 0v1024h115v-1024h-115z" />
<glyph unicode="&#xef;" horiz-adv-x="446" d="M-37 1237q0 31 17.5 54.5t64.5 23.5t64.5 -23.5t17.5 -54.5q0 -33 -17.5 -57.5t-64.5 -24.5t-64.5 24.5t-17.5 57.5zM166 0v1024h115v-1024h-115zM319 1237q0 31 17.5 54.5t64.5 23.5t64.5 -23.5t17.5 -54.5q0 -33 -17.5 -57.5t-64.5 -24.5t-64.5 24.5t-17.5 57.5z" />
<glyph unicode="&#xf0;" horiz-adv-x="1081" d="M109 485v58q0 113 23.5 204t75.5 156.5t132 101t195 35.5q100 0 172.5 -38.5t128.5 -110.5q-23 76 -70 152.5t-113 146.5l-215 -41l-16 84l156 31q-35 35 -75 67.5t-81 61.5l74 65q53 -41 102 -82t92 -88l189 37l16 -86l-137 -27q102 -133 156.5 -296.5t54.5 -387.5v-49 q0 -113 -23.5 -204t-76 -155.5t-133.5 -100t-197 -35.5q-117 0 -199 35.5t-133 102t-74.5 159t-23.5 204.5zM223 485q0 -92 16.5 -165.5t54.5 -126t98.5 -81t146.5 -28.5q88 0 148.5 28.5t97 80t53 124t16.5 162.5v64q0 88 -18.5 160.5t-57.5 125t-98 81t-141 28.5 q-86 0 -146.5 -28.5t-98.5 -80t-54.5 -125t-16.5 -161.5v-58z" />
<glyph unicode="&#xf1;" horiz-adv-x="1134" d="M162 0v1024h106l2 -223h4q31 104 122 171.5t239 67.5q186 0 263 -99t77 -298v-643h-115v631q0 158 -49 229.5t-186 71.5q-160 0 -254.5 -102.5t-94.5 -274.5v-555h-114zM270 1155q4 117 46 181.5t124 64.5q41 0 74 -22.5t61.5 -48t56 -48t56.5 -22.5q41 0 61.5 35.5 t24.5 101.5h90q-4 -117 -46 -180.5t-122 -63.5q-41 0 -74.5 22.5t-63.5 48t-57.5 48t-54.5 22.5q-41 0 -61.5 -36.5t-24.5 -102.5h-90z" />
<glyph unicode="&#xf2;" horiz-adv-x="1077" d="M109 479v64q0 113 23.5 204t75.5 156.5t133 101t198 35.5q115 0 196.5 -35.5t134 -101t76 -157t23.5 -203.5v-64q0 -113 -23.5 -204t-76 -155.5t-134.5 -100t-196 -35.5q-117 0 -198 35.5t-133 100t-75.5 156t-23.5 203.5zM223 479q0 -90 16.5 -162.5t53.5 -124t97.5 -80 t148.5 -28.5q86 0 146 28.5t98 80t54.5 124t16.5 162.5v64q0 88 -16.5 161.5t-54.5 125t-98 80t-146 28.5q-88 0 -148.5 -28.5t-97.5 -80t-53.5 -125t-16.5 -161.5v-64zM305 1305l45 106l422 -203l-31 -69z" />
<glyph unicode="&#xf3;" horiz-adv-x="1077" d="M109 479v64q0 113 23.5 204t75.5 156.5t133 101t198 35.5q115 0 196.5 -35.5t134 -101t76 -157t23.5 -203.5v-64q0 -113 -23.5 -204t-76 -155.5t-134.5 -100t-196 -35.5q-117 0 -198 35.5t-133 100t-75.5 156t-23.5 203.5zM223 479q0 -90 16.5 -162.5t53.5 -124t97.5 -80 t148.5 -28.5q86 0 146 28.5t98 80t54.5 124t16.5 162.5v64q0 88 -16.5 161.5t-54.5 125t-98 80t-146 28.5q-88 0 -148.5 -28.5t-97.5 -80t-53.5 -125t-16.5 -161.5v-64zM305 1208l422 203l45 -106l-437 -166z" />
<glyph unicode="&#xf4;" horiz-adv-x="1077" d="M109 479v64q0 113 23.5 204t75.5 156.5t133 101t198 35.5q115 0 196.5 -35.5t134 -101t76 -157t23.5 -203.5v-64q0 -113 -23.5 -204t-76 -155.5t-134.5 -100t-196 -35.5q-117 0 -198 35.5t-133 100t-75.5 156t-23.5 203.5zM223 479q0 -90 16.5 -162.5t53.5 -124t97.5 -80 t148.5 -28.5q86 0 146 28.5t98 80t54.5 124t16.5 162.5v64q0 88 -16.5 161.5t-54.5 125t-98 80t-146 28.5q-88 0 -148.5 -28.5t-97.5 -80t-53.5 -125t-16.5 -161.5v-64zM260 1153l237 260h82l238 -260h-109l-170 156l-170 -156h-108z" />
<glyph unicode="&#xf5;" horiz-adv-x="1077" d="M109 479v64q0 113 23.5 204t75.5 156.5t133 101t198 35.5q115 0 196.5 -35.5t134 -101t76 -157t23.5 -203.5v-64q0 -113 -23.5 -204t-76 -155.5t-134.5 -100t-196 -35.5q-117 0 -198 35.5t-133 100t-75.5 156t-23.5 203.5zM223 479q0 -90 16.5 -162.5t53.5 -124t97.5 -80 t148.5 -28.5q86 0 146 28.5t98 80t54.5 124t16.5 162.5v64q0 88 -16.5 161.5t-54.5 125t-98 80t-146 28.5q-88 0 -148.5 -28.5t-97.5 -80t-53.5 -125t-16.5 -161.5v-64zM241 1155q4 117 46 181.5t124 64.5q41 0 74 -22.5t61.5 -48t56 -48t56.5 -22.5q41 0 61.5 35.5 t24.5 101.5h90q-4 -117 -46 -180.5t-122 -63.5q-41 0 -74.5 22.5t-63.5 48t-57.5 48t-54.5 22.5q-41 0 -61.5 -36.5t-24.5 -102.5h-90z" />
<glyph unicode="&#xf6;" horiz-adv-x="1077" d="M109 479v64q0 113 23.5 204t75.5 156.5t133 101t198 35.5q115 0 196.5 -35.5t134 -101t76 -157t23.5 -203.5v-64q0 -113 -23.5 -204t-76 -155.5t-134.5 -100t-196 -35.5q-117 0 -198 35.5t-133 100t-75.5 156t-23.5 203.5zM223 479q0 -90 16.5 -162.5t53.5 -124t97.5 -80 t148.5 -28.5q86 0 146 28.5t98 80t54.5 124t16.5 162.5v64q0 88 -16.5 161.5t-54.5 125t-98 80t-146 28.5q-88 0 -148.5 -28.5t-97.5 -80t-53.5 -125t-16.5 -161.5v-64zM278 1237q0 31 17.5 54.5t64.5 23.5t64.5 -23.5t17.5 -54.5q0 -33 -17.5 -57.5t-64.5 -24.5t-64.5 24.5 t-17.5 57.5zM634 1237q0 31 17.5 54.5t64.5 23.5t64.5 -23.5t17.5 -54.5q0 -33 -17.5 -57.5t-64.5 -24.5t-64.5 24.5t-17.5 57.5z" />
<glyph unicode="&#xf7;" d="M76 588v112h770v-112h-770zM367 340q0 35 20.5 64.5t73.5 29.5q55 0 75.5 -29.5t20.5 -64.5q0 -37 -20.5 -66.5t-75.5 -29.5q-53 0 -73.5 29.5t-20.5 66.5zM367 950q0 35 20.5 66t73.5 31q55 0 75.5 -31t20.5 -66q0 -37 -20.5 -66.5t-75.5 -29.5q-53 0 -73.5 29.5 t-20.5 66.5z" />
<glyph unicode="&#xf8;" horiz-adv-x="1077" d="M109 479v64q0 113 24.5 204t76.5 156.5t133 101t196 35.5q137 0 227 -55l57 100h107l-90 -153q66 -66 96.5 -165t30.5 -224v-64q0 -113 -24.5 -204t-77 -155.5t-133.5 -100t-193 -35.5q-143 0 -230 53l-59 -98h-105l91 151q-66 66 -96.5 164t-30.5 225zM223 479 q0 -92 16.5 -162.5t55.5 -123.5l416 702q-68 43 -172 43q-88 0 -148.5 -28.5t-97.5 -80t-53.5 -125t-16.5 -161.5v-64zM365 129q63 -45 174 -45q86 0 146 28.5t97 80t53.5 124t16.5 162.5v64q0 92 -16.5 162.5t-57.5 123.5z" />
<glyph unicode="&#xf9;" horiz-adv-x="1103" d="M158 371v653h114v-645q0 -152 51.5 -220.5t180.5 -68.5q147 0 234 102.5t87 280.5v551h117v-1024h-106l-5 217h-2q-31 -98 -115.5 -165.5t-221.5 -67.5q-174 0 -254 94t-80 293zM318 1305l45 106l422 -203l-31 -69z" />
<glyph unicode="&#xfa;" horiz-adv-x="1103" d="M158 371v653h114v-645q0 -152 51.5 -220.5t180.5 -68.5q147 0 234 102.5t87 280.5v551h117v-1024h-106l-5 217h-2q-31 -98 -115.5 -165.5t-221.5 -67.5q-174 0 -254 94t-80 293zM318 1208l422 203l45 -106l-437 -166z" />
<glyph unicode="&#xfb;" horiz-adv-x="1103" d="M158 371v653h114v-645q0 -152 51.5 -220.5t180.5 -68.5q147 0 234 102.5t87 280.5v551h117v-1024h-106l-5 217h-2q-31 -98 -115.5 -165.5t-221.5 -67.5q-174 0 -254 94t-80 293zM273 1153l237 260h82l238 -260h-109l-170 156l-170 -156h-108z" />
<glyph unicode="&#xfc;" horiz-adv-x="1103" d="M158 371v653h114v-645q0 -152 51.5 -220.5t180.5 -68.5q147 0 234 102.5t87 280.5v551h117v-1024h-106l-5 217h-2q-31 -98 -115.5 -165.5t-221.5 -67.5q-174 0 -254 94t-80 293zM291 1237q0 31 17.5 54.5t64.5 23.5t64.5 -23.5t17.5 -54.5q0 -33 -17.5 -57.5t-64.5 -24.5 t-64.5 24.5t-17.5 57.5zM647 1237q0 31 17.5 54.5t64.5 23.5t64.5 -23.5t17.5 -54.5q0 -33 -17.5 -57.5t-64.5 -24.5t-64.5 24.5t-17.5 57.5z" />
<glyph unicode="&#xfd;" horiz-adv-x="964" d="M39 1024h123l254 -672q20 -57 40.5 -119.5t37.5 -123.5h4q14 61 32.5 124.5t40.5 122.5l230 668h123l-418 -1190q-45 -129 -112.5 -195.5t-186.5 -66.5q-55 0 -95 9t-69 22l18 98q57 -23 136 -23q80 0 121.5 45.5t76.5 145.5l41 121zM248 1208l422 203l45 -106l-437 -166 z" />
<glyph unicode="&#xfe;" horiz-adv-x="1122" d="M166 -410v1844h115v-410q0 -111 -7 -217h5q39 104 129 168.5t223 64.5q199 0 291 -128t92 -367v-66q0 -496 -389 -495q-135 0 -222.5 66.5t-119.5 164.5h-4q2 -53 2 -107.5v-107.5v-410h-115zM281 459q0 -76 24.5 -143.5t68.5 -118t104.5 -80t133.5 -29.5 q154 0 220.5 97.5t66.5 293.5v66q0 186 -63.5 287.5t-221.5 101.5q-74 0 -135 -28.5t-105 -77t-68.5 -110t-24.5 -128.5v-131z" />
<glyph unicode="&#xff;" horiz-adv-x="964" d="M39 1024h123l254 -672q20 -57 40.5 -119.5t37.5 -123.5h4q14 61 32.5 124.5t40.5 122.5l230 668h123l-418 -1190q-45 -129 -112.5 -195.5t-186.5 -66.5q-55 0 -95 9t-69 22l18 98q57 -23 136 -23q80 0 121.5 45.5t76.5 145.5l41 121zM221 1237q0 31 17.5 54.5t64.5 23.5 t64.5 -23.5t17.5 -54.5q0 -33 -17.5 -57.5t-64.5 -24.5t-64.5 24.5t-17.5 57.5zM577 1237q0 31 17.5 54.5t64.5 23.5t64.5 -23.5t17.5 -54.5q0 -33 -17.5 -57.5t-64.5 -24.5t-64.5 24.5t-17.5 57.5z" />
<glyph unicode="&#x152;" horiz-adv-x="2031" d="M119 672v90q0 158 29.5 285t96 217t173 138t258.5 48q166 0 275.5 -72.5t162.5 -193.5v250h795v-115h-678v-543h653v-114h-653v-549h694v-113h-811v248q-51 -121 -161.5 -193.5t-276.5 -72.5q-152 0 -258.5 49t-173 139t-96 217t-29.5 285zM240 672q0 -131 22.5 -236.5 t73.5 -180.5t134 -116t206 -41t206 41t134 116t72.5 180.5t21.5 236.5v94q0 129 -22.5 234.5t-72.5 179t-133 113.5t-206 40t-206 -40t-134 -114.5t-73.5 -180t-22.5 -236.5v-90z" />
<glyph unicode="&#x153;" horiz-adv-x="1763" d="M109 479v58q0 113 23.5 206t75.5 159.5t134 102t197 35.5q147 0 238 -67.5t132 -177.5q39 111 121 178t236 67q115 0 189.5 -38.5t118.5 -102t61.5 -145.5t17.5 -170v-152h-688q2 -80 21.5 -144.5t58 -110.5t100 -70.5t151.5 -24.5q88 0 159 21.5t130 54.5l25 -97 q-55 -33 -134 -55t-182 -22q-162 0 -253 66.5t-132 178.5h-2q-39 -113 -130 -179t-238 -66q-113 0 -195 35.5t-134 100t-76.5 156t-24.5 203.5zM223 479q0 -90 16.5 -162.5t53.5 -125t97.5 -80t148.5 -27.5q86 0 146 28.5t98 80t54.5 124t16.5 162.5v64q0 88 -16.5 161.5 t-54.5 125t-98 80t-146 28.5q-88 0 -148.5 -27.5t-97.5 -79t-53.5 -125t-16.5 -163.5v-64zM963 526h577v54q0 76 -10 141t-40 114.5t-84 77t-140 27.5q-90 0 -149.5 -29.5t-93.5 -84t-47 -131.5t-13 -169z" />
<glyph unicode="&#x178;" horiz-adv-x="1196" d="M35 1434h137l281 -494q39 -68 75.5 -137.5t65.5 -128.5h6q29 59 65.5 128.5t75.5 137.5l283 494h135l-502 -861v-573h-120v573zM338 1647q0 31 17.5 54.5t64.5 23.5t64.5 -23.5t17.5 -54.5q0 -33 -17.5 -57.5t-64.5 -24.5t-64.5 24.5t-17.5 57.5zM694 1647 q0 31 17.5 54.5t64.5 23.5t64.5 -23.5t17.5 -54.5q0 -33 -17.5 -57.5t-64.5 -24.5t-64.5 24.5t-17.5 57.5z" />
<glyph unicode="&#x2c6;" horiz-adv-x="610" d="M27 1153l237 260h82l238 -260h-109l-170 156l-170 -156h-108z" />
<glyph unicode="&#x2dc;" horiz-adv-x="610" d="M8 1155q4 117 46 181.5t124 64.5q41 0 74 -22.5t61.5 -48t56 -48t56.5 -22.5q41 0 61.5 35.5t24.5 101.5h90q-4 -117 -46 -180.5t-122 -63.5q-41 0 -74.5 22.5t-63.5 48t-57.5 48t-54.5 22.5q-41 0 -61.5 -36.5t-24.5 -102.5h-90z" />
<glyph unicode="&#x2000;" horiz-adv-x="911" />
<glyph unicode="&#x2001;" horiz-adv-x="1823" />
<glyph unicode="&#x2002;" horiz-adv-x="911" />
<glyph unicode="&#x2003;" horiz-adv-x="1823" />
<glyph unicode="&#x2004;" horiz-adv-x="607" />
<glyph unicode="&#x2005;" horiz-adv-x="455" />
<glyph unicode="&#x2006;" horiz-adv-x="303" />
<glyph unicode="&#x2007;" horiz-adv-x="303" />
<glyph unicode="&#x2008;" horiz-adv-x="227" />
<glyph unicode="&#x2009;" horiz-adv-x="364" />
<glyph unicode="&#x200a;" horiz-adv-x="101" />
<glyph unicode="&#x2010;" horiz-adv-x="712" d="M66 618v111h583v-111h-583z" />
<glyph unicode="&#x2011;" horiz-adv-x="712" d="M66 618v111h583v-111h-583z" />
<glyph unicode="&#x2012;" horiz-adv-x="712" d="M66 618v111h583v-111h-583z" />
<glyph unicode="&#x2013;" horiz-adv-x="1040" d="M63 616v113h914v-113h-914z" />
<glyph unicode="&#x2014;" horiz-adv-x="1411" d="M59 616v113h1293v-113h-1293z" />
<glyph unicode="&#x2018;" horiz-adv-x="387" d="M94 1032l127 455l90 -21l-86 -465z" />
<glyph unicode="&#x2019;" horiz-adv-x="387" d="M76 1020l86 465l131 -31l-127 -453z" />
<glyph unicode="&#x201a;" horiz-adv-x="387" d="M78 -297l84 467l131 -33l-127 -452z" />
<glyph unicode="&#x201c;" horiz-adv-x="643" d="M92 1032l129 455l86 -21l-82 -465zM352 1032l127 455l88 -21l-84 -465z" />
<glyph unicode="&#x201d;" horiz-adv-x="643" d="M76 1020l86 467l129 -33l-127 -453zM334 1020l86 467l129 -33l-127 -453z" />
<glyph unicode="&#x201e;" horiz-adv-x="643" d="M76 -297l86 467l129 -33l-127 -452zM334 -297l86 467l129 -33l-127 -452z" />
<glyph unicode="&#x2022;" horiz-adv-x="542" d="M104 565q0 33 9.5 65t29 56.5t51 39.5t78.5 15q45 0 77 -15t52.5 -39.5t28.5 -56.5t8 -65q0 -70 -37 -123t-129 -53t-130 53.5t-38 122.5z" />
<glyph unicode="&#x2026;" horiz-adv-x="1204" d="M115 72q0 31 18.5 56.5t67.5 25.5q47 0 64.5 -26t17.5 -56q0 -33 -17.5 -57.5t-64.5 -24.5q-49 0 -67.5 24.5t-18.5 57.5zM518 72q0 31 17.5 56.5t66.5 25.5q47 0 65.5 -26t18.5 -56q0 -33 -18.5 -57.5t-65.5 -24.5q-49 0 -66.5 24.5t-17.5 57.5zM920 72q0 31 18.5 56.5 t67.5 25.5q47 0 64 -26t17 -56q0 -33 -17 -57.5t-64 -24.5q-49 0 -67.5 24.5t-18.5 57.5z" />
<glyph unicode="&#x202f;" horiz-adv-x="364" />
<glyph unicode="&#x2039;" horiz-adv-x="583" d="M80 678l239 389h132l-244 -389l244 -389h-132z" />
<glyph unicode="&#x203a;" horiz-adv-x="583" d="M133 289l244 389l-244 389h129l240 -389l-240 -389h-129z" />
<glyph unicode="&#x205f;" horiz-adv-x="455" />
<glyph unicode="&#x20ac;" horiz-adv-x="1138" d="M72 543v102h172q-4 68 0 143h-172v99h182q12 111 45 212t91.5 179t146.5 125t211 47q104 0 180 -36t127 -83l-33 -110q-53 53 -115.5 83.5t-154.5 30.5q-170 0 -261.5 -119.5t-115.5 -328.5h524v-99h-534q-4 -72 0 -143h464v-102h-454q25 -203 118 -324t263 -121 q94 0 158.5 29t121.5 84l33 -111q-51 -47 -130 -81.5t-185 -34.5q-123 0 -212 46t-148.5 122.5t-93.5 178t-46 212.5h-182z" />
<glyph unicode="&#x2122;" horiz-adv-x="1282" d="M47 1348v86h465v-86h-186v-465h-95v465h-184zM616 883v551h97l180 -326l180 326h96v-551h-92v227v93t4 91q-12 -27 -33.5 -68.5t-50.5 -95.5l-73 -131h-62q-23 43 -48.5 87t-47 84t-38.5 73t-23 51q0 -47 1 -91t1 -93v-227h-91z" />
<glyph unicode="&#x25fc;" horiz-adv-x="1024" d="M0 0v1024h1024v-1024h-1024z" />
<glyph unicode="&#xfb03;" horiz-adv-x="1609" d="M35 924v100h192v113q0 147 66.5 229t216.5 82q47 0 91 -8t79 -21l-23 -96q-63 20 -133 20q-109 0 -145.5 -54t-36.5 -163v-102h436v68q0 82 19.5 147.5t61.5 111.5t107.5 71.5t159.5 25.5q66 0 126.5 -12.5t105.5 -30.5l-25 -96q-88 35 -200 34q-137 0 -187.5 -69.5 t-50.5 -190.5v-59h549v-1024h-117v924h-432v-924h-117v924h-436v-924h-115v924h-192z" />
<glyph unicode="&#xfb04;" horiz-adv-x="1617" d="M35 924v100h192v113q0 147 66.5 229t216.5 82q47 0 91 -8t79 -21l-23 -96q-63 20 -133 20q-109 0 -145.5 -54t-36.5 -163v-102h436v63q0 82 20.5 150t64.5 114t116 71.5t174 25.5q78 0 157 -11.5t140 -29.5v-1407h-113v1323q-39 10 -86 15t-96 5q-78 0 -128 -18 t-78.5 -52t-41 -82t-12.5 -110v-57h260v-100h-260v-924h-117v924h-436v-924h-115v924h-192z" />
</font>
</defs>
</svg>
