<?xml version="1.0" standalone="no"?>
<!DOCTYPE svg PUBLIC "-//W3C//DTD SVG 1.1//EN" "http://www.w3.org/Graphics/SVG/1.1/DTD/svg11.dtd" >
<svg xmlns="http://www.w3.org/2000/svg">
<metadata></metadata>
<defs>
<font id="rleud-italicuploaded_file" horiz-adv-x="1140" >
<font-face units-per-em="2048" ascent="1579" descent="-469" />
<missing-glyph horiz-adv-x="544" />
<glyph unicode="&#xfb01;" horiz-adv-x="1089" d="M57 893l19 131h190l8 66q20 162 122 261t296 99q72 0 135.5 -14.5t104.5 -34.5l-49 -123q-41 16 -89.5 26.5t-107.5 10.5q-66 0 -113 -16.5t-77.5 -47t-47 -73.5t-24.5 -99l-8 -55h563l-143 -1024h-150l125 893h-414l-125 -893h-149l125 893h-191z" />
<glyph unicode="&#xfb02;" horiz-adv-x="1091" d="M57 893l19 131h190l8 59q23 166 131.5 266.5t315.5 100.5q82 0 167 -13.5t144 -31.5l-196 -1405h-148l182 1296q-35 10 -78.5 14.5t-84.5 4.5q-141 0 -204 -65.5t-79 -174.5l-8 -51h239l-18 -131h-240l-125 -893h-149l125 893h-191z" />
<glyph horiz-adv-x="0" />
<glyph horiz-adv-x="0" />
<glyph unicode="&#xd;" horiz-adv-x="348" />
<glyph unicode=" "  horiz-adv-x="544" />
<glyph unicode="&#x09;" horiz-adv-x="544" />
<glyph unicode="&#xa0;" horiz-adv-x="544" />
<glyph unicode="!" horiz-adv-x="509" d="M68 72q0 41 24 78.5t96 37.5q51 0 69.5 -24.5t18.5 -59.5q0 -41 -24.5 -78.5t-91.5 -37.5q-53 0 -72.5 25.5t-19.5 58.5zM154 367l122 1067h173l-177 -1067h-118z" />
<glyph unicode="&#x22;" horiz-adv-x="626" d="M158 932l47 502h153l-88 -502h-112zM434 932l47 502h154l-88 -502h-113z" />
<glyph unicode="#" horiz-adv-x="1175" d="M51 389l21 143h170l112 367h-149l20 143h174l121 392h152l-123 -392h291l121 392h151l-121 -392h148l-21 -143h-172l-112 -367h149l-20 -143h-177l-118 -389h-152l121 389h-291l-119 -389h-151l121 389h-146zM391 530h293l113 371h-293z" />
<glyph unicode="$" horiz-adv-x="1175" d="M74 387h153q-18 -135 50.5 -195.5t232.5 -60.5q182 0 269 69.5t87 221.5q0 55 -19.5 93t-57 66.5t-93 51t-129.5 47.5q-78 25 -145.5 56.5t-119.5 75.5t-82 104.5t-30 142.5q0 174 103.5 275.5t335.5 111.5l30 213h150l-31 -217q182 -16 254 -108.5t53 -246.5h-153 q8 51 -2 92.5t-41 68t-85 41t-136 14.5q-96 0 -159 -15.5t-98.5 -46.5t-50 -75t-14.5 -99q0 -53 22.5 -91t62.5 -66.5t94.5 -50t117.5 -42.5q88 -29 158.5 -64.5t120 -81.5t75 -106.5t25.5 -140.5q0 -207 -112.5 -312.5t-336.5 -121.5l-30 -215h-150l31 213 q-401 25 -350 399z" />
<glyph unicode="%" horiz-adv-x="1282" d="M66 0l999 1434h164l-1000 -1434h-163zM106 1030q0 92 17.5 169t55.5 131t96.5 85t140.5 31q115 0 171 -75t56 -197q0 -92 -17.5 -169t-54 -131.5t-95 -85t-140.5 -30.5q-115 0 -172.5 73.5t-57.5 198.5zM246 1030q0 -66 22.5 -105.5t77.5 -39.5q72 0 115 67.5t43 223.5 q0 66 -21.5 105.5t-74.5 39.5q-74 0 -118 -68.5t-44 -222.5zM651 260q0 92 17.5 169t55.5 131t96.5 85t140.5 31q115 0 171 -75t56 -198q0 -92 -17.5 -168.5t-54.5 -131t-95 -85t-140 -30.5q-115 0 -172.5 73.5t-57.5 198.5zM791 260q0 -66 22.5 -105.5t77.5 -39.5 q72 0 115 67.5t43 223.5q0 66 -21.5 105.5t-75.5 39.5q-74 0 -117.5 -68.5t-43.5 -222.5z" />
<glyph unicode="&#x26;" horiz-adv-x="1269" d="M63 350q0 115 28 201t77 148.5t116.5 103.5t145.5 67q-27 51 -51.5 108.5t-24.5 137.5q0 68 21.5 129.5t67.5 107.5t118 72.5t170 26.5q168 0 237.5 -77t69.5 -216q0 -78 -28.5 -138t-79.5 -110h254l-21 -133h-413l16 113q66 53 94.5 119.5t28.5 144.5q0 33 -8.5 61.5 t-26.5 50t-49 35t-76 13.5q-109 0 -165 -53.5t-56 -141.5q0 -68 39 -139.5t82 -142.5l497 -838h-178l-399 674q-12 23 -25.5 46t-25.5 46q-141 -41 -210 -143.5t-69 -262.5q0 -109 58.5 -171t191.5 -62q61 0 118.5 10t121.5 41l20 -139q-72 -35 -132 -46t-128 -11 q-104 0 -181 27.5t-126 76.5t-74 116.5t-25 147.5z" />
<glyph unicode="'" horiz-adv-x="366" d="M166 932l47 502h154l-91 -502h-110z" />
<glyph unicode="(" horiz-adv-x="532" d="M115 393q0 160 30.5 304.5t85 276.5t129 256t164.5 243l86 -50q-121 -182 -189.5 -335.5t-103 -284.5t-44 -242.5t-9.5 -208.5q0 -143 24.5 -308t82.5 -318l-99 -50q-72 154 -114.5 337t-42.5 380z" />
<glyph unicode=")" horiz-adv-x="532" d="M-104 -274q74 113 137 224t109 237t72 275.5t26 338.5q0 143 -25 307t-80 315l96 50q72 -154 116 -337t44 -382q0 -160 -30.5 -303.5t-85 -275.5t-130 -256t-165.5 -243z" />
<glyph unicode="*" horiz-adv-x="894" d="M182 1126l70 134l205 -99l28 273h138l-52 -273l234 99l35 -134l-262 -88l155 -237l-121 -92l-125 260l-196 -260l-92 92l221 237z" />
<glyph unicode="+" horiz-adv-x="942" d="M51 580l21 145h329l58 403h155l-57 -403h330l-21 -145h-329l-58 -404h-155l57 404h-330z" />
<glyph unicode="," horiz-adv-x="409" d="M-57 -252l137 449l174 -33l-203 -453z" />
<glyph unicode="-" horiz-adv-x="724" d="M53 600l21 145h598l-21 -145h-598z" />
<glyph unicode="." horiz-adv-x="409" d="M16 72q0 41 24.5 78.5t96.5 37.5q51 0 69.5 -24.5t18.5 -59.5q0 -41 -24.5 -78.5t-91.5 -37.5q-53 0 -73 25.5t-20 58.5z" />
<glyph unicode="/" horiz-adv-x="606" d="M-76 -41l619 1516h151l-620 -1516h-150z" />
<glyph unicode="0" horiz-adv-x="1208" d="M92 528q0 258 46 434.5t128 285t192.5 156.5t239.5 48q90 0 169 -28.5t137.5 -93t92 -169t33.5 -256.5q0 -258 -46 -434t-126.5 -285.5t-192.5 -156.5t-241 -47q-90 0 -169 28.5t-137 93t-92 169t-34 255.5zM248 535q0 -115 19.5 -193t56 -126t87.5 -68.5t117 -20.5 q106 0 189.5 43t140.5 136t87 239.5t30 353.5q0 115 -19.5 192.5t-55.5 125t-88 68t-118 20.5q-109 0 -191.5 -43t-139 -135.5t-86 -239t-29.5 -352.5z" />
<glyph unicode="1" horiz-adv-x="690" d="M119 1206l348 228h156l-203 -1434h-158l176 1247l-291 -157z" />
<glyph unicode="2" horiz-adv-x="1064" d="M0 0l18 131l598 596q27 25 65 62.5t72.5 87t59.5 107.5t25 124q0 106 -66.5 151.5t-183.5 45.5q-92 0 -183.5 -19.5t-173.5 -50.5l-16 137q80 35 180.5 57.5t204.5 22.5q188 0 291.5 -80t103.5 -262q0 -72 -20.5 -134.5t-56 -120.5t-83 -112.5t-100.5 -105.5l-499 -490 h647l-21 -147h-862z" />
<glyph unicode="3" horiz-adv-x="1028" d="M-35 53l51 142q80 -35 166 -50.5t176 -15.5q178 0 276.5 77t98.5 259q0 123 -69.5 168t-192.5 45h-188l20 143h186q162 0 238 75t76 214q0 106 -69.5 150.5t-196.5 44.5q-92 0 -181.5 -17.5t-171.5 -50.5l-12 139q84 35 178 55.5t199 20.5q195 0 301 -83t106 -243 q0 -82 -20.5 -145t-54 -109.5t-79.5 -76t-95 -45.5v-5q84 -25 133 -94t49 -188q0 -250 -137.5 -365.5t-393.5 -115.5q-119 0 -217 19t-176 52z" />
<glyph unicode="4" horiz-adv-x="1110" d="M10 276l19 127l583 1031h164l-575 -1014h499l70 504h156l-70 -504h170l-20 -144h-170l-39 -276h-156l39 276h-670z" />
<glyph unicode="5" horiz-adv-x="1114" d="M2 68l51 141q74 -35 167.5 -56.5t197.5 -21.5q96 0 173 19.5t130 66.5t81.5 125t28.5 193q0 133 -68.5 188t-180.5 55q-100 0 -185.5 -32.5t-144.5 -73.5h-135l151 762h781l-21 -146h-635l-90 -448q23 14 57.5 29.5t76.5 27.5t88 19.5t91 7.5q84 0 153 -21.5t117 -69 t74.5 -123t26.5 -182.5q0 -143 -42 -245.5t-117.5 -169t-183 -97t-236.5 -30.5q-117 0 -225.5 23.5t-180.5 58.5z" />
<glyph unicode="6" horiz-adv-x="1134" d="M90 537q0 201 39 368.5t119 289.5t202.5 189.5t290.5 67.5q100 0 174 -20.5t121 -47.5l-57 -135q-49 27 -110.5 44.5t-133.5 17.5q-106 0 -185 -35t-135.5 -101.5t-92 -164t-54.5 -219.5q31 25 75 47t93 40.5t101.5 29t101.5 10.5q371 0 371 -388q0 -133 -38 -234 t-104.5 -172t-160 -106.5t-203.5 -35.5q-205 0 -309.5 140t-104.5 415zM245 425q7 -95 38.5 -162.5t87 -105.5t133.5 -38q172 0 262 113.5t90 297.5q0 117 -52 181.5t-175 64.5q-51 0 -103.5 -11t-101.5 -29.5t-92 -44t-76 -54.5q-18 -117 -11 -212z" />
<glyph unicode="7" horiz-adv-x="1024" d="M141 0l695 1286h-680l20 148h856l-18 -134l-703 -1300h-170z" />
<glyph unicode="8" horiz-adv-x="1153" d="M63 328q0 90 24 162.5t63.5 127t92 90t109.5 54.5v4q-68 23 -120 86t-52 180q0 90 25.5 167t84 133.5t153 88t229.5 31.5q115 0 194.5 -23.5t128.5 -65.5t72 -101.5t23 -128.5q0 -86 -24 -152t-60.5 -111t-84 -73.5t-94.5 -40.5l-2 -4q80 -29 133.5 -106t53.5 -200 q0 -127 -39 -216t-107.5 -144t-162 -79.5t-201.5 -24.5q-205 0 -322 79.5t-117 266.5zM217 348q0 -123 73 -179t208 -56q174 0 267 81.5t93 256.5q0 231 -244 231h-73q-154 0 -239 -85t-85 -249zM328 1032q0 -98 58 -151.5t175 -53.5h74q152 0 228.5 77t76.5 212 q0 96 -62.5 149.5t-209.5 53.5q-96 0 -161 -20.5t-105 -58.5t-57 -91t-17 -117z" />
<glyph unicode="9" horiz-adv-x="1134" d="M111 47l53 137q53 -29 112.5 -46t131.5 -17q106 0 188 39t140.5 108.5t94 165.5t52.5 213q-66 -49 -168.5 -91t-227.5 -42q-170 0 -260 99.5t-90 293.5q0 129 39 230.5t106.5 171t160 106.5t200.5 37q211 0 312.5 -138t101.5 -399q0 -209 -38 -381t-116 -294.5 t-197.5 -190t-283.5 -67.5q-113 0 -188.5 19t-122.5 46zM289 907q0 -117 53 -183.5t176 -66.5q109 0 210 40t169 98q33 252 -33.5 386t-220.5 134q-174 0 -264 -110.5t-90 -297.5z" />
<glyph unicode=":" horiz-adv-x="487" d="M55 72q0 41 24.5 78.5t96.5 37.5q51 0 69.5 -24.5t18.5 -59.5q0 -41 -24.5 -78.5t-92.5 -37.5q-53 0 -72.5 25.5t-19.5 58.5zM174 920q0 41 25.5 78.5t95.5 37.5q51 0 70.5 -24.5t19.5 -59.5q0 -41 -24.5 -78.5t-94.5 -37.5q-53 0 -72.5 24.5t-19.5 59.5z" />
<glyph unicode=";" horiz-adv-x="487" d="M-31 -252l137 449l173 -33l-203 -453zM176 920q0 41 24.5 78.5t94.5 37.5q51 0 70.5 -24.5t19.5 -59.5q0 -41 -24.5 -78.5t-92.5 -37.5q-53 0 -72.5 24.5t-19.5 59.5z" />
<glyph unicode="&#x3c;" horiz-adv-x="942" d="M29 551l14 98l856 498l-22 -164l-678 -387l569 -385l-23 -158z" />
<glyph unicode="=" horiz-adv-x="942" d="M37 293l20 143h762l-20 -143h-762zM86 645l20 143h762l-20 -143h-762z" />
<glyph unicode="&#x3e;" horiz-adv-x="942" d="M25 53l22 166l678 385l-569 387l22 156l717 -498l-14 -98z" />
<glyph unicode="?" horiz-adv-x="993" d="M174 1372q80 35 178.5 57.5t198.5 22.5q209 0 303 -83t94 -243q0 -88 -29.5 -154.5t-74.5 -120.5t-98.5 -99t-100.5 -88t-82 -89.5t-43 -101.5l-14 -102h-154l15 102q10 68 44.5 124t82 105.5t99.5 95.5t96 95t73 104.5t29 122.5q0 92 -61.5 138.5t-190.5 46.5 q-90 0 -179.5 -19.5t-169.5 -50.5zM287 72q0 41 25.5 78.5t93.5 37.5q53 0 72.5 -25.5t19.5 -58.5q0 -41 -26 -78.5t-95 -37.5q-51 0 -70.5 24.5t-19.5 59.5z" />
<glyph unicode="@" horiz-adv-x="1904" d="M106 408q0 213 57.5 401t176.5 329.5t300 224.5t431 83q184 0 315.5 -56.5t216.5 -156.5t124.5 -235.5t39.5 -295.5q0 -180 -30.5 -314t-84 -223t-123 -133t-149.5 -44q-51 0 -85.5 17.5t-57.5 46t-32 65.5t-9 78q-25 -41 -56.5 -80t-73.5 -69t-95 -47t-117 -17 q-170 0 -261 103t-91 306q0 119 29.5 235.5t92 211t162 153t240.5 58.5q109 0 180.5 -37t111.5 -96.5t51 -135t1 -151.5l-45 -305q-14 -98 1 -147.5t69 -49.5q47 0 88 40t71.5 113.5t49 180t18.5 239.5q0 131 -29.5 243t-96 194t-174.5 128t-261 46q-213 0 -365.5 -70 t-251 -190.5t-145.5 -284.5t-47 -352q0 -125 27.5 -245t82.5 -216l-129 -84q-31 49 -54 112.5t-39.5 134t-25 144.5t-8.5 148zM653 395q0 -276 205 -276q143 0 231.5 101.5t110.5 266.5l19 142q16 123 -28 200.5t-167 77.5q-94 0 -163.5 -40t-116 -109.5t-69 -163 t-22.5 -199.5z" />
<glyph unicode="A" horiz-adv-x="1282" d="M-53 0l715 1434h172l313 -1434h-154l-78 371h-620l-182 -371h-166zM369 512h514l-97 449q-16 78 -27 152.5t-24 160.5h-8q-35 -86 -66.5 -161t-70.5 -152z" />
<glyph unicode="B" horiz-adv-x="1277" d="M80 0l201 1434h516q213 0 304 -81t91 -235q0 -90 -21.5 -156.5t-55.5 -112.5t-77 -75t-86 -43v-4q92 -16 141.5 -85t49.5 -183q0 -119 -30 -205t-92.5 -142.5t-161.5 -84t-238 -27.5h-541zM256 145h365q111 0 181 17.5t111 55.5t56.5 97.5t15.5 141.5q0 115 -69.5 156.5 t-208.5 41.5h-379zM348 801h381q154 0 230.5 68.5t76.5 234.5q0 98 -56 140t-196 42h-368z" />
<glyph unicode="C" horiz-adv-x="1181" d="M102 543q0 109 16.5 218t52.5 210.5t92 188.5t135 152.5t183.5 102.5t237.5 37q111 0 203 -23t162 -59l-56 -141q-72 35 -148.5 54.5t-160.5 19.5q-156 0 -262 -68t-172 -176.5t-94.5 -243.5t-28.5 -272q0 -195 85 -303.5t284 -108.5q104 0 190 19.5t170 56.5l19 -137 q-82 -39 -179.5 -63.5t-201.5 -24.5q-139 0 -239.5 37.5t-164 109.5t-93.5 176.5t-30 237.5z" />
<glyph unicode="D" horiz-adv-x="1339" d="M80 0l201 1434h477q133 0 227 -36t154.5 -102.5t88 -160t27.5 -209.5q0 -180 -31.5 -347t-110.5 -296t-213 -206t-337 -77h-483zM258 147h326q147 0 245.5 64.5t158 172.5t85 247t25.5 289q0 178 -78 271t-272 93h-330z" />
<glyph unicode="E" horiz-adv-x="1126" d="M80 0l201 1434h831l-20 -150h-676l-70 -493h653l-20 -150h-653l-70 -494h692l-20 -147h-848z" />
<glyph unicode="F" horiz-adv-x="1071" d="M80 0l201 1434h806l-20 -150h-651l-74 -522h627l-21 -150h-626l-86 -612h-156z" />
<glyph unicode="G" horiz-adv-x="1310" d="M106 557q0 168 45.5 329t137.5 286.5t233.5 202.5t333.5 77q111 0 208 -23.5t167 -60.5l-57 -141q-70 35 -151 53t-177 18q-158 0 -268.5 -61t-180 -164.5t-101.5 -238t-32 -277.5q0 -96 22.5 -175t71 -134t124 -86t184.5 -31q70 0 136 12.5t138 36.5l68 469h-340l20 146 h492l-101 -711q-98 -51 -206.5 -76.5t-206.5 -25.5q-139 0 -245 40.5t-175.5 115.5t-104.5 181.5t-35 237.5z" />
<glyph unicode="H" horiz-adv-x="1363" d="M80 0l201 1434h157l-90 -643h703l90 643h155l-200 -1434h-156l90 641h-702l-90 -641h-158z" />
<glyph unicode="I" horiz-adv-x="509" d="M84 0l201 1434h153l-200 -1434h-154z" />
<glyph unicode="J" horiz-adv-x="919" d="M-33 43l56 141q49 -25 105 -40t138 -15q143 0 211 84t90 248l117 825h-244l21 148h401l-139 -985q-35 -254 -146.5 -360.5t-308.5 -106.5q-98 0 -174 17t-127 44z" />
<glyph unicode="K" horiz-adv-x="1224" d="M80 0l201 1434h157l-106 -762l762 762h192l-559 -562l373 -872h-168l-322 756l-309 -307l-63 -449h-158z" />
<glyph unicode="L" horiz-adv-x="1038" d="M80 0l201 1434h157l-180 -1287h645l-20 -147h-803z" />
<glyph unicode="M" horiz-adv-x="1564" d="M80 0l201 1434h159l326 -842l559 842h172l-201 -1434h-155l123 881q10 68 27.5 157.5t33.5 165.5h-4q-33 -63 -75 -137t-93 -145l-330 -492h-147l-195 492q-29 72 -50 145.5t-36 136.5h-4q-4 -76 -13 -166t-20 -157l-122 -881h-156z" />
<glyph unicode="N" horiz-adv-x="1402" d="M80 0l201 1434h163l447 -920q37 -76 69.5 -153.5t55.5 -145.5h4q8 86 16 168t23 182l123 869h153l-200 -1434h-164l-447 920q-37 76 -69.5 153.5t-53.5 145.5h-4q-8 -86 -16 -168t-23 -183l-122 -868h-156z" />
<glyph unicode="O" horiz-adv-x="1368" d="M102 514q0 102 13.5 213t44 214t81 196.5t125 163t176 110.5t234.5 41q256 0 379 -140.5t123 -391.5q0 -104 -13.5 -214t-44 -213.5t-80.5 -196.5t-125 -163t-176.5 -110.5t-234.5 -40.5q-256 0 -379 139t-123 393zM260 520q0 -193 80 -292t268 -99q154 0 253.5 73.5 t156.5 189.5t79.5 254t22.5 267q0 193 -79.5 292.5t-268.5 99.5q-154 0 -253 -74t-156.5 -189.5t-80 -254t-22.5 -267.5z" />
<glyph unicode="P" horiz-adv-x="1226" d="M80 0l201 1434h489q195 0 301.5 -90.5t106.5 -294.5q0 -268 -125 -403.5t-387 -135.5h-357l-71 -510h-158zM328 657h344q195 0 271.5 98.5t76.5 295.5q0 127 -61.5 181t-196.5 54h-346z" />
<glyph unicode="Q" horiz-adv-x="1368" d="M102 514q0 102 13.5 213t44 214t81 196.5t125 163t176 110.5t234.5 41q256 0 379 -140.5t123 -391.5q0 -104 -13.5 -214t-44 -213.5t-80.5 -196.5t-125 -163t-176.5 -110.5t-234.5 -40.5q-256 0 -379 139t-123 393zM240 -233l49 139q178 -29 336.5 -83t300.5 -138 l-80 -136q-123 80 -277.5 135.5t-328.5 82.5zM260 520q0 -193 80 -292t268 -99q154 0 253.5 73.5t156.5 189.5t79.5 254t22.5 267q0 193 -79.5 292.5t-268.5 99.5q-154 0 -253 -74t-156.5 -189.5t-80 -254t-22.5 -267.5z" />
<glyph unicode="R" horiz-adv-x="1271" d="M80 0l201 1434h536q387 0 387 -361q0 -123 -30.5 -208t-82 -142t-120 -89t-144.5 -46l252 -588h-164l-247 582h-349l-81 -582h-158zM338 729h389q100 0 162.5 23.5t97.5 67.5t47.5 108.5t12.5 144.5q0 113 -56.5 163t-185.5 50h-389z" />
<glyph unicode="S" horiz-adv-x="1120" d="M10 68l58 139q74 -35 172 -57.5t225 -22.5q190 0 276 71.5t86 223.5q0 55 -18 94t-55 68.5t-91.5 53.5t-125.5 48q-78 25 -145.5 56.5t-118 76.5t-80 105.5t-29.5 142.5q0 193 118.5 289t374.5 96q139 0 236.5 -23.5t173.5 -56.5l-55 -135q-80 31 -165 50.5t-188 19.5 q-98 0 -162.5 -14.5t-104.5 -44t-56.5 -74t-16.5 -101.5q0 -53 23 -92t61.5 -67.5t92 -51t116.5 -43.5q88 -29 158 -64.5t117 -81.5t71.5 -106.5t24.5 -140.5q0 -229 -132 -336.5t-380 -107.5q-154 0 -267.5 22.5t-193.5 63.5z" />
<glyph unicode="T" horiz-adv-x="1110" d="M129 1284l21 150h1021l-20 -150l-432 4l-180 -1288h-158l180 1288z" />
<glyph unicode="U" horiz-adv-x="1351" d="M144 318q-5 43 -5 91q0 74 13 160l120 865h156l-121 -861q-12 -86 -12 -154q0 -21 1 -41q5 -82 38 -138t97.5 -83.5t168.5 -27.5t176 27.5t120 83t75.5 138.5t44.5 195l121 861h155l-121 -865q-20 -141 -58 -250.5t-104.5 -184.5t-168 -113.5t-244.5 -38.5t-237.5 38.5 t-147.5 113t-67 184.5z" />
<glyph unicode="V" horiz-adv-x="1257" d="M147 1434h158l184 -908q20 -96 33 -184t25 -190h6q39 102 77 189t85 185l438 908h170l-702 -1434h-172z" />
<glyph unicode="W" horiz-adv-x="1867" d="M166 1434h151l95 -854q12 -111 15 -212.5t5 -209.5h4q33 109 71 212t83 210l360 854h168l123 -854q16 -106 22.5 -210t8.5 -212h6q31 109 63.5 210t75.5 212l336 854h162l-569 -1434h-166l-133 938q-12 86 -18.5 174t-6.5 172h-4q-25 -84 -56.5 -172t-66.5 -174 l-397 -938h-164z" />
<glyph unicode="X" horiz-adv-x="1273" d="M-53 0l610 733l-389 701h176l313 -578l476 578h186l-586 -701l406 -733h-174l-330 608l-502 -608h-186z" />
<glyph unicode="Y" horiz-adv-x="1218" d="M135 1434h170l189 -445q29 -68 58.5 -144.5t51.5 -142.5h6q41 66 92.5 143t98.5 144l313 445h182l-622 -863l-80 -571h-158l80 571z" />
<glyph unicode="Z" horiz-adv-x="1165" d="M12 0l19 135l905 1155l-719 -2l21 146h901l-19 -136l-901 -1155l762 2l-20 -145h-949z" />
<glyph unicode="[" horiz-adv-x="532" d="M43 -336l254 1804h299l-18 -135h-146l-217 -1534h145l-18 -135h-299z" />
<glyph unicode="\" horiz-adv-x="606" d="M137 1475h150l194 -1516h-151z" />
<glyph unicode="]" horiz-adv-x="532" d="M-92 -336l18 135h146l217 1534h-146l19 135h299l-254 -1804h-299z" />
<glyph unicode="^" horiz-adv-x="991" d="M57 653l492 781h110l271 -781h-152l-196 578l-361 -578h-164z" />
<glyph unicode="_" horiz-adv-x="770" d="M-127 -229l18 137h771l-19 -137h-770z" />
<glyph unicode="`" horiz-adv-x="626" d="M152 1300l73 132l410 -220l-49 -79z" />
<glyph unicode="a" d="M70 401q0 143 34.5 261t99 202t155 131t200.5 47q63 0 113.5 -17t87.5 -47t62.5 -68t39.5 -79h4l31 193h137l-143 -1024h-141l20 195h-4q-23 -39 -53.5 -77t-71.5 -69t-93 -49t-118 -18q-164 0 -262 102t-98 317zM221 420q0 -164 57.5 -232.5t172.5 -68.5 q63 0 122.5 26.5t108.5 72.5t82 108.5t43 132.5l18 133q3 21 3 42q0 40 -10 76q-15 56 -50 99t-85 68.5t-112 25.5q-88 0 -153.5 -34.5t-109.5 -99t-65.5 -154t-21.5 -195.5z" />
<glyph unicode="b" horiz-adv-x="1144" d="M66 0l200 1434h150l-54 -392l-38 -211h4q55 92 143 151.5t219 59.5q164 0 253 -105t89 -308q0 -164 -37 -285t-101.5 -202t-152.5 -120.5t-188 -39.5q-68 0 -121 18t-91 49t-62.5 69t-34.5 77h-4l-35 -195h-139zM279 459q-4 -27 -4 -53q0 -42 10 -80q16 -62 54 -108 t91 -72.5t117 -26.5q76 0 138.5 34.5t106.5 100t67.5 157.5t23.5 207q0 147 -53.5 216t-170.5 69q-66 0 -127 -25.5t-110 -68.5t-82 -99.5t-41 -117.5z" />
<glyph unicode="c" horiz-adv-x="942" d="M68 414q0 117 29.5 229.5t94 201.5t166 143t246.5 54q92 0 167 -19t122 -48l-49 -121q-53 29 -116 42t-124 13q-113 0 -187.5 -43t-118.5 -113.5t-62.5 -158.5t-18.5 -180q0 -141 61.5 -221t202.5 -80q78 0 148.5 18.5t134.5 48.5l16 -121q-59 -35 -140 -56t-161 -21 q-111 0 -188.5 30.5t-127.5 88t-72.5 137t-22.5 176.5z" />
<glyph unicode="d" horiz-adv-x="1144" d="M70 401q0 143 34.5 261t99 202t155 131t200.5 47q63 0 113.5 -17t87.5 -47t62.5 -68t39.5 -79h4l23 211l53 392h150l-201 -1434h-141l20 195h-4q-23 -39 -53.5 -77t-71.5 -69t-93 -49t-118 -18q-164 0 -262 102t-98 317zM221 420q0 -164 57.5 -232.5t172.5 -68.5 q63 0 122.5 26.5t108.5 72.5t82 108.5t43 132.5l18 133q3 21 3 42q0 40 -10 76q-15 56 -50 99t-85 68.5t-112 25.5q-88 0 -153.5 -34.5t-109.5 -99t-65.5 -154t-21.5 -195.5z" />
<glyph unicode="e" horiz-adv-x="1030" d="M68 385q0 117 30.5 234.5t97 212t171 152.5t251.5 58q174 0 258.5 -84t84.5 -225q0 -96 -33 -164.5t-90.5 -112.5t-137.5 -65.5t-174 -21.5q-98 0 -181 16t-136 37q-1 -20 -1 -39q0 -123 56 -193q64 -80 223 -79q84 0 157 20.5t134 50.5l17 -119q-59 -33 -138 -57 t-180 -24q-209 0 -309 107.5t-100 295.5zM227 537q57 -23 130 -37q64 -12 140 -11h23q66 0 120 10.5t94 36t61.5 72.5t21.5 123q0 33 -10 65.5t-34.5 59.5t-64.5 42t-98 15q-88 0 -153.5 -27.5t-111.5 -77.5t-75 -119.5t-43 -151.5z" />
<glyph unicode="f" horiz-adv-x="716" d="M57 893l19 131h190l13 84q23 162 107.5 252t260.5 90q68 0 120 -12.5t93 -32.5l-47 -123q-43 16 -80 24.5t-90 8.5q-111 0 -156 -53.5t-61 -161.5l-10 -76h317l-18 -131h-318l-125 -893h-149l125 893h-191z" />
<glyph unicode="g" horiz-adv-x="1056" d="M-16 -178q0 47 15 85t37.5 68.5t51.5 52t57 35.5q-16 8 -32.5 28t-29.5 47.5t-19 61.5q-4 17 -4 35q0 17 3 35l146 148q-37 37 -58.5 84t-21.5 106q0 203 111.5 309.5t339.5 106.5h460l-16 -117l-164 -6v-4q31 -23 51.5 -67t20.5 -105q0 -197 -118 -294t-327 -97 q-55 0 -101 6t-81 22l-106 -108q-2 -18 3 -37.5t14 -37t22.5 -28t29.5 -10.5h267q174 0 250.5 -57t76.5 -188q0 -326 -469 -326q-84 0 -158.5 10t-130 38t-88 77t-32.5 127zM127 -170q0 -78 67.5 -105.5t202.5 -27.5q166 0 244 44t78 155q0 72 -49 94t-154 22h-260 q-63 -29 -96 -67.5t-33 -114.5zM274 618q0 -84 50.5 -120.5t177.5 -36.5q135 0 212 60.5t77 207.5q0 80 -50.5 124t-177.5 44q-135 0 -212 -61.5t-77 -217.5z" />
<glyph unicode="h" horiz-adv-x="1159" d="M66 0l200 1434h150l-54 -390l-38 -217h4q20 41 54 80t82 69t108.5 48t134.5 18q173 0 247 -108q52 -76 53 -202q0 -53 -10 -116l-86 -616h-149l86 618q10 64 10 111q0 13 -1 23q-3 54 -23.5 87t-60.5 47.5t-101 14.5q-74 0 -137.5 -23.5t-113.5 -69.5t-84 -113.5 t-46 -153.5l-76 -541h-149z" />
<glyph unicode="i" horiz-adv-x="466" d="M63 0l144 1024h149l-143 -1024h-150zM213 1268q0 43 25.5 80.5t95.5 37.5q53 0 72.5 -25.5t19.5 -57.5q0 -20 -6 -42t-19.5 -38.5t-37 -27.5t-58.5 -11q-51 0 -71.5 24.5t-20.5 59.5z" />
<glyph unicode="j" horiz-adv-x="526" d="M-274 -387l53 127q70 -33 149 -33q51 0 84 15.5t52.5 41t28.5 60.5t16 74l139 995h-166l18 131h316l-158 -1126q-25 -172 -95.5 -249t-219.5 -77q-53 0 -116 10t-101 31zM268 1270q0 41 26.5 78.5t96.5 37.5q53 0 72.5 -25.5t19.5 -57.5q0 -41 -25.5 -80t-95.5 -39 q-53 0 -73.5 25.5t-20.5 60.5z" />
<glyph unicode="k" horiz-adv-x="1011" d="M66 0l200 1434h150l-127 -906l545 496h196l-424 -389l285 -635h-158l-244 535l-229 -209l-45 -326h-149z" />
<glyph unicode="l" horiz-adv-x="466" d="M66 0l200 1434h148l-201 -1434h-147z" />
<glyph unicode="m" horiz-adv-x="1673" d="M61 0l144 1024h137l-23 -193h5q18 41 48.5 79t72.5 68t95.5 47t118.5 17q119 0 171.5 -55t60.5 -153h6q51 92 145.5 150t223.5 58q164 0 221 -99q39 -68 39 -175q0 -49 -8 -106l-93 -662h-147l92 662q7 52 7 92q-1 61 -17 93q-28 54 -125 54q-63 0 -119.5 -21.5 t-100.5 -64.5t-75 -106.5t-43 -145.5l-80 -563h-147l92 662q7 50 7 88q-1 63 -19 97q-30 54 -123 54q-61 0 -118.5 -22.5t-103 -67.5t-76 -109.5t-42.5 -146.5l-78 -555h-148z" />
<glyph unicode="n" horiz-adv-x="1153" d="M61 0l144 1024h137l-23 -197h5q45 86 138 150.5t240 64.5q180 0 250 -106q49 -74 49 -199q0 -55 -10 -121l-86 -616h-149l86 618q10 64 10 111q0 13 -1 23q-3 54 -22.5 87t-59.5 47.5t-103 14.5q-145 0 -250 -93t-129 -267l-76 -541h-150z" />
<glyph unicode="o" horiz-adv-x="1089" d="M68 379q0 119 24.5 237.5t85 213t160.5 153.5t252 59q199 0 293 -107.5t94 -293.5q0 -119 -25.5 -236.5t-87 -212t-162 -152.5t-249.5 -58q-197 0 -291 107.5t-94 289.5zM217 383q0 -131 56.5 -200.5t191.5 -69.5q104 0 174 47t112 122.5t59 169t17 183.5 q0 133 -57 203.5t-192 70.5q-104 0 -174 -48t-112 -123.5t-58.5 -169t-16.5 -185.5z" />
<glyph unicode="p" d="M4 -410l201 1434h137l-23 -193h5q55 92 143 151.5t219 59.5q164 0 253 -105t89 -308q0 -164 -37 -285t-101.5 -202t-152.5 -120.5t-188 -39.5q-68 0 -121 18t-91 49t-62.5 69t-34.5 77h-4l-25 -195l-57 -410h-150zM274 459q-4 -26 -4 -52q0 -42 10 -81q17 -62 55 -108 t91 -72.5t117 -26.5q76 0 138 34.5t106 100t68 157.5t24 207q0 147 -53.5 216t-170.5 69q-66 0 -127 -25.5t-110 -68.5t-82 -99.5t-41 -117.5z" />
<glyph unicode="q" d="M70 401q0 143 34.5 261t99 202t155 131t200.5 47q63 0 113.5 -17t87.5 -47t62.5 -68t39.5 -79h4l31 193h137l-200 -1434h-150l57 410l29 195h-4q-23 -39 -53.5 -77t-71.5 -69t-93 -49t-118 -18q-164 0 -262 102t-98 317zM221 420q0 -164 57.5 -232.5t172.5 -68.5 q63 0 122.5 26.5t108.5 72.5t82 108.5t43 132.5l18 133q3 21 3 42q0 39 -10 76q-15 56 -50 99t-85 68.5t-112 25.5q-88 0 -153.5 -34.5t-109.5 -99t-65.5 -154t-21.5 -195.5z" />
<glyph unicode="r" horiz-adv-x="698" d="M61 0l144 1024h135l-25 -223h4q23 49 57 91t80 73.5t105.5 50t130.5 18.5h19l-23 -157h-18q-152 0 -257.5 -94.5t-129.5 -274.5l-72 -508h-150z" />
<glyph unicode="s" horiz-adv-x="903" d="M-2 49l51 133q59 -35 137 -51t156 -16q51 0 99 9t85 29.5t59.5 53.5t22.5 80q0 70 -57 107.5t-150 72.5q-61 25 -116.5 48.5t-96.5 56t-64.5 77.5t-23.5 111q0 150 95.5 216t277.5 66q113 0 196 -20.5t144 -48.5l-47 -129q-63 29 -132 46t-157 17q-123 0 -176 -32.5 t-53 -104.5q0 -37 18.5 -63.5t48 -47t69.5 -37t83 -32.5q70 -27 124 -54.5t91 -61.5t55.5 -77t18.5 -100q0 -92 -33 -152.5t-88 -96.5t-129 -51t-156 -15q-106 0 -199.5 17t-152.5 50z" />
<glyph unicode="t" horiz-adv-x="774" d="M55 893l19 131h190l78 356h121l-49 -356h329l-18 -131h-330l-80 -571q-6 -41 -6 -73q1 -54 17 -84q26 -48 123 -48q47 0 89 9t83 28l16 -123q-45 -23 -93 -35t-114 -12q-90 0 -146.5 23.5t-85.5 66.5q-30 42 -36 104q-2 23 -2 49q0 42 6 90l80 576h-191z" />
<glyph unicode="u" horiz-adv-x="1116" d="M109 389l88 635h151l-90 -639q-8 -55 -8 -97q0 -74 25 -110q40 -57 151 -57q66 0 125 23.5t107.5 69.5t81 113.5t44.5 153.5l76 543h150l-144 -1024h-137l23 195h-4q-23 -41 -53.5 -80t-73.5 -69t-98.5 -47t-123.5 -17q-169 0 -245 93q-54 66 -54 196q0 54 9 118z" />
<glyph unicode="v" horiz-adv-x="978" d="M84 1024h154l127 -606q14 -66 24 -135.5t19 -137.5h4q27 68 55.5 137.5t60.5 135.5l299 606h166l-512 -1024h-172z" />
<glyph unicode="w" horiz-adv-x="1454" d="M102 1024h146l74 -567q10 -75 14 -147q3 -48 3 -99q0 -25 -1 -51h4q23 78 47.5 148.5t59.5 148.5l245 567h150l88 -567q12 -78 16 -148.5t6 -148.5h4q23 78 45.5 149.5t53.5 147.5l235 567h158l-426 -1024h-158l-92 604q-18 125 -18 260h-4q-20 -66 -42 -131t-51 -129 l-262 -604h-157z" />
<glyph unicode="x" horiz-adv-x="983" d="M-59 0l444 524l-281 500h168l209 -389l316 389h180l-420 -500l297 -524h-170l-223 414l-338 -414h-182z" />
<glyph unicode="y" horiz-adv-x="989" d="M-109 -397l41 129q29 -10 62 -17.5t76 -7.5q39 0 67.5 9.5t53 30t46 53t44.5 79.5l55 111l-250 1034h154l139 -610q16 -70 27.5 -137.5t19.5 -133.5h4q25 68 55.5 139.5t63.5 137.5l293 604h162l-584 -1192q-63 -129 -140 -195.5t-204 -66.5q-66 0 -111 10t-74 23z" />
<glyph unicode="z" horiz-adv-x="903" d="M-14 0l16 117l655 778l-528 -2l18 131h703l-16 -119l-656 -778l561 4l-18 -131h-735z" />
<glyph unicode="{" horiz-adv-x="532" d="M68 -104q0 72 19 128t42 108t42 104.5t19 117.5q0 25 -5 49.5t-18 46t-37 37t-58 21.5l16 119q92 16 133 80.5t41 162.5q0 66 -10 130.5t-10 129.5q0 180 90 257t270 77l-18 -135q-92 0 -142.5 -48t-50.5 -151q0 -61 8.5 -125.5t8.5 -123.5q0 -57 -14.5 -107.5t-38 -90.5 t-54.5 -69.5t-63 -44.5v-4q41 -23 68.5 -81t27.5 -136q0 -59 -18.5 -113.5t-40 -105.5t-39 -101.5t-17.5 -101.5q0 -121 152 -121l-21 -135q-137 0 -209.5 51.5t-72.5 174.5z" />
<glyph unicode="|" horiz-adv-x="524" d="M188 -315v1765h150v-1765h-150z" />
<glyph unicode="}" horiz-adv-x="532" d="M-100 -330l18 135q94 0 143.5 47.5t49.5 149.5q0 61 -8.5 126t-8.5 124q0 57 14.5 107.5t38 91.5t54 69.5t63.5 44.5l2 4q-43 23 -69.5 81.5t-26.5 133.5q0 61 17.5 115.5t39 106t39 100.5t17.5 102q0 57 -38 89t-112 32l19 135q139 0 210.5 -52t71.5 -175 q0 -72 -19.5 -128t-43 -107.5t-43 -103.5t-19.5 -116q0 -25 5 -49t19.5 -45.5t38 -38t60.5 -22.5l-18 -119q-59 -10 -94 -38t-53.5 -62.5t-23.5 -73.5t-5 -70q0 -68 11 -133t11 -131q0 -178 -90 -254t-270 -76z" />
<glyph unicode="~" horiz-adv-x="999" d="M68 582q25 37 57.5 74.5t69 66.5t77.5 47t84 18q55 0 94 -23.5t71 -51t62.5 -50t67.5 -22.5q68 0 112 42t79 95l84 -67q-25 -37 -56.5 -75t-68.5 -67.5t-78 -48t-84 -18.5q-55 0 -94 23.5t-71 51t-62.5 51t-69.5 23.5q-68 0 -112 -42t-78 -95z" />
<glyph unicode="&#xa1;" horiz-adv-x="509" d="M18 -408l177 1067h118l-123 -1067h-172zM188 922q0 41 25 78.5t94 37.5q51 0 70.5 -24.5t19.5 -59.5q0 -41 -24 -78.5t-94 -37.5q-51 0 -71 25.5t-20 58.5z" />
<glyph unicode="&#xa2;" horiz-adv-x="1175" d="M160 403q0 119 28.5 227.5t89 194.5t154.5 142.5t227 70.5l31 211h150l-31 -211q72 -8 134.5 -26.5t103.5 -42.5l-52 -121q-53 29 -126.5 45t-153.5 16q-106 0 -183 -41t-126.5 -109.5t-73 -159.5t-23.5 -191q0 -141 71 -218t226 -77q84 0 166 20.5t146 52.5l14 -123 q-47 -27 -119 -48t-151 -29l-29 -211h-150l29 211q-182 16 -267 128.5t-85 288.5z" />
<glyph unicode="&#xa3;" horiz-adv-x="1175" d="M8 0l17 123q51 14 102 46t92 81t66.5 115.5t25.5 150.5q0 31 -3 68t-9 65h-199l19 142h145q-8 47 -17 96t-9 104q0 100 30.5 184.5t93 145.5t157.5 96t226 35q94 0 177.5 -19.5t142.5 -48.5l-45 -143q-70 33 -130.5 45t-141.5 12q-100 0 -168 -25.5t-109 -68.5 t-58.5 -100t-17.5 -121q0 -53 8.5 -102.5t18.5 -89.5h401l-18 -142h-348q4 -29 7 -65.5t3 -69.5q0 -76 -18.5 -135.5t-48 -103.5t-66.5 -76.5t-72 -55.5h432q78 0 119 32t51 106l10 79h152l-10 -79q-18 -145 -98 -213t-236 -68h-674z" />
<glyph unicode="&#xa4;" horiz-adv-x="1044" d="M39 236l123 114q-16 35 -29.5 87t-13.5 106q0 84 18.5 175t77.5 169l-88 117l106 102l89 -121q98 57 241 57q145 0 225 -57l125 121l78 -102l-121 -117q16 -35 28.5 -84t12.5 -98q0 -104 -24.5 -194.5t-73.5 -160.5l90 -114l-106 -103l-90 121q-47 -27 -108.5 -42 t-133.5 -15t-128 15t-97 42l-123 -121zM250 551q0 -106 50 -169t173 -63q90 0 149.5 30t94.5 80t48 116.5t13 142.5q0 106 -50 170t-171 64q-92 0 -151.5 -30t-94.5 -81t-48 -118.5t-13 -141.5z" />
<glyph unicode="&#xa5;" horiz-adv-x="1175" d="M96 315l19 131h364l17 115h-365l19 131h292l-297 742h168l174 -463q29 -72 53.5 -143.5t41.5 -139.5h8q35 68 81 139.5t93 143.5l305 463h178l-508 -742h295l-18 -131h-365l-16 -115h364l-18 -131h-365l-45 -315h-155l45 315h-365z" />
<glyph unicode="&#xa6;" horiz-adv-x="526" d="M188 -315v739h150v-739h-150zM188 709v741h150v-741h-150z" />
<glyph unicode="&#xa7;" horiz-adv-x="1175" d="M39 -66h145q-16 -127 64 -178t217 -51q152 0 233.5 54.5t81.5 181.5q0 47 -21.5 82.5t-57 63.5t-84 49.5t-99.5 37.5q-72 23 -137.5 51.5t-116.5 70.5t-81.5 98.5t-30.5 131.5q0 113 65.5 193t157.5 123q-41 31 -82 91t-41 152q0 186 114.5 276.5t335.5 90.5 q94 0 171 -18.5t128.5 -59.5t74 -107.5t9.5 -162.5h-147q8 63 -4 104t-44 64.5t-80 33t-110 9.5q-162 0 -231.5 -58.5t-69.5 -162.5q0 -49 21.5 -83t56.5 -59.5t77 -45t83 -36.5q68 -29 131 -59.5t112.5 -71.5t79 -96t29.5 -131q0 -59 -19.5 -107.5t-50 -86t-69.5 -65.5 t-78 -44q74 -39 116 -98.5t42 -151.5q0 -109 -33 -182.5t-93.5 -118.5t-147.5 -65.5t-195 -20.5q-100 0 -183 19.5t-141.5 62.5t-85 111.5t-12.5 168.5zM301 545q0 -94 93 -152.5t257 -107.5q76 16 132.5 69.5t56.5 139.5q0 59 -37 104t-91.5 78t-112.5 54.5t-101 33.5 q-37 -8 -73 -27.5t-63.5 -49.5t-44 -65.5t-16.5 -76.5z" />
<glyph unicode="&#xa8;" horiz-adv-x="626" d="M109 1227q0 18 5 38.5t17 37t34.5 26.5t57.5 10q51 0 69.5 -24.5t18.5 -54.5q0 -20 -5 -41t-17.5 -37.5t-35 -26.5t-56.5 -10q-51 0 -69.5 23.5t-18.5 58.5zM477 1227q0 18 5 38.5t17.5 37t35 26.5t57.5 10q51 0 69.5 -24.5t18.5 -54.5q0 -20 -5 -41t-17.5 -37.5 t-35 -26.5t-57.5 -10q-51 0 -69.5 23.5t-18.5 58.5z" />
<glyph unicode="&#xa9;" horiz-adv-x="1622" d="M113 598q0 180 49 337t147.5 271.5t249 180t352.5 65.5q154 0 269.5 -46t191.5 -129t114 -196.5t38 -249.5q0 -182 -49.5 -336.5t-148.5 -269t-248.5 -179t-350.5 -64.5q-154 0 -269.5 46t-192.5 128t-114.5 195.5t-37.5 246.5zM244 606q0 -115 29.5 -208t89 -159.5 t151.5 -103.5t217 -37q166 0 290 55.5t207 154t124 231.5t41 288q0 113 -30 206t-90.5 160t-151.5 103.5t-216 36.5q-166 0 -289.5 -55t-206.5 -152.5t-124 -230.5t-41 -289zM457 641q0 98 24.5 189.5t78.5 162t140 112.5t209 42q70 0 140.5 -16.5t117.5 -40.5l-45 -127 q-45 23 -98 35t-119 12q-84 0 -141 -29t-91 -78t-48.5 -115.5t-14.5 -142.5q0 -104 52.5 -163.5t187.5 -59.5q53 0 108.5 15.5t104.5 37.5l8 -127q-49 -27 -114.5 -45t-141.5 -18q-184 0 -271 91t-87 265z" />
<glyph unicode="&#xaa;" horiz-adv-x="737" d="M129 1040q0 98 23.5 174t66.5 126.5t101.5 77t125.5 26.5q63 0 103.5 -25.5t58.5 -66.5l23 82h119l-93 -662h-129l15 117q-27 -51 -76 -90t-107 -39q-96 0 -163.5 67.5t-67.5 212.5zM262 1042q0 -78 28.5 -120.5t88.5 -42.5q59 0 116.5 45t73.5 153l15 101 q6 49 -6.5 78.5t-33 47t-45 23.5t-38.5 6q-92 0 -145.5 -82t-53.5 -209z" />
<glyph unicode="&#xab;" horiz-adv-x="962" d="M76 678l297 391h170l-301 -391l190 -389h-170zM420 678l297 391h170l-301 -391l190 -389h-170z" />
<glyph unicode="&#xac;" horiz-adv-x="925" d="M68 645l20 146h762l-72 -506h-157l51 360h-604z" />
<glyph unicode="&#xad;" horiz-adv-x="720" d="M51 598l21 147h598l-21 -147h-598z" />
<glyph unicode="&#xae;" horiz-adv-x="1142" d="M113 831q0 143 34.5 258t104.5 195t175.5 123t244.5 43q211 0 320.5 -111.5t109.5 -316.5q0 -143 -35 -258t-105.5 -195t-175 -123t-245.5 -43q-211 0 -319.5 112t-108.5 316zM221 831q0 -162 76 -245.5t250 -83.5q125 0 211 36.5t138 105.5t74.5 165t22.5 215 q0 160 -75.5 244t-249.5 84q-127 0 -212 -37t-137.5 -104.5t-75 -164t-22.5 -215.5zM393 666l78 544h207q90 0 130 -40t40 -117q0 -74 -36 -118t-87 -61l84 -208h-117l-71 190h-84l-29 -190h-115zM549 954h96q41 0 64.5 21.5t23.5 75.5q0 59 -63 59h-99z" />
<glyph unicode="&#xaf;" horiz-adv-x="626" d="M252 1159l18 125h570l-19 -125h-569z" />
<glyph unicode="&#xb0;" horiz-adv-x="749" d="M162 1114q0 156 83 244t230 88q117 0 183.5 -67.5t66.5 -180.5q0 -154 -82 -243t-233 -89q-117 0 -182.5 67.5t-65.5 180.5zM274 1120q0 -70 36 -109.5t108 -39.5q98 0 146 60.5t48 160.5q0 70 -35.5 109.5t-107.5 39.5q-98 0 -146.5 -60.5t-48.5 -160.5z" />
<glyph unicode="&#xb1;" horiz-adv-x="942" d="M-31 0l19 135h815l-19 -135h-815zM59 643l21 145h330l57 404h156l-58 -404h330l-21 -145h-329l-58 -403h-155l57 403h-330z" />
<glyph unicode="&#xb2;" horiz-adv-x="581" d="M70 774l14 105l244 211q53 47 90 85.5t37 90.5q0 63 -90 63q-49 0 -96.5 -10t-90.5 -27l-10 107q47 20 102.5 33.5t112.5 13.5q98 0 150.5 -42t52.5 -132q0 -43 -14.5 -77t-38 -63.5t-54 -56t-65.5 -55.5l-150 -125h289l-16 -121h-467z" />
<glyph unicode="&#xb3;" horiz-adv-x="581" d="M68 795l41 112q35 -20 74.5 -28.5t101.5 -8.5q80 0 111.5 29t31.5 82t-38 65.5t-93 12.5h-80l16 108h115q43 0 75 21.5t32 75.5q0 35 -24 51t-81 16q-41 0 -87 -10t-87 -27l-8 109q41 16 90 28.5t113 12.5q35 0 72.5 -8.5t68.5 -27.5t50.5 -51t19.5 -77q0 -72 -33 -111 t-86 -59q43 -10 68.5 -44t25.5 -89q0 -109 -68.5 -165t-201.5 -56q-84 0 -134.5 10t-84.5 29z" />
<glyph unicode="&#xb4;" horiz-adv-x="626" d="M141 1221l473 219l37 -140l-481 -167z" />
<glyph unicode="&#xb5;" horiz-adv-x="1116" d="M4 -410l201 1434h149l-75 -543q-12 -86 2 -153.5t49 -113.5t87 -69.5t118 -23.5q55 0 96 12t69.5 43t47 81t28.5 124l90 643h150l-92 -659q-29 -207 -124 -295t-257 -88q-70 0 -122 18t-90 48t-61.5 68t-36.5 79h-4l-18 -195l-57 -410h-150z" />
<glyph unicode="&#xb6;" horiz-adv-x="815" d="M121 995q0 109 32.5 191t90 137t133.5 83t160 28h344l-19 -142h-155q-35 0 -50.5 -17.5t-21.5 -55.5l-191 -1362h-153l112 796q-129 16 -205.5 104t-76.5 238z" />
<glyph unicode="&#xb7;" horiz-adv-x="419" d="M90 555q0 41 24.5 79t94.5 38q51 0 70.5 -24.5t19.5 -59.5q0 -41 -24.5 -79t-94.5 -38q-51 0 -70.5 24.5t-19.5 59.5z" />
<glyph unicode="&#xb8;" horiz-adv-x="626" d="M14 -375l35 92q31 -10 59.5 -17t59.5 -7q43 0 67.5 18.5t24.5 55.5q0 25 -15.5 38t-56.5 13h-100l10 71l90 115h101l-62 -100q68 -2 120 -31.5t52 -95.5q0 -57 -19.5 -93t-52 -55.5t-75.5 -27t-90 -7.5q-39 0 -77 8.5t-71 22.5z" />
<glyph unicode="&#xb9;" horiz-adv-x="415" d="M113 1305l202 129h125l-92 -660h-129l72 510l-148 -67z" />
<glyph unicode="&#xba;" horiz-adv-x="747" d="M129 1014q0 76 19.5 152.5t60.5 138t106.5 100.5t157.5 39q125 0 195.5 -65.5t70.5 -188.5q0 -78 -18.5 -155t-60.5 -138t-107.5 -100t-159.5 -39q-123 0 -193.5 66.5t-70.5 189.5zM264 1026q0 -147 137 -147q57 0 96.5 27.5t63 70.5t32.5 96t9 105q0 147 -137 147 q-59 0 -97 -27.5t-61.5 -70.5t-33 -96.5t-9.5 -104.5z" />
<glyph unicode="&#xbb;" horiz-adv-x="962" d="M80 289l301 389l-191 391h170l187 -391l-297 -389h-170zM424 289l301 389l-190 391h170l186 -391l-297 -389h-170z" />
<glyph unicode="&#xbc;" horiz-adv-x="1290" d="M68 0l1009 1434h158l-1012 -1434h-155zM162 1305l200 129h123l-92 -660h-127l72 510l-148 -67zM618 121l15 104l276 439h131l-268 -424h191l28 190h121l-29 -190h88l-16 -119h-88l-16 -121h-121l16 121h-328z" />
<glyph unicode="&#xbd;" horiz-adv-x="1290" d="M68 0l1009 1434h158l-1012 -1434h-155zM162 1305l200 129h123l-92 -660h-127l72 510l-148 -67zM653 0l15 104l243 211q53 47 90 86t37 91q0 63 -90 63q-49 0 -96 -10t-90 -27l-10 107q47 20 102 33.5t113 13.5q98 0 150 -42t52 -132q0 -43 -14 -77t-37.5 -63.5 t-54.5 -56.5t-66 -55l-149 -125h289l-17 -121h-467z" />
<glyph unicode="&#xbe;" horiz-adv-x="1290" d="M68 0l1009 1434h158l-1012 -1434h-155zM84 795l41 112q35 -20 75 -28.5t101 -8.5q80 0 111.5 29t31.5 82t-37.5 65.5t-93.5 12.5h-80l17 108h115q43 0 74.5 21.5t31.5 75.5q0 35 -23.5 51t-80.5 16q-41 0 -87.5 -10t-86.5 -27l-9 109q41 16 90.5 28.5t112.5 12.5 q35 0 73 -8.5t68.5 -27.5t50 -51t19.5 -77q0 -72 -33 -111t-86 -59q43 -10 68.5 -44t25.5 -89q0 -109 -68.5 -165t-201.5 -56q-84 0 -134 10t-85 29zM618 121l15 104l276 439h131l-268 -424h191l28 190h121l-29 -190h88l-16 -119h-88l-16 -121h-121l16 121h-328z" />
<glyph unicode="&#xbf;" horiz-adv-x="987" d="M2 -104q0 88 29.5 155.5t75 121.5t97.5 99t100 89.5t83 90.5t43 103l14 100h154l-14 -100q-10 -68 -45 -124t-82 -106.5t-100.5 -96.5t-97.5 -95t-72.5 -104.5t-28.5 -122.5q0 -184 254 -185q98 0 182 19.5t164 50.5l18 -137q-80 -35 -172 -57.5t-207 -22.5 q-197 0 -296 86t-99 236zM453 922q0 41 25.5 78.5t92.5 37.5q53 0 73 -25.5t20 -58.5q0 -41 -25.5 -78.5t-95.5 -37.5q-51 0 -70.5 24.5t-19.5 59.5z" />
<glyph unicode="&#xc0;" horiz-adv-x="1282" d="M-53 0l715 1434h172l313 -1434h-154l-78 371h-620l-182 -371h-166zM369 512h514l-97 449q-16 78 -27 152.5t-24 160.5h-8q-35 -86 -66.5 -161t-70.5 -152zM537 1710l73 132l410 -220l-49 -79z" />
<glyph unicode="&#xc1;" horiz-adv-x="1282" d="M-53 0l715 1434h172l313 -1434h-154l-78 371h-620l-182 -371h-166zM369 512h514l-97 449q-16 78 -27 152.5t-24 160.5h-8q-35 -86 -66.5 -161t-70.5 -152zM524 1631l473 219l37 -140l-481 -167z" />
<glyph unicode="&#xc2;" horiz-adv-x="1282" d="M-53 0l715 1434h172l313 -1434h-154l-78 371h-620l-182 -371h-166zM369 512h514l-97 449q-16 78 -27 152.5t-24 160.5h-8q-35 -86 -66.5 -161t-70.5 -152zM465 1559l291 285h102l209 -285h-135l-139 147l-179 -147h-149z" />
<glyph unicode="&#xc3;" horiz-adv-x="1282" d="M-53 0l715 1434h172l313 -1434h-154l-78 371h-620l-182 -371h-166zM369 512h514l-97 449q-16 78 -27 152.5t-24 160.5h-8q-35 -86 -66.5 -161t-70.5 -152zM451 1561q23 129 80 201.5t147 72.5q41 0 71.5 -21.5t56 -48t48.5 -48t49 -21.5q35 0 62.5 35t37.5 98h115 q-23 -129 -79 -200.5t-144 -71.5q-41 0 -72.5 21.5t-59.5 48t-51.5 48t-45.5 21.5q-35 0 -61.5 -36t-39.5 -99h-114z" />
<glyph unicode="&#xc4;" horiz-adv-x="1282" d="M-53 0l715 1434h172l313 -1434h-154l-78 371h-620l-182 -371h-166zM369 512h514l-97 449q-16 78 -27 152.5t-24 160.5h-8q-35 -86 -66.5 -161t-70.5 -152zM494 1637q0 18 5 38.5t17 37t34.5 26.5t57.5 10q51 0 69.5 -24.5t18.5 -54.5q0 -20 -5 -41t-17.5 -37.5t-35 -26.5 t-56.5 -10q-51 0 -69.5 23.5t-18.5 58.5zM862 1637q0 18 5 38.5t17.5 37t35 26.5t57.5 10q51 0 69.5 -24.5t18.5 -54.5q0 -20 -5 -41t-17.5 -37.5t-35 -26.5t-57.5 -10q-51 0 -69.5 23.5t-18.5 58.5z" />
<glyph unicode="&#xc5;" horiz-adv-x="1282" d="M-53 0l680 1364q-63 39 -64 135q0 119 63 174.5t165 55.5q80 0 126 -38t46 -122q0 -82 -30 -133.5t-83 -75.5l297 -1360h-154l-78 371h-620l-182 -371h-166zM369 512h514l-97 449q-16 78 -27 152.5t-24 160.5h-8q-35 -86 -66.5 -161t-70.5 -152zM672 1513q0 -78 78 -77 q104 0 104 118q0 76 -78 76q-104 0 -104 -117z" />
<glyph unicode="&#xc6;" horiz-adv-x="1757" d="M-82 0l1036 1434h791l-21 -150h-604l-69 -493h579l-20 -150h-580l-69 -494h620l-20 -147h-777l47 340h-493l-242 -340h-178zM446 483h406l109 768h-9q-35 -68 -76.5 -144.5t-76.5 -127.5z" />
<glyph unicode="&#xc7;" horiz-adv-x="1181" d="M102 543q0 109 16.5 218t52.5 210.5t92 188.5t135 152.5t183.5 102.5t237.5 37q111 0 203 -22.5t162 -59.5l-56 -141q-72 35 -148.5 54.5t-160.5 19.5q-156 0 -262 -68t-172 -176.5t-94.5 -243.5t-28.5 -272q0 -195 85 -303.5t284 -108.5q104 0 190 19.5t170 56.5 l19 -137q-76 -35 -165 -58.5t-183 -27.5l-48 -80q68 -2 120 -31.5t52 -95.5q0 -57 -19 -93t-52 -55.5t-76 -27t-90 -7.5q-39 0 -77 8.5t-71 22.5l35 92q31 -10 59.5 -17t59.5 -7q43 0 67.5 18.5t24.5 55.5q0 25 -15.5 38t-56.5 13h-100l10 71l74 95q-244 18 -350.5 163.5 t-106.5 395.5z" />
<glyph unicode="&#xc8;" horiz-adv-x="1126" d="M80 0l201 1434h831l-20 -150h-676l-70 -493h653l-20 -150h-653l-70 -494h692l-20 -147h-848zM510 1710l73 132l410 -220l-49 -79z" />
<glyph unicode="&#xc9;" horiz-adv-x="1126" d="M80 0l201 1434h831l-20 -150h-676l-70 -493h653l-20 -150h-653l-70 -494h692l-20 -147h-848zM497 1631l473 219l37 -140l-481 -167z" />
<glyph unicode="&#xca;" horiz-adv-x="1126" d="M80 0l201 1434h831l-20 -150h-676l-70 -493h653l-20 -150h-653l-70 -494h692l-20 -147h-848zM418 1559l291 285h102l209 -285h-135l-139 147l-179 -147h-149z" />
<glyph unicode="&#xcb;" horiz-adv-x="1126" d="M80 0l201 1434h831l-20 -150h-676l-70 -493h653l-20 -150h-653l-70 -494h692l-20 -147h-848zM433 1637q0 18 5 38.5t17 37t34.5 26.5t57.5 10q51 0 69.5 -24.5t18.5 -54.5q0 -20 -5 -41t-17.5 -37.5t-35 -26.5t-56.5 -10q-51 0 -69.5 23.5t-18.5 58.5zM801 1637 q0 18 5 38.5t17.5 37t35 26.5t57.5 10q51 0 69.5 -24.5t18.5 -54.5q0 -20 -5 -41t-17.5 -37.5t-35 -26.5t-57.5 -10q-51 0 -69.5 23.5t-18.5 58.5z" />
<glyph unicode="&#xcc;" horiz-adv-x="509" d="M84 0l201 1434h153l-200 -1434h-154zM152 1710l73 132l410 -220l-49 -79z" />
<glyph unicode="&#xcd;" horiz-adv-x="509" d="M84 0l201 1434h153l-200 -1434h-154zM141 1631l473 219l37 -140l-481 -167z" />
<glyph unicode="&#xce;" horiz-adv-x="509" d="M80 1559l291 285h102l209 -285h-135l-139 147l-179 -147h-149zM84 0l201 1434h153l-200 -1434h-154z" />
<glyph unicode="&#xcf;" horiz-adv-x="509" d="M84 0l201 1434h153l-200 -1434h-154zM109 1637q0 18 5 38.5t17 37t34.5 26.5t57.5 10q51 0 69.5 -24.5t18.5 -54.5q0 -20 -5 -41t-17.5 -37.5t-35 -26.5t-56.5 -10q-51 0 -69.5 23.5t-18.5 58.5zM477 1637q0 18 5 38.5t17.5 37t35 26.5t57.5 10q51 0 69.5 -24.5 t18.5 -54.5q0 -20 -5 -41t-17.5 -37.5t-35 -26.5t-57.5 -10q-51 0 -69.5 23.5t-18.5 58.5z" />
<glyph unicode="&#xd0;" horiz-adv-x="1345" d="M14 618l21 148h151l95 668h477q133 0 227 -36t154.5 -102.5t88 -160t27.5 -209.5q0 -180 -31.5 -347t-110.5 -296t-213 -206t-337 -77h-483l86 618h-152zM258 147h326q147 0 245.5 64.5t158 172.5t85 247t25.5 289q0 178 -78 271t-272 93h-330l-74 -518h334l-21 -148 h-333z" />
<glyph unicode="&#xd1;" horiz-adv-x="1402" d="M80 0l201 1434h163l447 -920q37 -76 69.5 -153.5t55.5 -145.5h4q8 86 16 168t23 182l123 869h153l-200 -1434h-164l-447 920q-37 76 -69.5 153.5t-53.5 145.5h-4q-8 -86 -16 -168t-23 -183l-122 -868h-156zM510 1561q23 129 80 201.5t147 72.5q41 0 71.5 -21.5t56 -48 t48.5 -48t49 -21.5q35 0 62.5 35t37.5 98h115q-23 -129 -79 -200.5t-144 -71.5q-41 0 -72.5 21.5t-59.5 48t-51.5 48t-45.5 21.5q-35 0 -61.5 -36t-39.5 -99h-114z" />
<glyph unicode="&#xd2;" horiz-adv-x="1368" d="M102 514q0 102 13.5 213t44 214t81 196.5t125 163t176 110.5t234.5 41q256 0 379 -140.5t123 -391.5q0 -104 -13.5 -214t-44 -213.5t-80.5 -196.5t-125 -163t-176.5 -110.5t-234.5 -40.5q-256 0 -379 139t-123 393zM260 520q0 -193 80 -292t268 -99q154 0 253.5 73.5 t156.5 189.5t79.5 254t22.5 267q0 193 -79.5 292.5t-268.5 99.5q-154 0 -253 -74t-156.5 -189.5t-80 -254t-22.5 -267.5zM580 1710l73 132l410 -220l-49 -79z" />
<glyph unicode="&#xd3;" horiz-adv-x="1368" d="M102 514q0 102 13.5 213t44 214t81 196.5t125 163t176 110.5t234.5 41q256 0 379 -140.5t123 -391.5q0 -104 -13.5 -214t-44 -213.5t-80.5 -196.5t-125 -163t-176.5 -110.5t-234.5 -40.5q-256 0 -379 139t-123 393zM260 520q0 -193 80 -292t268 -99q154 0 253.5 73.5 t156.5 189.5t79.5 254t22.5 267q0 193 -79.5 292.5t-268.5 99.5q-154 0 -253 -74t-156.5 -189.5t-80 -254t-22.5 -267.5zM569 1631l473 219l37 -140l-481 -167z" />
<glyph unicode="&#xd4;" horiz-adv-x="1368" d="M102 514q0 102 13.5 213t44 214t81 196.5t125 163t176 110.5t234.5 41q256 0 379 -140.5t123 -391.5q0 -104 -13.5 -214t-44 -213.5t-80.5 -196.5t-125 -163t-176.5 -110.5t-234.5 -40.5q-256 0 -379 139t-123 393zM260 520q0 -193 80 -292t268 -99q154 0 253.5 73.5 t156.5 189.5t79.5 254t22.5 267q0 193 -79.5 292.5t-268.5 99.5q-154 0 -253 -74t-156.5 -189.5t-80 -254t-22.5 -267.5zM508 1559l291 285h102l209 -285h-135l-139 147l-179 -147h-149z" />
<glyph unicode="&#xd5;" horiz-adv-x="1370" d="M102 514q0 102 13.5 213t44 214t81 196.5t125 163t176 110.5t234.5 41q256 0 379 -140.5t123 -391.5q0 -104 -13.5 -214t-44 -213.5t-80.5 -196.5t-125 -163t-176.5 -110.5t-234.5 -40.5q-256 0 -379 139t-123 393zM260 520q0 -193 80 -292t268 -99q154 0 253.5 73.5 t156.5 189.5t79.5 254t22.5 267q0 193 -79.5 292.5t-268.5 99.5q-154 0 -253 -74t-156.5 -189.5t-80 -254t-22.5 -267.5zM494 1561q23 129 80 201.5t147 72.5q41 0 71.5 -21.5t56 -48t48.5 -48t49 -21.5q35 0 62.5 35t37.5 98h115q-23 -129 -79 -200.5t-144 -71.5 q-41 0 -72.5 21.5t-59.5 48t-51.5 48t-45.5 21.5q-35 0 -61.5 -36t-39.5 -99h-114z" />
<glyph unicode="&#xd6;" horiz-adv-x="1368" d="M102 514q0 102 13.5 213t44 214t81 196.5t125 163t176 110.5t234.5 41q256 0 379 -140.5t123 -391.5q0 -104 -13.5 -214t-44 -213.5t-80.5 -196.5t-125 -163t-176.5 -110.5t-234.5 -40.5q-256 0 -379 139t-123 393zM260 520q0 -193 80 -292t268 -99q154 0 253.5 73.5 t156.5 189.5t79.5 254t22.5 267q0 193 -79.5 292.5t-268.5 99.5q-154 0 -253 -74t-156.5 -189.5t-80 -254t-22.5 -267.5zM537 1637q0 18 5 38.5t17 37t34.5 26.5t57.5 10q51 0 69.5 -24.5t18.5 -54.5q0 -20 -5 -41t-17.5 -37.5t-35 -26.5t-56.5 -10q-51 0 -69.5 23.5 t-18.5 58.5zM905 1637q0 18 5 38.5t17.5 37t35 26.5t57.5 10q51 0 69.5 -24.5t18.5 -54.5q0 -20 -5 -41t-17.5 -37.5t-35 -26.5t-57.5 -10q-51 0 -69.5 23.5t-18.5 58.5z" />
<glyph unicode="&#xd7;" horiz-adv-x="942" d="M53 332l316 319l-226 318l117 106l219 -309l305 309l101 -106l-316 -318l226 -319l-117 -107l-219 310l-305 -310z" />
<glyph unicode="&#xd8;" horiz-adv-x="1368" d="M53 -61l152 206q-102 133 -103 369q0 102 13.5 213t44 214t81 196.5t125 163t176 110.5t234.5 41q102 0 183 -23.5t141 -68.5l86 115h153l-151 -207q90 -133 90 -348q0 -104 -13.5 -214t-44 -213.5t-80.5 -196.5t-125 -163t-176.5 -110.5t-234.5 -40.5q-188 0 -307 77 l-90 -120h-154zM260 520q0 -150 45 -239l703 954q-86 70 -236 70q-154 0 -253 -74t-156.5 -189.5t-80 -254t-22.5 -267.5zM389 184q80 -55 219 -55q154 0 253.5 73.5t156.5 189.5t79.5 254t22.5 267t-37 215z" />
<glyph unicode="&#xd9;" horiz-adv-x="1351" d="M144.5 318.5q-13.5 109.5 7.5 250.5l120 865h156l-121 -861q-16 -113 -11 -195.5t38 -138t97.5 -83t168.5 -27.5t176 27.5t120 83t75.5 138.5t44.5 195l121 861h155l-121 -865q-20 -141 -58 -250.5t-104.5 -184.5t-168 -113.5t-244.5 -38.5t-237.5 38.5t-147.5 113.5 t-66.5 184.5zM572 1710l73 132l410 -220l-49 -79z" />
<glyph unicode="&#xda;" horiz-adv-x="1351" d="M144.5 318.5q-13.5 109.5 7.5 250.5l120 865h156l-121 -861q-16 -113 -11 -195.5t38 -138t97.5 -83t168.5 -27.5t176 27.5t120 83t75.5 138.5t44.5 195l121 861h155l-121 -865q-20 -141 -58 -250.5t-104.5 -184.5t-168 -113.5t-244.5 -38.5t-237.5 38.5t-147.5 113.5 t-66.5 184.5zM561 1631l473 219l37 -140l-481 -167z" />
<glyph unicode="&#xdb;" horiz-adv-x="1351" d="M144.5 318.5q-13.5 109.5 7.5 250.5l120 865h156l-121 -861q-16 -113 -11 -195.5t38 -138t97.5 -83t168.5 -27.5t176 27.5t120 83t75.5 138.5t44.5 195l121 861h155l-121 -865q-20 -141 -58 -250.5t-104.5 -184.5t-168 -113.5t-244.5 -38.5t-237.5 38.5t-147.5 113.5 t-66.5 184.5zM500 1559l291 285h102l209 -285h-135l-139 147l-179 -147h-149z" />
<glyph unicode="&#xdc;" horiz-adv-x="1351" d="M144.5 318.5q-13.5 109.5 7.5 250.5l120 865h156l-121 -861q-16 -113 -11 -195.5t38 -138t97.5 -83t168.5 -27.5t176 27.5t120 83t75.5 138.5t44.5 195l121 861h155l-121 -865q-20 -141 -58 -250.5t-104.5 -184.5t-168 -113.5t-244.5 -38.5t-237.5 38.5t-147.5 113.5 t-66.5 184.5zM529 1637q0 18 5 38.5t17 37t34.5 26.5t57.5 10q51 0 69.5 -24.5t18.5 -54.5q0 -20 -5 -41t-17.5 -37.5t-35 -26.5t-56.5 -10q-51 0 -69.5 23.5t-18.5 58.5zM897 1637q0 18 5 38.5t17.5 37t35 26.5t57.5 10q51 0 69.5 -24.5t18.5 -54.5q0 -20 -5 -41 t-17.5 -37.5t-35 -26.5t-57.5 -10q-51 0 -69.5 23.5t-18.5 58.5z" />
<glyph unicode="&#xdd;" horiz-adv-x="1218" d="M135 1434h170l189 -445q29 -68 58.5 -144.5t51.5 -142.5h6q41 66 92.5 143t98.5 144l313 445h182l-622 -863l-80 -571h-158l80 571zM493 1631l473 219l37 -140l-481 -167z" />
<glyph unicode="&#xde;" horiz-adv-x="1191" d="M80 0l201 1434h155l-39 -285h312q197 0 301 -83t104 -282q0 -264 -124 -384.5t-380 -120.5h-334l-38 -279h-158zM295 426h319q98 0 165 21.5t106 66.5t55 111.5t16 158.5q0 119 -60 168t-196 49h-323z" />
<glyph unicode="&#xdf;" horiz-adv-x="1267" d="M63 0l134 948q33 244 162.5 374t383.5 130q201 0 306.5 -94t105.5 -246q0 -80 -20.5 -138.5t-52 -100.5t-72.5 -68.5t-82 -42.5v-4q94 -29 147 -106t53 -203q0 -129 -34.5 -218.5t-97 -144.5t-149.5 -79.5t-192 -24.5q-94 0 -174 14t-139 43l49 127q59 -25 123.5 -40 t144.5 -15q147 0 233.5 80.5t86.5 263.5q0 123 -69.5 181t-209.5 58h-182l19 131h192q129 0 204 70t75 211q0 96 -64.5 152.5t-204.5 56.5q-96 0 -164.5 -25.5t-115.5 -74t-74 -117t-39 -152.5l-133 -946h-150z" />
<glyph unicode="&#xe0;" d="M70 401q0 143 34.5 261t99 202t155 131t200.5 47q63 0 113.5 -17t87.5 -47t62.5 -68t39.5 -79h4l31 193h137l-143 -1024h-141l20 195h-4q-23 -39 -53.5 -77t-71.5 -69t-93 -49t-118 -18q-164 0 -262 102t-98 317zM221 420q0 -164 57.5 -232.5t172.5 -68.5 q63 0 122.5 26.5t108.5 72.5t82 108.5t43 132.5l18 133q8 61 -7 117.5t-50 99.5t-85 68.5t-112 25.5q-88 0 -153.5 -34.5t-109.5 -99t-65.5 -154t-21.5 -195.5zM408 1300l73 132l410 -220l-49 -79z" />
<glyph unicode="&#xe1;" d="M70 401q0 143 34.5 261t99 202t155 131t200.5 47q63 0 113.5 -17t87.5 -47t62.5 -68t39.5 -79h4l31 193h137l-143 -1024h-141l20 195h-4q-23 -39 -53.5 -77t-71.5 -69t-93 -49t-118 -18q-164 0 -262 102t-98 317zM221 420q0 -164 57.5 -232.5t172.5 -68.5 q63 0 122.5 26.5t108.5 72.5t82 108.5t43 132.5l18 133q8 61 -7 117.5t-50 99.5t-85 68.5t-112 25.5q-88 0 -153.5 -34.5t-109.5 -99t-65.5 -154t-21.5 -195.5zM397 1221l473 219l37 -140l-481 -167z" />
<glyph unicode="&#xe2;" d="M70 401q0 143 34.5 261t99 202t155 131t200.5 47q63 0 113.5 -17t87.5 -47t62.5 -68t39.5 -79h4l31 193h137l-143 -1024h-141l20 195h-4q-23 -39 -53.5 -77t-71.5 -69t-93 -49t-118 -18q-164 0 -262 102t-98 317zM221 420q0 -164 57.5 -232.5t172.5 -68.5 q63 0 122.5 26.5t108.5 72.5t82 108.5t43 132.5l18 133q8 61 -7 117.5t-50 99.5t-85 68.5t-112 25.5q-88 0 -153.5 -34.5t-109.5 -99t-65.5 -154t-21.5 -195.5zM336 1149l291 285h102l209 -285h-135l-139 147l-179 -147h-149z" />
<glyph unicode="&#xe3;" d="M70 401q0 143 34.5 261t99 202t155 131t200.5 47q63 0 113.5 -17t87.5 -47t62.5 -68t39.5 -79h4l31 193h137l-143 -1024h-141l20 195h-4q-23 -39 -53.5 -77t-71.5 -69t-93 -49t-118 -18q-164 0 -262 102t-98 317zM221 420q0 -164 57.5 -232.5t172.5 -68.5 q63 0 122.5 26.5t108.5 72.5t82 108.5t43 132.5l18 133q8 61 -7 117.5t-50 99.5t-85 68.5t-112 25.5q-88 0 -153.5 -34.5t-109.5 -99t-65.5 -154t-21.5 -195.5zM324 1151q23 129 80 201.5t147 72.5q41 0 71.5 -21.5t56 -48t48.5 -48t49 -21.5q35 0 62.5 35t37.5 98h115 q-23 -129 -79 -200.5t-144 -71.5q-41 0 -72.5 21.5t-59.5 48t-51.5 48t-45.5 21.5q-35 0 -61.5 -36t-39.5 -99h-114z" />
<glyph unicode="&#xe4;" d="M70 401q0 143 34.5 261t99 202t155 131t200.5 47q63 0 113.5 -17t87.5 -47t62.5 -68t39.5 -79h4l31 193h137l-143 -1024h-141l20 195h-4q-23 -39 -53.5 -77t-71.5 -69t-93 -49t-118 -18q-164 0 -262 102t-98 317zM221 420q0 -164 57.5 -232.5t172.5 -68.5 q63 0 122.5 26.5t108.5 72.5t82 108.5t43 132.5l18 133q8 61 -7 117.5t-50 99.5t-85 68.5t-112 25.5q-88 0 -153.5 -34.5t-109.5 -99t-65.5 -154t-21.5 -195.5zM365 1227q0 18 5 38.5t17 37t34.5 26.5t57.5 10q51 0 69.5 -24.5t18.5 -54.5q0 -20 -5 -41t-17.5 -37.5 t-35 -26.5t-56.5 -10q-51 0 -69.5 23.5t-18.5 58.5zM733 1227q0 18 5 38.5t17.5 37t35 26.5t57.5 10q51 0 69.5 -24.5t18.5 -54.5q0 -20 -5 -41t-17.5 -37.5t-35 -26.5t-57.5 -10q-51 0 -69.5 23.5t-18.5 58.5z" />
<glyph unicode="&#xe5;" d="M70 401q0 143 34.5 261t99 202t155 131t200.5 47q63 0 113.5 -17t87.5 -47t62.5 -68t39.5 -79h4l31 193h137l-143 -1024h-141l20 195h-4q-23 -39 -53.5 -77t-71.5 -69t-93 -49t-118 -18q-164 0 -262 102t-98 317zM221 420q0 -164 57.5 -232.5t172.5 -68.5 q63 0 122.5 26.5t108.5 72.5t82 108.5t43 132.5l18 133q8 61 -7 117.5t-50 99.5t-85 68.5t-112 25.5q-88 0 -153.5 -34.5t-109.5 -99t-65.5 -154t-21.5 -195.5zM465 1317q0 119 62.5 174t164.5 55q80 0 126 -38t46 -122q0 -119 -62.5 -175t-164.5 -56q-78 0 -125 38t-47 124 zM573 1331q0 -78 78 -78q104 0 105 119q0 76 -78 76q-104 0 -105 -117z" />
<glyph unicode="&#xe6;" horiz-adv-x="1732" d="M68.5 262q-9.5 82 3.5 172l18 137h688l6 45q16 129 -50 211t-224 82q-92 0 -167 -21.5t-140 -56.5l-15 121q59 35 141.5 61.5t188.5 26.5q150 0 237 -62.5t111 -170.5h4q53 104 153.5 169.5t244.5 65.5q113 0 185.5 -37.5t112.5 -101t50 -146.5t-2 -173l-19 -135h-688 q-10 -74 -1 -136.5t40 -106.5t87.5 -69.5t140.5 -25.5q90 0 166.5 22.5t142.5 56.5l12 -122q-59 -35 -139 -60.5t-176 -25.5q-162 0 -251 63.5t-112 163.5h-4q-47 -96 -150.5 -161.5t-244.5 -65.5q-115 0 -187.5 36.5t-112.5 99t-49.5 144.5zM207 294q4 -56 26.5 -97 t68.5 -63.5t124 -22.5q72 0 133.5 24.5t107.5 69.5t74.5 107.5t34.5 136.5h-561l-4 -33q-8 -66 -4 -122zM924 571h544l5 23q12 68 9 126t-25.5 100t-71 66.5t-128.5 24.5q-84 0 -142 -23.5t-97 -68.5t-61.5 -107.5t-32.5 -140.5z" />
<glyph unicode="&#xe7;" horiz-adv-x="942" d="M68 414q0 117 29.5 229.5t94 201.5t166 143t246.5 54q92 0 167 -19t122 -48l-49 -121q-53 29 -115.5 42t-124.5 13q-113 0 -187.5 -43t-118.5 -113.5t-62.5 -158.5t-18.5 -180q0 -141 61.5 -221t202.5 -80q78 0 148.5 18.5t134.5 48.5l16 -121q-53 -31 -124.5 -51 t-145.5 -24l-47 -80q68 -2 120 -31.5t52 -95.5q0 -57 -19.5 -93t-52.5 -55.5t-76 -27t-90 -7.5q-39 0 -76.5 8.5t-70.5 22.5l35 92q31 -10 59.5 -17t58.5 -7q43 0 68 18.5t25 55.5q0 25 -15.5 38t-56.5 13h-100l10 71l76 97q-182 18 -262 134t-80 294z" />
<glyph unicode="&#xe8;" horiz-adv-x="1030" d="M68 385q0 117 30.5 234.5t97 212t171 152.5t251.5 58q174 0 258.5 -84t84.5 -225q0 -96 -33 -164.5t-90.5 -112.5t-137.5 -65.5t-174 -21.5q-98 0 -181 16t-136 37q-10 -152 54.5 -231.5t223.5 -79.5q84 0 157 20.5t134 50.5l17 -119q-59 -33 -138 -57t-180 -24 q-209 0 -309 107.5t-100 295.5zM227 537q57 -23 130 -36.5t163 -11.5q66 0 120 10.5t94 36t61.5 72.5t21.5 123q0 33 -10 65.5t-34.5 59.5t-64.5 42t-98 15q-88 0 -153.5 -27.5t-111.5 -77.5t-75 -119.5t-43 -151.5zM353 1300l73 132l410 -220l-49 -79z" />
<glyph unicode="&#xe9;" horiz-adv-x="1030" d="M68 385q0 117 30.5 234.5t97 212t171 152.5t251.5 58q174 0 258.5 -84t84.5 -225q0 -96 -33 -164.5t-90.5 -112.5t-137.5 -65.5t-174 -21.5q-98 0 -181 16t-136 37q-10 -152 54.5 -231.5t223.5 -79.5q84 0 157 20.5t134 50.5l17 -119q-59 -33 -138 -57t-180 -24 q-209 0 -309 107.5t-100 295.5zM227 537q57 -23 130 -36.5t163 -11.5q66 0 120 10.5t94 36t61.5 72.5t21.5 123q0 33 -10 65.5t-34.5 59.5t-64.5 42t-98 15q-88 0 -153.5 -27.5t-111.5 -77.5t-75 -119.5t-43 -151.5zM342 1221l473 219l37 -140l-481 -167z" />
<glyph unicode="&#xea;" horiz-adv-x="1030" d="M68 385q0 117 30.5 234.5t97 212t171 152.5t251.5 58q174 0 258.5 -84t84.5 -225q0 -96 -33 -164.5t-90.5 -112.5t-137.5 -65.5t-174 -21.5q-98 0 -181 16t-136 37q-10 -152 54.5 -231.5t223.5 -79.5q84 0 157 20.5t134 50.5l17 -119q-59 -33 -138 -57t-180 -24 q-209 0 -309 107.5t-100 295.5zM227 537q57 -23 130 -36.5t163 -11.5q66 0 120 10.5t94 36t61.5 72.5t21.5 123q0 33 -10 65.5t-34.5 59.5t-64.5 42t-98 15q-88 0 -153.5 -27.5t-111.5 -77.5t-75 -119.5t-43 -151.5zM281 1149l291 285h102l209 -285h-135l-139 147l-179 -147 h-149z" />
<glyph unicode="&#xeb;" horiz-adv-x="1030" d="M68 385q0 117 30.5 234.5t97 212t171 152.5t251.5 58q174 0 258.5 -84t84.5 -225q0 -96 -33 -164.5t-90.5 -112.5t-137.5 -65.5t-174 -21.5q-98 0 -181 16t-136 37q-10 -152 54.5 -231.5t223.5 -79.5q84 0 157 20.5t134 50.5l17 -119q-59 -33 -138 -57t-180 -24 q-209 0 -309 107.5t-100 295.5zM227 537q57 -23 130 -36.5t163 -11.5q66 0 120 10.5t94 36t61.5 72.5t21.5 123q0 33 -10 65.5t-34.5 59.5t-64.5 42t-98 15q-88 0 -153.5 -27.5t-111.5 -77.5t-75 -119.5t-43 -151.5zM310 1227q0 18 5 38.5t17 37t34.5 26.5t57.5 10 q51 0 69.5 -24.5t18.5 -54.5q0 -20 -5 -41t-17.5 -37.5t-35 -26.5t-56.5 -10q-51 0 -69.5 23.5t-18.5 58.5zM678 1227q0 18 5 38.5t17.5 37t35 26.5t57.5 10q51 0 69.5 -24.5t18.5 -54.5q0 -20 -5 -41t-17.5 -37.5t-35 -26.5t-57.5 -10q-51 0 -69.5 23.5t-18.5 58.5z" />
<glyph unicode="&#xec;" horiz-adv-x="466" d="M63 0l144 1024h149l-143 -1024h-150zM72 1300l73 132l410 -220l-49 -79z" />
<glyph unicode="&#xed;" horiz-adv-x="466" d="M61 1221l473 219l37 -140l-481 -167zM63 0l144 1024h149l-143 -1024h-150z" />
<glyph unicode="&#xee;" horiz-adv-x="466" d="M0 1149l291 285h102l209 -285h-135l-139 147l-179 -147h-149zM63 0l144 1024h149l-143 -1024h-150z" />
<glyph unicode="&#xef;" horiz-adv-x="466" d="M29 1227q0 18 5 38.5t17 37t34.5 26.5t57.5 10q51 0 69.5 -24.5t18.5 -54.5q0 -20 -5 -41t-17.5 -37.5t-35 -26.5t-56.5 -10q-51 0 -69.5 23.5t-18.5 58.5zM63 0l144 1024h149l-143 -1024h-150zM397 1227q0 18 5 38.5t17.5 37t35 26.5t57.5 10q51 0 69.5 -24.5 t18.5 -54.5q0 -20 -5 -41t-17.5 -37.5t-35 -26.5t-57.5 -10q-51 0 -69.5 23.5t-18.5 58.5z" />
<glyph unicode="&#xf0;" horiz-adv-x="1095" d="M63 381q0 119 27 237.5t88.5 213t162.5 152.5t249 58q90 0 155.5 -30.5t114.5 -91.5q-16 61 -46 125.5t-75 121.5l-223 -41l-8 107l145 29q-33 33 -67.5 62.5t-73.5 55.5l106 84q53 -41 99.5 -84t83.5 -90l192 37l4 -108l-123 -25q55 -94 81 -201.5t26 -240.5 q0 -127 -17.5 -263.5t-72.5 -249t-157.5 -185t-272.5 -72.5q-203 0 -300.5 108.5t-97.5 290.5zM219 379q0 -57 13.5 -106.5t42 -84t76.5 -55t116 -20.5q106 0 176 47t111 120.5t57 167t16 185.5q0 129 -58 202.5t-189 73.5q-104 0 -174 -48t-111 -125t-58.5 -171t-17.5 -186 z" />
<glyph unicode="&#xf1;" horiz-adv-x="1153" d="M61 0l144 1024h137l-23 -197h5q45 86 138 150.5t240 64.5q180 0 250 -106.5t39 -319.5l-86 -616h-149l86 618q12 80 9 133.5t-22.5 87t-59.5 48t-103 14.5q-145 0 -250 -93t-129 -267l-76 -541h-150zM328 1151q23 129 80 201.5t147 72.5q41 0 71.5 -21.5t56 -48t48.5 -48 t49 -21.5q35 0 62.5 35t37.5 98h115q-23 -129 -79 -200.5t-144 -71.5q-41 0 -72.5 21.5t-59.5 48t-51.5 48t-45.5 21.5q-35 0 -61.5 -36t-39.5 -99h-114z" />
<glyph unicode="&#xf2;" horiz-adv-x="1089" d="M68 379q0 119 24.5 237.5t85 213t160.5 153.5t252 59q199 0 293 -107.5t94 -293.5q0 -119 -25.5 -236.5t-87 -212t-162 -152.5t-249.5 -58q-197 0 -291 107.5t-94 289.5zM217 383q0 -131 56.5 -200.5t191.5 -69.5q104 0 174 47t112 122.5t59 169t17 183.5 q0 133 -57 203.5t-192 70.5q-104 0 -174 -48t-112 -123.5t-58.5 -169t-16.5 -185.5zM383 1300l73 132l410 -220l-49 -79z" />
<glyph unicode="&#xf3;" horiz-adv-x="1089" d="M68 379q0 119 24.5 237.5t85 213t160.5 153.5t252 59q199 0 293 -107.5t94 -293.5q0 -119 -25.5 -236.5t-87 -212t-162 -152.5t-249.5 -58q-197 0 -291 107.5t-94 289.5zM217 383q0 -131 56.5 -200.5t191.5 -69.5q104 0 174 47t112 122.5t59 169t17 183.5 q0 133 -57 203.5t-192 70.5q-104 0 -174 -48t-112 -123.5t-58.5 -169t-16.5 -185.5zM372 1221l473 219l37 -140l-481 -167z" />
<glyph unicode="&#xf4;" horiz-adv-x="1089" d="M68 379q0 119 24.5 237.5t85 213t160.5 153.5t252 59q199 0 293 -107.5t94 -293.5q0 -119 -25.5 -236.5t-87 -212t-162 -152.5t-249.5 -58q-197 0 -291 107.5t-94 289.5zM217 383q0 -131 56.5 -200.5t191.5 -69.5q104 0 174 47t112 122.5t59 169t17 183.5 q0 133 -57 203.5t-192 70.5q-104 0 -174 -48t-112 -123.5t-58.5 -169t-16.5 -185.5zM311 1149l291 285h102l209 -285h-135l-139 147l-179 -147h-149z" />
<glyph unicode="&#xf5;" horiz-adv-x="1089" d="M68 379q0 119 24.5 237.5t85 213t160.5 153.5t252 59q199 0 293 -107.5t94 -293.5q0 -119 -25.5 -236.5t-87 -212t-162 -152.5t-249.5 -58q-197 0 -291 107.5t-94 289.5zM217 383q0 -131 56.5 -200.5t191.5 -69.5q104 0 174 47t112 122.5t59 169t17 183.5 q0 133 -57 203.5t-192 70.5q-104 0 -174 -48t-112 -123.5t-58.5 -169t-16.5 -185.5zM297 1151q23 129 80 201.5t147 72.5q41 0 71.5 -21.5t56 -48t48.5 -48t49 -21.5q35 0 62.5 35t37.5 98h115q-23 -129 -79 -200.5t-144 -71.5q-41 0 -72.5 21.5t-59.5 48t-51.5 48 t-45.5 21.5q-35 0 -61.5 -36t-39.5 -99h-114z" />
<glyph unicode="&#xf6;" horiz-adv-x="1089" d="M68 379q0 119 24.5 237.5t85 213t160.5 153.5t252 59q199 0 293 -107.5t94 -293.5q0 -119 -25.5 -236.5t-87 -212t-162 -152.5t-249.5 -58q-197 0 -291 107.5t-94 289.5zM217 383q0 -131 56.5 -200.5t191.5 -69.5q104 0 174 47t112 122.5t59 169t17 183.5 q0 133 -57 203.5t-192 70.5q-104 0 -174 -48t-112 -123.5t-58.5 -169t-16.5 -185.5zM340 1227q0 18 5 38.5t17 37t34.5 26.5t57.5 10q51 0 69.5 -24.5t18.5 -54.5q0 -20 -5 -41t-17.5 -37.5t-35 -26.5t-56.5 -10q-51 0 -69.5 23.5t-18.5 58.5zM708 1227q0 18 5 38.5t17.5 37 t35 26.5t57.5 10q51 0 69.5 -24.5t18.5 -54.5q0 -20 -5 -41t-17.5 -37.5t-35 -26.5t-57.5 -10q-51 0 -69.5 23.5t-18.5 58.5z" />
<glyph unicode="&#xf7;" horiz-adv-x="940" d="M59 578l21 147h794l-20 -147h-795zM301 309q0 23 6 47.5t22.5 44t42 32.5t66.5 13q59 0 83 -30.5t24 -67.5q0 -25 -7.5 -49.5t-22.5 -43.5t-43 -32.5t-66 -13.5q-59 0 -82 29.5t-23 70.5zM391 954q0 25 6 49.5t22.5 44t42 33t66.5 13.5q59 0 83 -31t24 -70q0 -25 -7 -48 t-22.5 -43.5t-43 -33t-66.5 -12.5q-59 0 -82 29.5t-23 68.5z" />
<glyph unicode="&#xf8;" horiz-adv-x="1089" d="M33 -61l119 161q-43 51 -63.5 122t-20.5 157q0 119 24.5 237.5t85 213t160.5 153.5t252 59q127 0 217 -51l70 94h137l-121 -163q84 -106 84 -281q0 -119 -25.5 -236.5t-87 -212t-162 -152.5t-249.5 -58q-66 0 -120 13t-97 36l-68 -92h-135zM217 383q0 -47 6 -86t23 -70 l477 650q-59 33 -145 32q-104 0 -174 -48t-112 -123.5t-58.5 -169t-16.5 -185.5zM319 145q54 -32 146 -32q104 0 174 47t112 122.5t59 169t17 183.5q0 100 -28 158z" />
<glyph unicode="&#xf9;" horiz-adv-x="1116" d="M109 389l88 635h151l-90 -639q-23 -150 17 -207t151 -57q66 0 125 23.5t107.5 69.5t81 113.5t44.5 153.5l76 543h150l-144 -1024h-137l23 195h-4q-23 -41 -53.5 -80t-73.5 -69t-98.5 -47t-123.5 -17q-170 0 -245.5 93t-44.5 314zM396 1300l73 132l410 -220l-49 -79z" />
<glyph unicode="&#xfa;" horiz-adv-x="1116" d="M109 389l88 635h151l-90 -639q-23 -150 17 -207t151 -57q66 0 125 23.5t107.5 69.5t81 113.5t44.5 153.5l76 543h150l-144 -1024h-137l23 195h-4q-23 -41 -53.5 -80t-73.5 -69t-98.5 -47t-123.5 -17q-170 0 -245.5 93t-44.5 314zM385 1221l473 219l37 -140l-481 -167z " />
<glyph unicode="&#xfb;" horiz-adv-x="1116" d="M109 389l88 635h151l-90 -639q-23 -150 17 -207t151 -57q66 0 125 23.5t107.5 69.5t81 113.5t44.5 153.5l76 543h150l-144 -1024h-137l23 195h-4q-23 -41 -53.5 -80t-73.5 -69t-98.5 -47t-123.5 -17q-170 0 -245.5 93t-44.5 314zM324 1149l291 285h102l209 -285h-135 l-139 147l-179 -147h-149z" />
<glyph unicode="&#xfc;" horiz-adv-x="1116" d="M109 389l88 635h151l-90 -639q-23 -150 17 -207t151 -57q66 0 125 23.5t107.5 69.5t81 113.5t44.5 153.5l76 543h150l-144 -1024h-137l23 195h-4q-23 -41 -53.5 -80t-73.5 -69t-98.5 -47t-123.5 -17q-170 0 -245.5 93t-44.5 314zM353 1227q0 18 5 38.5t17 37t34.5 26.5 t57.5 10q51 0 69.5 -24.5t18.5 -54.5q0 -20 -5 -41t-17.5 -37.5t-35 -26.5t-56.5 -10q-51 0 -69.5 23.5t-18.5 58.5zM721 1227q0 18 5 38.5t17.5 37t35 26.5t57.5 10q51 0 69.5 -24.5t18.5 -54.5q0 -20 -5 -41t-17.5 -37.5t-35 -26.5t-57.5 -10q-51 0 -69.5 23.5t-18.5 58.5 z" />
<glyph unicode="&#xfd;" horiz-adv-x="993" d="M-109 -397l41 129q29 -10 62 -17.5t76 -7.5q39 0 67.5 9.5t53 30t46 53t44.5 79.5l55 111l-250 1034h154l139 -610q16 -70 27.5 -137.5t19.5 -133.5h4q25 68 55.5 139.5t63.5 137.5l293 604h162l-584 -1192q-63 -129 -140 -195.5t-204 -66.5q-66 0 -111 10t-74 23z M323 1221l473 219l37 -140l-481 -167z" />
<glyph unicode="&#xfe;" horiz-adv-x="1144" d="M8 -410l258 1844h150l-58 -410l-34 -193h4q55 92 143 151.5t219 59.5q164 0 253 -105t89 -308q0 -164 -37 -285t-101.5 -202t-152.5 -120.5t-188 -39.5q-68 0 -121 18t-91 49t-62.5 69t-34.5 77h-4l-25 -195l-57 -410h-150zM279 459q-10 -70 6 -132.5t54 -108.5t91 -72.5 t117 -26.5q76 0 138.5 34.5t106.5 100t67.5 157.5t23.5 207q0 147 -53.5 216t-170.5 69q-66 0 -127 -25.5t-110 -68.5t-82 -99.5t-41 -117.5z" />
<glyph unicode="&#xff;" horiz-adv-x="993" d="M-109 -397l41 129q29 -10 62 -17.5t76 -7.5q39 0 67.5 9.5t53 30t46 53t44.5 79.5l55 111l-250 1034h154l139 -610q16 -70 27.5 -137.5t19.5 -133.5h4q25 68 55.5 139.5t63.5 137.5l293 604h162l-584 -1192q-63 -129 -140 -195.5t-204 -66.5q-66 0 -111 10t-74 23z M291 1227q0 18 5 38.5t17 37t34.5 26.5t57.5 10q51 0 69.5 -24.5t18.5 -54.5q0 -20 -5 -41t-17.5 -37.5t-35 -26.5t-56.5 -10q-51 0 -69.5 23.5t-18.5 58.5zM659 1227q0 18 5 38.5t17.5 37t35 26.5t57.5 10q51 0 69.5 -24.5t18.5 -54.5q0 -20 -5 -41t-17.5 -37.5t-35 -26.5 t-57.5 -10q-51 0 -69.5 23.5t-18.5 58.5z" />
<glyph unicode="&#x152;" horiz-adv-x="2043" d="M102 514q0 102 13.5 213t44 214t81 196.5t125 163t176 110.5t234.5 41q162 0 260.5 -57.5t147.5 -165.5l28 205h818l-21 -150h-666l-69 -493h643l-21 -150h-643l-69 -494h682l-21 -147h-833l26 197q-74 -98 -180 -156.5t-254 -58.5q-256 0 -379 139t-123 393zM260 520 q0 -193 80 -292t268 -99q154 0 253.5 73.5t156.5 189.5t79.5 254t22.5 267q0 193 -79.5 292.5t-268.5 99.5q-154 0 -253 -74t-156.5 -189.5t-80 -254t-22.5 -267.5z" />
<glyph unicode="&#x153;" horiz-adv-x="1767" d="M68 379q0 119 24.5 237.5t85 213t160.5 153.5t252 59q145 0 228 -60t118 -165h4q72 104 180.5 164.5t251.5 60.5q172 0 253 -84t81 -223q0 -96 -35 -165.5t-96.5 -113.5t-144 -65.5t-177.5 -21.5q-98 0 -171.5 13t-127.5 34q-10 -137 53.5 -221t223.5 -84 q84 0 156.5 20.5t136.5 50.5l16 -119q-59 -33 -144 -57t-186 -24q-150 0 -237.5 56t-126.5 155h-4q-59 -96 -156.5 -153.5t-232.5 -57.5q-197 0 -291 107.5t-94 289.5zM217 383q0 -131 56.5 -200.5t191.5 -69.5q104 0 174 47t112 122.5t59 169t17 183.5q0 133 -57 203.5 t-192 70.5q-104 0 -174 -48t-112 -123.5t-58.5 -169t-16.5 -185.5zM971 537q57 -23 130 -36.5t163 -11.5q66 0 120 10.5t94 36t62.5 72.5t22.5 123q0 33 -11.5 65.5t-36 59.5t-64.5 42t-97 15q-88 0 -153.5 -27.5t-112 -77.5t-75 -119.5t-42.5 -151.5z" />
<glyph unicode="&#x178;" horiz-adv-x="1218" d="M135 1434h170l189 -445q29 -68 58.5 -144.5t51.5 -142.5h6q41 66 92.5 143t98.5 144l313 445h182l-622 -863l-80 -571h-158l80 571zM461 1637q0 18 5 38.5t17 37t34.5 26.5t57.5 10q51 0 69.5 -24.5t18.5 -54.5q0 -20 -5 -41t-17.5 -37.5t-35 -26.5t-56.5 -10 q-51 0 -69.5 23.5t-18.5 58.5zM829 1637q0 18 5 38.5t17.5 37t35 26.5t57.5 10q51 0 69.5 -24.5t18.5 -54.5q0 -20 -5 -41t-17.5 -37.5t-35 -26.5t-57.5 -10q-51 0 -69.5 23.5t-18.5 58.5z" />
<glyph unicode="&#x2c6;" horiz-adv-x="626" d="M80 1149l291 285h102l209 -285h-135l-139 147l-179 -147h-149z" />
<glyph unicode="&#x2dc;" horiz-adv-x="626" d="M66 1151q23 129 80 201.5t147 72.5q41 0 71.5 -21.5t56 -48t48.5 -48t49 -21.5q35 0 62.5 35t37.5 98h115q-23 -129 -79 -200.5t-144 -71.5q-41 0 -72.5 21.5t-59.5 48t-51.5 48t-45.5 21.5q-35 0 -61.5 -36t-39.5 -99h-114z" />
<glyph unicode="&#x2000;" horiz-adv-x="925" />
<glyph unicode="&#x2001;" horiz-adv-x="1850" />
<glyph unicode="&#x2002;" horiz-adv-x="925" />
<glyph unicode="&#x2003;" horiz-adv-x="1850" />
<glyph unicode="&#x2004;" horiz-adv-x="616" />
<glyph unicode="&#x2005;" horiz-adv-x="462" />
<glyph unicode="&#x2006;" horiz-adv-x="308" />
<glyph unicode="&#x2007;" horiz-adv-x="308" />
<glyph unicode="&#x2008;" horiz-adv-x="231" />
<glyph unicode="&#x2009;" horiz-adv-x="370" />
<glyph unicode="&#x200a;" horiz-adv-x="102" />
<glyph unicode="&#x2010;" horiz-adv-x="724" d="M53 600l21 145h598l-21 -145h-598z" />
<glyph unicode="&#x2011;" horiz-adv-x="724" d="M53 600l21 145h598l-21 -145h-598z" />
<glyph unicode="&#x2012;" horiz-adv-x="724" d="M53 600l21 145h598l-21 -145h-598z" />
<glyph unicode="&#x2013;" horiz-adv-x="1064" d="M51 598l21 147h942l-21 -147h-942z" />
<glyph unicode="&#x2014;" horiz-adv-x="1441" d="M47 598l21 147h1327l-21 -147h-1327z" />
<glyph unicode="&#x2018;" horiz-adv-x="413" d="M141 1028l197 463l113 -27l-152 -475z" />
<glyph unicode="&#x2019;" horiz-adv-x="413" d="M125 1014l151 475l158 -39l-196 -461z" />
<glyph unicode="&#x201a;" horiz-adv-x="413" d="M-59 -285l151 478l158 -41l-197 -461z" />
<glyph unicode="&#x201c;" horiz-adv-x="686" d="M139 1028l199 463l111 -27l-150 -475zM414 1028l196 463l113 -27l-152 -475z" />
<glyph unicode="&#x201d;" horiz-adv-x="686" d="M125 1014l151 477l158 -41l-196 -461zM397 1014l152 477l158 -41l-197 -461z" />
<glyph unicode="&#x201e;" horiz-adv-x="686" d="M-59 -285l151 478l158 -41l-197 -461zM213 -285l152 478l157 -41l-196 -461z" />
<glyph unicode="&#x2022;" horiz-adv-x="569" d="M88 522q0 43 13.5 85t39 75t64.5 52.5t92 19.5q88 0 122 -45t34 -107q0 -43 -13.5 -84t-40 -71.5t-65.5 -50t-90 -19.5q-86 0 -120 43t-36 102z" />
<glyph unicode="&#x2026;" horiz-adv-x="1228" d="M16 72q0 41 24.5 78.5t96.5 37.5q51 0 69.5 -24.5t18.5 -59.5q0 -41 -24.5 -78.5t-91.5 -37.5q-53 0 -73 25.5t-20 58.5zM426 72q0 41 24.5 78.5t96.5 37.5q51 0 69.5 -24.5t18.5 -59.5q0 -41 -24.5 -78.5t-92.5 -37.5q-53 0 -72.5 25.5t-19.5 58.5zM836 72q0 41 24 78.5 t96 37.5q51 0 69.5 -24.5t18.5 -59.5q0 -41 -24.5 -78.5t-91.5 -37.5q-53 0 -72.5 25.5t-19.5 58.5z" />
<glyph unicode="&#x202f;" horiz-adv-x="370" />
<glyph unicode="&#x2039;" horiz-adv-x="618" d="M76 678l297 391h170l-301 -391l190 -389h-170z" />
<glyph unicode="&#x203a;" horiz-adv-x="618" d="M80 289l301 389l-191 391h170l187 -391l-297 -389h-170z" />
<glyph unicode="&#x205f;" horiz-adv-x="462" />
<glyph unicode="&#x20ac;" horiz-adv-x="1175" d="M63 524l19 133h176q4 29 7 58.5t9 58.5h-176l19 129h188q31 111 77 210t114.5 174t161 120t214.5 45q111 0 193 -39t127 -88l-64 -145q-47 59 -106 89.5t-152 30.5q-141 0 -246.5 -97t-160.5 -300h508l-19 -129h-520q-6 -29 -9 -58.5t-7 -58.5h450l-18 -133h-438 q2 -203 80.5 -298t220.5 -95q98 0 167.5 31t133.5 90l22 -146q-57 -49 -137 -86.5t-192 -37.5q-123 0 -209 44t-139.5 118.5t-78 173t-24.5 206.5h-191z" />
<glyph unicode="&#x2122;" horiz-adv-x="1312" d="M133 1325l14 109h490l-14 -109h-185l-61 -444h-121l61 444h-184zM659 881l76 553h117l127 -308l213 308h129l-76 -553h-119l33 227q6 41 11.5 72.5t13.5 70.5q-14 -25 -32.5 -53.5t-51.5 -75.5l-96 -139h-76l-58 139q-18 47 -28.5 76t-18.5 53q-4 -39 -7 -70.5t-9 -72.5 l-33 -227h-115z" />
<glyph unicode="&#x25fc;" horiz-adv-x="1024" d="M0 0v1024h1024v-1024h-1024z" />
<glyph unicode="&#xfb03;" horiz-adv-x="1658" d="M57 893l19 131h190l17 111q23 147 106.5 231t237.5 84q49 0 93 -8t79 -23l-45 -125q-63 20 -125 21q-102 0 -143.5 -46t-55.5 -145l-14 -100h418l8 66q20 162 121.5 261t298.5 99q70 0 133 -14.5t104 -34.5l-49 -123q-41 16 -89 26.5t-108 10.5q-131 0 -188 -62.5 t-74 -173.5l-8 -55h565l-143 -1024h-150l125 893h-415l-125 -893h-150l125 893h-418l-125 -893h-149l125 893h-191z" />
<glyph unicode="&#xfb04;" horiz-adv-x="1658" d="M57 893l19 131h190l17 111q23 147 106.5 231t237.5 84q49 0 93 -8t79 -23l-45 -125q-63 20 -125 21q-102 0 -143.5 -46t-55.5 -145l-14 -100h418l8 59q23 166 132 266.5t316 100.5q82 0 167 -13.5t145 -31.5l-197 -1405h-148l183 1296q-35 10 -79 14.5t-87 4.5 q-141 0 -203.5 -65.5t-79.5 -174.5l-8 -51h242l-19 -131h-241l-125 -893h-150l125 893h-418l-125 -893h-149l125 893h-191z" />
</font>
</defs>
</svg>
