<?xml version="1.0" standalone="no"?>
<!DOCTYPE svg PUBLIC "-//W3C//DTD SVG 1.1//EN" "http://www.w3.org/Graphics/SVG/1.1/DTD/svg11.dtd" >
<svg xmlns="http://www.w3.org/2000/svg">
<metadata></metadata>
<defs>
<font id="rleud-bolduploaded_file" horiz-adv-x="1413" >
<font-face units-per-em="2048" ascent="1581" descent="-467" />
<missing-glyph horiz-adv-x="526" />
<glyph unicode="&#xfb01;" horiz-adv-x="1280" d="M16 809v215h181v39q0 86 23.5 157.5t78.5 124t144 81t221 28.5q96 0 172.5 -12t126.5 -29l-11 -211q-47 12 -100 20.5t-111 8.5q-139 0 -190 -47t-51 -129v-31h655v-1024h-307v809h-346v-809h-305v809h-181z" />
<glyph unicode="&#xfb02;" horiz-adv-x="1304" d="M16 809v215h181v41q0 88 24.5 159.5t84 123t158.5 79t251 27.5q129 0 255 -18.5t208 -40.5v-1395h-306v1221q-59 14 -139 14q-135 0 -184 -50t-49 -130v-31h227v-215h-225v-809h-305v809h-181z" />
<glyph horiz-adv-x="0" />
<glyph horiz-adv-x="0" />
<glyph unicode="&#xd;" horiz-adv-x="350" />
<glyph unicode=" "  horiz-adv-x="526" />
<glyph unicode="&#x09;" horiz-adv-x="526" />
<glyph unicode="&#xa0;" horiz-adv-x="526" />
<glyph unicode="!" horiz-adv-x="608" d="M121 160q0 35 9 66.5t30.5 56t56.5 39t88 14.5q102 0 141 -53.5t39 -122.5q0 -70 -39 -124t-141 -54q-53 0 -88 15t-56.5 39.5t-30.5 56.5t-9 67zM123 1434h362l-45 -963h-274z" />
<glyph unicode="&#x22;" horiz-adv-x="776" d="M76 1434h258l-31 -516h-194zM442 1434h256l-30 -516h-195z" />
<glyph unicode="#" horiz-adv-x="1325" d="M74 362v201h176l51 305h-143v201h180l65 365h263l-66 -365h252l63 365h261l-62 -365h137v-201h-174l-53 -305h141v-201h-178l-63 -362h-262l63 362h-250l-63 -362h-262l63 362h-139zM504 559h264l55 313h-266z" />
<glyph unicode="$" horiz-adv-x="1325" d="M117 420h295q0 -84 55 -137.5t188 -53.5q109 0 168.5 28t59.5 97q0 57 -26 96t-67.5 67t-94 49.5t-103.5 41.5q-80 31 -161 66t-146.5 86t-106.5 123.5t-41 179.5q0 168 94.5 266t313.5 119v211h241v-213q106 -12 179 -47t119 -87t68 -122t22 -152h-295q0 33 -10.5 62.5 t-36 51.5t-67.5 34t-106 12q-207 0 -206 -94q0 -43 28.5 -78t72.5 -63.5t96 -52t100 -44.5q96 -41 179 -81t143.5 -92t95 -122.5t34.5 -171.5q0 -190 -101.5 -292.5t-314.5 -122.5v-209h-241v207q-225 23 -326.5 135t-101.5 303z" />
<glyph unicode="%" horiz-adv-x="1478" d="M53 1102q0 166 73.5 257t227.5 91q152 0 225.5 -91t73.5 -257t-73.5 -257t-225.5 -91q-154 0 -227.5 91t-73.5 257zM201 0l837 1434h240l-838 -1434h-239zM256 1102q0 -88 20.5 -135t77.5 -47q53 0 76 47t23 135t-22.5 135t-76.5 47q-57 0 -77.5 -47t-20.5 -135zM823 332 q0 166 75.5 257t225.5 91q154 0 227.5 -91t73.5 -257t-73.5 -256t-227.5 -90q-150 0 -225.5 90t-75.5 256zM1026 332q0 -86 22.5 -134t75.5 -48q55 0 77 48t22 134q0 88 -21.5 135t-77.5 47q-53 0 -75.5 -47t-22.5 -135z" />
<glyph unicode="&#x26;" horiz-adv-x="1380" d="M92 418q0 96 26.5 171t72 129t103.5 90t124 54q-51 55 -79 122t-28 157q0 150 100.5 232.5t307.5 82.5q199 0 293 -88t94 -225q0 -59 -18.5 -99t-47.5 -75h230v-187h-439v172q16 18 29.5 47t13.5 80q0 66 -31.5 105t-109.5 39t-106.5 -33t-28.5 -80q0 -37 13.5 -74 t33 -70.5t43 -65.5t45.5 -60l621 -842h-285l-436 602q-29 39 -60 86q-70 -14 -120 -83.5t-50 -166.5q0 -90 53.5 -153.5t161.5 -63.5q41 0 83 8.5t81 30.5l62 -219q-55 -35 -123 -48t-150 -13q-98 0 -186 24.5t-152.5 77.5t-102.5 136t-38 200z" />
<glyph unicode="'" horiz-adv-x="425" d="M84 1434h256l-29 -516h-196z" />
<glyph unicode="(" horiz-adv-x="600" d="M117 582q0 137 25.5 264t69.5 240.5t101.5 213t122.5 183.5l135 -82q-55 -102 -94 -200.5t-64.5 -199t-36.5 -203.5t-11 -216q0 -227 48 -422t158 -398l-135 -84q-66 84 -123 183.5t-101 213t-69.5 240.5t-25.5 267z" />
<glyph unicode=")" horiz-adv-x="600" d="M27 -238q55 100 95 198.5t64.5 199t35.5 204t11 218.5q0 113 -11 216t-35.5 203.5t-64.5 198.5t-95 201l137 82q63 -84 121.5 -183.5t101.5 -213t68.5 -240.5t25.5 -264q0 -139 -25.5 -266.5t-68.5 -241t-101.5 -213t-121.5 -183.5z" />
<glyph unicode="*" horiz-adv-x="987" d="M92 1047l90 233l211 -111l-26 265h251l-24 -265l211 111l88 -233l-248 -74l193 -205l-205 -158l-139 244l-140 -244l-207 158l193 205z" />
<glyph unicode="+" horiz-adv-x="1034" d="M68 535v241h313v385h272v-385h314v-241h-314v-385h-272v385h-313z" />
<glyph unicode="," horiz-adv-x="532" d="M72 -201l67 535l320 -47l-193 -541z" />
<glyph unicode="-" horiz-adv-x="780" d="M53 553v246h674v-246h-674z" />
<glyph unicode="." horiz-adv-x="532" d="M82 162q0 33 9 64.5t30.5 56t56.5 40t88 15.5q51 0 86 -15.5t56.5 -40t31 -56t9.5 -64.5q0 -70 -40.5 -124t-142.5 -54q-53 0 -88 15t-56.5 39.5t-30.5 56.5t-9 67z" />
<glyph unicode="/" horiz-adv-x="671" d="M12 -41l416 1516h231l-417 -1516h-230z" />
<glyph unicode="0" horiz-adv-x="1341" d="M86 717q0 201 43 341t121 229t185.5 129t236.5 40q127 0 233.5 -40t184 -129t121.5 -229t44 -341t-44 -341t-121.5 -229.5t-184 -130.5t-233.5 -41q-129 0 -236.5 41t-185.5 130.5t-121 229.5t-43 341zM408 717q0 -135 17 -228.5t50 -150.5t82 -82t115 -25q63 0 112.5 25 t82 82t50 150.5t17.5 228.5t-17.5 227t-50 149.5t-82 82t-112.5 24.5q-66 0 -115 -24.5t-82 -82t-50 -149.5t-17 -227z" />
<glyph unicode="1" horiz-adv-x="845" d="M39 1182l373 252h276v-1434h-313v1108l-260 -133z" />
<glyph unicode="2" horiz-adv-x="1175" d="M88 0v227l494 494q35 35 66.5 74t55 81t36 87t5.5 92q-8 74 -64 106.5t-146 32.5q-98 0 -195.5 -22.5t-183.5 -57.5l-62 242q92 45 215 73.5t258 28.5q236 0 364 -101.5t128 -307.5q0 -90 -27.5 -162t-73 -135.5t-102.5 -121t-115 -116.5l-247 -256h587v-258h-993z" />
<glyph unicode="3" horiz-adv-x="1148" d="M45 72l61 239q82 -35 170.5 -54t180.5 -19q49 0 100 10t93 36.5t68.5 69.5t26.5 109q0 94 -64.5 124.5t-170.5 30.5h-186v238h178q123 0 179 44t56 130q0 92 -64.5 130t-187.5 38q-104 0 -195 -22.5t-165 -57.5l-59 238q98 47 215.5 73.5t248.5 26.5q115 0 208 -22.5 t160 -70.5t102.5 -124t35.5 -180q0 -63 -16 -113.5t-44 -88.5t-62.5 -64.5t-71.5 -42.5v-2q98 -29 160.5 -111t62.5 -229q0 -117 -41 -199t-113.5 -134t-175 -76t-225.5 -24q-141 0 -254 25t-211 72z" />
<glyph unicode="4" horiz-adv-x="1257" d="M53 250v203l428 981h318l-412 -938h350l35 454h270v-454h175v-246h-175v-250h-305v250h-684z" />
<glyph unicode="5" horiz-adv-x="1206" d="M66 76l59 239q86 -39 185.5 -60.5t197.5 -21.5q135 0 216 54.5t81 193.5q0 123 -61.5 174.5t-161.5 51.5q-78 0 -137.5 -24t-104.5 -60h-244l43 811h889v-250h-637l-16 -316q43 23 113.5 44.5t175.5 21.5q92 0 174 -23.5t144 -78t98 -142.5t36 -215q0 -135 -44 -229 t-121 -153.5t-183 -87.5t-229 -28q-147 0 -265 26t-208 73z" />
<glyph unicode="6" horiz-adv-x="1232" d="M90 672q0 401 159 592.5t464 191.5q98 0 188 -21.5t162 -56.5l-57 -229q-128 61 -273 61q-92 0 -155.5 -26.5t-103.5 -77.5t-58.5 -123t-20.5 -160q53 45 142.5 79t197.5 34q88 0 165 -26.5t134.5 -83t89 -143.5t31.5 -208q0 -123 -37 -216t-103.5 -156.5t-160.5 -95.5 t-209 -32q-276 0 -415.5 183.5t-139.5 513.5zM395 612q0 -186 60.5 -291.5t185.5 -105.5q113 0 166 65.5t53 186.5q0 125 -46 183.5t-152 58.5q-76 0 -148 -28t-119 -69z" />
<glyph unicode="7" horiz-adv-x="1112" d="M55 1171v263h977v-238l-487 -1196h-334l479 1171h-635z" />
<glyph unicode="8" horiz-adv-x="1271" d="M84 406q0 74 20.5 133t52 103t73.5 72.5t85 43.5v2q-37 14 -70.5 39.5t-61 63.5t-44 90.5t-16.5 119.5q0 84 26.5 154.5t88 122t159 80t238.5 28.5t239.5 -28.5t159 -80t87 -122t26.5 -154.5q0 -68 -16.5 -120t-43 -90t-60.5 -63.5t-71 -39.5v-2q43 -14 85 -43t74 -73 t52.5 -103.5t20.5 -132.5q0 -115 -40 -197t-111.5 -134t-174 -76t-227.5 -24q-123 0 -225.5 24t-174 76t-111.5 134t-40 197zM391 432q0 -117 60.5 -170t183.5 -53q125 0 184.5 53t59.5 170q0 111 -54.5 166t-154.5 55h-68q-100 0 -155.5 -55t-55.5 -166zM422 1040 q0 -86 44 -137t136 -51h68q94 0 137 51t43 137q0 90 -49 137.5t-166 47.5t-165 -48.5t-48 -136.5z" />
<glyph unicode="9" horiz-adv-x="1232" d="M78 956q0 123 37 216.5t103.5 157t160.5 95t209 31.5q276 0 415.5 -181t139.5 -513q0 -403 -158 -595t-467 -192q-96 0 -188 22.5t-164 57.5l57 228q63 -29 132 -45.5t143 -16.5q92 0 155.5 26.5t103.5 78t57 122t22 160.5q-53 -43 -141.5 -76.5t-196.5 -33.5 q-90 0 -166 26.5t-133.5 82t-89 142.5t-31.5 207zM371 965q0 -125 47 -183.5t153 -58.5q74 0 147 28.5t120 69.5q-2 186 -61.5 291t-186.5 105q-111 0 -165 -66t-54 -186z" />
<glyph unicode=":" horiz-adv-x="575" d="M109 158q0 33 9 64.5t29.5 56t54.5 39t85 14.5t86 -14.5t55.5 -39t29.5 -56.5t9 -64q0 -35 -9 -66t-29.5 -55.5t-55.5 -38.5t-86 -14t-85 14t-54.5 38.5t-29.5 55.5t-9 66zM109 891q0 33 9 64.5t29.5 56t54.5 39t85 14.5t86 -14.5t55.5 -39t29.5 -56t9 -64.5t-9 -64.5 t-29.5 -56.5t-55.5 -39t-86 -14t-85 14t-54.5 39t-29.5 56.5t-9 64.5z" />
<glyph unicode=";" horiz-adv-x="575" d="M82 -199l65 529l316 -47l-189 -535zM106 891q0 33 9.5 64.5t31 56t55.5 39t85 14.5t86 -14.5t55.5 -39t29.5 -56t9 -64.5t-9 -64.5t-29.5 -56.5t-55.5 -39t-86 -14t-85 14t-55.5 39t-31 56.5t-9.5 64.5z" />
<glyph unicode="&#x3c;" horiz-adv-x="1034" d="M45 551v172l885 518v-291l-570 -313l570 -313v-291z" />
<glyph unicode="=" horiz-adv-x="1034" d="M86 231v205h862v-205h-862zM86 625v204h862v-204h-862z" />
<glyph unicode="&#x3e;" horiz-adv-x="1034" d="M104 33v291l570 313l-570 313v291l885 -518v-172z" />
<glyph unicode="?" horiz-adv-x="1083" d="M57 1366q90 41 204 66.5t253 25.5q92 0 179 -15.5t153.5 -53t107.5 -103t41 -164.5q0 -76 -25.5 -135t-62.5 -109.5t-82 -92.5t-81.5 -81.5t-62.5 -80.5t-26 -88v-60h-284v60q0 61 23.5 111t58 93t74.5 82t75 78t58.5 79t23.5 85q0 43 -20.5 70.5t-52 43t-70.5 21.5 t-78 6q-86 0 -170 -17.5t-174 -49.5zM338 160q0 33 9 64.5t30.5 56t56.5 39t86 14.5t86 -14.5t55.5 -39t29.5 -56t9 -64.5q0 -70 -39 -124t-141 -54t-142 54t-40 124z" />
<glyph unicode="@" horiz-adv-x="1935" d="M109 549q0 195 54 360.5t162.5 287.5t271.5 190.5t380 68.5t378 -69.5t265 -191.5t155.5 -289t51.5 -363q0 -145 -25.5 -251t-72 -173.5t-107.5 -100t-131 -32.5q-94 0 -152.5 56t-74.5 148q-41 -98 -119 -156.5t-225 -58.5q-201 0 -304.5 125t-103.5 381v58 q0 117 25.5 211t81 160.5t144.5 103.5t216 37q123 0 210 -35t140 -97.5t78 -147.5t25 -183v-240q0 -92 21.5 -132t62.5 -40q29 0 53 19.5t42.5 62.5t30 112.5t11.5 172.5q0 162 -38 300t-120 237.5t-210 155.5t-308 56q-176 0 -306 -54t-216 -152.5t-128 -234.5t-42 -302 q0 -160 41 -310.5t139 -279.5l-137 -98q-55 68 -96.5 149.5t-69 170.5t-40.5 183.5t-13 184.5zM778 481q0 -147 41.5 -215.5t145.5 -68.5q111 0 155.5 74.5t44.5 209.5v103q0 113 -40 178t-146 65q-119 0 -160 -75.5t-41 -212.5v-58z" />
<glyph unicode="A" d="M25 0l495 1434h373l496 -1434h-334l-92 297h-514l-91 -297h-333zM522 541h369l-70 229q-29 100 -57.5 195.5t-52.5 197.5h-9q-25 -102 -53 -197.5t-57 -195.5z" />
<glyph unicode="B" horiz-adv-x="1331" d="M139 0v1434h594q252 0 362.5 -98.5t110.5 -291.5q0 -70 -16 -122t-44 -90.5t-65 -62.5t-77 -36v-6q109 -16 176 -95t67 -229q0 -215 -130 -309t-384 -94h-594zM451 250h266q63 0 105 8t69 28.5t38 54.5t11 85q0 98 -54.5 137t-164.5 39h-270v-352zM451 846h264 q94 0 141 38t47 136q0 94 -45 128t-156 34h-251v-336z" />
<glyph unicode="C" horiz-adv-x="1255" d="M96 680v72q0 168 39 299t121 221t207 137t295 47q129 0 233.5 -26.5t184.5 -67.5l-62 -240q-72 31 -146.5 47.5t-158.5 16.5q-199 0 -296 -115t-97 -319v-72q0 -96 18.5 -177t63.5 -138.5t118.5 -89t182.5 -31.5q174 0 334 71l61 -239q-82 -41 -190.5 -71t-239.5 -30 q-178 0 -304 50.5t-207 142.5t-119 222t-38 290z" />
<glyph unicode="D" horiz-adv-x="1409" d="M141 0v1434h545q168 0 288 -45.5t195.5 -131.5t110.5 -210.5t35 -286.5v-74q0 -166 -36 -293t-112.5 -215t-197.5 -133t-289 -45h-539zM459 274h213q92 0 154.5 28t99.5 81t52 129t15 174v74q0 98 -15 173t-52 125t-101.5 75.5t-162.5 25.5h-203v-885z" />
<glyph unicode="E" horiz-adv-x="1183" d="M139 0v1434h942v-269h-628v-317h583v-262h-583v-320h637v-266h-951z" />
<glyph unicode="F" horiz-adv-x="1138" d="M139 0v1434h922v-273h-608v-385h579v-270h-579v-506h-314z" />
<glyph unicode="G" horiz-adv-x="1396" d="M96 680v72q0 336 170 520t518 184q143 0 263 -29.5t200 -70.5l-63 -240q-70 35 -164 55.5t-191 20.5q-115 0 -193.5 -29.5t-127.5 -86t-70.5 -138.5t-21.5 -186v-72q0 -104 19.5 -186t63.5 -138.5t113.5 -86t169.5 -29.5q51 0 104.5 6t96.5 18v336h-270v234h559v-744 q-88 -51 -218 -83t-272 -32q-354 0 -520 184.5t-166 520.5z" />
<glyph unicode="H" horiz-adv-x="1425" d="M139 0v1434h320v-578h508v578h319v-1434h-319v578h-508v-578h-320z" />
<glyph unicode="I" horiz-adv-x="606" d="M143 0v1434h318v-1434h-318z" />
<glyph unicode="J" horiz-adv-x="1048" d="M47 68l62 249q53 -29 119.5 -47t138.5 -18q129 0 180 59.5t51 204.5v649h-268v269h588v-926q0 -145 -35 -245.5t-98.5 -165t-153.5 -93.5t-201 -29q-119 0 -218 27t-165 66z" />
<glyph unicode="K" horiz-adv-x="1390" d="M139 0v1434h320v-637l532 637h373l-475 -574l485 -860h-358l-348 631l-209 -240v-391h-320z" />
<glyph unicode="L" horiz-adv-x="1097" d="M139 0v1434h320v-1160h579v-274h-899z" />
<glyph unicode="M" horiz-adv-x="1671" d="M139 0v1434h350l347 -736l346 736h350v-1434h-311v639q0 78 3 179.5t11 199.5h-6q-33 -92 -77 -192.5t-83 -176.5l-131 -260h-205l-131 260q-39 76 -83 176.5t-77 192.5h-6q8 -98 11.5 -199.5t3.5 -179.5v-639h-312z" />
<glyph unicode="N" horiz-adv-x="1482" d="M139 0v1434h322l375 -603q61 -100 119.5 -211.5t103.5 -211.5h6q-14 123 -19.5 254t-5.5 260v512h303v-1434h-319l-358 565q-70 111 -132.5 229.5t-107.5 229.5h-6q12 -123 17 -254t5 -260v-510h-303z" />
<glyph unicode="O" horiz-adv-x="1441" d="M96 680v72q0 166 37 297t113 221t193.5 138t281.5 48q162 0 280.5 -48t194.5 -138t113 -221t37 -297v-72q0 -166 -37 -296t-113 -221t-194.5 -139.5t-280.5 -48.5q-164 0 -281.5 48.5t-193.5 139.5t-113 221t-37 296zM416 680q0 -102 14 -183t50 -138.5t94.5 -87 t146.5 -29.5t146.5 29.5t93 87t50 138.5t15.5 183v72q0 102 -15.5 184t-50 138t-93 87t-146.5 31t-146.5 -31t-94.5 -87t-50 -138t-14 -184v-72z" />
<glyph unicode="P" horiz-adv-x="1310" d="M139 0v1434h580q262 0 385 -118t123 -376q0 -264 -126 -382t-384 -118h-258v-440h-320zM457 700h248q115 0 160.5 57.5t45.5 182.5q0 123 -46 178.5t-158 55.5h-250v-474z" />
<glyph unicode="Q" horiz-adv-x="1441" d="M96 680v72q0 166 37 297t113 221t193.5 138t281.5 48q162 0 280.5 -48t194.5 -138t113 -221t37 -297v-72q0 -166 -37 -296t-113 -221t-194.5 -139.5t-280.5 -48.5q-164 0 -281.5 48.5t-193.5 139.5t-113 221t-37 296zM360 -315l50 200q186 -18 377.5 -67t365.5 -135 l-84 -222q-166 92 -344 146.5t-365 77.5zM416 680q0 -102 14 -183t50 -138.5t94.5 -87t146.5 -29.5t146.5 29.5t93 87t50 138.5t15.5 183v72q0 102 -15.5 184t-50 138t-93 87t-146.5 31t-146.5 -31t-94.5 -87t-50 -138t-14 -184v-72z" />
<glyph unicode="R" horiz-adv-x="1351" d="M139 0v1434h623q262 0 381 -113t119 -360q0 -186 -75 -289t-194 -140l301 -532h-327l-275 496h-235v-496h-318zM453 739h284q117 0 165 48t48 171q0 68 -13 111t-44 66.5t-81 33t-124 9.5h-235v-439z" />
<glyph unicode="S" horiz-adv-x="1196" d="M74 76l65 248q94 -41 197.5 -64.5t218.5 -23.5q72 0 120 8t75.5 27.5t39 49t11.5 72.5q0 45 -15.5 78t-48 57.5t-85 44t-126.5 41.5q-86 27 -164.5 61t-138 85t-94.5 124.5t-35 182.5q0 190 119 289.5t395 99.5q137 0 257 -26.5t212 -65.5l-63 -238q-94 35 -189.5 53.5 t-195.5 18.5q-123 0 -174.5 -29.5t-51.5 -97.5q0 -41 18.5 -69.5t57.5 -52t98.5 -44t141.5 -47.5q92 -29 164.5 -64.5t125 -88t80 -125t27.5 -177.5q0 -215 -131 -321.5t-410 -106.5q-168 0 -284.5 27t-216.5 74z" />
<glyph unicode="T" horiz-adv-x="1212" d="M35 1159v275h1141v-275q-104 0 -205 1t-205 1v-1161h-320v1161q-104 0 -205.5 -1t-205.5 -1z" />
<glyph unicode="U" horiz-adv-x="1409" d="M131 590v844h320v-836q0 -94 12 -160.5t42 -107.5t78 -60.5t122 -19.5t121.5 19.5t77.5 60.5t42 107.5t12 160.5v836h320v-844q0 -154 -32 -268.5t-100.5 -191.5t-177.5 -116t-263 -39t-263.5 39t-178 116t-100.5 191.5t-32 268.5z" />
<glyph unicode="V" horiz-adv-x="1363" d="M27 1434h335l234 -781q29 -94 48.5 -185t33.5 -189h8q14 98 33.5 189t48.5 185l233 781h336l-467 -1434h-376z" />
<glyph unicode="W" horiz-adv-x="2093" d="M41 1434h326l147 -586q33 -127 53.5 -257t36.5 -276h8q23 145 48.5 275.5t62.5 257.5l168 586h311l168 -586q37 -127 62.5 -257t48.5 -276h8q16 145 36.5 275.5t53.5 257.5l147 586h326l-377 -1434h-348l-192 690q-59 211 -84 418h-9q-25 -207 -84 -418l-192 -690h-348z " />
<glyph unicode="X" horiz-adv-x="1398" d="M10 0l500 729l-481 705h362l307 -490l308 490h364l-481 -705l497 -729h-362l-326 510l-323 -510h-365z" />
<glyph unicode="Y" horiz-adv-x="1363" d="M20 1434h345l198 -387q37 -72 64.5 -144t50.5 -141h6q45 143 117 285l196 387h346l-501 -912v-522h-320v522z" />
<glyph unicode="Z" horiz-adv-x="1265" d="M96 0v233l680 949l-659 -6v258h1028v-234l-680 -950l700 6v-256h-1069z" />
<glyph unicode="[" horiz-adv-x="600" d="M154 -336v1804h403v-186h-168v-1429h168v-189h-403z" />
<glyph unicode="\" horiz-adv-x="671" d="M12 1475h230l417 -1516h-229z" />
<glyph unicode="]" horiz-adv-x="600" d="M39 -147h170v1429h-170v186h407v-1804h-407v189z" />
<glyph unicode="^" horiz-adv-x="1052" d="M51 653l381 781h191l381 -781h-271l-207 475l-207 -475h-268z" />
<glyph unicode="_" horiz-adv-x="827" d="M0 -90h827v-191h-827v191z" />
<glyph unicode="`" horiz-adv-x="681" d="M63 1288l97 221l458 -258l-57 -129z" />
<glyph unicode="a" horiz-adv-x="1122" d="M74 295q0 190 112 268q101 71 284 71q19 0 38 -1q55 0 106.5 -7.5t87.5 -13.5v43q0 88 -46 130t-152 42q-92 0 -173 -18t-153 -47l-49 199q88 37 195.5 61.5t228.5 24.5q233 0 340.5 -99.5t107.5 -292.5v-655h-276l-18 178h-5q-14 -41 -39.5 -76.5t-62.5 -62.5t-87 -42 t-116 -15q-68 0 -126 19t-102 59t-69.5 98.5t-25.5 136.5zM340 322q0 -74 42 -105t107 -31q45 0 85 18.5t68 48.5t44 68.5t16 81.5v50q-33 8 -78.5 12t-86.5 4q-104 0 -150.5 -34.5t-46.5 -112.5z" />
<glyph unicode="b" horiz-adv-x="1239" d="M127 0v1434h305v-390q0 -41 -2 -88t-6 -94h4q37 78 119 131.5t219 53.5q205 0 295 -133.5t90 -378.5v-46q0 -96 -17.5 -188t-62.5 -165t-122 -117t-195 -44q-133 0 -213 60.5t-109 142.5h-4l-18 -178h-283zM432 520q0 -133 51.5 -219t171.5 -86q100 0 146.5 64.5 t46.5 212.5v43q0 137 -43.5 206.5t-147.5 69.5t-164.5 -67.5t-60.5 -165.5v-58z" />
<glyph unicode="c" horiz-adv-x="1001" d="M88 485v54q0 508 510 508q104 0 191.5 -26t146.5 -63l-51 -204q-53 29 -110.5 43t-127.5 14q-139 0 -195.5 -71.5t-56.5 -202.5v-50q0 -135 56.5 -205.5t193.5 -70.5q74 0 134.5 15.5t117.5 45.5l49 -204q-59 -39 -149 -66t-197 -27q-256 0 -384 128t-128 382z" />
<glyph unicode="d" horiz-adv-x="1239" d="M90 489v46q0 244 97.5 378t304.5 134q127 0 202.5 -51.5t116.5 -121.5h4q-4 43 -7 85t-3 83v392h307v-1434h-281l-20 178h-4q-37 -94 -124 -146t-206 -52q-186 0 -286.5 124.5t-100.5 384.5zM391 492q0 -147 48 -213t147 -66q59 0 101 23.5t67.5 64.5t38 99.5t12.5 125.5 v64q0 96 -56.5 159.5t-154.5 63.5q-111 0 -157 -70.5t-46 -207.5v-43z" />
<glyph unicode="e" horiz-adv-x="1134" d="M88 485v54q0 240 123 374t377 134q131 0 218 -40t139 -104.5t74.5 -146.5t22.5 -168v-187h-659q10 -113 79.5 -164t203.5 -51q86 0 155.5 22.5t134.5 57.5l48 -186q-63 -41 -158.5 -73t-216.5 -32q-264 0 -402.5 133.5t-138.5 376.5zM381 571h397v17q0 115 -38.5 184.5 t-149.5 69.5q-117 0 -163 -67.5t-46 -196.5v-7z" />
<glyph unicode="f" horiz-adv-x="829" d="M16 809v215h181v70q0 84 21.5 151.5t67.5 113.5t120.5 70.5t181.5 24.5q72 0 132 -10t107 -27l-20 -209q-35 10 -68.5 16.5t-76.5 6.5q-90 0 -126 -37t-36 -123v-47h293v-215h-291v-809h-305v809h-181z" />
<glyph unicode="g" horiz-adv-x="1142" d="M82 -129q0 72 32.5 115t75.5 73q-39 23 -68 71q-28 45 -28 113v9l131 143q-53 47 -82.5 110.5t-29.5 149.5v19q0 188 110.5 269t333.5 81h528v-174l-159 -2q27 -29 49 -73t22 -101v-19q0 -193 -111.5 -271.5t-328.5 -78.5q-53 0 -88 5t-72 18l-71 -88q0 -25 11 -38.5 t28.5 -20.5t38 -9t40.5 -2h136q113 0 197.5 -13.5t142 -47t86 -89t28.5 -139.5q0 -164 -120.5 -238.5t-356.5 -74.5q-102 0 -189 14.5t-150.5 48t-99.5 92t-36 148.5zM365 -119q0 -35 7 -57.5t27.5 -34.5t58.5 -17t99 -5q59 0 96 4t58.5 16t29 34.5t7.5 59.5q0 63 -32 79.5 t-102 16.5h-215q-16 -23 -25 -44t-9 -52zM399 655q0 -90 37 -122.5t121 -32.5q80 0 119 32.5t39 122.5l-4 19q0 86 -37 119.5t-117 33.5q-82 0 -120 -32.5t-38 -120.5v-19z" />
<glyph unicode="h" horiz-adv-x="1257" d="M127 0v1434h305v-390q0 -41 -2 -97t-6 -101h4q16 37 45 72.5t72 64.5t101.5 46.5t133.5 17.5q190 0 273.5 -102.5t83.5 -313.5v-631h-310v584q0 111 -32.5 159t-124.5 48q-117 0 -177.5 -75t-60.5 -214v-502h-305z" />
<glyph unicode="i" horiz-adv-x="557" d="M88 1309q0 74 46.5 115.5t144.5 41.5t144 -42t46 -115q0 -76 -46 -119t-144 -43t-144.5 43t-46.5 119zM125 0v1024h307v-1024h-307z" />
<glyph unicode="j" horiz-adv-x="655" d="M-98 -375l51 213q35 -16 72.5 -25.5t68.5 -9.5q78 0 103.5 40t25.5 108v852h-166v221h471v-1079q0 -102 -25.5 -173t-73.5 -117t-116.5 -66.5t-152.5 -20.5q-80 0 -143.5 15.5t-114.5 41.5zM176 1309q0 74 46.5 115.5t144.5 41.5q100 0 145 -42t45 -115q0 -76 -45 -119 t-145 -43q-98 0 -144.5 43t-46.5 119z" />
<glyph unicode="k" horiz-adv-x="1181" d="M127 0v1434h305v-826l379 416h346l-360 -403l370 -621h-319l-252 436l-164 -176v-260h-305z" />
<glyph unicode="l" horiz-adv-x="559" d="M127 0v1434h305v-1434h-305z" />
<glyph unicode="m" horiz-adv-x="1847" d="M123 0v1024h278l17 -178h4q16 37 45 72.5t70 64.5t95 46.5t126 17.5q121 0 186.5 -55.5t87.5 -153.5h4q45 86 137.5 147.5t229.5 61.5q182 0 252.5 -110t70.5 -323v-614h-305v600q0 33 -5 64.5t-18.5 58.5t-39 43t-66.5 16q-68 0 -108.5 -29.5t-64 -77.5t-32 -108.5 t-8.5 -120.5q0 -113 -1 -223t-1 -223h-305v600q0 33 -4 64.5t-18.5 57.5t-39 42t-63.5 16q-70 0 -112.5 -30.5t-66.5 -79.5t-32 -111.5t-8 -124.5v-434h-305z" />
<glyph unicode="n" horiz-adv-x="1251" d="M123 0v1024h280l17 -182h4q16 37 45 73.5t72 66.5t101 47.5t134 17.5q188 0 271 -102.5t83 -313.5v-631h-307v584q0 111 -32.5 159t-124.5 48q-117 0 -176.5 -76t-59.5 -217v-498h-307z" />
<glyph unicode="o" horiz-adv-x="1187" d="M88 483v56q0 236 125 372t381 136t381 -136.5t125 -371.5v-56q0 -236 -125 -372t-381 -136t-381 136.5t-125 371.5zM395 483q0 -135 44 -207.5t155 -72.5t155 72.5t44 207.5v56q0 135 -44 207.5t-155 72.5t-155 -72.5t-44 -207.5v-56z" />
<glyph unicode="p" horiz-adv-x="1236" d="M123 -410v1434h283l14 -164h4q45 92 131 139.5t195 47.5q113 0 188.5 -39t121.5 -109t66.5 -163t20.5 -204v-43q0 -94 -16.5 -185t-59.5 -163.5t-118.5 -116.5t-194.5 -44q-133 0 -215 59t-113 137h-6q6 -90 6 -176v-410h-307zM430 520q0 -137 51 -221t172 -84 q100 0 146.5 64.5t46.5 212.5v43q0 137 -43.5 206.5t-147.5 69.5q-111 0 -168 -71.5t-57 -178.5v-41z" />
<glyph unicode="q" horiz-adv-x="1236" d="M90 492v43q0 96 19.5 188t65.5 163.5t124 116t195 44.5q127 -2 202.5 -55.5t116.5 -125.5h4l14 158h281v-1434h-307v410q0 88 6 178h-4q-33 -82 -108.5 -141.5t-202.5 -59.5q-111 0 -188 39t-125 109t-70.5 163t-22.5 204zM391 492q0 -147 48 -212t149 -65q117 0 167 86 t50 221v60q0 98 -56.5 163.5t-154.5 65.5q-111 0 -157 -69.5t-46 -206.5v-43z" />
<glyph unicode="r" horiz-adv-x="841" d="M123 0v1024h276l21 -229h4q14 49 41 94t68.5 77.5t98 52t132.5 19.5h37v-299h-45q-96 0 -158.5 -21.5t-100.5 -65.5t-53.5 -110.5t-15.5 -156.5v-385h-305z" />
<glyph unicode="s" horiz-adv-x="962" d="M72 55l49 201q68 -31 147.5 -49.5t167.5 -18.5q76 0 124 18.5t48 67.5q0 51 -46 77t-140 61q-70 25 -132.5 51t-108.5 64t-73.5 92.5t-27.5 136.5q0 152 101.5 221.5t297.5 69.5q113 0 209 -21.5t168 -50.5l-51 -197q-139 55 -289 56q-76 0 -116 -15.5t-40 -56.5 q0 -27 16.5 -46.5t43 -33.5t62.5 -27.5t77 -27.5q78 -29 138.5 -56.5t102.5 -65.5t64.5 -90.5t22.5 -131.5q0 -84 -32 -142.5t-88 -95.5t-133 -53.5t-167 -16.5q-111 0 -214 20.5t-181 59.5z" />
<glyph unicode="t" horiz-adv-x="890" d="M16 809v215h183l53 356h248v-356h321v-215h-321v-430q0 -90 30.5 -125t112.5 -35t172 39l43 -209q-55 -29 -127 -49t-166 -20q-203 0 -285.5 101t-82.5 296v432h-181z" />
<glyph unicode="u" horiz-adv-x="1216" d="M119 371v653h307v-608q0 -96 31.5 -139.5t111.5 -43.5q104 0 159.5 76t55.5 209v506h308v-1024h-279l-18 178h-4q-16 -37 -43 -72.5t-66 -64.5t-92 -46.5t-123 -17.5q-180 0 -264 96.5t-84 297.5z" />
<glyph unicode="v" horiz-adv-x="1126" d="M23 1024h315l154 -477q43 -137 67 -287h8q25 150 68 287l153 477h316l-375 -1024h-332z" />
<glyph unicode="w" horiz-adv-x="1679" d="M35 1024h307l119 -485q16 -66 26.5 -133.5t14.5 -141.5h6q8 72 22.5 139.5t34.5 135.5l140 485h270l139 -485q20 -68 34.5 -135.5t22.5 -139.5h7q4 74 14 141.5t27 133.5l118 485h308l-277 -1024h-344l-100 350q-31 106 -49.5 207.5t-32.5 212.5h-4q-14 -111 -33 -212 t-49 -208l-101 -350h-344z" />
<glyph unicode="x" horiz-adv-x="1122" d="M8 0l389 520l-377 504h334l207 -303l207 303h334l-379 -504l391 -520h-334l-219 319l-219 -319h-334z" />
<glyph unicode="y" horiz-adv-x="1138" d="M23 1024h319l133 -387q29 -78 53.5 -182.5t44.5 -202.5h9q18 98 41.5 201.5t50.5 183.5l127 387h315l-387 -1059q-37 -104 -71.5 -179t-81 -123t-112 -71.5t-163.5 -23.5q-82 0 -147.5 13t-104.5 36l45 223q31 -16 76 -27.5t98 -11.5q72 0 101.5 23.5t50.5 79.5l18 51z " />
<glyph unicode="z" horiz-adv-x="983" d="M72 0v195l481 618l-465 -4v215h805v-197l-481 -618l495 4v-213h-835z" />
<glyph unicode="{" horiz-adv-x="600" d="M70 479v174q80 16 109.5 62.5t29.5 111.5q0 47 -10.5 86t-22.5 79t-22.5 84t-10.5 104q0 80 29 134t83 88t131 49t175 15v-186q-98 0 -136 -37t-38 -108q0 -43 7 -81t16.5 -77t17.5 -80t8 -88q0 -37 -11 -75t-30.5 -69.5t-45 -57t-52.5 -40.5q18 -14 41.5 -38.5 t45.5 -57.5t37 -69.5t15 -75.5q0 -47 -8 -88t-17.5 -80t-16.5 -77t-7 -81q0 -72 38 -109.5t136 -37.5v-187q-197 0 -307.5 65.5t-110.5 223.5q0 57 10.5 102t22.5 84t22.5 78t10.5 88q0 66 -29.5 111t-109.5 61z" />
<glyph unicode="|" horiz-adv-x="546" d="M150 -315v1765h247v-1765h-247z" />
<glyph unicode="}" horiz-adv-x="600" d="M37 -147q98 0 136 37.5t38 109.5q0 43 -8 81t-17.5 77t-16.5 80t-7 88q0 37 13 73.5t33.5 69.5t45.5 58.5t47 39.5q-23 14 -47.5 39t-45 57.5t-33.5 69.5t-13 76q0 47 7 88t16.5 79t17.5 77t8 82q0 72 -38 108.5t-136 36.5v186q197 0 307.5 -65.5t110.5 -220.5 q0 -59 -10.5 -103.5t-22.5 -83.5t-22.5 -77.5t-10.5 -88.5q0 -66 30 -111.5t109 -62.5v-174q-80 -16 -109.5 -61t-29.5 -111q0 -49 10.5 -88t22.5 -78t22.5 -84t10.5 -102q0 -158 -112 -223.5t-306 -65.5v187z" />
<glyph unicode="~" horiz-adv-x="1089" d="M70 584q25 47 55.5 92t67 81t80.5 57.5t94 21.5q57 0 103 -25t86 -55.5t76 -55t75 -24.5q57 0 95 40t68 105l148 -112q-25 -47 -55.5 -92.5t-67.5 -80t-81 -56t-93 -21.5q-57 0 -103.5 24.5t-85 55t-74.5 55t-73 24.5q-57 0 -97 -39.5t-69 -105.5z" />
<glyph unicode="&#xa1;" horiz-adv-x="608" d="M121 870q0 35 9 67t30.5 56.5t56.5 39t88 14.5q102 0 141 -53.5t39 -123.5q0 -35 -9 -66.5t-29.5 -56t-55.5 -40t-86 -15.5q-53 0 -88 15.5t-56.5 40t-30.5 56.5t-9 66zM123 -403l43 962h274l45 -962h-362z" />
<glyph unicode="&#xa2;" horiz-adv-x="1325" d="M217 485v54q0 223 107.5 350t318.5 153v205h244v-211q72 -10 134 -32.5t103 -49.5l-49 -204q-53 27 -123.5 45t-146.5 18q-150 0 -215.5 -71.5t-65.5 -204.5v-50q0 -133 65.5 -204.5t215.5 -71.5q78 0 150.5 18.5t129.5 49.5l50 -207q-43 -27 -107.5 -50.5t-140.5 -33.5 v-213h-244v207q-211 27 -318.5 153.5t-107.5 349.5z" />
<glyph unicode="&#xa3;" horiz-adv-x="1325" d="M104 643v186h125q-18 49 -31.5 102.5t-13.5 115.5q0 100 37 176.5t104.5 129t163 79t211.5 26.5q129 0 225.5 -22.5t174.5 -59.5l-56 -233q-139 57 -280 57q-78 0 -132 -14.5t-88 -39t-48.5 -59t-14.5 -75.5q0 -51 10.5 -96.5t24.5 -86.5h338v-186h-256q14 -41 23.5 -81 t9.5 -81q0 -86 -38 -145.5t-85 -89.5h350q61 0 87 23.5t26 82.5v70h270v-76q0 -84 -18.5 -148.5t-60.5 -108.5t-110.5 -66.5t-166.5 -22.5h-779v217q45 12 88.5 35.5t77 56.5t54 74t20.5 88q0 41 -9 86t-24 86h-209z" />
<glyph unicode="&#xa4;" horiz-adv-x="1079" d="M74 246l110 119q-59 102 -59 253q0 152 57 252l-108 119l133 148l117 -136q43 23 98 36.5t119 13.5q61 0 115.5 -13.5t97.5 -36.5l118 136l132 -148l-109 -119q29 -51 43 -115.5t14 -136.5q0 -152 -59 -253l111 -119l-132 -146l-120 133q-88 -47 -211 -47q-127 0 -215 47 l-119 -133zM350 618q0 -104 41 -168.5t150 -64.5q106 0 147 64.5t41 168.5t-41 170t-147 66q-109 0 -150 -65.5t-41 -170.5z" />
<glyph unicode="&#xa5;" horiz-adv-x="1325" d="M16 1434h351l190 -408q35 -78 59.5 -142.5t42.5 -133.5h7q18 74 46.5 143.5t63.5 150.5l182 390h349l-392 -732h279v-163h-371v-105h371v-164h-371v-270h-321v270h-371v164h371v105h-371v163h279z" />
<glyph unicode="&#xa6;" horiz-adv-x="555" d="M150 -315v737h256v-737h-256zM150 711v739h256v-739h-256z" />
<glyph unicode="&#xa7;" horiz-adv-x="1325" d="M164 27h246q0 -115 69.5 -164t192.5 -49q33 0 69.5 5t68.5 19.5t53.5 40t21.5 68.5q0 35 -18.5 64.5t-49.5 54t-71.5 45t-86.5 36.5q-84 31 -166.5 63t-150.5 77t-110 109.5t-42 160.5q0 100 52.5 165.5t117.5 92.5q-55 37 -102 111.5t-47 169.5q0 182 125 270t340 88 q106 0 193 -20.5t148.5 -69.5t94.5 -129t33 -197h-244q0 111 -56.5 153t-172.5 42q-25 0 -58.5 -4t-63.5 -16.5t-50.5 -36t-20.5 -62.5q0 -35 17.5 -62.5t48 -52t70.5 -45t85 -39.5q74 -31 151 -62.5t139.5 -76.5t103.5 -108.5t41 -155.5q0 -53 -13.5 -93t-36 -71t-51 -51.5 t-57.5 -32.5q78 -47 126 -122.5t48 -182.5q0 -100 -34 -170t-96.5 -113t-151.5 -62.5t-197 -19.5q-111 0 -204 23t-160.5 73t-105.5 133t-38 204zM453 575q0 -72 85 -118.5t238 -89.5q47 14 76 49t25 82q-4 43 -38 75.5t-81 58t-100.5 43t-96.5 30.5q-47 -14 -77.5 -48.5 t-30.5 -81.5z" />
<glyph unicode="&#xa8;" horiz-adv-x="681" d="M-33 1282q0 66 39 103.5t115 37.5q74 0 114.5 -37.5t40.5 -103.5q0 -70 -40.5 -106.5t-114.5 -36.5q-154 0 -154 143zM406 1282q0 66 38.5 103.5t114.5 37.5q74 0 115 -37.5t41 -103.5q0 -70 -41 -106.5t-115 -36.5q-154 0 -153 143z" />
<glyph unicode="&#xa9;" horiz-adv-x="1617" d="M102 717q0 162 43 298t131.5 234.5t221.5 153.5t311 55t311 -55t221.5 -153.5t131.5 -234.5t43 -298q0 -164 -43 -300t-131.5 -234.5t-221.5 -153t-311 -54.5t-311 54.5t-221.5 153t-131.5 234.5t-43 300zM246 717q0 -137 33.5 -250t103.5 -192.5t175.5 -124t250.5 -44.5 q143 0 249.5 44.5t176.5 124t103.5 192.5t33.5 250t-33.5 248.5t-103.5 191.5t-176.5 124t-249.5 44q-145 0 -250.5 -44t-175.5 -124t-103.5 -191.5t-33.5 -248.5zM438 692v49q0 205 101.5 307.5t312.5 102.5q86 0 156.5 -21.5t119.5 -52.5l-41 -170q-45 23 -92 35t-106 12 q-117 0 -161 -54t-44 -163v-41q0 -111 47 -164t164 -53q57 0 105.5 12.5t95.5 36.5l41 -172q-49 -29 -122 -51t-159 -22q-213 0 -315.5 103t-102.5 306z" />
<glyph unicode="&#xaa;" horiz-adv-x="761" d="M53 963q0 123 73 174t202 51q41 0 78.5 -5t60.5 -12v5v20q0 49 -27.5 73.5t-95.5 24.5q-59 0 -116.5 -12t-106.5 -33l-31 140q57 27 133 44t162 17q160 0 224.5 -73.5t64.5 -209.5v-397h-191l-14 109h-2q-23 -51 -68 -88t-133 -37q-39 0 -76.5 11t-68.5 36.5t-49.5 65.5 t-18.5 96zM246 979q0 -41 23.5 -55.5t66.5 -14.5q53 0 92 34t39 91v21q-20 4 -50 7t-55 3q-66 0 -91 -19.5t-25 -66.5z" />
<glyph unicode="&#xab;" horiz-adv-x="1159" d="M49 680l252 412h299l-256 -412l256 -410h-299zM518 680l254 412h297l-254 -412l254 -410h-297z" />
<glyph unicode="&#xac;" horiz-adv-x="999" d="M47 592v248h868v-580h-270v332h-598z" />
<glyph unicode="&#xad;" horiz-adv-x="774" d="M55 539v237h666v-237h-666z" />
<glyph unicode="&#xae;" horiz-adv-x="1159" d="M76 920q0 258 126 396t378 138t377.5 -138t125.5 -396t-126 -396.5t-377 -138.5q-252 0 -378 138.5t-126 396.5zM199 920q0 -217 88 -320.5t293 -103.5t293 103t88 321q0 215 -88 319t-293 104t-293 -104t-88 -319zM387 651v551h225q109 0 156 -50t47 -134 q0 -70 -26.5 -109t-67.5 -55l113 -203h-150l-96 183h-58v-183h-143zM530 946h70q39 0 55.5 15.5t16.5 56.5q0 39 -19.5 53t-60.5 14h-62v-139z" />
<glyph unicode="&#xaf;" horiz-adv-x="681" d="M8 1155v172h664v-172h-664z" />
<glyph unicode="&#xb0;" horiz-adv-x="763" d="M88 1157q0 145 77 223t216 78t217 -77.5t78 -223.5q0 -147 -78 -225t-217 -78t-216 78t-77 225zM242 1157q0 -76 33.5 -118t105.5 -42t105.5 42t33.5 118t-33.5 118t-105.5 42t-105.5 -42t-33.5 -118z" />
<glyph unicode="&#xb1;" horiz-adv-x="1034" d="M68 0v158h899v-158h-899zM68 629v241h313v379h274v-379h312v-241h-312v-377h-274v377h-313z" />
<glyph unicode="&#xb2;" horiz-adv-x="618" d="M51 772v129l230 213q33 31 54 60.5t21 66.5q0 31 -23.5 45t-60.5 14q-47 0 -93 -10t-91 -26l-33 135q47 23 115 38t131 15q111 0 177.5 -47t66.5 -152q0 -78 -45 -133t-99 -104l-100 -92h258v-152h-508z" />
<glyph unicode="&#xb3;" horiz-adv-x="610" d="M39 807l33 141q86 -39 178 -39q117 0 117 72q0 41 -30 55.5t-77 14.5h-84v125h90q43 0 67.5 17t24.5 48q0 59 -98 59q-49 0 -95 -11t-83 -27l-35 137q49 23 106.5 37t129.5 14q117 0 185.5 -45t68.5 -143q0 -55 -29 -90t-66 -52q47 -16 77 -54t30 -101q0 -111 -74 -160 t-201 -49q-74 0 -131 14t-104 37z" />
<glyph unicode="&#xb4;" horiz-adv-x="681" d="M63 1251l457 258l98 -221l-499 -166z" />
<glyph unicode="&#xb5;" horiz-adv-x="1214" d="M123 -410v1434h307v-506q0 -133 54.5 -209t160.5 -76q80 0 110.5 43t30.5 138v610h308v-655q0 -199 -84 -295.5t-265 -96.5q-68 0 -121 17.5t-91.5 47.5t-65.5 65.5t-41 72.5h-4l8 -178v-412h-307z" />
<glyph unicode="&#xb6;" horiz-adv-x="911" d="M53 1036q0 100 31 175t86 124t132 74t167 25h403v-215h-143q-55 0 -74.5 -28t-19.5 -81v-1255h-246v763q-72 14 -132 45t-106.5 82.5t-72 123t-25.5 167.5z" />
<glyph unicode="&#xb7;" horiz-adv-x="534" d="M86 590q0 33 9 64.5t30.5 56t55.5 39t85 14.5t86 -14.5t55.5 -39t29.5 -56t9 -64.5q0 -35 -9 -65.5t-29.5 -55.5t-55.5 -39t-86 -14t-85 14t-55.5 39t-30.5 55.5t-9 65.5z" />
<glyph unicode="&#xb8;" horiz-adv-x="681" d="M168 -401l27 110q63 -25 116 -24q37 0 60.5 13t23.5 44q0 29 -20.5 43t-67.5 14h-94v90l82 115h115l-48 -98q94 4 151.5 -39t57.5 -123q0 -53 -18 -87t-49 -54.5t-71 -28.5t-83 -8q-55 0 -99 8t-83 25z" />
<glyph unicode="&#xb9;" horiz-adv-x="475" d="M18 1311l197 127h166v-664h-188v471l-130 -59z" />
<glyph unicode="&#xba;" horiz-adv-x="792" d="M61 1081v39q0 154 85 242t251 88t250 -88t84 -242v-39q0 -154 -84 -241.5t-250 -87.5t-251 88t-85 241zM279 1081q0 -84 26 -123.5t92 -39.5q63 0 90 39.5t27 123.5v39q0 84 -26.5 124t-90.5 40q-66 0 -92 -40t-26 -124v-39z" />
<glyph unicode="&#xbb;" horiz-adv-x="1159" d="M90 270l254 410l-254 412h299l252 -412l-252 -410h-299zM559 270l254 410l-254 412h299l252 -412l-252 -410h-299z" />
<glyph unicode="&#xbc;" horiz-adv-x="1482" d="M86 1311l195 127h168v-664h-191v471l-127 -59zM201 0l843 1434h238l-844 -1434h-237zM825 111v122l199 433h180l-186 -416h139l8 194h176v-194h82v-139h-82v-111h-184v111h-332z" />
<glyph unicode="&#xbd;" horiz-adv-x="1458" d="M80 1311l194 127h168v-664h-190v471l-127 -57zM174 0l844 1434h237l-843 -1434h-238zM868 0v129l230 211q33 31 54.5 60.5t21.5 66.5q0 31 -24 45t-63 14q-88 0 -182 -39l-33 138q47 23 115 38t131 15q109 0 176.5 -47t67.5 -152q0 -78 -45 -133t-98 -102l-101 -94h256 v-150h-506z" />
<glyph unicode="&#xbe;" horiz-adv-x="1458" d="M72 805l32 141q84 -39 177 -39q119 0 118 72q0 41 -29.5 55.5t-78.5 14.5h-84v127h92q43 0 67.5 16t24.5 49t-25.5 45t-74.5 12q-47 0 -93 -11t-83 -27l-35 139q47 23 105.5 37t129.5 14q115 0 184.5 -45t69.5 -143q0 -55 -29.5 -90t-64.5 -54q45 -16 76 -53t31 -102 q0 -111 -74 -159t-201 -48q-76 0 -132 13t-103 36zM209 0l844 1434h237l-844 -1434h-237zM825 111v122l197 433h182l-186 -416h139l8 194h176v-194h82v-139h-82v-111h-184v111h-332z" />
<glyph unicode="&#xbf;" horiz-adv-x="1077" d="M86 -92q0 76 25.5 135t62.5 109.5t82 92.5t82 82t62.5 81t25.5 88v59h285v-59q0 -61 -23.5 -111.5t-58.5 -93.5t-75 -82t-75 -78t-58.5 -79t-23.5 -85q0 -43 20.5 -70.5t52.5 -43t71 -21.5t77 -6q86 0 170 17.5t175 50.5l61 -230q-90 -41 -204 -66.5t-253 -25.5 q-92 0 -179 15.5t-153.5 53t-107.5 103.5t-41 164zM381 870q0 70 39 124.5t141 54.5t142 -54.5t40 -124.5q0 -35 -9 -65.5t-30.5 -55t-56.5 -39t-86 -14.5t-86 14.5t-55.5 39t-29.5 55.5t-9 65z" />
<glyph unicode="&#xc0;" d="M25 0l495 1434h373l496 -1434h-334l-92 297h-514l-91 -297h-333zM428 1698l97 221l458 -258l-57 -129zM522 541h369l-70 229q-29 100 -57.5 195.5t-52.5 197.5h-9q-25 -102 -53 -197.5t-57 -195.5z" />
<glyph unicode="&#xc1;" d="M25 0l495 1434h373l496 -1434h-334l-92 297h-514l-91 -297h-333zM428 1661l457 258l98 -221l-499 -166zM522 541h369l-70 229q-29 100 -57.5 195.5t-52.5 197.5h-9q-25 -102 -53 -197.5t-57 -195.5z" />
<glyph unicode="&#xc2;" d="M25 0l495 1434h373l496 -1434h-334l-92 297h-514l-91 -297h-333zM361 1557l262 317h164l262 -317h-195l-149 133l-147 -133h-197zM522 541h369l-70 229q-29 100 -57.5 195.5t-52.5 197.5h-9q-25 -102 -53 -197.5t-57 -195.5z" />
<glyph unicode="&#xc3;" d="M25 0l495 1434h373l496 -1434h-334l-92 297h-514l-91 -297h-333zM351 1559q6 156 55 232.5t162 76.5q45 0 80.5 -19.5t66.5 -44t59.5 -44t59.5 -19.5t47 27.5t21 95.5h157q-4 -156 -53 -233.5t-162 -77.5q-43 0 -80 20.5t-68.5 44t-60 44t-57.5 20.5q-31 0 -48.5 -29 t-21.5 -94h-157zM522 541h369l-70 229q-29 100 -57.5 195.5t-52.5 197.5h-9q-25 -102 -53 -197.5t-57 -195.5z" />
<glyph unicode="&#xc4;" d="M25 0l495 1434h373l496 -1434h-334l-92 297h-514l-91 -297h-333zM332 1692q0 66 39 103.5t115 37.5q74 0 114.5 -37.5t40.5 -103.5q0 -70 -40.5 -106.5t-114.5 -36.5q-154 0 -154 143zM522 541h369l-70 229q-29 100 -57.5 195.5t-52.5 197.5h-9q-25 -102 -53 -197.5 t-57 -195.5zM771 1692q0 66 38.5 103.5t114.5 37.5q74 0 115 -37.5t41 -103.5q0 -70 -41 -106.5t-115 -36.5q-154 0 -153 143z" />
<glyph unicode="&#xc5;" d="M25 0l487 1409q-31 49 -31 127q0 111 63 162t161 51t160.5 -51t62.5 -162q0 -74 -29 -121l490 -1415h-334l-92 297h-514l-91 -297h-333zM522 541h369l-70 229q-29 100 -57.5 195.5t-52.5 197.5h-9q-25 -102 -53 -197.5t-57 -195.5zM623 1536q0 -49 20.5 -70.5t61.5 -21.5 t61 21.5t20 70.5q0 90 -81 90q-82 0 -82 -90z" />
<glyph unicode="&#xc6;" horiz-adv-x="1875" d="M2 0l836 1434h938v-269h-564v-317h519v-262h-519v-320h570v-266h-879v295h-409l-164 -295h-328zM616 514h287v596h-6q-20 -57 -46 -119.5t-65 -138.5z" />
<glyph unicode="&#xc7;" horiz-adv-x="1255" d="M96 680v72q0 168 39 299t121 221t207 137t295 47q129 0 233.5 -26.5t184.5 -67.5l-62 -240q-72 31 -146.5 47.5t-158.5 16.5q-199 0 -296 -115t-97 -319v-72q0 -96 18.5 -177t63.5 -138.5t118.5 -89t182.5 -31.5q174 0 334 71l61 -239q-72 -37 -167 -64.5t-208 -34.5 l-33 -71q94 4 151.5 -39t57.5 -123q0 -53 -18.5 -87t-49 -54.5t-70.5 -28.5t-83 -8q-55 0 -99 8t-83 25l26 110q63 -25 117 -24q37 0 60.5 13t23.5 44q0 29 -20.5 43t-67.5 14h-94v90l61 88q-160 8 -273.5 62.5t-187 145.5t-107.5 216t-34 279z" />
<glyph unicode="&#xc8;" horiz-adv-x="1183" d="M139 0v1434h942v-269h-628v-317h583v-262h-583v-320h637v-266h-951zM331 1698l97 221l458 -258l-57 -129z" />
<glyph unicode="&#xc9;" horiz-adv-x="1183" d="M139 0v1434h942v-269h-628v-317h583v-262h-583v-320h637v-266h-951zM364 1661l457 258l98 -221l-499 -166z" />
<glyph unicode="&#xca;" horiz-adv-x="1183" d="M139 0v1434h942v-269h-628v-317h583v-262h-583v-320h637v-266h-951zM254 1557l262 317h164l262 -317h-195l-149 133l-147 -133h-197z" />
<glyph unicode="&#xcb;" horiz-adv-x="1183" d="M139 0v1434h942v-269h-628v-317h583v-262h-583v-320h637v-266h-951zM237 1692q0 66 39 103.5t115 37.5q74 0 114.5 -37.5t40.5 -103.5q0 -70 -40.5 -106.5t-114.5 -36.5q-154 0 -154 143zM676 1692q0 66 38.5 103.5t114.5 37.5q74 0 115 -37.5t41 -103.5 q0 -70 -41 -106.5t-115 -36.5q-154 0 -153 143z" />
<glyph unicode="&#xcc;" horiz-adv-x="606" d="M24 1698l97 221l458 -258l-57 -129zM143 0v1434h318v-1434h-318z" />
<glyph unicode="&#xcd;" horiz-adv-x="606" d="M24 1661l457 258l98 -221l-499 -166zM143 0v1434h318v-1434h-318z" />
<glyph unicode="&#xce;" horiz-adv-x="606" d="M-43 1557l262 317h164l262 -317h-195l-149 133l-147 -133h-197zM143 0v1434h318v-1434h-318z" />
<glyph unicode="&#xcf;" horiz-adv-x="606" d="M-72 1692q0 66 39 103.5t115 37.5q74 0 114.5 -37.5t40.5 -103.5q0 -70 -40.5 -106.5t-114.5 -36.5q-154 0 -154 143zM143 0v1434h318v-1434h-318zM367 1692q0 66 38.5 103.5t114.5 37.5q74 0 115 -37.5t41 -103.5q0 -70 -41 -106.5t-115 -36.5q-154 0 -153 143z" />
<glyph unicode="&#xd0;" d="M-2 604v189h143v641h551q168 0 287 -45.5t194.5 -131.5t110.5 -210.5t35 -286.5v-74q0 -166 -36 -293t-112.5 -215t-197.5 -133t-289 -45h-543v604h-143zM461 272h215q94 0 156.5 28t99.5 81t52 130t15 175v70q0 96 -14 172t-49 127t-96.5 77.5t-153.5 26.5h-225v-366 h282v-189h-282v-332z" />
<glyph unicode="&#xd1;" horiz-adv-x="1472" d="M139 0v1434h322l375 -603q61 -100 119.5 -211.5t103.5 -211.5h6q-14 123 -19.5 254t-5.5 260v512h303v-1434h-319l-358 565q-70 111 -132.5 229.5t-107.5 229.5h-6q12 -123 17 -254t5 -260v-510h-303zM381 1559q6 156 55 232.5t162 76.5q45 0 80.5 -19.5t66.5 -44 t59.5 -44t59.5 -19.5t47 27.5t21 95.5h157q-4 -156 -53 -233.5t-162 -77.5q-43 0 -80 20.5t-68.5 44t-60 44t-57.5 20.5q-31 0 -48.5 -29t-21.5 -94h-157z" />
<glyph unicode="&#xd2;" horiz-adv-x="1441" d="M96 680v72q0 166 37 297t113 221t193.5 138t281.5 48q162 0 280.5 -48t194.5 -138t113 -221t37 -297v-72q0 -166 -37 -296t-113 -221t-194.5 -139.5t-280.5 -48.5q-164 0 -281.5 48.5t-193.5 139.5t-113 221t-37 296zM416 680q0 -102 14 -183t50 -138.5t94.5 -87 t146.5 -29.5t146.5 29.5t93 87t50 138.5t15.5 183v72q0 102 -15.5 184t-50 138t-93 87t-146.5 31t-146.5 -31t-94.5 -87t-50 -138t-14 -184v-72zM442 1698l97 221l458 -258l-57 -129z" />
<glyph unicode="&#xd3;" horiz-adv-x="1441" d="M96 680v72q0 166 37 297t113 221t193.5 138t281.5 48q162 0 280.5 -48t194.5 -138t113 -221t37 -297v-72q0 -166 -37 -296t-113 -221t-194.5 -139.5t-280.5 -48.5q-164 0 -281.5 48.5t-193.5 139.5t-113 221t-37 296zM416 680q0 -102 14 -183t50 -138.5t94.5 -87 t146.5 -29.5t146.5 29.5t93 87t50 138.5t15.5 183v72q0 102 -15.5 184t-50 138t-93 87t-146.5 31t-146.5 -31t-94.5 -87t-50 -138t-14 -184v-72zM442 1661l457 258l98 -221l-499 -166z" />
<glyph unicode="&#xd4;" horiz-adv-x="1441" d="M96 680v72q0 166 37 297t113 221t193.5 138t281.5 48q162 0 280.5 -48t194.5 -138t113 -221t37 -297v-72q0 -166 -37 -296t-113 -221t-194.5 -139.5t-280.5 -48.5q-164 0 -281.5 48.5t-193.5 139.5t-113 221t-37 296zM377 1557l262 317h164l262 -317h-195l-149 133 l-147 -133h-197zM416 680q0 -102 14 -183t50 -138.5t94.5 -87t146.5 -29.5t146.5 29.5t93 87t50 138.5t15.5 183v72q0 102 -15.5 184t-50 138t-93 87t-146.5 31t-146.5 -31t-94.5 -87t-50 -138t-14 -184v-72z" />
<glyph unicode="&#xd5;" horiz-adv-x="1443" d="M96 680v72q0 166 37 297t113 221t193.5 138t281.5 48q162 0 280.5 -48t194.5 -138t113 -221t37 -297v-72q0 -166 -37 -296t-113 -221t-194.5 -139.5t-280.5 -48.5q-164 0 -281.5 48.5t-193.5 139.5t-113 221t-37 296zM367 1559q6 156 55 232.5t162 76.5q45 0 80.5 -19.5 t66.5 -44t59.5 -44t59.5 -19.5t47 27.5t21 95.5h157q-4 -156 -53 -233.5t-162 -77.5q-43 0 -80 20.5t-68.5 44t-60 44t-57.5 20.5q-31 0 -48.5 -29t-21.5 -94h-157zM416 680q0 -102 14 -183t50 -138.5t94.5 -87t146.5 -29.5t146.5 29.5t93 87t50 138.5t15.5 183v72 q0 102 -15.5 184t-50 138t-93 87t-146.5 31t-146.5 -31t-94.5 -87t-50 -138t-14 -184v-72z" />
<glyph unicode="&#xd6;" horiz-adv-x="1441" d="M96 680v72q0 166 37 297t113 221t193.5 138t281.5 48q162 0 280.5 -48t194.5 -138t113 -221t37 -297v-72q0 -166 -37 -296t-113 -221t-194.5 -139.5t-280.5 -48.5q-164 0 -281.5 48.5t-193.5 139.5t-113 221t-37 296zM346 1692q0 66 39 103.5t115 37.5q74 0 114.5 -37.5 t40.5 -103.5q0 -70 -40.5 -106.5t-114.5 -36.5q-154 0 -154 143zM416 680q0 -102 14 -183t50 -138.5t94.5 -87t146.5 -29.5t146.5 29.5t93 87t50 138.5t15.5 183v72q0 102 -15.5 184t-50 138t-93 87t-146.5 31t-146.5 -31t-94.5 -87t-50 -138t-14 -184v-72zM785 1692 q0 66 38.5 103.5t114.5 37.5q74 0 115 -37.5t41 -103.5q0 -70 -41 -106.5t-115 -36.5q-154 0 -153 143z" />
<glyph unicode="&#xd7;" horiz-adv-x="1034" d="M82 352l256 305l-256 304l186 186l248 -307l250 307l186 -186l-256 -304l256 -305l-184 -188l-252 309l-248 -309z" />
<glyph unicode="&#xd8;" horiz-adv-x="1441" d="M96 680v72q0 166 37 297t113 221t193.5 138t281.5 48q102 0 185 -19.5t151 -54.5l59 93h193l-123 -195q82 -92 121 -224t39 -304v-72q0 -166 -37 -296t-113 -221t-194.5 -139.5t-280.5 -48.5q-186 0 -322 66l-63 -102h-193l125 196q-90 92 -131 228.5t-41 316.5zM416 680 q0 -78 8 -142.5t27 -115.5l452 715q-35 27 -79 41t-103 14q-88 0 -146.5 -31t-94.5 -87t-50 -138t-14 -184v-72zM553 283q66 -41 168 -41q88 0 146.5 29.5t93 87t50 138.5t15.5 183v72q0 139 -27 233z" />
<glyph unicode="&#xd9;" horiz-adv-x="1409" d="M131 590v844h320v-836q0 -94 12 -160.5t42 -107.5t78 -60.5t122 -19.5t121.5 19.5t77.5 60.5t42 107.5t12 160.5v836h320v-844q0 -154 -32 -268.5t-100.5 -191.5t-177.5 -116t-263 -39t-263.5 39t-178 116t-100.5 191.5t-32 268.5zM428 1698l97 221l458 -258l-57 -129z " />
<glyph unicode="&#xda;" horiz-adv-x="1409" d="M131 590v844h320v-836q0 -94 12 -160.5t42 -107.5t78 -60.5t122 -19.5t121.5 19.5t77.5 60.5t42 107.5t12 160.5v836h320v-844q0 -154 -32 -268.5t-100.5 -191.5t-177.5 -116t-263 -39t-263.5 39t-178 116t-100.5 191.5t-32 268.5zM428 1661l457 258l98 -221l-499 -166z " />
<glyph unicode="&#xdb;" horiz-adv-x="1409" d="M131 590v844h320v-836q0 -94 12 -160.5t42 -107.5t78 -60.5t122 -19.5t121.5 19.5t77.5 60.5t42 107.5t12 160.5v836h320v-844q0 -154 -32 -268.5t-100.5 -191.5t-177.5 -116t-263 -39t-263.5 39t-178 116t-100.5 191.5t-32 268.5zM361 1557l262 317h164l262 -317h-195 l-149 133l-147 -133h-197z" />
<glyph unicode="&#xdc;" horiz-adv-x="1409" d="M131 590v844h320v-836q0 -94 12 -160.5t42 -107.5t78 -60.5t122 -19.5t121.5 19.5t77.5 60.5t42 107.5t12 160.5v836h320v-844q0 -154 -32 -268.5t-100.5 -191.5t-177.5 -116t-263 -39t-263.5 39t-178 116t-100.5 191.5t-32 268.5zM332 1692q0 66 39 103.5t115 37.5 q74 0 114.5 -37.5t40.5 -103.5q0 -70 -40.5 -106.5t-114.5 -36.5q-154 0 -154 143zM771 1692q0 66 38.5 103.5t114.5 37.5q74 0 115 -37.5t41 -103.5q0 -70 -41 -106.5t-115 -36.5q-154 0 -153 143z" />
<glyph unicode="&#xdd;" horiz-adv-x="1363" d="M20 1434h345l198 -387q37 -72 64.5 -144t50.5 -141h6q45 143 117 285l196 387h346l-501 -912v-522h-320v522zM403 1661l457 258l98 -221l-499 -166z" />
<glyph unicode="&#xde;" horiz-adv-x="1306" d="M139 0v1434h318v-250h254q260 0 381.5 -110.5t121.5 -356.5q0 -250 -124.5 -360.5t-380.5 -110.5h-250v-246h-320zM457 504h231q121 0 168 48t47 165q0 115 -46 162t-165 47h-235v-422z" />
<glyph unicode="&#xdf;" horiz-adv-x="1353" d="M127 0v926q0 264 138 397t431 133q137 0 235.5 -30.5t162 -86t94.5 -130t31 -162.5q0 -111 -52.5 -188t-146.5 -109v-2q117 -31 185.5 -118t68.5 -241q0 -111 -31 -189.5t-88 -127.5t-140 -73t-186 -24q-98 0 -179 17.5t-132 44.5l49 199q45 -20 99.5 -33t113.5 -13 q96 0 149.5 48.5t53.5 169.5q0 117 -58.5 171t-187.5 54h-119v211h132q94 0 141 42t47 142q0 193 -233 193q-141 0 -208 -72t-67 -234v-915h-303z" />
<glyph unicode="&#xe0;" horiz-adv-x="1122" d="M74 295q0 190 111.5 268t322.5 70q55 0 106.5 -7.5t87.5 -13.5v43q0 88 -46 130t-152 42q-92 0 -173 -18t-153 -47l-49 199q88 37 195.5 61.5t228.5 24.5q233 0 340.5 -99.5t107.5 -292.5v-655h-276l-18 178h-5q-14 -41 -39.5 -76.5t-62.5 -62.5t-87 -42t-116 -15 q-68 0 -126 19t-102 59t-69.5 98.5t-25.5 136.5zM282 1288l97 221l458 -258l-57 -129zM340 322q0 -74 42 -105t107 -31q45 0 85 18.5t68 48.5t44 68.5t16 81.5v50q-33 8 -78.5 12t-86.5 4q-104 0 -150.5 -34.5t-46.5 -112.5z" />
<glyph unicode="&#xe1;" horiz-adv-x="1122" d="M74 295q0 190 111.5 268t322.5 70q55 0 106.5 -7.5t87.5 -13.5v43q0 88 -46 130t-152 42q-92 0 -173 -18t-153 -47l-49 199q88 37 195.5 61.5t228.5 24.5q233 0 340.5 -99.5t107.5 -292.5v-655h-276l-18 178h-5q-14 -41 -39.5 -76.5t-62.5 -62.5t-87 -42t-116 -15 q-68 0 -126 19t-102 59t-69.5 98.5t-25.5 136.5zM282 1251l457 258l98 -221l-499 -166zM340 322q0 -74 42 -105t107 -31q45 0 85 18.5t68 48.5t44 68.5t16 81.5v50q-33 8 -78.5 12t-86.5 4q-104 0 -150.5 -34.5t-46.5 -112.5z" />
<glyph unicode="&#xe2;" horiz-adv-x="1122" d="M74 295q0 190 111.5 268t322.5 70q55 0 106.5 -7.5t87.5 -13.5v43q0 88 -46 130t-152 42q-92 0 -173 -18t-153 -47l-49 199q88 37 195.5 61.5t228.5 24.5q233 0 340.5 -99.5t107.5 -292.5v-655h-276l-18 178h-5q-14 -41 -39.5 -76.5t-62.5 -62.5t-87 -42t-116 -15 q-68 0 -126 19t-102 59t-69.5 98.5t-25.5 136.5zM215 1147l262 317h164l262 -317h-195l-149 133l-147 -133h-197zM340 322q0 -74 42 -105t107 -31q45 0 85 18.5t68 48.5t44 68.5t16 81.5v50q-33 8 -78.5 12t-86.5 4q-104 0 -150.5 -34.5t-46.5 -112.5z" />
<glyph unicode="&#xe3;" horiz-adv-x="1122" d="M74 295q0 190 111.5 268t322.5 70q55 0 106.5 -7.5t87.5 -13.5v43q0 88 -46 130t-152 42q-92 0 -173 -18t-153 -47l-49 199q88 37 195.5 61.5t228.5 24.5q233 0 340.5 -99.5t107.5 -292.5v-655h-276l-18 178h-5q-14 -41 -39.5 -76.5t-62.5 -62.5t-87 -42t-116 -15 q-68 0 -126 19t-102 59t-69.5 98.5t-25.5 136.5zM205 1149q6 156 55 232.5t162 76.5q45 0 80.5 -19.5t66.5 -44t59.5 -44t59.5 -19.5t47 27.5t21 95.5h157q-4 -156 -53 -233.5t-162 -77.5q-43 0 -80 20.5t-68.5 44t-60 44t-57.5 20.5q-31 0 -48.5 -29t-21.5 -94h-157z M340 322q0 -74 42 -105t107 -31q45 0 85 18.5t68 48.5t44 68.5t16 81.5v50q-33 8 -78.5 12t-86.5 4q-104 0 -150.5 -34.5t-46.5 -112.5z" />
<glyph unicode="&#xe4;" horiz-adv-x="1122" d="M74 295q0 190 111.5 268t322.5 70q55 0 106.5 -7.5t87.5 -13.5v43q0 88 -46 130t-152 42q-92 0 -173 -18t-153 -47l-49 199q88 37 195.5 61.5t228.5 24.5q233 0 340.5 -99.5t107.5 -292.5v-655h-276l-18 178h-5q-14 -41 -39.5 -76.5t-62.5 -62.5t-87 -42t-116 -15 q-68 0 -126 19t-102 59t-69.5 98.5t-25.5 136.5zM186 1282q0 66 39 103.5t115 37.5q74 0 114.5 -37.5t40.5 -103.5q0 -70 -40.5 -106.5t-114.5 -36.5q-154 0 -154 143zM340 322q0 -74 42 -105t107 -31q45 0 85 18.5t68 48.5t44 68.5t16 81.5v50q-33 8 -78.5 12t-86.5 4 q-104 0 -150.5 -34.5t-46.5 -112.5zM625 1282q0 66 38.5 103.5t114.5 37.5q74 0 115 -37.5t41 -103.5q0 -70 -41 -106.5t-115 -36.5q-154 0 -153 143z" />
<glyph unicode="&#xe5;" horiz-adv-x="1122" d="M74 295q0 190 111.5 268t322.5 70q55 0 106.5 -7.5t87.5 -13.5v43q0 88 -46 130t-152 42q-92 0 -173 -18t-153 -47l-49 199q88 37 195.5 61.5t228.5 24.5q233 0 340.5 -99.5t107.5 -292.5v-655h-276l-18 178h-5q-14 -41 -39.5 -76.5t-62.5 -62.5t-87 -42t-116 -15 q-68 0 -126 19t-102 59t-69.5 98.5t-25.5 136.5zM336 1356q0 111 62.5 162t160.5 51t160.5 -51.5t62.5 -161.5q0 -113 -62.5 -164t-160.5 -51t-160.5 51t-62.5 164zM340 322q0 -74 42 -105t107 -31q45 0 85 18.5t68 48.5t44 68.5t16 81.5v50q-33 8 -78.5 12t-86.5 4 q-104 0 -150.5 -34.5t-46.5 -112.5zM477 1356q0 -49 20.5 -70.5t61.5 -21.5t61.5 21.5t20.5 70.5q0 90 -82 90t-82 -90z" />
<glyph unicode="&#xe6;" horiz-adv-x="1796" d="M94 403v193h656v20q-10 104 -76 165t-201 61q-90 0 -160.5 -21.5t-136.5 -56.5l-43 178q66 43 160 75t217 32q135 0 234.5 -52.5t140.5 -154.5h6q39 98 138 152.5t243 54.5q119 0 200.5 -36t133 -95.5t73 -137.5t21.5 -162v-192h-656q8 -115 73 -179.5t206 -64.5 q90 0 159.5 21.5t135.5 56.5l45 -180q-63 -41 -158.5 -73t-218.5 -32q-137 0 -237.5 52.5t-139.5 150.5h-6q-39 -94 -138 -148.5t-243 -54.5q-119 0 -200.5 35t-132 94.5t-73 137t-22.5 161.5zM348 406q0 -55 8.5 -97.5t30 -72t58.5 -44t94 -14.5q111 0 155.5 61.5 t48.5 186.5h-395v-20zM1053 598h393v18q0 113 -39 170.5t-152 57.5q-111 0 -154.5 -61.5t-47.5 -184.5z" />
<glyph unicode="&#xe7;" horiz-adv-x="1001" d="M88 485v54q0 508 510 508q104 0 191.5 -26t146.5 -63l-51 -204q-53 29 -110.5 43t-127.5 14q-139 0 -195.5 -71.5t-56.5 -202.5v-50q0 -135 56.5 -205.5t193.5 -70.5q74 0 134.5 15.5t117.5 45.5l49 -204q-59 -39 -149 -66t-197 -27h-24.5t-24.5 2l-33 -71 q94 4 151.5 -39t57.5 -123q0 -53 -18.5 -87t-49 -54.5t-70.5 -28.5t-83 -8q-55 0 -99.5 8t-82.5 25l26 110q63 -25 117 -24q37 0 60.5 13t23.5 44q0 29 -20.5 43t-67.5 14h-94v90l71 103q-352 72 -352 493z" />
<glyph unicode="&#xe8;" horiz-adv-x="1134" d="M88 485v54q0 240 123 374t377 134q131 0 218 -40t139 -104.5t74.5 -146.5t22.5 -168v-187h-659q10 -113 79.5 -164t203.5 -51q86 0 155.5 22.5t134.5 57.5l48 -186q-63 -41 -158.5 -73t-216.5 -32q-264 0 -402.5 133.5t-138.5 376.5zM288 1288l97 221l458 -258l-57 -129z M381 571h397v17q0 115 -38.5 184.5t-149.5 69.5q-117 0 -163 -67.5t-46 -196.5v-7z" />
<glyph unicode="&#xe9;" horiz-adv-x="1134" d="M88 485v54q0 240 123 374t377 134q131 0 218 -40t139 -104.5t74.5 -146.5t22.5 -168v-187h-659q10 -113 79.5 -164t203.5 -51q86 0 155.5 22.5t134.5 57.5l48 -186q-63 -41 -158.5 -73t-216.5 -32q-264 0 -402.5 133.5t-138.5 376.5zM288 1251l457 258l98 -221l-499 -166 zM381 571h397v17q0 115 -38.5 184.5t-149.5 69.5q-117 0 -163 -67.5t-46 -196.5v-7z" />
<glyph unicode="&#xea;" horiz-adv-x="1134" d="M88 485v54q0 240 123 374t377 134q131 0 218 -40t139 -104.5t74.5 -146.5t22.5 -168v-187h-659q10 -113 79.5 -164t203.5 -51q86 0 155.5 22.5t134.5 57.5l48 -186q-63 -41 -158.5 -73t-216.5 -32q-264 0 -402.5 133.5t-138.5 376.5zM221 1147l262 317h164l262 -317h-195 l-149 133l-147 -133h-197zM381 571h397v17q0 115 -38.5 184.5t-149.5 69.5q-117 0 -163 -67.5t-46 -196.5v-7z" />
<glyph unicode="&#xeb;" horiz-adv-x="1134" d="M88 485v54q0 240 123 374t377 134q131 0 218 -40t139 -104.5t74.5 -146.5t22.5 -168v-187h-659q10 -113 79.5 -164t203.5 -51q86 0 155.5 22.5t134.5 57.5l48 -186q-63 -41 -158.5 -73t-216.5 -32q-264 0 -402.5 133.5t-138.5 376.5zM192 1282q0 66 39 103.5t115 37.5 q74 0 114.5 -37.5t40.5 -103.5q0 -70 -40.5 -106.5t-114.5 -36.5q-154 0 -154 143zM381 571h397v17q0 115 -38.5 184.5t-149.5 69.5q-117 0 -163 -67.5t-46 -196.5v-7zM631 1282q0 66 38.5 103.5t114.5 37.5q74 0 115 -37.5t41 -103.5q0 -70 -41 -106.5t-115 -36.5 q-154 0 -153 143z" />
<glyph unicode="&#xec;" horiz-adv-x="557" d="M2 1288l97 221l458 -258l-57 -129zM125 0v1024h307v-1024h-307z" />
<glyph unicode="&#xed;" horiz-adv-x="557" d="M2 1251l457 258l98 -221l-499 -166zM125 0v1024h307v-1024h-307z" />
<glyph unicode="&#xee;" horiz-adv-x="557" d="M-65 1147l262 317h164l262 -317h-195l-149 133l-147 -133h-197zM125 0v1024h307v-1024h-307z" />
<glyph unicode="&#xef;" horiz-adv-x="557" d="M-94 1282q0 66 39 103.5t115 37.5q74 0 114.5 -37.5t40.5 -103.5q0 -70 -40.5 -106.5t-114.5 -36.5q-154 0 -154 143zM125 0v1024h307v-1024h-307zM345 1282q0 66 38.5 103.5t114.5 37.5q74 0 115 -37.5t41 -103.5q0 -70 -41 -106.5t-115 -36.5q-154 0 -153 143z" />
<glyph unicode="&#xf0;" horiz-adv-x="1175" d="M82 481v39q0 121 34 213t94 154.5t143 94.5t184 32q98 0 171.5 -34t131.5 -95q-23 59 -67 122.5t-99 120.5l-207 -53l-35 119l129 33q-45 35 -88 61.5t-86 46.5l127 127q150 -82 254 -176l193 53l32 -125l-123 -32q125 -154 170 -323t45 -349v-16q0 -121 -29.5 -217.5 t-91 -164t-155.5 -103.5t-223 -36q-258 0 -381 133.5t-123 374.5zM391 481q0 -131 43 -201.5t152 -70.5q106 0 149 70.5t43 201.5v39q0 131 -44 201t-148 70q-106 0 -150.5 -70t-44.5 -201v-39z" />
<glyph unicode="&#xf1;" horiz-adv-x="1251" d="M123 0v1024h280l17 -182h4q16 37 45 73.5t72 66.5t101 47.5t134 17.5q188 0 271 -102.5t83 -313.5v-631h-307v584q0 111 -32.5 159t-124.5 48q-117 0 -176.5 -76t-59.5 -217v-498h-307zM269 1149q6 156 55 232.5t162 76.5q45 0 80.5 -19.5t66.5 -44t59.5 -44t59.5 -19.5 t47 27.5t21 95.5h157q-4 -156 -53 -233.5t-162 -77.5q-43 0 -80 20.5t-68.5 44t-60 44t-57.5 20.5q-31 0 -48.5 -29t-21.5 -94h-157z" />
<glyph unicode="&#xf2;" horiz-adv-x="1187" d="M88 483v56q0 236 125 372t381 136t381 -136.5t125 -371.5v-56q0 -236 -125 -372t-381 -136t-381 136.5t-125 371.5zM315 1288l97 221l458 -258l-57 -129zM395 483q0 -135 44 -207.5t155 -72.5t155 72.5t44 207.5v56q0 135 -44 207.5t-155 72.5t-155 -72.5t-44 -207.5v-56 z" />
<glyph unicode="&#xf3;" horiz-adv-x="1187" d="M88 483v56q0 236 125 372t381 136t381 -136.5t125 -371.5v-56q0 -236 -125 -372t-381 -136t-381 136.5t-125 371.5zM315 1251l457 258l98 -221l-499 -166zM395 483q0 -135 44 -207.5t155 -72.5t155 72.5t44 207.5v56q0 135 -44 207.5t-155 72.5t-155 -72.5t-44 -207.5 v-56z" />
<glyph unicode="&#xf4;" horiz-adv-x="1187" d="M88 483v56q0 236 125 372t381 136t381 -136.5t125 -371.5v-56q0 -236 -125 -372t-381 -136t-381 136.5t-125 371.5zM248 1147l262 317h164l262 -317h-195l-149 133l-147 -133h-197zM395 483q0 -135 44 -207.5t155 -72.5t155 72.5t44 207.5v56q0 135 -44 207.5t-155 72.5 t-155 -72.5t-44 -207.5v-56z" />
<glyph unicode="&#xf5;" horiz-adv-x="1187" d="M88 483v56q0 236 125 372t381 136t381 -136.5t125 -371.5v-56q0 -236 -125 -372t-381 -136t-381 136.5t-125 371.5zM238 1149q6 156 55 232.5t162 76.5q45 0 80.5 -19.5t66.5 -44t59.5 -44t59.5 -19.5t47 27.5t21 95.5h157q-4 -156 -53 -233.5t-162 -77.5q-43 0 -80 20.5 t-68.5 44t-60 44t-57.5 20.5q-31 0 -48.5 -29t-21.5 -94h-157zM395 483q0 -135 44 -207.5t155 -72.5t155 72.5t44 207.5v56q0 135 -44 207.5t-155 72.5t-155 -72.5t-44 -207.5v-56z" />
<glyph unicode="&#xf6;" horiz-adv-x="1187" d="M88 483v56q0 236 125 372t381 136t381 -136.5t125 -371.5v-56q0 -236 -125 -372t-381 -136t-381 136.5t-125 371.5zM219 1282q0 66 39 103.5t115 37.5q74 0 114.5 -37.5t40.5 -103.5q0 -70 -40.5 -106.5t-114.5 -36.5q-154 0 -154 143zM395 483q0 -135 44 -207.5 t155 -72.5t155 72.5t44 207.5v56q0 135 -44 207.5t-155 72.5t-155 -72.5t-44 -207.5v-56zM658 1282q0 66 38.5 103.5t114.5 37.5q74 0 115 -37.5t41 -103.5q0 -70 -41 -106.5t-115 -36.5q-154 0 -153 143z" />
<glyph unicode="&#xf7;" horiz-adv-x="1034" d="M82 535v241h868v-241h-868zM358 291q0 29 7.5 56.5t26 49t49 34.5t75.5 13t76 -13t49 -34.5t26.5 -49.5t8.5 -56q0 -29 -8.5 -57.5t-26.5 -50t-49 -35t-76 -13.5t-75.5 13.5t-49 35t-26 50t-7.5 57.5zM358 1022q0 29 7.5 56.5t26 49t49 35t75.5 13.5t76 -13.5t49 -35 t26.5 -49t8.5 -56.5t-8.5 -57.5t-26.5 -50t-49 -35t-76 -13.5t-75.5 13.5t-49 35t-26 50t-7.5 57.5z" />
<glyph unicode="&#xf8;" horiz-adv-x="1187" d="M88 483v56q0 236 125 372t381 136q133 0 237 -41l50 79h153l-94 -145q160 -133 160 -401v-56q0 -236 -125 -372t-381 -136q-72 0 -131.5 11.5t-108.5 31.5l-49 -79h-151l92 143q-80 66 -119 167t-39 234zM395 492q0 -86 21 -140l278 441q-39 27 -100 26q-63 0 -102 -22.5 t-60.5 -64.5t-29 -102t-7.5 -138zM492 229q43 -26 102 -26q106 0 151.5 66.5t45.5 185.5q0 59 -2.5 114.5t-18.5 102.5z" />
<glyph unicode="&#xf9;" horiz-adv-x="1216" d="M119 371v653h307v-608q0 -96 31.5 -139.5t111.5 -43.5q104 0 159.5 76t55.5 209v506h308v-1024h-279l-18 178h-4q-16 -37 -43 -72.5t-66 -64.5t-92 -46.5t-123 -17.5q-180 0 -264 96.5t-84 297.5zM329 1288l97 221l458 -258l-57 -129z" />
<glyph unicode="&#xfa;" horiz-adv-x="1216" d="M119 371v653h307v-608q0 -96 31.5 -139.5t111.5 -43.5q104 0 159.5 76t55.5 209v506h308v-1024h-279l-18 178h-4q-16 -37 -43 -72.5t-66 -64.5t-92 -46.5t-123 -17.5q-180 0 -264 96.5t-84 297.5zM329 1251l457 258l98 -221l-499 -166z" />
<glyph unicode="&#xfb;" horiz-adv-x="1216" d="M119 371v653h307v-608q0 -96 31.5 -139.5t111.5 -43.5q104 0 159.5 76t55.5 209v506h308v-1024h-279l-18 178h-4q-16 -37 -43 -72.5t-66 -64.5t-92 -46.5t-123 -17.5q-180 0 -264 96.5t-84 297.5zM262 1147l262 317h164l262 -317h-195l-149 133l-147 -133h-197z" />
<glyph unicode="&#xfc;" horiz-adv-x="1216" d="M119 371v653h307v-608q0 -96 31.5 -139.5t111.5 -43.5q104 0 159.5 76t55.5 209v506h308v-1024h-279l-18 178h-4q-16 -37 -43 -72.5t-66 -64.5t-92 -46.5t-123 -17.5q-180 0 -264 96.5t-84 297.5zM233 1282q0 66 39 103.5t115 37.5q74 0 114.5 -37.5t40.5 -103.5 q0 -70 -40.5 -106.5t-114.5 -36.5q-154 0 -154 143zM672 1282q0 66 38.5 103.5t114.5 37.5q74 0 115 -37.5t41 -103.5q0 -70 -41 -106.5t-115 -36.5q-154 0 -153 143z" />
<glyph unicode="&#xfd;" horiz-adv-x="1138" d="M23 1024h319l133 -387q29 -78 53.5 -182.5t44.5 -202.5h9q18 98 41.5 201.5t50.5 183.5l127 387h315l-387 -1059q-37 -104 -71.5 -179t-81 -123t-112 -71.5t-163.5 -23.5q-82 0 -147.5 13t-104.5 36l45 223q31 -16 76 -27.5t98 -11.5q72 0 101.5 23.5t50.5 79.5l18 51z M290 1251l457 258l98 -221l-499 -166z" />
<glyph unicode="&#xfe;" horiz-adv-x="1239" d="M127 -410v1844h305v-406q0 -43 -3 -85t-7 -85h4q39 78 121 132t219 54q205 0 295 -134t90 -375v-46q0 -94 -16.5 -185t-60.5 -163.5t-122 -116.5t-198 -44q-131 0 -211 59t-111 139h-4q4 -51 4 -101v-102v-385h-305zM432 520q0 -137 51.5 -221t171.5 -84 q100 0 146.5 64.5t46.5 212.5v43q0 137 -42.5 207.5t-146.5 70.5q-111 0 -169 -72.5t-58 -179.5v-41z" />
<glyph unicode="&#xff;" horiz-adv-x="1138" d="M23 1024h319l133 -387q29 -78 53.5 -182.5t44.5 -202.5h9q18 98 41.5 201.5t50.5 183.5l127 387h315l-387 -1059q-37 -104 -71.5 -179t-81 -123t-112 -71.5t-163.5 -23.5q-82 0 -147.5 13t-104.5 36l45 223q31 -16 76 -27.5t98 -11.5q72 0 101.5 23.5t50.5 79.5l18 51z M194 1282q0 66 39 103.5t115 37.5q74 0 114.5 -37.5t40.5 -103.5q0 -70 -40.5 -106.5t-114.5 -36.5q-154 0 -154 143zM633 1282q0 66 38.5 103.5t114.5 37.5q74 0 115 -37.5t41 -103.5q0 -70 -41 -106.5t-115 -36.5q-154 0 -153 143z" />
<glyph unicode="&#x152;" horiz-adv-x="2064" d="M96 680v74q0 166 35 296t106.5 221t181 139t261.5 48q141 0 234.5 -47t144.5 -119l8 142h895v-269h-614v-317h571v-262h-571v-320h622v-266h-903l-8 141q-49 -70 -141.5 -118t-229.5 -48q-154 0 -265.5 51.5t-184 144.5t-107.5 223t-35 286zM416 680q0 -100 14 -182 t50 -139.5t94.5 -88t146.5 -30.5t147.5 30.5t96 88t52 139.5t15.5 182v74q0 100 -15.5 182t-52 139.5t-96 88t-147.5 30.5t-146.5 -30.5t-94.5 -88t-50 -139.5t-14 -182v-74z" />
<glyph unicode="&#x153;" horiz-adv-x="1837" d="M88 483v52q0 242 122 378t368 136q131 0 224 -51.5t136 -131.5h4q45 78 134.5 130.5t228.5 52.5q123 0 206.5 -39t136 -102.5t75 -145.5t22.5 -168v-195h-655q10 -111 73.5 -162t200.5 -51q88 0 158.5 23.5t138.5 60.5l45 -190q-63 -43 -159.5 -75t-219.5 -32 q-135 0 -232.5 52.5t-144.5 138.5h-4q-43 -88 -135 -139.5t-219 -51.5q-252 0 -378 136.5t-126 373.5zM397 483q0 -131 43 -203.5t154 -72.5t155 70.5t44 205.5v56q0 133 -44 204.5t-155 71.5t-154 -71.5t-43 -204.5v-56zM1085 571h383v21q0 57 -7 103t-26.5 78t-53.5 49.5 t-87 17.5q-61 0 -101 -19.5t-63.5 -54.5t-34 -84t-10.5 -111z" />
<glyph unicode="&#x178;" horiz-adv-x="1363" d="M20 1434h345l198 -387q37 -72 64.5 -144t50.5 -141h6q45 143 117 285l196 387h346l-501 -912v-522h-320v522zM307 1692q0 66 39 103.5t115 37.5q74 0 114.5 -37.5t40.5 -103.5q0 -70 -40.5 -106.5t-114.5 -36.5q-154 0 -154 143zM746 1692q0 66 38.5 103.5t114.5 37.5 q74 0 115 -37.5t41 -103.5q0 -70 -41 -106.5t-115 -36.5q-154 0 -153 143z" />
<glyph unicode="&#x2c6;" horiz-adv-x="681" d="M-4 1147l262 317h164l262 -317h-195l-149 133l-147 -133h-197z" />
<glyph unicode="&#x2dc;" horiz-adv-x="681" d="M-14 1149q6 156 55 232.5t162 76.5q45 0 80.5 -19.5t66.5 -44t59.5 -44t59.5 -19.5t47 27.5t21 95.5h157q-4 -156 -53 -233.5t-162 -77.5q-43 0 -80 20.5t-68.5 44t-60 44t-57.5 20.5q-31 0 -48.5 -29t-21.5 -94h-157z" />
<glyph unicode="&#x2000;" horiz-adv-x="959" />
<glyph unicode="&#x2001;" horiz-adv-x="1919" />
<glyph unicode="&#x2002;" horiz-adv-x="959" />
<glyph unicode="&#x2003;" horiz-adv-x="1919" />
<glyph unicode="&#x2004;" horiz-adv-x="639" />
<glyph unicode="&#x2005;" horiz-adv-x="479" />
<glyph unicode="&#x2006;" horiz-adv-x="319" />
<glyph unicode="&#x2007;" horiz-adv-x="319" />
<glyph unicode="&#x2008;" horiz-adv-x="239" />
<glyph unicode="&#x2009;" horiz-adv-x="383" />
<glyph unicode="&#x200a;" horiz-adv-x="106" />
<glyph unicode="&#x2010;" horiz-adv-x="780" d="M53 553v246h674v-246h-674z" />
<glyph unicode="&#x2011;" horiz-adv-x="780" d="M53 553v246h674v-246h-674z" />
<glyph unicode="&#x2012;" horiz-adv-x="780" d="M53 553v246h674v-246h-674z" />
<glyph unicode="&#x2013;" horiz-adv-x="1187" d="M53 551v248h1082v-248h-1082z" />
<glyph unicode="&#x2014;" horiz-adv-x="1591" d="M51 551v248h1487v-248h-1487z" />
<glyph unicode="&#x2018;" horiz-adv-x="497" d="M82 1034l147 469l199 -41l-90 -487z" />
<glyph unicode="&#x2019;" horiz-adv-x="497" d="M68 1016l90 487l256 -59l-146 -469z" />
<glyph unicode="&#x201a;" horiz-adv-x="497" d="M68 -207l90 488l256 -58l-146 -469z" />
<glyph unicode="&#x201c;" horiz-adv-x="862" d="M80 1034l149 469l197 -41l-88 -487zM449 1034l147 469l199 -41l-90 -487z" />
<glyph unicode="&#x201d;" horiz-adv-x="862" d="M68 1016l90 487l256 -59l-148 -469zM434 1016l90 487l258 -59l-149 -469z" />
<glyph unicode="&#x201e;" horiz-adv-x="862" d="M68 -207l90 488l256 -58l-148 -469zM434 -207l92 488l256 -58l-149 -469z" />
<glyph unicode="&#x2022;" horiz-adv-x="641" d="M80 573q0 47 12 90.5t41 76t75 52t111 19.5q66 0 112 -19.5t75 -52t41 -75.5t12 -91q0 -47 -12 -89t-41 -75.5t-75 -53t-112 -19.5t-111.5 19.5t-74.5 53t-41 75.5t-12 89z" />
<glyph unicode="&#x2026;" horiz-adv-x="1597" d="M82 162q0 33 9 64.5t30.5 56t56.5 40t88 15.5q51 0 86 -15.5t56.5 -40t31 -56t9.5 -64.5q0 -70 -40.5 -124t-142.5 -54q-53 0 -88 15t-56.5 39.5t-30.5 56.5t-9 67zM616 162q0 33 9.5 64.5t30 56t55 40t88.5 15.5q51 0 86 -15.5t56.5 -40t30.5 -56t9 -64.5 q0 -70 -40 -124t-142 -54q-53 0 -88 15t-55.5 39.5t-30 56.5t-9.5 67zM1149 162q0 33 9 64.5t29.5 56t55.5 40t88 15.5q51 0 86 -15.5t56.5 -40t30.5 -56t9 -64.5q0 -70 -40 -124t-142 -54q-53 0 -88 15t-55.5 39.5t-29.5 56.5t-9 67z" />
<glyph unicode="&#x202f;" horiz-adv-x="383" />
<glyph unicode="&#x2039;" horiz-adv-x="692" d="M51 680l252 412h297l-256 -412l256 -410h-297z" />
<glyph unicode="&#x203a;" horiz-adv-x="692" d="M90 270l254 410l-254 412h299l250 -412l-250 -410h-299z" />
<glyph unicode="&#x205f;" horiz-adv-x="479" />
<glyph unicode="&#x20ac;" horiz-adv-x="1325" d="M80 498v161h151q-4 29 -4 56.5t4 56.5h-151v162h172q23 119 72 215t122.5 164.5t174 105.5t223.5 37q135 0 233.5 -43t159.5 -102l-68 -230q-53 51 -119.5 83t-152.5 32q-119 0 -200 -69.5t-115 -192.5h415v-162h-444q-4 -29 -4 -56.5t4 -56.5h375v-161h-346 q31 -113 111.5 -189t209.5 -76q78 0 147.5 32t129.5 87l63 -229q-59 -61 -159.5 -104.5t-235.5 -43.5q-125 0 -224.5 37t-175 104.5t-125 164t-71.5 217.5h-172z" />
<glyph unicode="&#x2122;" horiz-adv-x="1425" d="M29 1270v164h544v-164l-176 2v-402h-192v402zM672 870v564h188l150 -258l149 258h189v-564h-187v203v60.5t4 60.5q-10 -25 -26.5 -56.5t-32.5 -58.5l-59 -102h-74l-60 102q-16 27 -32.5 58.5t-26.5 56.5q4 -29 4 -60.5v-60.5v-203h-186z" />
<glyph unicode="&#x25fc;" horiz-adv-x="1024" d="M0 0v1024h1024v-1024h-1024z" />
<glyph unicode="&#xfb03;" horiz-adv-x="1945" d="M16 809v215h181v84q0 78 20.5 142.5t65.5 109.5t113.5 69.5t166.5 24.5q57 0 103.5 -7t93.5 -22l-10 -215q-31 8 -57.5 12.5t-57.5 4.5q-76 0 -105.5 -34t-29.5 -99v-70h362v43q0 84 22.5 155.5t76 123t140.5 80t216 28.5q92 0 169 -12t124 -29l-11 -211q-92 29 -204 29 q-133 0 -181.5 -47t-48.5 -125v-35h654v-1024h-303v809h-351v-809h-303v809h-360v-809h-305v809h-181z" />
<glyph unicode="&#xfb04;" horiz-adv-x="1968" d="M16 809v215h181v84q0 78 20.5 142.5t65.5 109.5t113.5 69.5t166.5 24.5q57 0 103.5 -7t93.5 -22l-10 -215q-31 8 -57.5 12.5t-57.5 4.5q-76 0 -105.5 -34t-29.5 -99v-70h362v41q0 88 24.5 159.5t84 123t159 79t250.5 27.5q129 0 255 -18.5t208 -40.5v-1395h-305v1221 q-63 14 -139 14q-135 0 -184.5 -50t-49.5 -130v-31h228v-215h-228v-809h-303v809h-360v-809h-305v809h-181z" />
</font>
</defs>
</svg>
